%TF.GenerationSoftware,KiCad,Pcbnew,9.0.3+1*%
%TF.CreationDate,2025-09-03T21:21:13+02:00*%
%TF.ProjectId,Micro-VX,4d696372-6f2d-4565-982e-6b696361645f,rev?*%
%TF.SameCoordinates,Original*%
%TF.FileFunction,Copper,L2,Inr*%
%TF.FilePolarity,Positive*%
%FSLAX46Y46*%
G04 Gerber Fmt 4.6, Leading zero omitted, Abs format (unit mm)*
G04 Created by KiCad (PCBNEW 9.0.3+1) date 2025-09-03 21:21:13*
%MOMM*%
%LPD*%
G01*
G04 APERTURE LIST*
G04 Aperture macros list*
%AMRoundRect*
0 Rectangle with rounded corners*
0 $1 Rounding radius*
0 $2 $3 $4 $5 $6 $7 $8 $9 X,Y pos of 4 corners*
0 Add a 4 corners polygon primitive as box body*
4,1,4,$2,$3,$4,$5,$6,$7,$8,$9,$2,$3,0*
0 Add four circle primitives for the rounded corners*
1,1,$1+$1,$2,$3*
1,1,$1+$1,$4,$5*
1,1,$1+$1,$6,$7*
1,1,$1+$1,$8,$9*
0 Add four rect primitives between the rounded corners*
20,1,$1+$1,$2,$3,$4,$5,0*
20,1,$1+$1,$4,$5,$6,$7,0*
20,1,$1+$1,$6,$7,$8,$9,0*
20,1,$1+$1,$8,$9,$2,$3,0*%
G04 Aperture macros list end*
%TA.AperFunction,ComponentPad*%
%ADD10R,1.700000X1.700000*%
%TD*%
%TA.AperFunction,ComponentPad*%
%ADD11C,1.700000*%
%TD*%
%TA.AperFunction,ComponentPad*%
%ADD12RoundRect,0.250001X0.949999X-0.949999X0.949999X0.949999X-0.949999X0.949999X-0.949999X-0.949999X0*%
%TD*%
%TA.AperFunction,ComponentPad*%
%ADD13C,2.400000*%
%TD*%
%TA.AperFunction,ViaPad*%
%ADD14C,0.700000*%
%TD*%
G04 APERTURE END LIST*
D10*
%TO.N,GND*%
%TO.C,J3*%
X46193198Y-34534676D03*
D11*
%TO.N,+3.3V*%
X48733198Y-34534676D03*
%TO.N,I2C1_SCL*%
X51273198Y-34534676D03*
%TO.N,I2C1_SDA*%
X53813198Y-34534676D03*
%TD*%
D10*
%TO.N,+3.3V*%
%TO.C,J2*%
X32743198Y-47284676D03*
D11*
%TO.N,SWDIO*%
X32743198Y-49824676D03*
%TO.N,SWCLK*%
X32743198Y-52364676D03*
%TO.N,GND*%
X32743198Y-54904676D03*
%TD*%
D12*
%TO.N,VDC*%
%TO.C,J4*%
X67667500Y-45250000D03*
D13*
%TO.N,GND*%
X67667500Y-41750000D03*
%TD*%
D14*
%TO.N,Net-(MIC1-+)*%
X50275000Y-60550000D03*
X50289977Y-61925000D03*
%TO.N,GND*%
X48875000Y-61925000D03*
%TO.N,+3.3V*%
X46075000Y-59500000D03*
X46273198Y-40924676D03*
X43833198Y-39184676D03*
X50528198Y-53972176D03*
X41573198Y-36264676D03*
X47773198Y-39824676D03*
X48938198Y-53982176D03*
X35323198Y-41344676D03*
X42903198Y-51334676D03*
X40483198Y-37904676D03*
X49743198Y-40524676D03*
X40893198Y-36264676D03*
X55933198Y-43884676D03*
X46943198Y-40894676D03*
%TO.N,LED*%
X48813198Y-45764676D03*
X41073198Y-46964676D03*
%TO.N,I2C1_SCL*%
X42818198Y-41809676D03*
X44238198Y-41809676D03*
X45588198Y-43084676D03*
X40657654Y-41334677D03*
%TO.N,USB_D-*%
X51363198Y-57299676D03*
X39626355Y-49408271D03*
X39628197Y-46565059D03*
X39703198Y-51334676D03*
X53713198Y-57299676D03*
X38664508Y-43391671D03*
%TO.N,ACC_Pin*%
X42113198Y-56194676D03*
X38638198Y-39404676D03*
X40053198Y-40144676D03*
X44193198Y-54984676D03*
%TO.N,USB_D+*%
X51363198Y-58249676D03*
X38987676Y-52160194D03*
X38345379Y-44277899D03*
X38728198Y-47404676D03*
X53713198Y-58249676D03*
X38778199Y-50254676D03*
%TO.N,GND*%
X65393198Y-51844676D03*
X64320000Y-36170000D03*
X48873198Y-41614676D03*
X43803198Y-46884676D03*
X49753198Y-43794676D03*
X66103198Y-51024676D03*
X46743198Y-55584676D03*
X43163198Y-36234676D03*
X41343198Y-50734676D03*
X42473198Y-36224676D03*
X45793198Y-46874676D03*
X35333198Y-36854676D03*
X48943198Y-55584676D03*
X61223198Y-55544676D03*
X66103198Y-51854676D03*
X53573198Y-48714676D03*
X44780698Y-46884676D03*
X39523198Y-37854676D03*
X55993198Y-51534676D03*
X48283198Y-40844676D03*
X52543198Y-53134676D03*
X65393198Y-51004676D03*
X45743198Y-51934676D03*
%TD*%
%TA.AperFunction,Conductor*%
%TO.N,GND*%
G36*
X68946472Y-32135350D02*
G01*
X68960953Y-32136117D01*
X69117970Y-32144440D01*
X69127174Y-32145274D01*
X69455752Y-32187515D01*
X69466171Y-32189311D01*
X69818808Y-32265740D01*
X69829631Y-32268603D01*
X70171161Y-32375744D01*
X70182359Y-32379861D01*
X70499772Y-32514260D01*
X70511235Y-32519826D01*
X70799799Y-32678800D01*
X70811285Y-32685973D01*
X70811551Y-32686160D01*
X71069795Y-32867739D01*
X71080937Y-32876569D01*
X71309799Y-33080368D01*
X71320184Y-33090784D01*
X71366020Y-33142565D01*
X71520258Y-33316808D01*
X71529470Y-33328574D01*
X71698175Y-33573133D01*
X71701514Y-33577973D01*
X71709234Y-33590746D01*
X71853468Y-33865484D01*
X71859483Y-33878792D01*
X71975998Y-34183166D01*
X71979346Y-34193167D01*
X72025629Y-34353812D01*
X72027338Y-34360424D01*
X72066665Y-34531910D01*
X72067974Y-34538407D01*
X72099144Y-34717862D01*
X72100076Y-34724191D01*
X72122941Y-34913213D01*
X72123528Y-34919348D01*
X72137563Y-35117605D01*
X72137840Y-35123509D01*
X72142665Y-35333241D01*
X72142698Y-35336093D01*
X72142698Y-57530652D01*
X72142441Y-57538636D01*
X72135663Y-57643685D01*
X72134331Y-57655491D01*
X72095872Y-57893373D01*
X72092889Y-57906944D01*
X72019823Y-58168508D01*
X72015141Y-58182150D01*
X71909858Y-58439173D01*
X71903359Y-58452656D01*
X71768047Y-58694813D01*
X71759704Y-58707779D01*
X71595494Y-58931124D01*
X71585431Y-58943139D01*
X71392249Y-59146206D01*
X71380763Y-59156846D01*
X71157451Y-59338910D01*
X71144980Y-59347852D01*
X70889357Y-59508172D01*
X70876408Y-59515256D01*
X70584022Y-59653284D01*
X70574349Y-59657360D01*
X70416942Y-59715959D01*
X70410562Y-59718138D01*
X70240100Y-59771243D01*
X70233850Y-59773012D01*
X70053812Y-59818909D01*
X70047738Y-59820296D01*
X69855748Y-59859088D01*
X69849875Y-59860128D01*
X69646863Y-59891072D01*
X69641215Y-59891801D01*
X69425629Y-59914594D01*
X69420221Y-59915046D01*
X69192129Y-59929105D01*
X69186972Y-59929315D01*
X68944436Y-59934151D01*
X68941964Y-59934176D01*
X55143405Y-59934176D01*
X54343378Y-59934176D01*
X54343358Y-59934159D01*
X54343174Y-59934176D01*
X54332028Y-59934176D01*
X54325080Y-59935843D01*
X54305788Y-59937622D01*
X54297199Y-59937356D01*
X54290449Y-59939026D01*
X54290429Y-59939014D01*
X54290266Y-59939054D01*
X54290097Y-59939070D01*
X54290069Y-59939103D01*
X54275648Y-59942690D01*
X54275535Y-59942718D01*
X54275534Y-59942717D01*
X54158889Y-59971732D01*
X54150570Y-59972900D01*
X54146190Y-59974883D01*
X54146153Y-59974870D01*
X54146004Y-59974937D01*
X54145850Y-59974976D01*
X54145823Y-59975020D01*
X54134706Y-59980084D01*
X54133943Y-59980430D01*
X53995367Y-60043561D01*
X53987554Y-60046193D01*
X53983671Y-60048888D01*
X53983623Y-60048881D01*
X53983491Y-60048972D01*
X53983344Y-60049040D01*
X53983325Y-60049088D01*
X53973205Y-60056154D01*
X53972674Y-60056524D01*
X53833405Y-60153784D01*
X53825916Y-60157876D01*
X53822133Y-60161643D01*
X53822103Y-60161643D01*
X53821986Y-60161759D01*
X53821854Y-60161852D01*
X53821845Y-60161900D01*
X53812976Y-60170762D01*
X53812340Y-60171396D01*
X53812339Y-60171398D01*
X53678865Y-60304776D01*
X53671086Y-60310962D01*
X53664956Y-60318190D01*
X53660143Y-60326872D01*
X53537913Y-60497422D01*
X53531508Y-60506361D01*
X53527813Y-60511517D01*
X53527782Y-60511526D01*
X53527691Y-60511687D01*
X53523651Y-60517327D01*
X53523648Y-60517332D01*
X53521879Y-60519800D01*
X53519011Y-60527221D01*
X53472737Y-60610039D01*
X53463421Y-60626714D01*
X53463401Y-60626722D01*
X53463321Y-60626891D01*
X53461203Y-60630683D01*
X53461203Y-60630684D01*
X53456430Y-60639231D01*
X53454717Y-60645208D01*
X53410596Y-60739134D01*
X53410597Y-60739135D01*
X53410089Y-60740217D01*
X53402539Y-60756291D01*
X53402523Y-60756299D01*
X53402456Y-60756469D01*
X53402372Y-60756649D01*
X53402375Y-60756658D01*
X53400742Y-60760140D01*
X53396422Y-60769396D01*
X53395187Y-60775050D01*
X53354338Y-60879489D01*
X53353577Y-60881436D01*
X53347198Y-60897747D01*
X53347182Y-60897756D01*
X53347121Y-60897944D01*
X53347054Y-60898117D01*
X53347058Y-60898128D01*
X53345807Y-60901334D01*
X53341832Y-60911598D01*
X53341004Y-60916980D01*
X53302877Y-61035663D01*
X53302341Y-61037333D01*
X53296807Y-61054561D01*
X53296793Y-61054570D01*
X53296745Y-61054753D01*
X53296686Y-61054939D01*
X53296692Y-61054951D01*
X53295731Y-61057949D01*
X53292201Y-61069075D01*
X53291718Y-61074201D01*
X53257597Y-61206217D01*
X53257598Y-61206218D01*
X53257404Y-61206970D01*
X53252674Y-61225272D01*
X53252662Y-61225281D01*
X53252624Y-61225464D01*
X53252575Y-61225658D01*
X53252583Y-61225671D01*
X53252579Y-61225692D01*
X53251915Y-61228268D01*
X53248344Y-61242407D01*
X53248231Y-61247248D01*
X53219126Y-61391562D01*
X53219127Y-61391563D01*
X53218755Y-61393409D01*
X53214906Y-61412496D01*
X53214894Y-61412505D01*
X53214864Y-61412702D01*
X53214827Y-61412888D01*
X53214831Y-61412894D01*
X53214268Y-61415693D01*
X53211646Y-61428877D01*
X53211732Y-61433586D01*
X53187409Y-61595790D01*
X53187410Y-61595791D01*
X53186800Y-61599857D01*
X53184421Y-61615729D01*
X53184411Y-61615738D01*
X53184391Y-61615931D01*
X53184362Y-61616126D01*
X53184363Y-61616127D01*
X53183984Y-61618661D01*
X53181652Y-61634340D01*
X53182026Y-61638968D01*
X53163792Y-61816631D01*
X53163793Y-61816632D01*
X53161725Y-61836782D01*
X53161717Y-61836790D01*
X53161705Y-61836976D01*
X53161685Y-61837181D01*
X53161693Y-61837191D01*
X53161459Y-61839483D01*
X53159948Y-61854972D01*
X53160407Y-61858947D01*
X53148744Y-62056365D01*
X53148745Y-62056366D01*
X53148223Y-62065200D01*
X53147586Y-62075999D01*
X53147578Y-62076008D01*
X53147574Y-62076212D01*
X53147563Y-62076401D01*
X53147436Y-62078558D01*
X53147436Y-62078578D01*
X53146523Y-62094257D01*
X53147157Y-62098291D01*
X53143650Y-62284178D01*
X53143648Y-62284292D01*
X53142674Y-62333524D01*
X53142621Y-62333689D01*
X53142488Y-62338281D01*
X53125876Y-62623489D01*
X53125182Y-62631225D01*
X53117615Y-62693546D01*
X53116635Y-62700133D01*
X53072987Y-62947671D01*
X53071267Y-62955815D01*
X53056649Y-63015119D01*
X53055044Y-63021006D01*
X52982356Y-63263800D01*
X52979507Y-63272207D01*
X52958908Y-63326522D01*
X52956825Y-63331664D01*
X52855158Y-63567357D01*
X52851096Y-63575870D01*
X52826143Y-63623414D01*
X52823733Y-63627788D01*
X52693050Y-63854139D01*
X52687712Y-63862580D01*
X52660838Y-63901513D01*
X52658252Y-63905120D01*
X52498238Y-64120055D01*
X52491590Y-64128234D01*
X52466118Y-64156986D01*
X52463497Y-64159853D01*
X52273367Y-64361378D01*
X52265403Y-64369097D01*
X52246152Y-64386153D01*
X52243628Y-64388330D01*
X52021536Y-64574687D01*
X52012276Y-64581743D01*
X52006360Y-64585827D01*
X52004053Y-64587381D01*
X51748982Y-64755145D01*
X51736503Y-64762350D01*
X51513790Y-64874201D01*
X51458482Y-64901978D01*
X51445242Y-64907689D01*
X51152891Y-65014097D01*
X51139076Y-65018233D01*
X50836354Y-65089979D01*
X50822154Y-65092483D01*
X50513143Y-65128602D01*
X50498747Y-65129440D01*
X50187649Y-65129440D01*
X50173253Y-65128602D01*
X49864241Y-65092483D01*
X49850041Y-65089979D01*
X49547319Y-65018233D01*
X49533504Y-65014097D01*
X49241153Y-64907689D01*
X49227917Y-64901980D01*
X48949885Y-64762346D01*
X48937413Y-64755145D01*
X48682341Y-64587381D01*
X48680034Y-64585827D01*
X48674118Y-64581743D01*
X48664869Y-64574695D01*
X48442730Y-64388299D01*
X48440267Y-64386174D01*
X48429363Y-64376515D01*
X48420991Y-64369097D01*
X48413027Y-64361378D01*
X48222897Y-64159853D01*
X48220276Y-64156986D01*
X48194804Y-64128234D01*
X48188156Y-64120055D01*
X48028113Y-63905080D01*
X48025578Y-63901544D01*
X47998668Y-63862559D01*
X47993361Y-63854167D01*
X47862655Y-63627778D01*
X47860268Y-63623445D01*
X47835288Y-63575850D01*
X47831236Y-63567357D01*
X47729569Y-63331664D01*
X47727496Y-63326547D01*
X47706882Y-63272192D01*
X47704038Y-63263800D01*
X47631350Y-63021006D01*
X47629745Y-63015119D01*
X47615127Y-62955815D01*
X47613414Y-62947706D01*
X47569751Y-62700083D01*
X47568786Y-62693596D01*
X47561208Y-62631185D01*
X47560521Y-62623526D01*
X47543908Y-62338280D01*
X47543727Y-62333743D01*
X47542664Y-62284423D01*
X47542671Y-62284393D01*
X47542661Y-62284307D01*
X47539317Y-62121808D01*
X47540109Y-62117179D01*
X47539016Y-62100697D01*
X47539002Y-62100488D01*
X47538820Y-62097683D01*
X47538818Y-62097544D01*
X47538811Y-62097537D01*
X47537931Y-62083939D01*
X47537448Y-62076432D01*
X47537449Y-62076428D01*
X47537447Y-62076419D01*
X47526206Y-61901987D01*
X47526839Y-61896826D01*
X47525100Y-61881966D01*
X47525038Y-61881426D01*
X47522342Y-61857486D01*
X47522347Y-61857455D01*
X47522333Y-61857409D01*
X47504470Y-61697855D01*
X47504799Y-61692751D01*
X47502533Y-61679010D01*
X47502511Y-61678879D01*
X47501989Y-61675695D01*
X47501975Y-61675565D01*
X47501966Y-61675558D01*
X47499482Y-61660393D01*
X47498620Y-61655124D01*
X47498621Y-61655117D01*
X47498617Y-61655106D01*
X47475133Y-61511563D01*
X47475218Y-61505973D01*
X47472348Y-61493157D01*
X47472262Y-61492773D01*
X47467172Y-61469704D01*
X47467173Y-61469678D01*
X47467158Y-61469639D01*
X47456172Y-61419723D01*
X47438627Y-61340003D01*
X47438422Y-61334125D01*
X47434799Y-61321445D01*
X47434702Y-61321106D01*
X47433650Y-61317386D01*
X47433646Y-61317365D01*
X47433644Y-61317363D01*
X47427747Y-61296501D01*
X47427747Y-61296476D01*
X47427730Y-61296441D01*
X47411320Y-61238274D01*
X47395492Y-61182170D01*
X47394886Y-61176126D01*
X47390907Y-61164896D01*
X47390801Y-61164594D01*
X47389446Y-61160738D01*
X47389434Y-61160695D01*
X47389430Y-61160692D01*
X47382844Y-61141951D01*
X47382842Y-61141928D01*
X47382825Y-61141895D01*
X47346297Y-61037781D01*
X47345271Y-61031448D01*
X47340711Y-61020886D01*
X47340563Y-61020540D01*
X47331060Y-60998347D01*
X47331056Y-60998319D01*
X47331027Y-60998272D01*
X47290648Y-60903797D01*
X47288659Y-60896210D01*
X47286464Y-60892277D01*
X47286464Y-60892276D01*
X47283398Y-60886797D01*
X47283401Y-60886790D01*
X47283310Y-60886627D01*
X47283241Y-60886466D01*
X47283213Y-60886454D01*
X47164636Y-60674650D01*
X47161302Y-60666476D01*
X47157001Y-60661012D01*
X47156934Y-60660892D01*
X47156897Y-60660881D01*
X47149308Y-60651239D01*
X47148147Y-60649763D01*
X47148143Y-60649754D01*
X47148125Y-60649736D01*
X47120069Y-60614071D01*
X49624499Y-60614071D01*
X49649497Y-60739738D01*
X49649499Y-60739744D01*
X49698533Y-60858124D01*
X49698538Y-60858133D01*
X49769723Y-60964668D01*
X49769726Y-60964672D01*
X49860327Y-61055273D01*
X49860331Y-61055276D01*
X49966866Y-61126461D01*
X49966870Y-61126463D01*
X49966873Y-61126465D01*
X49967158Y-61126583D01*
X49967283Y-61126684D01*
X49972243Y-61129335D01*
X49971740Y-61130275D01*
X50021563Y-61170421D01*
X50043631Y-61236715D01*
X50026355Y-61304415D01*
X49985691Y-61343318D01*
X49986915Y-61345150D01*
X49875308Y-61419723D01*
X49875304Y-61419726D01*
X49784703Y-61510327D01*
X49784700Y-61510331D01*
X49713515Y-61616866D01*
X49713510Y-61616875D01*
X49664476Y-61735255D01*
X49664474Y-61735261D01*
X49639477Y-61860928D01*
X49639477Y-61860931D01*
X49639477Y-61989069D01*
X49639477Y-61989071D01*
X49639476Y-61989071D01*
X49664474Y-62114738D01*
X49664476Y-62114744D01*
X49713510Y-62233124D01*
X49713515Y-62233133D01*
X49784700Y-62339668D01*
X49784703Y-62339672D01*
X49875304Y-62430273D01*
X49875308Y-62430276D01*
X49981843Y-62501461D01*
X49981849Y-62501464D01*
X49981850Y-62501465D01*
X50100233Y-62550501D01*
X50100237Y-62550501D01*
X50100238Y-62550502D01*
X50225905Y-62575500D01*
X50225908Y-62575500D01*
X50354048Y-62575500D01*
X50438592Y-62558682D01*
X50479721Y-62550501D01*
X50598104Y-62501465D01*
X50704646Y-62430276D01*
X50795253Y-62339669D01*
X50866442Y-62233127D01*
X50915478Y-62114744D01*
X50923659Y-62073615D01*
X50940477Y-61989071D01*
X50940477Y-61860928D01*
X50915479Y-61735261D01*
X50915478Y-61735260D01*
X50915478Y-61735256D01*
X50866442Y-61616873D01*
X50866441Y-61616872D01*
X50866438Y-61616866D01*
X50795253Y-61510331D01*
X50795250Y-61510327D01*
X50704649Y-61419726D01*
X50704645Y-61419723D01*
X50598110Y-61348538D01*
X50598096Y-61348530D01*
X50597809Y-61348412D01*
X50597681Y-61348309D01*
X50592734Y-61345665D01*
X50593235Y-61344726D01*
X50543407Y-61304569D01*
X50521345Y-61238274D01*
X50538627Y-61170575D01*
X50579295Y-61131696D01*
X50578062Y-61129850D01*
X50634329Y-61092252D01*
X50689669Y-61055276D01*
X50780276Y-60964669D01*
X50851465Y-60858127D01*
X50900501Y-60739744D01*
X50922195Y-60630683D01*
X50925500Y-60614071D01*
X50925500Y-60485928D01*
X50900502Y-60360261D01*
X50900501Y-60360260D01*
X50900501Y-60360256D01*
X50851465Y-60241873D01*
X50851464Y-60241872D01*
X50851461Y-60241866D01*
X50780276Y-60135331D01*
X50780273Y-60135327D01*
X50689672Y-60044726D01*
X50689668Y-60044723D01*
X50583133Y-59973538D01*
X50583124Y-59973533D01*
X50464744Y-59924499D01*
X50464738Y-59924497D01*
X50339071Y-59899500D01*
X50339069Y-59899500D01*
X50210931Y-59899500D01*
X50210929Y-59899500D01*
X50085261Y-59924497D01*
X50085255Y-59924499D01*
X49966875Y-59973533D01*
X49966866Y-59973538D01*
X49860331Y-60044723D01*
X49860327Y-60044726D01*
X49769726Y-60135327D01*
X49769723Y-60135331D01*
X49698538Y-60241866D01*
X49698533Y-60241875D01*
X49649499Y-60360255D01*
X49649497Y-60360261D01*
X49624500Y-60485928D01*
X49624500Y-60485931D01*
X49624500Y-60614069D01*
X49624500Y-60614071D01*
X49624499Y-60614071D01*
X47120069Y-60614071D01*
X47074787Y-60556509D01*
X47074786Y-60556508D01*
X47022908Y-60490562D01*
X47017207Y-60481326D01*
X47012439Y-60476212D01*
X47003620Y-60469841D01*
X46867681Y-60346758D01*
X46867621Y-60346703D01*
X46857621Y-60337637D01*
X46857614Y-60337605D01*
X46857522Y-60337547D01*
X46853747Y-60334125D01*
X46846106Y-60330394D01*
X46703481Y-60241041D01*
X46702814Y-60240624D01*
X46691713Y-60233670D01*
X46691694Y-60233625D01*
X46691546Y-60233565D01*
X46691406Y-60233478D01*
X46691376Y-60233484D01*
X46687233Y-60230898D01*
X46679190Y-60228616D01*
X46558878Y-60180429D01*
X46503968Y-60137233D01*
X46481126Y-60071202D01*
X46497608Y-60003305D01*
X46517301Y-59977643D01*
X46580276Y-59914669D01*
X46651465Y-59808127D01*
X46700501Y-59689744D01*
X46725500Y-59564069D01*
X46725500Y-59435931D01*
X46725500Y-59435928D01*
X46700502Y-59310261D01*
X46700501Y-59310260D01*
X46700501Y-59310256D01*
X46651465Y-59191873D01*
X46651464Y-59191872D01*
X46651461Y-59191866D01*
X46580276Y-59085331D01*
X46580273Y-59085327D01*
X46489672Y-58994726D01*
X46489668Y-58994723D01*
X46383133Y-58923538D01*
X46383124Y-58923533D01*
X46264744Y-58874499D01*
X46264738Y-58874497D01*
X46139071Y-58849500D01*
X46139069Y-58849500D01*
X46010931Y-58849500D01*
X46010929Y-58849500D01*
X45885261Y-58874497D01*
X45885255Y-58874499D01*
X45766875Y-58923533D01*
X45766866Y-58923538D01*
X45660331Y-58994723D01*
X45660327Y-58994726D01*
X45569726Y-59085327D01*
X45569723Y-59085331D01*
X45498538Y-59191866D01*
X45498533Y-59191875D01*
X45449499Y-59310255D01*
X45449497Y-59310261D01*
X45424500Y-59435928D01*
X45424500Y-59435931D01*
X45424500Y-59564069D01*
X45424500Y-59564071D01*
X45424499Y-59564071D01*
X45449497Y-59689738D01*
X45449499Y-59689744D01*
X45498533Y-59808124D01*
X45498538Y-59808133D01*
X45569723Y-59914668D01*
X45569726Y-59914672D01*
X45577549Y-59922495D01*
X45611034Y-59983818D01*
X45606050Y-60053510D01*
X45564178Y-60109443D01*
X45498714Y-60133860D01*
X45489868Y-60134176D01*
X33144759Y-60134176D01*
X33141709Y-60134138D01*
X32946406Y-60129333D01*
X32940077Y-60129016D01*
X32756337Y-60115078D01*
X32749747Y-60114400D01*
X32575328Y-60091749D01*
X32568524Y-60090673D01*
X32403582Y-60059857D01*
X32396599Y-60058343D01*
X32239492Y-60019507D01*
X32232395Y-60017527D01*
X32086170Y-59972012D01*
X32075473Y-59968136D01*
X31799068Y-59853370D01*
X31784961Y-59846433D01*
X31657047Y-59773125D01*
X31537497Y-59704610D01*
X31524185Y-59695796D01*
X31301212Y-59526510D01*
X31289200Y-59516112D01*
X31114845Y-59344455D01*
X31088847Y-59318859D01*
X31078526Y-59307344D01*
X30899971Y-59081209D01*
X30891516Y-59069078D01*
X30735023Y-58813285D01*
X30728430Y-58801007D01*
X30595441Y-58516007D01*
X30590563Y-58503938D01*
X30570806Y-58446552D01*
X30483571Y-58193164D01*
X30480195Y-58181541D01*
X30402614Y-57855614D01*
X30400492Y-57844444D01*
X30400367Y-57843567D01*
X30356032Y-57533327D01*
X30355013Y-57523274D01*
X30345443Y-57363747D01*
X50712697Y-57363747D01*
X50737695Y-57489414D01*
X50737697Y-57489420D01*
X50786731Y-57607800D01*
X50786736Y-57607809D01*
X50852202Y-57705785D01*
X50873080Y-57772463D01*
X50854595Y-57839843D01*
X50852202Y-57843567D01*
X50786736Y-57941542D01*
X50786731Y-57941551D01*
X50737697Y-58059931D01*
X50737695Y-58059937D01*
X50712698Y-58185604D01*
X50712698Y-58185607D01*
X50712698Y-58313745D01*
X50712698Y-58313747D01*
X50712697Y-58313747D01*
X50737695Y-58439414D01*
X50737697Y-58439420D01*
X50786731Y-58557800D01*
X50786736Y-58557809D01*
X50857921Y-58664344D01*
X50857924Y-58664348D01*
X50948525Y-58754949D01*
X50948529Y-58754952D01*
X51055064Y-58826137D01*
X51055070Y-58826140D01*
X51055071Y-58826141D01*
X51173454Y-58875177D01*
X51173458Y-58875177D01*
X51173459Y-58875178D01*
X51299126Y-58900176D01*
X51299129Y-58900176D01*
X51427269Y-58900176D01*
X51511813Y-58883358D01*
X51552942Y-58875177D01*
X51671325Y-58826141D01*
X51777867Y-58754952D01*
X51868474Y-58664345D01*
X51939663Y-58557803D01*
X51988699Y-58439420D01*
X52013698Y-58313745D01*
X52013698Y-58185607D01*
X52013698Y-58185604D01*
X51988700Y-58059937D01*
X51988699Y-58059936D01*
X51988699Y-58059932D01*
X51939663Y-57941549D01*
X51874191Y-57843564D01*
X51853315Y-57776890D01*
X51871799Y-57709510D01*
X51874161Y-57705833D01*
X51939663Y-57607803D01*
X51988699Y-57489420D01*
X52013698Y-57363747D01*
X53062697Y-57363747D01*
X53087695Y-57489414D01*
X53087697Y-57489420D01*
X53136731Y-57607800D01*
X53136736Y-57607809D01*
X53202202Y-57705785D01*
X53223080Y-57772463D01*
X53204595Y-57839843D01*
X53202202Y-57843567D01*
X53136736Y-57941542D01*
X53136731Y-57941551D01*
X53087697Y-58059931D01*
X53087695Y-58059937D01*
X53062698Y-58185604D01*
X53062698Y-58185607D01*
X53062698Y-58313745D01*
X53062698Y-58313747D01*
X53062697Y-58313747D01*
X53087695Y-58439414D01*
X53087697Y-58439420D01*
X53136731Y-58557800D01*
X53136736Y-58557809D01*
X53207921Y-58664344D01*
X53207924Y-58664348D01*
X53298525Y-58754949D01*
X53298529Y-58754952D01*
X53405064Y-58826137D01*
X53405070Y-58826140D01*
X53405071Y-58826141D01*
X53523454Y-58875177D01*
X53523458Y-58875177D01*
X53523459Y-58875178D01*
X53649126Y-58900176D01*
X53649129Y-58900176D01*
X53777269Y-58900176D01*
X53861813Y-58883358D01*
X53902942Y-58875177D01*
X54021325Y-58826141D01*
X54127867Y-58754952D01*
X54218474Y-58664345D01*
X54289663Y-58557803D01*
X54338699Y-58439420D01*
X54363698Y-58313745D01*
X54363698Y-58185607D01*
X54363698Y-58185604D01*
X54338700Y-58059937D01*
X54338699Y-58059936D01*
X54338699Y-58059932D01*
X54289663Y-57941549D01*
X54224191Y-57843564D01*
X54203315Y-57776890D01*
X54221799Y-57709510D01*
X54224161Y-57705833D01*
X54289663Y-57607803D01*
X54338699Y-57489420D01*
X54363698Y-57363745D01*
X54363698Y-57235607D01*
X54363698Y-57235604D01*
X54338700Y-57109937D01*
X54338699Y-57109936D01*
X54338699Y-57109932D01*
X54289663Y-56991549D01*
X54289662Y-56991548D01*
X54289659Y-56991542D01*
X54218474Y-56885007D01*
X54218471Y-56885003D01*
X54127870Y-56794402D01*
X54127866Y-56794399D01*
X54021331Y-56723214D01*
X54021322Y-56723209D01*
X53902942Y-56674175D01*
X53902936Y-56674173D01*
X53777269Y-56649176D01*
X53777267Y-56649176D01*
X53649129Y-56649176D01*
X53649127Y-56649176D01*
X53523459Y-56674173D01*
X53523453Y-56674175D01*
X53405073Y-56723209D01*
X53405064Y-56723214D01*
X53298529Y-56794399D01*
X53298525Y-56794402D01*
X53207924Y-56885003D01*
X53207921Y-56885007D01*
X53136736Y-56991542D01*
X53136731Y-56991551D01*
X53087697Y-57109931D01*
X53087695Y-57109937D01*
X53062698Y-57235604D01*
X53062698Y-57235607D01*
X53062698Y-57363745D01*
X53062698Y-57363747D01*
X53062697Y-57363747D01*
X52013698Y-57363747D01*
X52013698Y-57363745D01*
X52013698Y-57235607D01*
X52013698Y-57235604D01*
X51988700Y-57109937D01*
X51988699Y-57109936D01*
X51988699Y-57109932D01*
X51939663Y-56991549D01*
X51939662Y-56991548D01*
X51939659Y-56991542D01*
X51868474Y-56885007D01*
X51868471Y-56885003D01*
X51777870Y-56794402D01*
X51777866Y-56794399D01*
X51671331Y-56723214D01*
X51671322Y-56723209D01*
X51552942Y-56674175D01*
X51552936Y-56674173D01*
X51427269Y-56649176D01*
X51427267Y-56649176D01*
X51299129Y-56649176D01*
X51299127Y-56649176D01*
X51173459Y-56674173D01*
X51173453Y-56674175D01*
X51055073Y-56723209D01*
X51055064Y-56723214D01*
X50948529Y-56794399D01*
X50948525Y-56794402D01*
X50857924Y-56885003D01*
X50857921Y-56885007D01*
X50786736Y-56991542D01*
X50786731Y-56991551D01*
X50737697Y-57109931D01*
X50737695Y-57109937D01*
X50712698Y-57235604D01*
X50712698Y-57235607D01*
X50712698Y-57363745D01*
X50712698Y-57363747D01*
X50712697Y-57363747D01*
X30345443Y-57363747D01*
X30343919Y-57338340D01*
X30343698Y-57330946D01*
X30343698Y-56258747D01*
X41462697Y-56258747D01*
X41487695Y-56384414D01*
X41487697Y-56384420D01*
X41536731Y-56502800D01*
X41536736Y-56502809D01*
X41607921Y-56609344D01*
X41607924Y-56609348D01*
X41698525Y-56699949D01*
X41698529Y-56699952D01*
X41805064Y-56771137D01*
X41805070Y-56771140D01*
X41805071Y-56771141D01*
X41923454Y-56820177D01*
X41923458Y-56820177D01*
X41923459Y-56820178D01*
X42049126Y-56845176D01*
X42049129Y-56845176D01*
X42177269Y-56845176D01*
X42261813Y-56828358D01*
X42302942Y-56820177D01*
X42421325Y-56771141D01*
X42527867Y-56699952D01*
X42618474Y-56609345D01*
X42689663Y-56502803D01*
X42738699Y-56384420D01*
X42763698Y-56258745D01*
X42763698Y-56130607D01*
X42763698Y-56130604D01*
X42738700Y-56004937D01*
X42738699Y-56004936D01*
X42738699Y-56004932D01*
X42689663Y-55886549D01*
X42689662Y-55886548D01*
X42689659Y-55886542D01*
X42618474Y-55780007D01*
X42618471Y-55780003D01*
X42527870Y-55689402D01*
X42527866Y-55689399D01*
X42421331Y-55618214D01*
X42421322Y-55618209D01*
X42302942Y-55569175D01*
X42302936Y-55569173D01*
X42177269Y-55544176D01*
X42177267Y-55544176D01*
X42049129Y-55544176D01*
X42049127Y-55544176D01*
X41923459Y-55569173D01*
X41923453Y-55569175D01*
X41805073Y-55618209D01*
X41805064Y-55618214D01*
X41698529Y-55689399D01*
X41698525Y-55689402D01*
X41607924Y-55780003D01*
X41607921Y-55780007D01*
X41536736Y-55886542D01*
X41536731Y-55886551D01*
X41487697Y-56004931D01*
X41487695Y-56004937D01*
X41462698Y-56130604D01*
X41462698Y-56130607D01*
X41462698Y-56258745D01*
X41462698Y-56258747D01*
X41462697Y-56258747D01*
X30343698Y-56258747D01*
X30343698Y-56087402D01*
X32090800Y-56087402D01*
X32224977Y-56155770D01*
X32224980Y-56155771D01*
X32427069Y-56221433D01*
X32636952Y-56254676D01*
X32849444Y-56254676D01*
X33059325Y-56221433D01*
X33059328Y-56221433D01*
X33261415Y-56155771D01*
X33395595Y-56087402D01*
X32743199Y-55435006D01*
X32743198Y-55435006D01*
X32090800Y-56087402D01*
X30343698Y-56087402D01*
X30343698Y-54798429D01*
X31393198Y-54798429D01*
X31393198Y-55010922D01*
X31426440Y-55220803D01*
X31426440Y-55220806D01*
X31492102Y-55422893D01*
X31492104Y-55422896D01*
X31560470Y-55557073D01*
X32212868Y-54904676D01*
X32147042Y-54838850D01*
X32243198Y-54838850D01*
X32243198Y-54970502D01*
X32277273Y-55097669D01*
X32343099Y-55211683D01*
X32436191Y-55304775D01*
X32550205Y-55370601D01*
X32677372Y-55404676D01*
X32809024Y-55404676D01*
X32936191Y-55370601D01*
X33050205Y-55304775D01*
X33143297Y-55211683D01*
X33209123Y-55097669D01*
X33243198Y-54970502D01*
X33243198Y-54904675D01*
X33273528Y-54904675D01*
X33273528Y-54904676D01*
X33925924Y-55557072D01*
X33994293Y-55422893D01*
X34059955Y-55220806D01*
X34059955Y-55220803D01*
X34087207Y-55048747D01*
X43542697Y-55048747D01*
X43567695Y-55174414D01*
X43567697Y-55174420D01*
X43616731Y-55292800D01*
X43616736Y-55292809D01*
X43687921Y-55399344D01*
X43687924Y-55399348D01*
X43778525Y-55489949D01*
X43778529Y-55489952D01*
X43885064Y-55561137D01*
X43885070Y-55561140D01*
X43885071Y-55561141D01*
X44003454Y-55610177D01*
X44003458Y-55610177D01*
X44003459Y-55610178D01*
X44129126Y-55635176D01*
X44129129Y-55635176D01*
X44257269Y-55635176D01*
X44342564Y-55618209D01*
X44382942Y-55610177D01*
X44501325Y-55561141D01*
X44607867Y-55489952D01*
X44698474Y-55399345D01*
X44769663Y-55292803D01*
X44818699Y-55174420D01*
X44843698Y-55048745D01*
X44843698Y-54920607D01*
X44843698Y-54920604D01*
X44818700Y-54794937D01*
X44818699Y-54794936D01*
X44818699Y-54794932D01*
X44769663Y-54676549D01*
X44769662Y-54676548D01*
X44769659Y-54676542D01*
X44698474Y-54570007D01*
X44698471Y-54570003D01*
X44607870Y-54479402D01*
X44607866Y-54479399D01*
X44501331Y-54408214D01*
X44501322Y-54408209D01*
X44382942Y-54359175D01*
X44382936Y-54359173D01*
X44257269Y-54334176D01*
X44257267Y-54334176D01*
X44129129Y-54334176D01*
X44129127Y-54334176D01*
X44003459Y-54359173D01*
X44003453Y-54359175D01*
X43885073Y-54408209D01*
X43885064Y-54408214D01*
X43778529Y-54479399D01*
X43778525Y-54479402D01*
X43687924Y-54570003D01*
X43687921Y-54570007D01*
X43616736Y-54676542D01*
X43616731Y-54676551D01*
X43567697Y-54794931D01*
X43567695Y-54794937D01*
X43542698Y-54920604D01*
X43542698Y-54920607D01*
X43542698Y-55048745D01*
X43542698Y-55048747D01*
X43542697Y-55048747D01*
X34087207Y-55048747D01*
X34093198Y-55010922D01*
X34093198Y-54798429D01*
X34059955Y-54588548D01*
X34059955Y-54588545D01*
X33994293Y-54386458D01*
X33994292Y-54386455D01*
X33925924Y-54252278D01*
X33273528Y-54904675D01*
X33243198Y-54904675D01*
X33243198Y-54838850D01*
X33209123Y-54711683D01*
X33143297Y-54597669D01*
X33050205Y-54504577D01*
X32936191Y-54438751D01*
X32809024Y-54404676D01*
X32677372Y-54404676D01*
X32550205Y-54438751D01*
X32436191Y-54504577D01*
X32343099Y-54597669D01*
X32277273Y-54711683D01*
X32243198Y-54838850D01*
X32147042Y-54838850D01*
X31560469Y-54252277D01*
X31492103Y-54386456D01*
X31492103Y-54386457D01*
X31426440Y-54588545D01*
X31426440Y-54588548D01*
X31393198Y-54798429D01*
X30343698Y-54798429D01*
X30343698Y-46389807D01*
X31592698Y-46389807D01*
X31592698Y-48179532D01*
X31592700Y-48179558D01*
X31595611Y-48204663D01*
X31595613Y-48204667D01*
X31640991Y-48307440D01*
X31640992Y-48307441D01*
X31720433Y-48386882D01*
X31823207Y-48432261D01*
X31848333Y-48435176D01*
X32586071Y-48435175D01*
X32653108Y-48454859D01*
X32698863Y-48507663D01*
X32708807Y-48576822D01*
X32679782Y-48640378D01*
X32621004Y-48678152D01*
X32605468Y-48681648D01*
X32473787Y-48702505D01*
X32301561Y-48758463D01*
X32301558Y-48758464D01*
X32140200Y-48840682D01*
X31993703Y-48947117D01*
X31993698Y-48947121D01*
X31865643Y-49075176D01*
X31865639Y-49075181D01*
X31759204Y-49221678D01*
X31676986Y-49383036D01*
X31676985Y-49383039D01*
X31621027Y-49555265D01*
X31592698Y-49734124D01*
X31592698Y-49915227D01*
X31621027Y-50094086D01*
X31676985Y-50266312D01*
X31676986Y-50266315D01*
X31759204Y-50427673D01*
X31865639Y-50574170D01*
X31865643Y-50574175D01*
X31993698Y-50702230D01*
X31993703Y-50702234D01*
X32070747Y-50758209D01*
X32140204Y-50808672D01*
X32245682Y-50862416D01*
X32301558Y-50890887D01*
X32301561Y-50890888D01*
X32387674Y-50918867D01*
X32473789Y-50946847D01*
X32546837Y-50958416D01*
X32633876Y-50972203D01*
X32697011Y-51002132D01*
X32733942Y-51061444D01*
X32732944Y-51131307D01*
X32694334Y-51189539D01*
X32633876Y-51217149D01*
X32473787Y-51242505D01*
X32301561Y-51298463D01*
X32301558Y-51298464D01*
X32140200Y-51380682D01*
X31993703Y-51487117D01*
X31993698Y-51487121D01*
X31865643Y-51615176D01*
X31865639Y-51615181D01*
X31759204Y-51761678D01*
X31676986Y-51923036D01*
X31676985Y-51923039D01*
X31621027Y-52095265D01*
X31592698Y-52274124D01*
X31592698Y-52455227D01*
X31621027Y-52634086D01*
X31676985Y-52806312D01*
X31676986Y-52806315D01*
X31759204Y-52967673D01*
X31865639Y-53114170D01*
X31865643Y-53114175D01*
X31993698Y-53242230D01*
X31993703Y-53242234D01*
X32103047Y-53321676D01*
X32140204Y-53348672D01*
X32232529Y-53395714D01*
X32271883Y-53415766D01*
X32322679Y-53463741D01*
X32339474Y-53531562D01*
X32316936Y-53597697D01*
X32262221Y-53641148D01*
X32253907Y-53644182D01*
X32224977Y-53653582D01*
X32090799Y-53721947D01*
X32743198Y-54374346D01*
X32743199Y-54374346D01*
X33071297Y-54046247D01*
X48287697Y-54046247D01*
X48312695Y-54171914D01*
X48312697Y-54171920D01*
X48361731Y-54290300D01*
X48361736Y-54290309D01*
X48432921Y-54396844D01*
X48432924Y-54396848D01*
X48523525Y-54487449D01*
X48523529Y-54487452D01*
X48630064Y-54558637D01*
X48630070Y-54558640D01*
X48630071Y-54558641D01*
X48748454Y-54607677D01*
X48748458Y-54607677D01*
X48748459Y-54607678D01*
X48874126Y-54632676D01*
X48874129Y-54632676D01*
X49002269Y-54632676D01*
X49086813Y-54615858D01*
X49127942Y-54607677D01*
X49246325Y-54558641D01*
X49352867Y-54487452D01*
X49443474Y-54396845D01*
X49514663Y-54290303D01*
X49563699Y-54171920D01*
X49588698Y-54046245D01*
X49588698Y-54036247D01*
X49877697Y-54036247D01*
X49902695Y-54161914D01*
X49902697Y-54161920D01*
X49951731Y-54280300D01*
X49951736Y-54280309D01*
X50022921Y-54386844D01*
X50022924Y-54386848D01*
X50113525Y-54477449D01*
X50113529Y-54477452D01*
X50220064Y-54548637D01*
X50220070Y-54548640D01*
X50220071Y-54548641D01*
X50338454Y-54597677D01*
X50338458Y-54597677D01*
X50338459Y-54597678D01*
X50464126Y-54622676D01*
X50464129Y-54622676D01*
X50592269Y-54622676D01*
X50676813Y-54605858D01*
X50717942Y-54597677D01*
X50836325Y-54548641D01*
X50942867Y-54477452D01*
X51033474Y-54386845D01*
X51104663Y-54280303D01*
X51153699Y-54161920D01*
X51161880Y-54120791D01*
X51178698Y-54036247D01*
X51178698Y-53908104D01*
X51153700Y-53782437D01*
X51153699Y-53782436D01*
X51153699Y-53782432D01*
X51104663Y-53664049D01*
X51104662Y-53664048D01*
X51104659Y-53664042D01*
X51033474Y-53557507D01*
X51033471Y-53557503D01*
X50942870Y-53466902D01*
X50942866Y-53466899D01*
X50836331Y-53395714D01*
X50836322Y-53395709D01*
X50717942Y-53346675D01*
X50717936Y-53346673D01*
X50592269Y-53321676D01*
X50592267Y-53321676D01*
X50464129Y-53321676D01*
X50464127Y-53321676D01*
X50338459Y-53346673D01*
X50338453Y-53346675D01*
X50220073Y-53395709D01*
X50220064Y-53395714D01*
X50113529Y-53466899D01*
X50113525Y-53466902D01*
X50022924Y-53557503D01*
X50022921Y-53557507D01*
X49951736Y-53664042D01*
X49951731Y-53664051D01*
X49902697Y-53782431D01*
X49902695Y-53782437D01*
X49877698Y-53908104D01*
X49877698Y-53908107D01*
X49877698Y-54036245D01*
X49877698Y-54036247D01*
X49877697Y-54036247D01*
X49588698Y-54036247D01*
X49588698Y-53918107D01*
X49586708Y-53908104D01*
X49563700Y-53792437D01*
X49563699Y-53792436D01*
X49563699Y-53792432D01*
X49514663Y-53674049D01*
X49514662Y-53674048D01*
X49514659Y-53674042D01*
X49443474Y-53567507D01*
X49443471Y-53567503D01*
X49352870Y-53476902D01*
X49352866Y-53476899D01*
X49246331Y-53405714D01*
X49246322Y-53405709D01*
X49127942Y-53356675D01*
X49127936Y-53356673D01*
X49002269Y-53331676D01*
X49002267Y-53331676D01*
X48874129Y-53331676D01*
X48874127Y-53331676D01*
X48748459Y-53356673D01*
X48748453Y-53356675D01*
X48630073Y-53405709D01*
X48630064Y-53405714D01*
X48523529Y-53476899D01*
X48523525Y-53476902D01*
X48432924Y-53567503D01*
X48432921Y-53567507D01*
X48361736Y-53674042D01*
X48361731Y-53674051D01*
X48312697Y-53792431D01*
X48312695Y-53792437D01*
X48287698Y-53918104D01*
X48287698Y-53918107D01*
X48287698Y-54046245D01*
X48287698Y-54046247D01*
X48287697Y-54046247D01*
X33071297Y-54046247D01*
X33293209Y-53824334D01*
X33395595Y-53721947D01*
X33261418Y-53653582D01*
X33261415Y-53653580D01*
X33232489Y-53644182D01*
X33174813Y-53604744D01*
X33147615Y-53540386D01*
X33159530Y-53471539D01*
X33206774Y-53420064D01*
X33214495Y-53415774D01*
X33346192Y-53348672D01*
X33492699Y-53242229D01*
X33620751Y-53114177D01*
X33727194Y-52967670D01*
X33809409Y-52806315D01*
X33865369Y-52634085D01*
X33879963Y-52541935D01*
X33893698Y-52455227D01*
X33893698Y-52274124D01*
X33877217Y-52170073D01*
X33865369Y-52095267D01*
X33821477Y-51960178D01*
X33809410Y-51923039D01*
X33809409Y-51923036D01*
X33767073Y-51839949D01*
X33727194Y-51761682D01*
X33713594Y-51742963D01*
X33620756Y-51615181D01*
X33620752Y-51615176D01*
X33492697Y-51487121D01*
X33492692Y-51487117D01*
X33346195Y-51380682D01*
X33346194Y-51380681D01*
X33346192Y-51380680D01*
X33294498Y-51354340D01*
X33184837Y-51298464D01*
X33184834Y-51298463D01*
X33012608Y-51242505D01*
X32852519Y-51217149D01*
X32789384Y-51187220D01*
X32752453Y-51127908D01*
X32753451Y-51058046D01*
X32792061Y-50999813D01*
X32852519Y-50972203D01*
X32922623Y-50961098D01*
X33012607Y-50946847D01*
X33184837Y-50890887D01*
X33346192Y-50808672D01*
X33492699Y-50702229D01*
X33620751Y-50574177D01*
X33727194Y-50427670D01*
X33782693Y-50318747D01*
X38127698Y-50318747D01*
X38152696Y-50444414D01*
X38152698Y-50444420D01*
X38201732Y-50562800D01*
X38201737Y-50562809D01*
X38272922Y-50669344D01*
X38272925Y-50669348D01*
X38363526Y-50759949D01*
X38363530Y-50759952D01*
X38470065Y-50831137D01*
X38470071Y-50831140D01*
X38470072Y-50831141D01*
X38588455Y-50880177D01*
X38588459Y-50880177D01*
X38588460Y-50880178D01*
X38714127Y-50905176D01*
X38714130Y-50905176D01*
X38842270Y-50905176D01*
X38926051Y-50888510D01*
X38967943Y-50880177D01*
X38967945Y-50880175D01*
X38968000Y-50880160D01*
X38968031Y-50880159D01*
X38973917Y-50878989D01*
X38974138Y-50880104D01*
X39037867Y-50879532D01*
X39096982Y-50916777D01*
X39126576Y-50980069D01*
X39118563Y-51046270D01*
X39077698Y-51144927D01*
X39077695Y-51144937D01*
X39052698Y-51270604D01*
X39052698Y-51385694D01*
X39033013Y-51452733D01*
X38980209Y-51498488D01*
X38928698Y-51509694D01*
X38923605Y-51509694D01*
X38797937Y-51534691D01*
X38797931Y-51534693D01*
X38679551Y-51583727D01*
X38679542Y-51583732D01*
X38573007Y-51654917D01*
X38573003Y-51654920D01*
X38482402Y-51745521D01*
X38482399Y-51745525D01*
X38411214Y-51852060D01*
X38411209Y-51852069D01*
X38362175Y-51970449D01*
X38362173Y-51970455D01*
X38337176Y-52096122D01*
X38337176Y-52096125D01*
X38337176Y-52224263D01*
X38337176Y-52224265D01*
X38337175Y-52224265D01*
X38362173Y-52349932D01*
X38362175Y-52349938D01*
X38411209Y-52468318D01*
X38411214Y-52468327D01*
X38482399Y-52574862D01*
X38482402Y-52574866D01*
X38573003Y-52665467D01*
X38573007Y-52665470D01*
X38679542Y-52736655D01*
X38679548Y-52736658D01*
X38679549Y-52736659D01*
X38797932Y-52785695D01*
X38797936Y-52785695D01*
X38797937Y-52785696D01*
X38923604Y-52810694D01*
X38923607Y-52810694D01*
X39051747Y-52810694D01*
X39136291Y-52793876D01*
X39177420Y-52785695D01*
X39295803Y-52736659D01*
X39402345Y-52665470D01*
X39492952Y-52574863D01*
X39564141Y-52468321D01*
X39613177Y-52349938D01*
X39638176Y-52224263D01*
X39638176Y-52109176D01*
X39657861Y-52042137D01*
X39710665Y-51996382D01*
X39762176Y-51985176D01*
X39767269Y-51985176D01*
X39851813Y-51968358D01*
X39892942Y-51960177D01*
X40011325Y-51911141D01*
X40117867Y-51839952D01*
X40208474Y-51749345D01*
X40279663Y-51642803D01*
X40328699Y-51524420D01*
X40353698Y-51398747D01*
X42252697Y-51398747D01*
X42277695Y-51524414D01*
X42277697Y-51524420D01*
X42326731Y-51642800D01*
X42326736Y-51642809D01*
X42397921Y-51749344D01*
X42397924Y-51749348D01*
X42488525Y-51839949D01*
X42488529Y-51839952D01*
X42595064Y-51911137D01*
X42595070Y-51911140D01*
X42595071Y-51911141D01*
X42713454Y-51960177D01*
X42713458Y-51960177D01*
X42713459Y-51960178D01*
X42839126Y-51985176D01*
X42839129Y-51985176D01*
X42967269Y-51985176D01*
X43051813Y-51968358D01*
X43092942Y-51960177D01*
X43211325Y-51911141D01*
X43317867Y-51839952D01*
X43408474Y-51749345D01*
X43479663Y-51642803D01*
X43528699Y-51524420D01*
X43553698Y-51398745D01*
X43553698Y-51270607D01*
X43553698Y-51270604D01*
X43528700Y-51144937D01*
X43528699Y-51144936D01*
X43528699Y-51144932D01*
X43479663Y-51026549D01*
X43479662Y-51026548D01*
X43479659Y-51026542D01*
X43408474Y-50920007D01*
X43408471Y-50920003D01*
X43317870Y-50829402D01*
X43317866Y-50829399D01*
X43211331Y-50758214D01*
X43211322Y-50758209D01*
X43092942Y-50709175D01*
X43092936Y-50709173D01*
X42967269Y-50684176D01*
X42967267Y-50684176D01*
X42839129Y-50684176D01*
X42839127Y-50684176D01*
X42713459Y-50709173D01*
X42713453Y-50709175D01*
X42595073Y-50758209D01*
X42595064Y-50758214D01*
X42488529Y-50829399D01*
X42488525Y-50829402D01*
X42397924Y-50920003D01*
X42397921Y-50920007D01*
X42326736Y-51026542D01*
X42326731Y-51026551D01*
X42277697Y-51144931D01*
X42277695Y-51144937D01*
X42252698Y-51270604D01*
X42252698Y-51270607D01*
X42252698Y-51398745D01*
X42252698Y-51398747D01*
X42252697Y-51398747D01*
X40353698Y-51398747D01*
X40353698Y-51398745D01*
X40353698Y-51270607D01*
X40353698Y-51270604D01*
X40328700Y-51144937D01*
X40328699Y-51144936D01*
X40328699Y-51144932D01*
X40279663Y-51026549D01*
X40279662Y-51026548D01*
X40279659Y-51026542D01*
X40208474Y-50920007D01*
X40208471Y-50920003D01*
X40117870Y-50829402D01*
X40117866Y-50829399D01*
X40011331Y-50758214D01*
X40011322Y-50758209D01*
X39892942Y-50709175D01*
X39892936Y-50709173D01*
X39767269Y-50684176D01*
X39767267Y-50684176D01*
X39639129Y-50684176D01*
X39639127Y-50684176D01*
X39513449Y-50709175D01*
X39513372Y-50709199D01*
X39513329Y-50709199D01*
X39507480Y-50710363D01*
X39507259Y-50709252D01*
X39443505Y-50709812D01*
X39384398Y-50672556D01*
X39354816Y-50609257D01*
X39362832Y-50543081D01*
X39403700Y-50444420D01*
X39428699Y-50318745D01*
X39428699Y-50190607D01*
X39428699Y-50184515D01*
X39430997Y-50184515D01*
X39442099Y-50125929D01*
X39490158Y-50075212D01*
X39556194Y-50058974D01*
X39556194Y-50058771D01*
X39557022Y-50058771D01*
X39558006Y-50058529D01*
X39561393Y-50058771D01*
X39562286Y-50058771D01*
X39690426Y-50058771D01*
X39774970Y-50041953D01*
X39816099Y-50033772D01*
X39934482Y-49984736D01*
X40041024Y-49913547D01*
X40131631Y-49822940D01*
X40202820Y-49716398D01*
X40251856Y-49598015D01*
X40263980Y-49537064D01*
X40276855Y-49472342D01*
X40276855Y-49344199D01*
X40251857Y-49218532D01*
X40251856Y-49218531D01*
X40251856Y-49218527D01*
X40202820Y-49100144D01*
X40202819Y-49100143D01*
X40202816Y-49100137D01*
X40131631Y-48993602D01*
X40131628Y-48993598D01*
X40041027Y-48902997D01*
X40041023Y-48902994D01*
X39934488Y-48831809D01*
X39934479Y-48831804D01*
X39816099Y-48782770D01*
X39816093Y-48782768D01*
X39690426Y-48757771D01*
X39690424Y-48757771D01*
X39562286Y-48757771D01*
X39562284Y-48757771D01*
X39436616Y-48782768D01*
X39436610Y-48782770D01*
X39318230Y-48831804D01*
X39318221Y-48831809D01*
X39211686Y-48902994D01*
X39211682Y-48902997D01*
X39121081Y-48993598D01*
X39121078Y-48993602D01*
X39049893Y-49100137D01*
X39049888Y-49100146D01*
X39000854Y-49218526D01*
X39000852Y-49218532D01*
X38975855Y-49344199D01*
X38975855Y-49478432D01*
X38973567Y-49478432D01*
X38962430Y-49537064D01*
X38914350Y-49587760D01*
X38848360Y-49603956D01*
X38848360Y-49604176D01*
X38847468Y-49604176D01*
X38846494Y-49604415D01*
X38843155Y-49604176D01*
X38842268Y-49604176D01*
X38714130Y-49604176D01*
X38714128Y-49604176D01*
X38588460Y-49629173D01*
X38588454Y-49629175D01*
X38470074Y-49678209D01*
X38470065Y-49678214D01*
X38363530Y-49749399D01*
X38363526Y-49749402D01*
X38272925Y-49840003D01*
X38272922Y-49840007D01*
X38201737Y-49946542D01*
X38201732Y-49946551D01*
X38152698Y-50064931D01*
X38152696Y-50064937D01*
X38127699Y-50190604D01*
X38127699Y-50190607D01*
X38127699Y-50318745D01*
X38127699Y-50318747D01*
X38127698Y-50318747D01*
X33782693Y-50318747D01*
X33809409Y-50266315D01*
X33865369Y-50094085D01*
X33870962Y-50058771D01*
X33893698Y-49915227D01*
X33893698Y-49734124D01*
X33873115Y-49604176D01*
X33865369Y-49555267D01*
X33809409Y-49383037D01*
X33809409Y-49383036D01*
X33780938Y-49327160D01*
X33727194Y-49221682D01*
X33713594Y-49202963D01*
X33620756Y-49075181D01*
X33620752Y-49075176D01*
X33492697Y-48947121D01*
X33492692Y-48947117D01*
X33346195Y-48840682D01*
X33346194Y-48840681D01*
X33346192Y-48840680D01*
X33294498Y-48814340D01*
X33184837Y-48758464D01*
X33184834Y-48758463D01*
X33012608Y-48702505D01*
X32880926Y-48681648D01*
X32817792Y-48651718D01*
X32780861Y-48592407D01*
X32781859Y-48522544D01*
X32820469Y-48464312D01*
X32884433Y-48436198D01*
X32900318Y-48435175D01*
X33638062Y-48435175D01*
X33638077Y-48435173D01*
X33638080Y-48435173D01*
X33663185Y-48432262D01*
X33663186Y-48432261D01*
X33663189Y-48432261D01*
X33765963Y-48386882D01*
X33845404Y-48307441D01*
X33890783Y-48204667D01*
X33893698Y-48179541D01*
X33893697Y-47468747D01*
X38077697Y-47468747D01*
X38102695Y-47594414D01*
X38102697Y-47594420D01*
X38151731Y-47712800D01*
X38151736Y-47712809D01*
X38222921Y-47819344D01*
X38222924Y-47819348D01*
X38313525Y-47909949D01*
X38313529Y-47909952D01*
X38420064Y-47981137D01*
X38420070Y-47981140D01*
X38420071Y-47981141D01*
X38538454Y-48030177D01*
X38538458Y-48030177D01*
X38538459Y-48030178D01*
X38664126Y-48055176D01*
X38664129Y-48055176D01*
X38792269Y-48055176D01*
X38876813Y-48038358D01*
X38917942Y-48030177D01*
X39036325Y-47981141D01*
X39142867Y-47909952D01*
X39233474Y-47819345D01*
X39304663Y-47712803D01*
X39353699Y-47594420D01*
X39378698Y-47468745D01*
X39378698Y-47340607D01*
X39378698Y-47334515D01*
X39380207Y-47334515D01*
X39391835Y-47273187D01*
X39439897Y-47222474D01*
X39507748Y-47205797D01*
X39526414Y-47208057D01*
X39564127Y-47215559D01*
X39564128Y-47215559D01*
X39692268Y-47215559D01*
X39776812Y-47198741D01*
X39817941Y-47190560D01*
X39936324Y-47141524D01*
X40042866Y-47070335D01*
X40133473Y-46979728D01*
X40187145Y-46899402D01*
X40195596Y-46886755D01*
X40249208Y-46841950D01*
X40318533Y-46833243D01*
X40381561Y-46863397D01*
X40418280Y-46922840D01*
X40422698Y-46955646D01*
X40422698Y-47028745D01*
X40422698Y-47028747D01*
X40422697Y-47028747D01*
X40447695Y-47154414D01*
X40447697Y-47154420D01*
X40496731Y-47272800D01*
X40496736Y-47272809D01*
X40567921Y-47379344D01*
X40567924Y-47379348D01*
X40658525Y-47469949D01*
X40658529Y-47469952D01*
X40765064Y-47541137D01*
X40765070Y-47541140D01*
X40765071Y-47541141D01*
X40883454Y-47590177D01*
X40883458Y-47590177D01*
X40883459Y-47590178D01*
X41009126Y-47615176D01*
X41009129Y-47615176D01*
X41137269Y-47615176D01*
X41221813Y-47598358D01*
X41262942Y-47590177D01*
X41381325Y-47541141D01*
X41487867Y-47469952D01*
X41578474Y-47379345D01*
X41649663Y-47272803D01*
X41698699Y-47154420D01*
X41723698Y-47028745D01*
X41723698Y-46900607D01*
X41723698Y-46900604D01*
X41698700Y-46774937D01*
X41698699Y-46774936D01*
X41698699Y-46774932D01*
X41649663Y-46656549D01*
X41649662Y-46656548D01*
X41649659Y-46656542D01*
X41578474Y-46550007D01*
X41578471Y-46550003D01*
X41487870Y-46459402D01*
X41487866Y-46459399D01*
X41381331Y-46388214D01*
X41381322Y-46388209D01*
X41262942Y-46339175D01*
X41262936Y-46339173D01*
X41137269Y-46314176D01*
X41137267Y-46314176D01*
X41009129Y-46314176D01*
X41009127Y-46314176D01*
X40883459Y-46339173D01*
X40883453Y-46339175D01*
X40765073Y-46388209D01*
X40765064Y-46388214D01*
X40658529Y-46459399D01*
X40658525Y-46459402D01*
X40567924Y-46550003D01*
X40567921Y-46550007D01*
X40505799Y-46642979D01*
X40452186Y-46687784D01*
X40382861Y-46696491D01*
X40319834Y-46666336D01*
X40283115Y-46606893D01*
X40278697Y-46574088D01*
X40278697Y-46500987D01*
X40253699Y-46375320D01*
X40253698Y-46375319D01*
X40253698Y-46375315D01*
X40210054Y-46269949D01*
X40204663Y-46256934D01*
X40204658Y-46256925D01*
X40133473Y-46150390D01*
X40133470Y-46150386D01*
X40042869Y-46059785D01*
X40042865Y-46059782D01*
X39936330Y-45988597D01*
X39936321Y-45988592D01*
X39817941Y-45939558D01*
X39817935Y-45939556D01*
X39692268Y-45914559D01*
X39692266Y-45914559D01*
X39564128Y-45914559D01*
X39564126Y-45914559D01*
X39438458Y-45939556D01*
X39438452Y-45939558D01*
X39320072Y-45988592D01*
X39320063Y-45988597D01*
X39213528Y-46059782D01*
X39213524Y-46059785D01*
X39122923Y-46150386D01*
X39122920Y-46150390D01*
X39051735Y-46256925D01*
X39051730Y-46256934D01*
X39002696Y-46375314D01*
X39002694Y-46375320D01*
X38977697Y-46500987D01*
X38977697Y-46635220D01*
X38976193Y-46635220D01*
X38964549Y-46696568D01*
X38916477Y-46747271D01*
X38848624Y-46763936D01*
X38829983Y-46761678D01*
X38792267Y-46754176D01*
X38664129Y-46754176D01*
X38664127Y-46754176D01*
X38538459Y-46779173D01*
X38538453Y-46779175D01*
X38420073Y-46828209D01*
X38420064Y-46828214D01*
X38313529Y-46899399D01*
X38313525Y-46899402D01*
X38222924Y-46990003D01*
X38222921Y-46990007D01*
X38151736Y-47096542D01*
X38151731Y-47096551D01*
X38102697Y-47214931D01*
X38102695Y-47214937D01*
X38077698Y-47340604D01*
X38077698Y-47340607D01*
X38077698Y-47468745D01*
X38077698Y-47468747D01*
X38077697Y-47468747D01*
X33893697Y-47468747D01*
X33893697Y-47273187D01*
X33893697Y-46389819D01*
X33893697Y-46389812D01*
X33893512Y-46388214D01*
X33890784Y-46364688D01*
X33890783Y-46364686D01*
X33890783Y-46364685D01*
X33845404Y-46261911D01*
X33765963Y-46182470D01*
X33758883Y-46179344D01*
X33663190Y-46137091D01*
X33638063Y-46134176D01*
X31848341Y-46134176D01*
X31848315Y-46134178D01*
X31823210Y-46137089D01*
X31823206Y-46137091D01*
X31720433Y-46182469D01*
X31640992Y-46261910D01*
X31595613Y-46364682D01*
X31595613Y-46364684D01*
X31592698Y-46389807D01*
X30343698Y-46389807D01*
X30343698Y-45828747D01*
X48162697Y-45828747D01*
X48187695Y-45954414D01*
X48187697Y-45954420D01*
X48236731Y-46072800D01*
X48236736Y-46072809D01*
X48307921Y-46179344D01*
X48307924Y-46179348D01*
X48398525Y-46269949D01*
X48398529Y-46269952D01*
X48505064Y-46341137D01*
X48505070Y-46341140D01*
X48505071Y-46341141D01*
X48623454Y-46390177D01*
X48623458Y-46390177D01*
X48623459Y-46390178D01*
X48749126Y-46415176D01*
X48749129Y-46415176D01*
X48877269Y-46415176D01*
X48961813Y-46398358D01*
X49002942Y-46390177D01*
X49121325Y-46341141D01*
X49227867Y-46269952D01*
X49318474Y-46179345D01*
X49389663Y-46072803D01*
X49438699Y-45954420D01*
X49463698Y-45828745D01*
X49463698Y-45700607D01*
X49463698Y-45700604D01*
X49438700Y-45574937D01*
X49438699Y-45574936D01*
X49438699Y-45574932D01*
X49389663Y-45456549D01*
X49389662Y-45456548D01*
X49389659Y-45456542D01*
X49318474Y-45350007D01*
X49318471Y-45350003D01*
X49227870Y-45259402D01*
X49227866Y-45259399D01*
X49121331Y-45188214D01*
X49121322Y-45188209D01*
X49002942Y-45139175D01*
X49002936Y-45139173D01*
X48877269Y-45114176D01*
X48877267Y-45114176D01*
X48749129Y-45114176D01*
X48749127Y-45114176D01*
X48623459Y-45139173D01*
X48623453Y-45139175D01*
X48505073Y-45188209D01*
X48505064Y-45188214D01*
X48398529Y-45259399D01*
X48398525Y-45259402D01*
X48307924Y-45350003D01*
X48307921Y-45350007D01*
X48236736Y-45456542D01*
X48236731Y-45456551D01*
X48187697Y-45574931D01*
X48187695Y-45574937D01*
X48162698Y-45700604D01*
X48162698Y-45700607D01*
X48162698Y-45828745D01*
X48162698Y-45828747D01*
X48162697Y-45828747D01*
X30343698Y-45828747D01*
X30343698Y-44341970D01*
X37694878Y-44341970D01*
X37719876Y-44467637D01*
X37719878Y-44467643D01*
X37768912Y-44586023D01*
X37768917Y-44586032D01*
X37840102Y-44692567D01*
X37840105Y-44692571D01*
X37930706Y-44783172D01*
X37930710Y-44783175D01*
X38037245Y-44854360D01*
X38037251Y-44854363D01*
X38037252Y-44854364D01*
X38155635Y-44903400D01*
X38155639Y-44903400D01*
X38155640Y-44903401D01*
X38281307Y-44928399D01*
X38281310Y-44928399D01*
X38409450Y-44928399D01*
X38493994Y-44911581D01*
X38535123Y-44903400D01*
X38653506Y-44854364D01*
X38760048Y-44783175D01*
X38850655Y-44692568D01*
X38921844Y-44586026D01*
X38970880Y-44467643D01*
X38995879Y-44341968D01*
X38995879Y-44213830D01*
X38995879Y-44213827D01*
X38970881Y-44088160D01*
X38970880Y-44088159D01*
X38970880Y-44088155D01*
X38970878Y-44088150D01*
X38969112Y-44082328D01*
X38970497Y-44081907D01*
X38963794Y-44019635D01*
X38995062Y-43957151D01*
X39004936Y-43948747D01*
X55282697Y-43948747D01*
X55307695Y-44074414D01*
X55307697Y-44074420D01*
X55356731Y-44192800D01*
X55356736Y-44192809D01*
X55427921Y-44299344D01*
X55427924Y-44299348D01*
X55518525Y-44389949D01*
X55518529Y-44389952D01*
X55625064Y-44461137D01*
X55625070Y-44461140D01*
X55625071Y-44461141D01*
X55743454Y-44510177D01*
X55743458Y-44510177D01*
X55743459Y-44510178D01*
X55869126Y-44535176D01*
X55869129Y-44535176D01*
X55997269Y-44535176D01*
X56081813Y-44518358D01*
X56122942Y-44510177D01*
X56241325Y-44461141D01*
X56347867Y-44389952D01*
X56438474Y-44299345D01*
X56466835Y-44256900D01*
X66167000Y-44256900D01*
X66167000Y-46243091D01*
X66177623Y-46331562D01*
X66233139Y-46472342D01*
X66233140Y-46472344D01*
X66324577Y-46592922D01*
X66445155Y-46684359D01*
X66445158Y-46684361D01*
X66585936Y-46739876D01*
X66674401Y-46750500D01*
X68660598Y-46750499D01*
X68749064Y-46739876D01*
X68889842Y-46684361D01*
X69010422Y-46592922D01*
X69101861Y-46472342D01*
X69157376Y-46331564D01*
X69168000Y-46243099D01*
X69167999Y-44256902D01*
X69157376Y-44168436D01*
X69101861Y-44027658D01*
X69095777Y-44019635D01*
X69010422Y-43907077D01*
X68889844Y-43815640D01*
X68889842Y-43815639D01*
X68749064Y-43760124D01*
X68749061Y-43760123D01*
X68660599Y-43749500D01*
X66674408Y-43749500D01*
X66585937Y-43760123D01*
X66445157Y-43815639D01*
X66445155Y-43815640D01*
X66324577Y-43907077D01*
X66233140Y-44027655D01*
X66177624Y-44168437D01*
X66177623Y-44168438D01*
X66167000Y-44256900D01*
X56466835Y-44256900D01*
X56509663Y-44192803D01*
X56558699Y-44074420D01*
X56579515Y-43969774D01*
X56583698Y-43948747D01*
X56583698Y-43820604D01*
X56558700Y-43694937D01*
X56558699Y-43694936D01*
X56558699Y-43694932D01*
X56515215Y-43589952D01*
X56509664Y-43576551D01*
X56509659Y-43576542D01*
X56438474Y-43470007D01*
X56438471Y-43470003D01*
X56347870Y-43379402D01*
X56347866Y-43379399D01*
X56241331Y-43308214D01*
X56241322Y-43308209D01*
X56122942Y-43259175D01*
X56122936Y-43259173D01*
X55997269Y-43234176D01*
X55997267Y-43234176D01*
X55869129Y-43234176D01*
X55869127Y-43234176D01*
X55743459Y-43259173D01*
X55743453Y-43259175D01*
X55625073Y-43308209D01*
X55625064Y-43308214D01*
X55518529Y-43379399D01*
X55518525Y-43379402D01*
X55427924Y-43470003D01*
X55427921Y-43470007D01*
X55356736Y-43576542D01*
X55356731Y-43576551D01*
X55307697Y-43694931D01*
X55307695Y-43694937D01*
X55282698Y-43820604D01*
X55282698Y-43820607D01*
X55282698Y-43948745D01*
X55282698Y-43948747D01*
X55282697Y-43948747D01*
X39004936Y-43948747D01*
X39016934Y-43938536D01*
X39079177Y-43896947D01*
X39169784Y-43806340D01*
X39240973Y-43699798D01*
X39290009Y-43581415D01*
X39306334Y-43499345D01*
X39315008Y-43455742D01*
X39315008Y-43327599D01*
X39290010Y-43201932D01*
X39290009Y-43201931D01*
X39290009Y-43201927D01*
X39267981Y-43148747D01*
X44937697Y-43148747D01*
X44962695Y-43274414D01*
X44962697Y-43274420D01*
X45011731Y-43392800D01*
X45011736Y-43392809D01*
X45082921Y-43499344D01*
X45082924Y-43499348D01*
X45173525Y-43589949D01*
X45173529Y-43589952D01*
X45280064Y-43661137D01*
X45280070Y-43661140D01*
X45280071Y-43661141D01*
X45398454Y-43710177D01*
X45398458Y-43710177D01*
X45398459Y-43710178D01*
X45524126Y-43735176D01*
X45524129Y-43735176D01*
X45652269Y-43735176D01*
X45766545Y-43712444D01*
X45777942Y-43710177D01*
X45896325Y-43661141D01*
X46002867Y-43589952D01*
X46093474Y-43499345D01*
X46164663Y-43392803D01*
X46213699Y-43274420D01*
X46238698Y-43148745D01*
X46238698Y-43020607D01*
X46238698Y-43020604D01*
X46213700Y-42894937D01*
X46213699Y-42894936D01*
X46213699Y-42894932D01*
X46164663Y-42776549D01*
X46164662Y-42776548D01*
X46164659Y-42776542D01*
X46093474Y-42670007D01*
X46093471Y-42670003D01*
X46002870Y-42579402D01*
X46002866Y-42579399D01*
X45896331Y-42508214D01*
X45896322Y-42508209D01*
X45777942Y-42459175D01*
X45777936Y-42459173D01*
X45652269Y-42434176D01*
X45652267Y-42434176D01*
X45524129Y-42434176D01*
X45524127Y-42434176D01*
X45398459Y-42459173D01*
X45398453Y-42459175D01*
X45280073Y-42508209D01*
X45280064Y-42508214D01*
X45173529Y-42579399D01*
X45173525Y-42579402D01*
X45082924Y-42670003D01*
X45082921Y-42670007D01*
X45011736Y-42776542D01*
X45011731Y-42776551D01*
X44962697Y-42894931D01*
X44962695Y-42894937D01*
X44937698Y-43020604D01*
X44937698Y-43020607D01*
X44937698Y-43148745D01*
X44937698Y-43148747D01*
X44937697Y-43148747D01*
X39267981Y-43148747D01*
X39240973Y-43083544D01*
X39240885Y-43083412D01*
X39240884Y-43083409D01*
X39240881Y-43083406D01*
X39169784Y-42977001D01*
X39079180Y-42886397D01*
X39079176Y-42886394D01*
X38972641Y-42815209D01*
X38972632Y-42815204D01*
X38854252Y-42766170D01*
X38854246Y-42766168D01*
X38728579Y-42741171D01*
X38728577Y-42741171D01*
X38600439Y-42741171D01*
X38600437Y-42741171D01*
X38474769Y-42766168D01*
X38474763Y-42766170D01*
X38356383Y-42815204D01*
X38356374Y-42815209D01*
X38249839Y-42886394D01*
X38249835Y-42886397D01*
X38159234Y-42976998D01*
X38159231Y-42977002D01*
X38088046Y-43083537D01*
X38088041Y-43083546D01*
X38039007Y-43201926D01*
X38039005Y-43201932D01*
X38014008Y-43327599D01*
X38014008Y-43327602D01*
X38014008Y-43455740D01*
X38014008Y-43455742D01*
X38014007Y-43455742D01*
X38039005Y-43581409D01*
X38040775Y-43587242D01*
X38039395Y-43587660D01*
X38046084Y-43649970D01*
X38014799Y-43712444D01*
X37992950Y-43731035D01*
X37930706Y-43772625D01*
X37840105Y-43863226D01*
X37840102Y-43863230D01*
X37768917Y-43969765D01*
X37768912Y-43969774D01*
X37719878Y-44088154D01*
X37719876Y-44088160D01*
X37694879Y-44213827D01*
X37694879Y-44213830D01*
X37694879Y-44341968D01*
X37694879Y-44341970D01*
X37694878Y-44341970D01*
X30343698Y-44341970D01*
X30343698Y-41408747D01*
X34672697Y-41408747D01*
X34697695Y-41534414D01*
X34697697Y-41534420D01*
X34746731Y-41652800D01*
X34746736Y-41652809D01*
X34817921Y-41759344D01*
X34817924Y-41759348D01*
X34908525Y-41849949D01*
X34908529Y-41849952D01*
X35015064Y-41921137D01*
X35015070Y-41921140D01*
X35015071Y-41921141D01*
X35133454Y-41970177D01*
X35133458Y-41970177D01*
X35133459Y-41970178D01*
X35259126Y-41995176D01*
X35259129Y-41995176D01*
X35387269Y-41995176D01*
X35471813Y-41978358D01*
X35512942Y-41970177D01*
X35631325Y-41921141D01*
X35737867Y-41849952D01*
X35828474Y-41759345D01*
X35899663Y-41652803D01*
X35948699Y-41534420D01*
X35971928Y-41417645D01*
X35973698Y-41408747D01*
X35973698Y-41280604D01*
X35948700Y-41154937D01*
X35948699Y-41154936D01*
X35948699Y-41154932D01*
X35899663Y-41036549D01*
X35899662Y-41036548D01*
X35899659Y-41036542D01*
X35828474Y-40930007D01*
X35828471Y-40930003D01*
X35737870Y-40839402D01*
X35737866Y-40839399D01*
X35631331Y-40768214D01*
X35631322Y-40768209D01*
X35512942Y-40719175D01*
X35512936Y-40719173D01*
X35387269Y-40694176D01*
X35387267Y-40694176D01*
X35259129Y-40694176D01*
X35259127Y-40694176D01*
X35133459Y-40719173D01*
X35133453Y-40719175D01*
X35015073Y-40768209D01*
X35015064Y-40768214D01*
X34908529Y-40839399D01*
X34908525Y-40839402D01*
X34817924Y-40930003D01*
X34817921Y-40930007D01*
X34746736Y-41036542D01*
X34746731Y-41036551D01*
X34697697Y-41154931D01*
X34697695Y-41154937D01*
X34672698Y-41280604D01*
X34672698Y-41280607D01*
X34672698Y-41408745D01*
X34672698Y-41408747D01*
X34672697Y-41408747D01*
X30343698Y-41408747D01*
X30343698Y-40653671D01*
X31787697Y-40653671D01*
X31814616Y-40788998D01*
X31814619Y-40789008D01*
X31867419Y-40916480D01*
X31867426Y-40916493D01*
X31944083Y-41031217D01*
X31944086Y-41031221D01*
X32041652Y-41128787D01*
X32041656Y-41128790D01*
X32156380Y-41205447D01*
X32156393Y-41205454D01*
X32283865Y-41258254D01*
X32283870Y-41258256D01*
X32283874Y-41258256D01*
X32283875Y-41258257D01*
X32419202Y-41285176D01*
X32419205Y-41285176D01*
X32557193Y-41285176D01*
X32648239Y-41267065D01*
X32692526Y-41258256D01*
X32820009Y-41205451D01*
X32823972Y-41202803D01*
X32870951Y-41171413D01*
X32910580Y-41144933D01*
X32934740Y-41128790D01*
X33032312Y-41031218D01*
X33108973Y-40916487D01*
X33161778Y-40789004D01*
X33182630Y-40684177D01*
X33188698Y-40653671D01*
X33188698Y-40515680D01*
X33161779Y-40380353D01*
X33161778Y-40380352D01*
X33161778Y-40380348D01*
X33149793Y-40351413D01*
X33108976Y-40252871D01*
X33108969Y-40252858D01*
X33079495Y-40208747D01*
X39402697Y-40208747D01*
X39427695Y-40334414D01*
X39427697Y-40334420D01*
X39476731Y-40452800D01*
X39476736Y-40452809D01*
X39547921Y-40559344D01*
X39547924Y-40559348D01*
X39638525Y-40649949D01*
X39638529Y-40649952D01*
X39745064Y-40721137D01*
X39745070Y-40721140D01*
X39745071Y-40721141D01*
X39863454Y-40770177D01*
X39863458Y-40770177D01*
X39863459Y-40770178D01*
X39989126Y-40795176D01*
X40003800Y-40795176D01*
X40070839Y-40814861D01*
X40116594Y-40867665D01*
X40126538Y-40936823D01*
X40106902Y-40988067D01*
X40081192Y-41026543D01*
X40081187Y-41026552D01*
X40032153Y-41144932D01*
X40032151Y-41144938D01*
X40007154Y-41270605D01*
X40007154Y-41270608D01*
X40007154Y-41398746D01*
X40007154Y-41398748D01*
X40007153Y-41398748D01*
X40032151Y-41524415D01*
X40032153Y-41524421D01*
X40081187Y-41642801D01*
X40081192Y-41642810D01*
X40152377Y-41749345D01*
X40152380Y-41749349D01*
X40242981Y-41839950D01*
X40242985Y-41839953D01*
X40349520Y-41911138D01*
X40349526Y-41911141D01*
X40349527Y-41911142D01*
X40467910Y-41960178D01*
X40467914Y-41960178D01*
X40467915Y-41960179D01*
X40593582Y-41985177D01*
X40593585Y-41985177D01*
X40721725Y-41985177D01*
X40806269Y-41968359D01*
X40847398Y-41960178D01*
X40965781Y-41911142D01*
X41021747Y-41873747D01*
X42167697Y-41873747D01*
X42192695Y-41999414D01*
X42192697Y-41999420D01*
X42241731Y-42117800D01*
X42241736Y-42117809D01*
X42312921Y-42224344D01*
X42312924Y-42224348D01*
X42403525Y-42314949D01*
X42403529Y-42314952D01*
X42510064Y-42386137D01*
X42510070Y-42386140D01*
X42510071Y-42386141D01*
X42628454Y-42435177D01*
X42628458Y-42435177D01*
X42628459Y-42435178D01*
X42754126Y-42460176D01*
X42754129Y-42460176D01*
X42882269Y-42460176D01*
X42966813Y-42443358D01*
X43007942Y-42435177D01*
X43126325Y-42386141D01*
X43232867Y-42314952D01*
X43323474Y-42224345D01*
X43394663Y-42117803D01*
X43394664Y-42117800D01*
X43394666Y-42117797D01*
X43413637Y-42071996D01*
X43457477Y-42017592D01*
X43523771Y-41995527D01*
X43591471Y-42012806D01*
X43639081Y-42063943D01*
X43642759Y-42071996D01*
X43661729Y-42117797D01*
X43661736Y-42117809D01*
X43732921Y-42224344D01*
X43732924Y-42224348D01*
X43823525Y-42314949D01*
X43823529Y-42314952D01*
X43930064Y-42386137D01*
X43930070Y-42386140D01*
X43930071Y-42386141D01*
X44048454Y-42435177D01*
X44048458Y-42435177D01*
X44048459Y-42435178D01*
X44174126Y-42460176D01*
X44174129Y-42460176D01*
X44302269Y-42460176D01*
X44386813Y-42443358D01*
X44427942Y-42435177D01*
X44546325Y-42386141D01*
X44652867Y-42314952D01*
X44743474Y-42224345D01*
X44814663Y-42117803D01*
X44863699Y-41999420D01*
X44888698Y-41873745D01*
X44888698Y-41745607D01*
X44888698Y-41745604D01*
X44867408Y-41638575D01*
X65967500Y-41638575D01*
X65967500Y-41861424D01*
X65996585Y-42082354D01*
X65996588Y-42082367D01*
X66054263Y-42297618D01*
X66139541Y-42503497D01*
X66139544Y-42503502D01*
X66228898Y-42658270D01*
X67067500Y-41819669D01*
X67067500Y-41828991D01*
X67108389Y-41981591D01*
X67187381Y-42118408D01*
X67299092Y-42230119D01*
X67435909Y-42309111D01*
X67588509Y-42350000D01*
X67597830Y-42350000D01*
X66759227Y-43188600D01*
X66913997Y-43277955D01*
X66914002Y-43277958D01*
X67119881Y-43363236D01*
X67335132Y-43420911D01*
X67335145Y-43420914D01*
X67556075Y-43450000D01*
X67778925Y-43450000D01*
X67999854Y-43420914D01*
X67999867Y-43420911D01*
X68215118Y-43363236D01*
X68421002Y-43277954D01*
X68421013Y-43277949D01*
X68575770Y-43188600D01*
X67737170Y-42350000D01*
X67746491Y-42350000D01*
X67899091Y-42309111D01*
X68035908Y-42230119D01*
X68147619Y-42118408D01*
X68226611Y-41981591D01*
X68267500Y-41828991D01*
X68267500Y-41819670D01*
X69106100Y-42658270D01*
X69195449Y-42503513D01*
X69195454Y-42503502D01*
X69280736Y-42297618D01*
X69338411Y-42082367D01*
X69338414Y-42082354D01*
X69367500Y-41861424D01*
X69367500Y-41638575D01*
X69338414Y-41417645D01*
X69338411Y-41417632D01*
X69280736Y-41202381D01*
X69195458Y-40996502D01*
X69195455Y-40996497D01*
X69106100Y-40841728D01*
X69106100Y-40841727D01*
X68267500Y-41680328D01*
X68267500Y-41671009D01*
X68226611Y-41518409D01*
X68147619Y-41381592D01*
X68035908Y-41269881D01*
X67899091Y-41190889D01*
X67746491Y-41150000D01*
X67737171Y-41150000D01*
X68575771Y-40311398D01*
X68421002Y-40222044D01*
X68420997Y-40222041D01*
X68215118Y-40136763D01*
X67999867Y-40079088D01*
X67999854Y-40079085D01*
X67778925Y-40050000D01*
X67556075Y-40050000D01*
X67335145Y-40079085D01*
X67335132Y-40079088D01*
X67119881Y-40136763D01*
X66914002Y-40222041D01*
X66913997Y-40222044D01*
X66759228Y-40311398D01*
X67597830Y-41150000D01*
X67588509Y-41150000D01*
X67435909Y-41190889D01*
X67299092Y-41269881D01*
X67187381Y-41381592D01*
X67108389Y-41518409D01*
X67067500Y-41671009D01*
X67067500Y-41680330D01*
X66228898Y-40841728D01*
X66139544Y-40996497D01*
X66139541Y-40996502D01*
X66054263Y-41202381D01*
X65996588Y-41417632D01*
X65996585Y-41417645D01*
X65967500Y-41638575D01*
X44867408Y-41638575D01*
X44863700Y-41619937D01*
X44863699Y-41619936D01*
X44863699Y-41619932D01*
X44822378Y-41520175D01*
X44814664Y-41501551D01*
X44814659Y-41501542D01*
X44743474Y-41395007D01*
X44743471Y-41395003D01*
X44652870Y-41304402D01*
X44652866Y-41304399D01*
X44546331Y-41233214D01*
X44546322Y-41233209D01*
X44427942Y-41184175D01*
X44427936Y-41184173D01*
X44302269Y-41159176D01*
X44302267Y-41159176D01*
X44174129Y-41159176D01*
X44174127Y-41159176D01*
X44048459Y-41184173D01*
X44048453Y-41184175D01*
X43930073Y-41233209D01*
X43930064Y-41233214D01*
X43823529Y-41304399D01*
X43823525Y-41304402D01*
X43732924Y-41395003D01*
X43732921Y-41395007D01*
X43661736Y-41501542D01*
X43661731Y-41501551D01*
X43642759Y-41547356D01*
X43598918Y-41601759D01*
X43532624Y-41623824D01*
X43464925Y-41606545D01*
X43417314Y-41555408D01*
X43413637Y-41547356D01*
X43394664Y-41501551D01*
X43394659Y-41501542D01*
X43323474Y-41395007D01*
X43323471Y-41395003D01*
X43232870Y-41304402D01*
X43232866Y-41304399D01*
X43126331Y-41233214D01*
X43126322Y-41233209D01*
X43007942Y-41184175D01*
X43007936Y-41184173D01*
X42882269Y-41159176D01*
X42882267Y-41159176D01*
X42754129Y-41159176D01*
X42754127Y-41159176D01*
X42628459Y-41184173D01*
X42628453Y-41184175D01*
X42510073Y-41233209D01*
X42510064Y-41233214D01*
X42403529Y-41304399D01*
X42403525Y-41304402D01*
X42312924Y-41395003D01*
X42312921Y-41395007D01*
X42241736Y-41501542D01*
X42241731Y-41501551D01*
X42192697Y-41619931D01*
X42192695Y-41619937D01*
X42167698Y-41745604D01*
X42167698Y-41745607D01*
X42167698Y-41873745D01*
X42167698Y-41873747D01*
X42167697Y-41873747D01*
X41021747Y-41873747D01*
X41072323Y-41839953D01*
X41162930Y-41749346D01*
X41188495Y-41711084D01*
X41215531Y-41670624D01*
X41234115Y-41642810D01*
X41234115Y-41642809D01*
X41234119Y-41642804D01*
X41283155Y-41524421D01*
X41304395Y-41417645D01*
X41308154Y-41398748D01*
X41308154Y-41270605D01*
X41283156Y-41144938D01*
X41283155Y-41144937D01*
X41283155Y-41144933D01*
X41234119Y-41026550D01*
X41234118Y-41026549D01*
X41234115Y-41026543D01*
X41208860Y-40988747D01*
X45622697Y-40988747D01*
X45647695Y-41114414D01*
X45647697Y-41114420D01*
X45696731Y-41232800D01*
X45696736Y-41232809D01*
X45767921Y-41339344D01*
X45767924Y-41339348D01*
X45858525Y-41429949D01*
X45858529Y-41429952D01*
X45965064Y-41501137D01*
X45965073Y-41501142D01*
X45991890Y-41512250D01*
X46083454Y-41550177D01*
X46083458Y-41550177D01*
X46083459Y-41550178D01*
X46209126Y-41575176D01*
X46209129Y-41575176D01*
X46337269Y-41575176D01*
X46421813Y-41558358D01*
X46462942Y-41550177D01*
X46581325Y-41501141D01*
X46581330Y-41501137D01*
X46584684Y-41499345D01*
X46586649Y-41498935D01*
X46586953Y-41498810D01*
X46586976Y-41498867D01*
X46653086Y-41485100D01*
X46690594Y-41494140D01*
X46752920Y-41519956D01*
X46753454Y-41520177D01*
X46753458Y-41520177D01*
X46753459Y-41520178D01*
X46879126Y-41545176D01*
X46879129Y-41545176D01*
X47007269Y-41545176D01*
X47091813Y-41528358D01*
X47132942Y-41520177D01*
X47251325Y-41471141D01*
X47357867Y-41399952D01*
X47448474Y-41309345D01*
X47519663Y-41202803D01*
X47568699Y-41084420D01*
X47580212Y-41026543D01*
X47593698Y-40958747D01*
X47593698Y-40830604D01*
X47568700Y-40704937D01*
X47568699Y-40704936D01*
X47568699Y-40704932D01*
X47541153Y-40638432D01*
X47535812Y-40588747D01*
X49092697Y-40588747D01*
X49117695Y-40714414D01*
X49117697Y-40714420D01*
X49166731Y-40832800D01*
X49166736Y-40832809D01*
X49237921Y-40939344D01*
X49237924Y-40939348D01*
X49328525Y-41029949D01*
X49328529Y-41029952D01*
X49435064Y-41101137D01*
X49435070Y-41101140D01*
X49435071Y-41101141D01*
X49553454Y-41150177D01*
X49553458Y-41150177D01*
X49553459Y-41150178D01*
X49679126Y-41175176D01*
X49679129Y-41175176D01*
X49807269Y-41175176D01*
X49891813Y-41158358D01*
X49932942Y-41150177D01*
X50051325Y-41101141D01*
X50157867Y-41029952D01*
X50248474Y-40939345D01*
X50319663Y-40832803D01*
X50368699Y-40714420D01*
X50380783Y-40653671D01*
X50393698Y-40588747D01*
X50393698Y-40460604D01*
X50377670Y-40380031D01*
X50377670Y-40380030D01*
X50368700Y-40334939D01*
X50368700Y-40334937D01*
X50368699Y-40334932D01*
X50319663Y-40216549D01*
X50319662Y-40216548D01*
X50319659Y-40216542D01*
X50248474Y-40110007D01*
X50248471Y-40110003D01*
X50157870Y-40019402D01*
X50157866Y-40019399D01*
X50051331Y-39948214D01*
X50051322Y-39948209D01*
X49932942Y-39899175D01*
X49932936Y-39899173D01*
X49807269Y-39874176D01*
X49807267Y-39874176D01*
X49679129Y-39874176D01*
X49679127Y-39874176D01*
X49553459Y-39899173D01*
X49553453Y-39899175D01*
X49435073Y-39948209D01*
X49435064Y-39948214D01*
X49328529Y-40019399D01*
X49328525Y-40019402D01*
X49237924Y-40110003D01*
X49237921Y-40110007D01*
X49166736Y-40216542D01*
X49166731Y-40216551D01*
X49117697Y-40334931D01*
X49117695Y-40334937D01*
X49092698Y-40460604D01*
X49092698Y-40460607D01*
X49092698Y-40588745D01*
X49092698Y-40588747D01*
X49092697Y-40588747D01*
X47535812Y-40588747D01*
X47533685Y-40568963D01*
X47564960Y-40506484D01*
X47625049Y-40470832D01*
X47679906Y-40469363D01*
X47709129Y-40475176D01*
X47837269Y-40475176D01*
X47949710Y-40452809D01*
X47962942Y-40450177D01*
X48081325Y-40401141D01*
X48098897Y-40389400D01*
X48155749Y-40351413D01*
X48180406Y-40334937D01*
X48187867Y-40329952D01*
X48278474Y-40239345D01*
X48349663Y-40132803D01*
X48398699Y-40014420D01*
X48410532Y-39954932D01*
X48423698Y-39888747D01*
X48423698Y-39760604D01*
X48398700Y-39634937D01*
X48398699Y-39634936D01*
X48398699Y-39634932D01*
X48349663Y-39516549D01*
X48349662Y-39516548D01*
X48349659Y-39516542D01*
X48278474Y-39410007D01*
X48278471Y-39410003D01*
X48187870Y-39319402D01*
X48187866Y-39319399D01*
X48081331Y-39248214D01*
X48081322Y-39248209D01*
X47962942Y-39199175D01*
X47962936Y-39199173D01*
X47837269Y-39174176D01*
X47837267Y-39174176D01*
X47709129Y-39174176D01*
X47709127Y-39174176D01*
X47583459Y-39199173D01*
X47583453Y-39199175D01*
X47465073Y-39248209D01*
X47465064Y-39248214D01*
X47358529Y-39319399D01*
X47358525Y-39319402D01*
X47267924Y-39410003D01*
X47267921Y-39410007D01*
X47196736Y-39516542D01*
X47196731Y-39516551D01*
X47147697Y-39634931D01*
X47147695Y-39634937D01*
X47122698Y-39760604D01*
X47122698Y-39760607D01*
X47122698Y-39888745D01*
X47122698Y-39888747D01*
X47122697Y-39888747D01*
X47147695Y-40014414D01*
X47147698Y-40014424D01*
X47175241Y-40080919D01*
X47182710Y-40150388D01*
X47151434Y-40212867D01*
X47091345Y-40248519D01*
X47036489Y-40249988D01*
X47007270Y-40244176D01*
X47007267Y-40244176D01*
X46879129Y-40244176D01*
X46879127Y-40244176D01*
X46753459Y-40269173D01*
X46753453Y-40269175D01*
X46635068Y-40318212D01*
X46631695Y-40320015D01*
X46629728Y-40320424D01*
X46629444Y-40320542D01*
X46629421Y-40320488D01*
X46563290Y-40334250D01*
X46525804Y-40325213D01*
X46462942Y-40299175D01*
X46462938Y-40299174D01*
X46462936Y-40299173D01*
X46337269Y-40274176D01*
X46337267Y-40274176D01*
X46209129Y-40274176D01*
X46209127Y-40274176D01*
X46083459Y-40299173D01*
X46083453Y-40299175D01*
X45965073Y-40348209D01*
X45965064Y-40348214D01*
X45858529Y-40419399D01*
X45858525Y-40419402D01*
X45767924Y-40510003D01*
X45767921Y-40510007D01*
X45696736Y-40616542D01*
X45696731Y-40616551D01*
X45647697Y-40734931D01*
X45647695Y-40734937D01*
X45622698Y-40860604D01*
X45622698Y-40860607D01*
X45622698Y-40988745D01*
X45622698Y-40988747D01*
X45622697Y-40988747D01*
X41208860Y-40988747D01*
X41165201Y-40923406D01*
X41165200Y-40923405D01*
X41162932Y-40920011D01*
X41162927Y-40920004D01*
X41072326Y-40829403D01*
X41072322Y-40829400D01*
X40965787Y-40758215D01*
X40965778Y-40758210D01*
X40847398Y-40709176D01*
X40847392Y-40709174D01*
X40721725Y-40684177D01*
X40721723Y-40684177D01*
X40707052Y-40684177D01*
X40640013Y-40664492D01*
X40594258Y-40611688D01*
X40584314Y-40542530D01*
X40603950Y-40491286D01*
X40629659Y-40452809D01*
X40629659Y-40452808D01*
X40629663Y-40452803D01*
X40678699Y-40334420D01*
X40690683Y-40274176D01*
X40703698Y-40208747D01*
X40703698Y-40080604D01*
X40678700Y-39954937D01*
X40678699Y-39954936D01*
X40678699Y-39954932D01*
X40629663Y-39836549D01*
X40629662Y-39836548D01*
X40629659Y-39836542D01*
X40558474Y-39730007D01*
X40558471Y-39730003D01*
X40467870Y-39639402D01*
X40467866Y-39639399D01*
X40361331Y-39568214D01*
X40361322Y-39568209D01*
X40242942Y-39519175D01*
X40242936Y-39519173D01*
X40117269Y-39494176D01*
X40117267Y-39494176D01*
X39989129Y-39494176D01*
X39989127Y-39494176D01*
X39863459Y-39519173D01*
X39863453Y-39519175D01*
X39745073Y-39568209D01*
X39745064Y-39568214D01*
X39638529Y-39639399D01*
X39638525Y-39639402D01*
X39547924Y-39730003D01*
X39547921Y-39730007D01*
X39476736Y-39836542D01*
X39476731Y-39836551D01*
X39427697Y-39954931D01*
X39427695Y-39954937D01*
X39402698Y-40080604D01*
X39402698Y-40080607D01*
X39402698Y-40208745D01*
X39402698Y-40208747D01*
X39402697Y-40208747D01*
X33079495Y-40208747D01*
X33032312Y-40138134D01*
X33032309Y-40138130D01*
X32934743Y-40040564D01*
X32934739Y-40040561D01*
X32820015Y-39963904D01*
X32820002Y-39963897D01*
X32692530Y-39911097D01*
X32692520Y-39911094D01*
X32557193Y-39884176D01*
X32557191Y-39884176D01*
X32419205Y-39884176D01*
X32419203Y-39884176D01*
X32283875Y-39911094D01*
X32283865Y-39911097D01*
X32156393Y-39963897D01*
X32156380Y-39963904D01*
X32041656Y-40040561D01*
X32041652Y-40040564D01*
X31944086Y-40138130D01*
X31944083Y-40138134D01*
X31867426Y-40252858D01*
X31867419Y-40252871D01*
X31814619Y-40380343D01*
X31814616Y-40380353D01*
X31787698Y-40515680D01*
X31787698Y-40515683D01*
X31787698Y-40653669D01*
X31787698Y-40653671D01*
X31787697Y-40653671D01*
X30343698Y-40653671D01*
X30343698Y-39468747D01*
X37987697Y-39468747D01*
X38012695Y-39594414D01*
X38012697Y-39594420D01*
X38061731Y-39712800D01*
X38061736Y-39712809D01*
X38132921Y-39819344D01*
X38132924Y-39819348D01*
X38223525Y-39909949D01*
X38223529Y-39909952D01*
X38330064Y-39981137D01*
X38330070Y-39981140D01*
X38330071Y-39981141D01*
X38448454Y-40030177D01*
X38448458Y-40030177D01*
X38448459Y-40030178D01*
X38574126Y-40055176D01*
X38574129Y-40055176D01*
X38702269Y-40055176D01*
X38786813Y-40038358D01*
X38827942Y-40030177D01*
X38946325Y-39981141D01*
X38946331Y-39981137D01*
X38960885Y-39971413D01*
X39006899Y-39940666D01*
X39052867Y-39909952D01*
X39143474Y-39819345D01*
X39214663Y-39712803D01*
X39263699Y-39594420D01*
X39279190Y-39516542D01*
X39288698Y-39468747D01*
X39288698Y-39340604D01*
X39270426Y-39248747D01*
X43182697Y-39248747D01*
X43207695Y-39374414D01*
X43207697Y-39374420D01*
X43256731Y-39492800D01*
X43256736Y-39492809D01*
X43327921Y-39599344D01*
X43327924Y-39599348D01*
X43418525Y-39689949D01*
X43418529Y-39689952D01*
X43525064Y-39761137D01*
X43525070Y-39761140D01*
X43525071Y-39761141D01*
X43643454Y-39810177D01*
X43643458Y-39810177D01*
X43643459Y-39810178D01*
X43769126Y-39835176D01*
X43769129Y-39835176D01*
X43897269Y-39835176D01*
X43981813Y-39818358D01*
X44022942Y-39810177D01*
X44141325Y-39761141D01*
X44247867Y-39689952D01*
X44338474Y-39599345D01*
X44409663Y-39492803D01*
X44458699Y-39374420D01*
X44469643Y-39319402D01*
X44483698Y-39248747D01*
X44483698Y-39120604D01*
X44458700Y-38994937D01*
X44458699Y-38994936D01*
X44458699Y-38994932D01*
X44409663Y-38876549D01*
X44409662Y-38876548D01*
X44409659Y-38876542D01*
X44338474Y-38770007D01*
X44338471Y-38770003D01*
X44247870Y-38679402D01*
X44247866Y-38679399D01*
X44141331Y-38608214D01*
X44141322Y-38608209D01*
X44022942Y-38559175D01*
X44022936Y-38559173D01*
X43897269Y-38534176D01*
X43897267Y-38534176D01*
X43769129Y-38534176D01*
X43769127Y-38534176D01*
X43643459Y-38559173D01*
X43643453Y-38559175D01*
X43525073Y-38608209D01*
X43525064Y-38608214D01*
X43418529Y-38679399D01*
X43418525Y-38679402D01*
X43327924Y-38770003D01*
X43327921Y-38770007D01*
X43256736Y-38876542D01*
X43256731Y-38876551D01*
X43207697Y-38994931D01*
X43207695Y-38994937D01*
X43182698Y-39120604D01*
X43182698Y-39120607D01*
X43182698Y-39248745D01*
X43182698Y-39248747D01*
X43182697Y-39248747D01*
X39270426Y-39248747D01*
X39263700Y-39214937D01*
X39263699Y-39214936D01*
X39263699Y-39214932D01*
X39263697Y-39214927D01*
X39241761Y-39161967D01*
X39214664Y-39096552D01*
X39214664Y-39096551D01*
X39214663Y-39096549D01*
X39214661Y-39096546D01*
X39214659Y-39096542D01*
X39143474Y-38990007D01*
X39143471Y-38990003D01*
X39052870Y-38899402D01*
X39052866Y-38899399D01*
X38946331Y-38828214D01*
X38946322Y-38828209D01*
X38827942Y-38779175D01*
X38827936Y-38779173D01*
X38702269Y-38754176D01*
X38702267Y-38754176D01*
X38574129Y-38754176D01*
X38574127Y-38754176D01*
X38448459Y-38779173D01*
X38448453Y-38779175D01*
X38330073Y-38828209D01*
X38330064Y-38828214D01*
X38223529Y-38899399D01*
X38223525Y-38899402D01*
X38132924Y-38990003D01*
X38132921Y-38990007D01*
X38061736Y-39096542D01*
X38061731Y-39096551D01*
X38012697Y-39214931D01*
X38012695Y-39214937D01*
X37987698Y-39340604D01*
X37987698Y-39340607D01*
X37987698Y-39468745D01*
X37987698Y-39468747D01*
X37987697Y-39468747D01*
X30343698Y-39468747D01*
X30343698Y-37653671D01*
X31787697Y-37653671D01*
X31814616Y-37788998D01*
X31814619Y-37789008D01*
X31867419Y-37916480D01*
X31867426Y-37916493D01*
X31944083Y-38031217D01*
X31944086Y-38031221D01*
X32041652Y-38128787D01*
X32041656Y-38128790D01*
X32156380Y-38205447D01*
X32156393Y-38205454D01*
X32283865Y-38258254D01*
X32283870Y-38258256D01*
X32283874Y-38258256D01*
X32283875Y-38258257D01*
X32419202Y-38285176D01*
X32419205Y-38285176D01*
X32557193Y-38285176D01*
X32648239Y-38267065D01*
X32692526Y-38258256D01*
X32820009Y-38205451D01*
X32934740Y-38128790D01*
X33032312Y-38031218D01*
X33074054Y-37968747D01*
X39832697Y-37968747D01*
X39857695Y-38094414D01*
X39857697Y-38094420D01*
X39906731Y-38212800D01*
X39906736Y-38212809D01*
X39977921Y-38319344D01*
X39977924Y-38319348D01*
X40068525Y-38409949D01*
X40068529Y-38409952D01*
X40175064Y-38481137D01*
X40175070Y-38481140D01*
X40175071Y-38481141D01*
X40293454Y-38530177D01*
X40293458Y-38530177D01*
X40293459Y-38530178D01*
X40419126Y-38555176D01*
X40419129Y-38555176D01*
X40547269Y-38555176D01*
X40652838Y-38534176D01*
X40672942Y-38530177D01*
X40791325Y-38481141D01*
X40897867Y-38409952D01*
X40988474Y-38319345D01*
X41059663Y-38212803D01*
X41108699Y-38094420D01*
X41116880Y-38053291D01*
X41133698Y-37968747D01*
X41133698Y-37840604D01*
X41108700Y-37714937D01*
X41108699Y-37714936D01*
X41108699Y-37714932D01*
X41059663Y-37596549D01*
X41059662Y-37596548D01*
X41059659Y-37596542D01*
X40988474Y-37490007D01*
X40988471Y-37490003D01*
X40897870Y-37399402D01*
X40897866Y-37399399D01*
X40791331Y-37328214D01*
X40791322Y-37328209D01*
X40672942Y-37279175D01*
X40672936Y-37279173D01*
X40547269Y-37254176D01*
X40547267Y-37254176D01*
X40419129Y-37254176D01*
X40419127Y-37254176D01*
X40293459Y-37279173D01*
X40293453Y-37279175D01*
X40175073Y-37328209D01*
X40175064Y-37328214D01*
X40068529Y-37399399D01*
X40068525Y-37399402D01*
X39977924Y-37490003D01*
X39977921Y-37490007D01*
X39906736Y-37596542D01*
X39906731Y-37596551D01*
X39857697Y-37714931D01*
X39857695Y-37714937D01*
X39832698Y-37840604D01*
X39832698Y-37840607D01*
X39832698Y-37968745D01*
X39832698Y-37968747D01*
X39832697Y-37968747D01*
X33074054Y-37968747D01*
X33108973Y-37916487D01*
X33161778Y-37789004D01*
X33188698Y-37653669D01*
X33188698Y-37515683D01*
X33188698Y-37515680D01*
X33161779Y-37380353D01*
X33161778Y-37380352D01*
X33161778Y-37380348D01*
X33161776Y-37380343D01*
X33108976Y-37252871D01*
X33108969Y-37252858D01*
X33032312Y-37138134D01*
X33032309Y-37138130D01*
X32934743Y-37040564D01*
X32934739Y-37040561D01*
X32820015Y-36963904D01*
X32820002Y-36963897D01*
X32692530Y-36911097D01*
X32692520Y-36911094D01*
X32557193Y-36884176D01*
X32557191Y-36884176D01*
X32419205Y-36884176D01*
X32419203Y-36884176D01*
X32283875Y-36911094D01*
X32283865Y-36911097D01*
X32156393Y-36963897D01*
X32156380Y-36963904D01*
X32041656Y-37040561D01*
X32041652Y-37040564D01*
X31944086Y-37138130D01*
X31944083Y-37138134D01*
X31867426Y-37252858D01*
X31867419Y-37252871D01*
X31814619Y-37380343D01*
X31814616Y-37380353D01*
X31787698Y-37515680D01*
X31787698Y-37515683D01*
X31787698Y-37653669D01*
X31787698Y-37653671D01*
X31787697Y-37653671D01*
X30343698Y-37653671D01*
X30343698Y-36328747D01*
X40242697Y-36328747D01*
X40267695Y-36454414D01*
X40267697Y-36454420D01*
X40316731Y-36572800D01*
X40316736Y-36572809D01*
X40387921Y-36679344D01*
X40387924Y-36679348D01*
X40478525Y-36769949D01*
X40478529Y-36769952D01*
X40585064Y-36841137D01*
X40585070Y-36841140D01*
X40585071Y-36841141D01*
X40703454Y-36890177D01*
X40703458Y-36890177D01*
X40703459Y-36890178D01*
X40829126Y-36915176D01*
X40829129Y-36915176D01*
X40957269Y-36915176D01*
X41041813Y-36898358D01*
X41082942Y-36890177D01*
X41185746Y-36847593D01*
X41255214Y-36840125D01*
X41280647Y-36847592D01*
X41383454Y-36890177D01*
X41383458Y-36890177D01*
X41383459Y-36890178D01*
X41509126Y-36915176D01*
X41509129Y-36915176D01*
X41637269Y-36915176D01*
X41721813Y-36898358D01*
X41762942Y-36890177D01*
X41881325Y-36841141D01*
X41987867Y-36769952D01*
X42078474Y-36679345D01*
X42149663Y-36572803D01*
X42198699Y-36454420D01*
X42223698Y-36328745D01*
X42223698Y-36200607D01*
X42223698Y-36200604D01*
X42198700Y-36074937D01*
X42198699Y-36074936D01*
X42198699Y-36074932D01*
X42149663Y-35956549D01*
X42149662Y-35956548D01*
X42149659Y-35956542D01*
X42078474Y-35850007D01*
X42078471Y-35850003D01*
X41987870Y-35759402D01*
X41987866Y-35759399D01*
X41881331Y-35688214D01*
X41881322Y-35688209D01*
X41762942Y-35639175D01*
X41762936Y-35639173D01*
X41637269Y-35614176D01*
X41637267Y-35614176D01*
X41509129Y-35614176D01*
X41509127Y-35614176D01*
X41383459Y-35639173D01*
X41383449Y-35639176D01*
X41280650Y-35681757D01*
X41211181Y-35689226D01*
X41185746Y-35681757D01*
X41082946Y-35639176D01*
X41082936Y-35639173D01*
X40957269Y-35614176D01*
X40957267Y-35614176D01*
X40829129Y-35614176D01*
X40829127Y-35614176D01*
X40703459Y-35639173D01*
X40703453Y-35639175D01*
X40585073Y-35688209D01*
X40585064Y-35688214D01*
X40478529Y-35759399D01*
X40478525Y-35759402D01*
X40387924Y-35850003D01*
X40387921Y-35850007D01*
X40316736Y-35956542D01*
X40316731Y-35956551D01*
X40267697Y-36074931D01*
X40267695Y-36074937D01*
X40242698Y-36200604D01*
X40242698Y-36200607D01*
X40242698Y-36328745D01*
X40242698Y-36328747D01*
X40242697Y-36328747D01*
X30343698Y-36328747D01*
X30343698Y-35432520D01*
X44843198Y-35432520D01*
X44849599Y-35492048D01*
X44849601Y-35492055D01*
X44899843Y-35626762D01*
X44899847Y-35626769D01*
X44986007Y-35741863D01*
X44986010Y-35741866D01*
X45101104Y-35828026D01*
X45101111Y-35828030D01*
X45235818Y-35878272D01*
X45235825Y-35878274D01*
X45295353Y-35884675D01*
X45295370Y-35884676D01*
X45818198Y-35884676D01*
X45818198Y-34909676D01*
X44843198Y-34909676D01*
X44843198Y-35432520D01*
X30343698Y-35432520D01*
X30343698Y-34936235D01*
X30343735Y-34933187D01*
X30344313Y-34909676D01*
X30348538Y-34737878D01*
X30348856Y-34731555D01*
X30349655Y-34721019D01*
X30362795Y-34547800D01*
X30363469Y-34541245D01*
X30386123Y-34366799D01*
X30387199Y-34359999D01*
X30387822Y-34356666D01*
X30418018Y-34195044D01*
X30419526Y-34188090D01*
X30458374Y-34030932D01*
X30460335Y-34023901D01*
X30505869Y-33877620D01*
X30509740Y-33866941D01*
X30513072Y-33858917D01*
X30540195Y-33793592D01*
X37298500Y-33793592D01*
X37298500Y-33956407D01*
X37330259Y-34116073D01*
X37330262Y-34116082D01*
X37392562Y-34266490D01*
X37392563Y-34266492D01*
X37483015Y-34401862D01*
X37483018Y-34401866D01*
X37598133Y-34516981D01*
X37598137Y-34516984D01*
X37733505Y-34607435D01*
X37733506Y-34607435D01*
X37733507Y-34607436D01*
X37733509Y-34607437D01*
X37780416Y-34626866D01*
X37883919Y-34669738D01*
X37883921Y-34669738D01*
X37883926Y-34669740D01*
X38043592Y-34701499D01*
X38043595Y-34701500D01*
X38043597Y-34701500D01*
X38206405Y-34701500D01*
X38206406Y-34701499D01*
X38259629Y-34690912D01*
X38366073Y-34669740D01*
X38366076Y-34669738D01*
X38366081Y-34669738D01*
X38516495Y-34607435D01*
X38651863Y-34516984D01*
X38699997Y-34468850D01*
X45693198Y-34468850D01*
X45693198Y-34600502D01*
X45727273Y-34727669D01*
X45793099Y-34841683D01*
X45886191Y-34934775D01*
X46000205Y-35000601D01*
X46127372Y-35034676D01*
X46259024Y-35034676D01*
X46386191Y-35000601D01*
X46500205Y-34934775D01*
X46568198Y-34866782D01*
X46568198Y-35884676D01*
X47091026Y-35884676D01*
X47091042Y-35884675D01*
X47150570Y-35878274D01*
X47150577Y-35878272D01*
X47285284Y-35828030D01*
X47285291Y-35828026D01*
X47400385Y-35741866D01*
X47400388Y-35741863D01*
X47486548Y-35626769D01*
X47486552Y-35626762D01*
X47536794Y-35492055D01*
X47536796Y-35492048D01*
X47543197Y-35432520D01*
X47543198Y-35432503D01*
X47543198Y-35235763D01*
X47562883Y-35168724D01*
X47615687Y-35122969D01*
X47684845Y-35113025D01*
X47748401Y-35142050D01*
X47767516Y-35162878D01*
X47855639Y-35284171D01*
X47983698Y-35412230D01*
X47983703Y-35412234D01*
X48011625Y-35432520D01*
X48130204Y-35518672D01*
X48235682Y-35572416D01*
X48291558Y-35600887D01*
X48291561Y-35600888D01*
X48371195Y-35626762D01*
X48463789Y-35656847D01*
X48546627Y-35669967D01*
X48642647Y-35685176D01*
X48642652Y-35685176D01*
X48823749Y-35685176D01*
X48910457Y-35671441D01*
X49002607Y-35656847D01*
X49174837Y-35600887D01*
X49336192Y-35518672D01*
X49482699Y-35412229D01*
X49610751Y-35284177D01*
X49717194Y-35137670D01*
X49799409Y-34976315D01*
X49855369Y-34804085D01*
X49876647Y-34669740D01*
X49880725Y-34643997D01*
X49910654Y-34580862D01*
X49969966Y-34543931D01*
X50039828Y-34544929D01*
X50098061Y-34583539D01*
X50125671Y-34643997D01*
X50151027Y-34804086D01*
X50206985Y-34976312D01*
X50206986Y-34976315D01*
X50262862Y-35085976D01*
X50281711Y-35122969D01*
X50289204Y-35137673D01*
X50395639Y-35284170D01*
X50395643Y-35284175D01*
X50523698Y-35412230D01*
X50523703Y-35412234D01*
X50551625Y-35432520D01*
X50670204Y-35518672D01*
X50775682Y-35572416D01*
X50831558Y-35600887D01*
X50831561Y-35600888D01*
X50911195Y-35626762D01*
X51003789Y-35656847D01*
X51086627Y-35669967D01*
X51182647Y-35685176D01*
X51182652Y-35685176D01*
X51363749Y-35685176D01*
X51450457Y-35671441D01*
X51542607Y-35656847D01*
X51714837Y-35600887D01*
X51876192Y-35518672D01*
X52022699Y-35412229D01*
X52150751Y-35284177D01*
X52257194Y-35137670D01*
X52339409Y-34976315D01*
X52395369Y-34804085D01*
X52416647Y-34669740D01*
X52420725Y-34643997D01*
X52450654Y-34580862D01*
X52509966Y-34543931D01*
X52579828Y-34544929D01*
X52638061Y-34583539D01*
X52665671Y-34643997D01*
X52691027Y-34804086D01*
X52746985Y-34976312D01*
X52746986Y-34976315D01*
X52802862Y-35085976D01*
X52821711Y-35122969D01*
X52829204Y-35137673D01*
X52935639Y-35284170D01*
X52935643Y-35284175D01*
X53063698Y-35412230D01*
X53063703Y-35412234D01*
X53091625Y-35432520D01*
X53210204Y-35518672D01*
X53315682Y-35572416D01*
X53371558Y-35600887D01*
X53371561Y-35600888D01*
X53451195Y-35626762D01*
X53543789Y-35656847D01*
X53626627Y-35669967D01*
X53722647Y-35685176D01*
X53722652Y-35685176D01*
X53903749Y-35685176D01*
X53990457Y-35671441D01*
X54082607Y-35656847D01*
X54254837Y-35600887D01*
X54416192Y-35518672D01*
X54562699Y-35412229D01*
X54690751Y-35284177D01*
X54797194Y-35137670D01*
X54879409Y-34976315D01*
X54935369Y-34804085D01*
X54956647Y-34669740D01*
X54963698Y-34625227D01*
X54963698Y-34444124D01*
X54935563Y-34266495D01*
X54935369Y-34265267D01*
X54886897Y-34116082D01*
X54879410Y-34093039D01*
X54879406Y-34093031D01*
X54867060Y-34068799D01*
X54867059Y-34068797D01*
X54841478Y-34018592D01*
X57673500Y-34018592D01*
X57673500Y-34181407D01*
X57705259Y-34341073D01*
X57705262Y-34341082D01*
X57767562Y-34491490D01*
X57767563Y-34491492D01*
X57858015Y-34626862D01*
X57858018Y-34626866D01*
X57973133Y-34741981D01*
X57973137Y-34741984D01*
X58108505Y-34832435D01*
X58108506Y-34832435D01*
X58108507Y-34832436D01*
X58108509Y-34832437D01*
X58163622Y-34855265D01*
X58258919Y-34894738D01*
X58258921Y-34894738D01*
X58258926Y-34894740D01*
X58418592Y-34926499D01*
X58418595Y-34926500D01*
X58418597Y-34926500D01*
X58581405Y-34926500D01*
X58581406Y-34926499D01*
X58665983Y-34909676D01*
X58741073Y-34894740D01*
X58741076Y-34894738D01*
X58741081Y-34894738D01*
X58891495Y-34832435D01*
X59026863Y-34741984D01*
X59141984Y-34626863D01*
X59232435Y-34491495D01*
X59294738Y-34341081D01*
X59326500Y-34181403D01*
X59326500Y-34018597D01*
X59326500Y-34018594D01*
X59326499Y-34018592D01*
X59294740Y-33858926D01*
X59294737Y-33858917D01*
X59232437Y-33708509D01*
X59232436Y-33708507D01*
X59198500Y-33657719D01*
X59141984Y-33573137D01*
X59141981Y-33573133D01*
X59026866Y-33458018D01*
X59026862Y-33458015D01*
X58891492Y-33367563D01*
X58891490Y-33367562D01*
X58741082Y-33305262D01*
X58741073Y-33305259D01*
X58581406Y-33273500D01*
X58581403Y-33273500D01*
X58418597Y-33273500D01*
X58418594Y-33273500D01*
X58258926Y-33305259D01*
X58258917Y-33305262D01*
X58108509Y-33367562D01*
X58108507Y-33367563D01*
X57973137Y-33458015D01*
X57973133Y-33458018D01*
X57858018Y-33573133D01*
X57858015Y-33573137D01*
X57767563Y-33708507D01*
X57767562Y-33708509D01*
X57705262Y-33858917D01*
X57705259Y-33858926D01*
X57673500Y-34018592D01*
X54841478Y-34018592D01*
X54797195Y-33931683D01*
X54797194Y-33931682D01*
X54690756Y-33785181D01*
X54690752Y-33785176D01*
X54562697Y-33657121D01*
X54562692Y-33657117D01*
X54416195Y-33550682D01*
X54416194Y-33550681D01*
X54416192Y-33550680D01*
X54364498Y-33524340D01*
X54254837Y-33468464D01*
X54254834Y-33468463D01*
X54082608Y-33412505D01*
X53903749Y-33384176D01*
X53903744Y-33384176D01*
X53722652Y-33384176D01*
X53722647Y-33384176D01*
X53543787Y-33412505D01*
X53371561Y-33468463D01*
X53371558Y-33468464D01*
X53210200Y-33550682D01*
X53063703Y-33657117D01*
X53063698Y-33657121D01*
X52935643Y-33785176D01*
X52935639Y-33785181D01*
X52829204Y-33931678D01*
X52746986Y-34093036D01*
X52746985Y-34093039D01*
X52691027Y-34265265D01*
X52665671Y-34425354D01*
X52635742Y-34488489D01*
X52576430Y-34525420D01*
X52506567Y-34524422D01*
X52448335Y-34485812D01*
X52420725Y-34425354D01*
X52395563Y-34266495D01*
X52395369Y-34265267D01*
X52346897Y-34116082D01*
X52339410Y-34093039D01*
X52339409Y-34093036D01*
X52301477Y-34018592D01*
X52257194Y-33931682D01*
X52238879Y-33906473D01*
X52150756Y-33785181D01*
X52150752Y-33785176D01*
X52022697Y-33657121D01*
X52022692Y-33657117D01*
X51876195Y-33550682D01*
X51876194Y-33550681D01*
X51876192Y-33550680D01*
X51824498Y-33524340D01*
X51714837Y-33468464D01*
X51714834Y-33468463D01*
X51542608Y-33412505D01*
X51363749Y-33384176D01*
X51363744Y-33384176D01*
X51182652Y-33384176D01*
X51182647Y-33384176D01*
X51003787Y-33412505D01*
X50831561Y-33468463D01*
X50831558Y-33468464D01*
X50670200Y-33550682D01*
X50523703Y-33657117D01*
X50523698Y-33657121D01*
X50395643Y-33785176D01*
X50395639Y-33785181D01*
X50289204Y-33931678D01*
X50206986Y-34093036D01*
X50206985Y-34093039D01*
X50151027Y-34265265D01*
X50125671Y-34425354D01*
X50095742Y-34488489D01*
X50036430Y-34525420D01*
X49966567Y-34524422D01*
X49908335Y-34485812D01*
X49880725Y-34425354D01*
X49855563Y-34266495D01*
X49855369Y-34265267D01*
X49806897Y-34116082D01*
X49799410Y-34093039D01*
X49799409Y-34093036D01*
X49761477Y-34018592D01*
X49717194Y-33931682D01*
X49698879Y-33906473D01*
X49610756Y-33785181D01*
X49610752Y-33785176D01*
X49482697Y-33657121D01*
X49482692Y-33657117D01*
X49336195Y-33550682D01*
X49336194Y-33550681D01*
X49336192Y-33550680D01*
X49284498Y-33524340D01*
X49174837Y-33468464D01*
X49174834Y-33468463D01*
X49002608Y-33412505D01*
X48823749Y-33384176D01*
X48823744Y-33384176D01*
X48642652Y-33384176D01*
X48642647Y-33384176D01*
X48463787Y-33412505D01*
X48291561Y-33468463D01*
X48291558Y-33468464D01*
X48130200Y-33550682D01*
X47983703Y-33657117D01*
X47983698Y-33657121D01*
X47855643Y-33785176D01*
X47855639Y-33785181D01*
X47767516Y-33906473D01*
X47712186Y-33949139D01*
X47642573Y-33955118D01*
X47580778Y-33922512D01*
X47546421Y-33861674D01*
X47543198Y-33833588D01*
X47543198Y-33636848D01*
X47543197Y-33636831D01*
X47536796Y-33577303D01*
X47536794Y-33577296D01*
X47486552Y-33442589D01*
X47486548Y-33442582D01*
X47400388Y-33327488D01*
X47400385Y-33327485D01*
X47285291Y-33241325D01*
X47285284Y-33241321D01*
X47150577Y-33191079D01*
X47150570Y-33191077D01*
X47091042Y-33184676D01*
X46568198Y-33184676D01*
X46568198Y-34202570D01*
X46500205Y-34134577D01*
X46386191Y-34068751D01*
X46259024Y-34034676D01*
X46127372Y-34034676D01*
X46000205Y-34068751D01*
X45886191Y-34134577D01*
X45793099Y-34227669D01*
X45727273Y-34341683D01*
X45693198Y-34468850D01*
X38699997Y-34468850D01*
X38766984Y-34401863D01*
X38857435Y-34266495D01*
X38919738Y-34116081D01*
X38924322Y-34093039D01*
X38951499Y-33956407D01*
X38951500Y-33956405D01*
X38951500Y-33793594D01*
X38924472Y-33657719D01*
X38920317Y-33636831D01*
X44843198Y-33636831D01*
X44843198Y-34159676D01*
X45818198Y-34159676D01*
X45818198Y-33184676D01*
X45295353Y-33184676D01*
X45235825Y-33191077D01*
X45235818Y-33191079D01*
X45101111Y-33241321D01*
X45101104Y-33241325D01*
X44986010Y-33327485D01*
X44986007Y-33327488D01*
X44899847Y-33442582D01*
X44899843Y-33442589D01*
X44849601Y-33577296D01*
X44849599Y-33577303D01*
X44843198Y-33636831D01*
X38920317Y-33636831D01*
X38919738Y-33633919D01*
X38895929Y-33576439D01*
X38857437Y-33483509D01*
X38857436Y-33483507D01*
X38840403Y-33458016D01*
X38766984Y-33348137D01*
X38766981Y-33348133D01*
X38651866Y-33233018D01*
X38651862Y-33233015D01*
X38516492Y-33142563D01*
X38516490Y-33142562D01*
X38366082Y-33080262D01*
X38366073Y-33080259D01*
X38206406Y-33048500D01*
X38206403Y-33048500D01*
X38043597Y-33048500D01*
X38043594Y-33048500D01*
X37883926Y-33080259D01*
X37883917Y-33080262D01*
X37733509Y-33142562D01*
X37733507Y-33142563D01*
X37598137Y-33233015D01*
X37598133Y-33233018D01*
X37483018Y-33348133D01*
X37483015Y-33348137D01*
X37392563Y-33483507D01*
X37392562Y-33483509D01*
X37330262Y-33633917D01*
X37330259Y-33633926D01*
X37298500Y-33793592D01*
X30540195Y-33793592D01*
X30624503Y-33590543D01*
X30631439Y-33576439D01*
X30741627Y-33384176D01*
X30773265Y-33328971D01*
X30782074Y-33315666D01*
X30951376Y-33092674D01*
X30961758Y-33080681D01*
X31159021Y-32880317D01*
X31170516Y-32870014D01*
X31396680Y-32691436D01*
X31408792Y-32682995D01*
X31664587Y-32526501D01*
X31676860Y-32519910D01*
X31961862Y-32386919D01*
X31973921Y-32382045D01*
X32284700Y-32275051D01*
X32296339Y-32271671D01*
X32622276Y-32194089D01*
X32633412Y-32191972D01*
X32944535Y-32147511D01*
X32954605Y-32146492D01*
X33139500Y-32135398D01*
X33146926Y-32135176D01*
X68939909Y-32135176D01*
X68946472Y-32135350D01*
G37*
%TD.AperFunction*%
%TD*%
M02*
