M48
; DRILL file {KiCad 9.0.3+1} date 2025-09-03T21:21:11+0200
; FORMAT={-:-/ absolute / metric / decimal}
; #@! TF.CreationDate,2025-09-03T21:21:11+02:00
; #@! TF.GenerationSoftware,Kicad,Pcbnew,9.0.3+1
; #@! TF.FileFunction,Plated,1,4,PTH
FMAT,2
METRIC
; #@! TA.AperFunction,Plated,PTH,ViaDrill
T1C0.300
; #@! TA.AperFunction,Plated,PTH,ComponentDrill
T2C1.000
; #@! TA.AperFunction,Plated,PTH,ComponentDrill
T3C1.200
%
G90
G05
T1
X35.323Y-41.345
X35.333Y-36.855
X38.345Y-44.278
X38.638Y-39.405
X38.665Y-43.392
X38.728Y-47.405
X38.778Y-50.255
X38.988Y-52.16
X39.523Y-37.855
X39.626Y-49.408
X39.628Y-46.565
X39.703Y-51.335
X40.053Y-40.145
X40.483Y-37.905
X40.658Y-41.335
X40.893Y-36.265
X41.073Y-46.965
X41.343Y-50.735
X41.573Y-36.265
X42.113Y-56.195
X42.473Y-36.225
X42.818Y-41.81
X42.903Y-51.335
X43.163Y-36.235
X43.803Y-46.885
X43.833Y-39.185
X44.193Y-54.985
X44.238Y-41.81
X44.781Y-46.885
X45.588Y-43.085
X45.743Y-51.935
X45.793Y-46.875
X46.075Y-59.5
X46.273Y-40.925
X46.743Y-55.585
X46.943Y-40.895
X47.773Y-39.825
X48.283Y-40.845
X48.813Y-45.765
X48.873Y-41.615
X48.875Y-61.925
X48.938Y-53.982
X48.943Y-55.585
X49.743Y-40.525
X49.753Y-43.795
X50.275Y-60.55
X50.29Y-61.925
X50.528Y-53.972
X51.363Y-57.3
X51.363Y-58.25
X52.543Y-53.135
X53.573Y-48.715
X53.713Y-57.3
X53.713Y-58.25
X55.933Y-43.885
X55.993Y-51.535
X61.223Y-55.545
X64.32Y-36.17
X65.393Y-51.005
X65.393Y-51.845
X66.103Y-51.025
X66.103Y-51.855
T2
X32.743Y-47.285
X32.743Y-49.825
X32.743Y-52.365
X32.743Y-54.905
X46.193Y-34.535
X48.733Y-34.535
X51.273Y-34.535
X53.813Y-34.535
T3
X67.668Y-41.75
X67.668Y-45.25
M30
