%TF.GenerationSoftware,KiCad,Pcbnew,9.0.3+1*%
%TF.CreationDate,2025-09-03T21:21:13+02:00*%
%TF.ProjectId,Micro-VX,4d696372-6f2d-4565-982e-6b696361645f,rev?*%
%TF.SameCoordinates,Original*%
%TF.FileFunction,Copper,L1,Top*%
%TF.FilePolarity,Positive*%
%FSLAX46Y46*%
G04 Gerber Fmt 4.6, Leading zero omitted, Abs format (unit mm)*
G04 Created by KiCad (PCBNEW 9.0.3+1) date 2025-09-03 21:21:13*
%MOMM*%
%LPD*%
G01*
G04 APERTURE LIST*
G04 Aperture macros list*
%AMRoundRect*
0 Rectangle with rounded corners*
0 $1 Rounding radius*
0 $2 $3 $4 $5 $6 $7 $8 $9 X,Y pos of 4 corners*
0 Add a 4 corners polygon primitive as box body*
4,1,4,$2,$3,$4,$5,$6,$7,$8,$9,$2,$3,0*
0 Add four circle primitives for the rounded corners*
1,1,$1+$1,$2,$3*
1,1,$1+$1,$4,$5*
1,1,$1+$1,$6,$7*
1,1,$1+$1,$8,$9*
0 Add four rect primitives between the rounded corners*
20,1,$1+$1,$2,$3,$4,$5,0*
20,1,$1+$1,$4,$5,$6,$7,0*
20,1,$1+$1,$6,$7,$8,$9,0*
20,1,$1+$1,$8,$9,$2,$3,0*%
%AMFreePoly0*
4,1,107,0.439100,0.484900,0.460200,0.481200,0.480800,0.475500,0.500800,0.467900,0.520000,0.458400,0.538200,0.447100,0.555200,0.434100,0.571000,0.419600,0.585200,0.403600,0.597900,0.386400,0.608900,0.368000,0.618100,0.348700,0.625500,0.328500,0.630800,0.307800,0.634200,0.286700,0.635600,0.265300,0.634900,0.243900,0.632200,0.222700,0.627500,0.201800,0.620800,0.181400,
0.612200,0.161800,0.601800,0.143100,0.589700,0.125500,0.575900,0.109100,0.560600,0.094100,0.544000,0.080600,0.526200,0.068700,0.507300,0.058600,0.487600,0.050300,0.446900,0.034400,0.407100,0.016500,0.368200,-0.003200,0.330400,-0.024900,0.293500,-0.048300,0.257900,-0.073500,0.223600,-0.100400,0.190600,-0.128900,0.159000,-0.159000,0.128900,-0.190600,0.100400,-0.223600,
0.073500,-0.258000,0.048300,-0.293600,0.024800,-0.330400,0.003200,-0.368300,-0.016600,-0.407200,-0.034400,-0.447000,-0.050300,-0.487600,-0.058600,-0.507300,-0.068700,-0.526200,-0.080600,-0.544000,-0.094100,-0.560700,-0.109100,-0.575900,-0.125500,-0.589700,-0.143100,-0.601800,-0.161800,-0.612200,-0.181500,-0.620800,-0.201800,-0.627500,-0.222700,-0.632200,-0.243900,-0.634900,-0.265300,-0.635600,
-0.286700,-0.634200,-0.307800,-0.630900,-0.328600,-0.625500,-0.348700,-0.618200,-0.368000,-0.609000,-0.386400,-0.598000,-0.403600,-0.585300,-0.419600,-0.571000,-0.434100,-0.555300,-0.447100,-0.538200,-0.458400,-0.520000,-0.467900,-0.500800,-0.475500,-0.480800,-0.481200,-0.460200,-0.485000,-0.439100,-0.486700,-0.417800,-0.486300,-0.396400,-0.483900,-0.375100,-0.479600,-0.354100,-0.473200,-0.333700,
-0.453900,-0.283700,-0.432600,-0.234600,-0.409400,-0.186300,-0.384300,-0.139000,-0.357400,-0.092800,-0.328600,-0.047600,-0.298000,-0.003600,-0.265800,0.039100,-0.231900,0.080500,-0.196300,0.120600,-0.159200,0.159200,-0.120600,0.196300,-0.080500,0.231800,-0.039100,0.265800,0.003600,0.298000,0.047600,0.328500,0.092800,0.357300,0.139000,0.384300,0.186300,0.409400,0.234600,0.432600,
0.283700,0.453900,0.333700,0.473200,0.354100,0.479500,0.375100,0.483900,0.396300,0.486300,0.417800,0.486600,0.439100,0.484900,0.439100,0.484900,$1*%
%AMFreePoly1*
4,1,254,-0.396400,2.077100,-0.375100,2.074700,-0.354100,2.070300,-0.333700,2.064000,-0.284600,2.045000,-0.236300,2.024200,-0.188800,2.001500,-0.142300,1.976900,-0.096800,1.950600,-0.052300,1.922500,-0.008900,1.892700,0.033200,1.861200,0.074100,1.828100,0.113700,1.793400,0.151900,1.757200,0.188600,1.719600,0.223900,1.680600,0.257600,1.640200,0.289700,1.598500,0.320200,1.555600,
0.349000,1.511600,0.376000,1.466400,0.401300,1.420300,0.424700,1.373200,0.446300,1.325200,0.466000,1.276400,0.483800,1.226900,0.499600,1.176700,0.513500,1.126000,0.525400,1.074700,0.535300,1.023100,0.543100,0.971000,0.548900,0.918800,0.552700,0.866300,0.554500,0.813700,0.554200,0.761100,0.551800,0.708500,0.547400,0.656100,0.540900,0.603900,0.532500,0.552000,
0.522000,0.500400,0.509500,0.449300,0.495000,0.398700,0.478600,0.348800,0.460200,0.299500,0.439900,0.250900,0.417800,0.203200,0.393800,0.156400,0.368000,0.110500,0.340400,0.065700,0.311100,0.022000,0.280100,-0.020500,0.247500,-0.061800,0.213300,-0.101800,0.177600,-0.140400,0.140400,-0.177600,0.101800,-0.213300,0.061800,-0.247500,0.020500,-0.280100,-0.022000,-0.311100,
-0.065700,-0.340400,-0.110500,-0.368000,-0.156400,-0.393800,-0.203200,-0.417800,-0.250900,-0.439900,-0.299500,-0.460200,-0.348700,-0.478600,-0.398700,-0.495000,-0.449300,-0.509500,-0.500400,-0.522000,-0.552000,-0.532500,-0.603900,-0.540900,-0.656100,-0.547400,-0.708500,-0.551800,-0.761100,-0.554200,-0.813700,-0.554500,-0.866300,-0.552700,-0.918700,-0.548900,-0.971000,-0.543100,-1.023100,-0.535300,
-1.074700,-0.525400,-1.126000,-0.513500,-1.176700,-0.499600,-1.226900,-0.483800,-1.276400,-0.466000,-1.325200,-0.446300,-1.373200,-0.424700,-1.420300,-0.401300,-1.466400,-0.376000,-1.511600,-0.349000,-1.555600,-0.320200,-1.598500,-0.289700,-1.640200,-0.257600,-1.680600,-0.223900,-1.719600,-0.188600,-1.757200,-0.151900,-1.793400,-0.113700,-1.828100,-0.074100,-1.861200,-0.033200,-1.892700,0.008900,
-1.922400,0.052300,-1.950600,0.096800,-1.976900,0.142300,-2.001400,0.188800,-2.024200,0.236300,-2.045000,0.284600,-2.064000,0.333700,-2.070300,0.354100,-2.074700,0.375100,-2.077100,0.396400,-2.077400,0.417800,-2.075700,0.439100,-2.072000,0.460200,-2.066300,0.480800,-2.058700,0.500800,-2.049200,0.520000,-2.037900,0.538200,-2.024900,0.555300,-2.010400,0.571000,-1.994400,0.585300,
-1.977200,0.598000,-1.958800,0.609000,-1.939500,0.618200,-1.919400,0.625500,-1.898600,0.630900,-1.877500,0.634200,-1.856100,0.635600,-1.834700,0.634900,-1.813500,0.632200,-1.792600,0.627500,-1.772200,0.620800,-1.752600,0.612200,-1.733900,0.601800,-1.716300,0.589700,-1.699900,0.575900,-1.684900,0.560700,-1.671400,0.544000,-1.659500,0.526200,-1.649400,0.507300,-1.641100,0.487600,
-1.625400,0.447500,-1.607900,0.408300,-1.588500,0.369900,-1.567200,0.332500,-1.544200,0.296200,-1.519500,0.261000,-1.493200,0.227000,-1.465200,0.194300,-1.435700,0.163000,-1.404800,0.133100,-1.372500,0.104800,-1.338800,0.078000,-1.303900,0.052900,-1.267900,0.029400,-1.230700,0.007700,-1.192600,-0.012200,-1.153600,-0.030300,-1.113700,-0.046400,-1.073100,-0.060700,-1.032000,-0.072900,
-0.990200,-0.083300,-0.948000,-0.091600,-0.905500,-0.097800,-0.862700,-0.102100,-0.819700,-0.104300,-0.776700,-0.104400,-0.733700,-0.102500,-0.690900,-0.098500,-0.648300,-0.092500,-0.606100,-0.084500,-0.564300,-0.074400,-0.523000,-0.062400,-0.482300,-0.048400,-0.442400,-0.032500,-0.403200,-0.014700,-0.365000,0.005000,-0.327700,0.026500,-0.291500,0.049700,-0.256500,0.074600,-0.222700,0.101200,
-0.190100,0.129300,-0.159000,0.159000,-0.129300,0.190100,-0.101200,0.222700,-0.074600,0.256500,-0.049700,0.291500,-0.026500,0.327700,-0.005000,0.365000,0.014700,0.403200,0.032500,0.442400,0.048400,0.482300,0.062400,0.523000,0.074400,0.564300,0.084500,0.606100,0.092500,0.648300,0.098500,0.690900,0.102500,0.733800,0.104400,0.776700,0.104300,0.819700,0.102100,0.862700,
0.097800,0.905500,0.091600,0.948000,0.083300,0.990200,0.072900,1.032000,0.060700,1.073100,0.046400,1.113700,0.030300,1.153600,0.012200,1.192600,-0.007700,1.230800,-0.029400,1.267900,-0.052900,1.303900,-0.078000,1.338800,-0.104800,1.372500,-0.133100,1.404800,-0.163000,1.435800,-0.194300,1.465200,-0.227000,1.493200,-0.261000,1.519500,-0.296200,1.544200,-0.332500,1.567200,
-0.369900,1.588500,-0.408300,1.607900,-0.447500,1.625400,-0.487600,1.641100,-0.507300,1.649400,-0.526200,1.659500,-0.544000,1.671400,-0.560700,1.684900,-0.575900,1.699900,-0.589700,1.716300,-0.601800,1.733900,-0.612200,1.752600,-0.620800,1.772300,-0.627500,1.792600,-0.632200,1.813500,-0.634900,1.834700,-0.635600,1.856100,-0.634200,1.877500,-0.630900,1.898600,-0.625500,1.919300,
-0.618200,1.939500,-0.609000,1.958800,-0.598000,1.977200,-0.585300,1.994400,-0.571000,2.010400,-0.555200,2.024900,-0.538200,2.037900,-0.520000,2.049200,-0.500800,2.058700,-0.480800,2.066300,-0.460200,2.072000,-0.439100,2.075700,-0.417800,2.077400,-0.396400,2.077100,-0.396400,2.077100,$1*%
G04 Aperture macros list end*
%TA.AperFunction,SMDPad,CuDef*%
%ADD10RoundRect,0.225000X-0.225000X-0.250000X0.225000X-0.250000X0.225000X0.250000X-0.225000X0.250000X0*%
%TD*%
%TA.AperFunction,SMDPad,CuDef*%
%ADD11RoundRect,0.135000X0.185000X-0.135000X0.185000X0.135000X-0.185000X0.135000X-0.185000X-0.135000X0*%
%TD*%
%TA.AperFunction,SMDPad,CuDef*%
%ADD12O,0.900000X0.900000*%
%TD*%
%TA.AperFunction,SMDPad,CuDef*%
%ADD13FreePoly0,0.000000*%
%TD*%
%TA.AperFunction,SMDPad,CuDef*%
%ADD14FreePoly1,0.000000*%
%TD*%
%TA.AperFunction,SMDPad,CuDef*%
%ADD15RoundRect,0.250000X0.325000X0.650000X-0.325000X0.650000X-0.325000X-0.650000X0.325000X-0.650000X0*%
%TD*%
%TA.AperFunction,SMDPad,CuDef*%
%ADD16RoundRect,0.225000X-0.250000X0.225000X-0.250000X-0.225000X0.250000X-0.225000X0.250000X0.225000X0*%
%TD*%
%TA.AperFunction,SMDPad,CuDef*%
%ADD17RoundRect,0.140000X0.140000X0.170000X-0.140000X0.170000X-0.140000X-0.170000X0.140000X-0.170000X0*%
%TD*%
%TA.AperFunction,SMDPad,CuDef*%
%ADD18RoundRect,0.135000X-0.135000X-0.185000X0.135000X-0.185000X0.135000X0.185000X-0.135000X0.185000X0*%
%TD*%
%TA.AperFunction,SMDPad,CuDef*%
%ADD19RoundRect,0.135000X0.135000X0.185000X-0.135000X0.185000X-0.135000X-0.185000X0.135000X-0.185000X0*%
%TD*%
%TA.AperFunction,SMDPad,CuDef*%
%ADD20RoundRect,0.250000X-0.650000X0.325000X-0.650000X-0.325000X0.650000X-0.325000X0.650000X0.325000X0*%
%TD*%
%TA.AperFunction,SMDPad,CuDef*%
%ADD21RoundRect,0.218750X-0.218750X-0.256250X0.218750X-0.256250X0.218750X0.256250X-0.218750X0.256250X0*%
%TD*%
%TA.AperFunction,SMDPad,CuDef*%
%ADD22RoundRect,0.250000X-0.325000X-0.650000X0.325000X-0.650000X0.325000X0.650000X-0.325000X0.650000X0*%
%TD*%
%TA.AperFunction,ComponentPad*%
%ADD23R,1.700000X1.700000*%
%TD*%
%TA.AperFunction,ComponentPad*%
%ADD24C,1.700000*%
%TD*%
%TA.AperFunction,SMDPad,CuDef*%
%ADD25RoundRect,0.150000X0.150000X-0.512500X0.150000X0.512500X-0.150000X0.512500X-0.150000X-0.512500X0*%
%TD*%
%TA.AperFunction,SMDPad,CuDef*%
%ADD26RoundRect,0.062500X0.062500X-0.375000X0.062500X0.375000X-0.062500X0.375000X-0.062500X-0.375000X0*%
%TD*%
%TA.AperFunction,SMDPad,CuDef*%
%ADD27RoundRect,0.062500X0.375000X-0.062500X0.375000X0.062500X-0.375000X0.062500X-0.375000X-0.062500X0*%
%TD*%
%TA.AperFunction,HeatsinkPad*%
%ADD28R,3.450000X3.450000*%
%TD*%
%TA.AperFunction,SMDPad,CuDef*%
%ADD29R,0.800000X1.000000*%
%TD*%
%TA.AperFunction,SMDPad,CuDef*%
%ADD30R,1.500000X0.700000*%
%TD*%
%TA.AperFunction,SMDPad,CuDef*%
%ADD31RoundRect,0.135000X-0.185000X0.135000X-0.185000X-0.135000X0.185000X-0.135000X0.185000X0.135000X0*%
%TD*%
%TA.AperFunction,ComponentPad*%
%ADD32RoundRect,0.250001X0.949999X-0.949999X0.949999X0.949999X-0.949999X0.949999X-0.949999X-0.949999X0*%
%TD*%
%TA.AperFunction,ComponentPad*%
%ADD33C,2.400000*%
%TD*%
%TA.AperFunction,SMDPad,CuDef*%
%ADD34RoundRect,0.140000X-0.170000X0.140000X-0.170000X-0.140000X0.170000X-0.140000X0.170000X0.140000X0*%
%TD*%
%TA.AperFunction,SMDPad,CuDef*%
%ADD35R,0.280000X0.300000*%
%TD*%
%TA.AperFunction,SMDPad,CuDef*%
%ADD36RoundRect,0.250000X-0.375000X-0.625000X0.375000X-0.625000X0.375000X0.625000X-0.375000X0.625000X0*%
%TD*%
%TA.AperFunction,SMDPad,CuDef*%
%ADD37RoundRect,0.225000X-0.375000X0.225000X-0.375000X-0.225000X0.375000X-0.225000X0.375000X0.225000X0*%
%TD*%
%TA.AperFunction,SMDPad,CuDef*%
%ADD38RoundRect,0.140000X-0.140000X-0.170000X0.140000X-0.170000X0.140000X0.170000X-0.140000X0.170000X0*%
%TD*%
%TA.AperFunction,SMDPad,CuDef*%
%ADD39R,1.380000X0.450000*%
%TD*%
%TA.AperFunction,SMDPad,CuDef*%
%ADD40R,1.300000X1.650000*%
%TD*%
%TA.AperFunction,SMDPad,CuDef*%
%ADD41R,1.550000X1.425000*%
%TD*%
%TA.AperFunction,SMDPad,CuDef*%
%ADD42R,1.900000X1.800000*%
%TD*%
%TA.AperFunction,SMDPad,CuDef*%
%ADD43R,1.900000X1.000000*%
%TD*%
%TA.AperFunction,SMDPad,CuDef*%
%ADD44RoundRect,0.375000X0.375000X-0.625000X0.375000X0.625000X-0.375000X0.625000X-0.375000X-0.625000X0*%
%TD*%
%TA.AperFunction,SMDPad,CuDef*%
%ADD45RoundRect,0.500000X1.400000X-0.500000X1.400000X0.500000X-1.400000X0.500000X-1.400000X-0.500000X0*%
%TD*%
%TA.AperFunction,ViaPad*%
%ADD46C,0.700000*%
%TD*%
%TA.AperFunction,Conductor*%
%ADD47C,0.750000*%
%TD*%
%TA.AperFunction,Conductor*%
%ADD48C,0.300000*%
%TD*%
%TA.AperFunction,Conductor*%
%ADD49C,0.500000*%
%TD*%
%TA.AperFunction,Conductor*%
%ADD50C,0.200000*%
%TD*%
%TA.AperFunction,Conductor*%
%ADD51C,0.250000*%
%TD*%
G04 APERTURE END LIST*
D10*
%TO.P,C15,1*%
%TO.N,Net-(MIC1-+)*%
X51450000Y-59500000D03*
%TO.P,C15,2*%
%TO.N,Net-(C11-Pad1)*%
X53000000Y-59500000D03*
%TD*%
D11*
%TO.P,R9,1*%
%TO.N,GND*%
X48000000Y-59500000D03*
%TO.P,R9,2*%
%TO.N,V_mic*%
X48000000Y-58480000D03*
%TD*%
%TO.P,R7,1*%
%TO.N,Net-(MIC1-+)*%
X49250000Y-59520000D03*
%TO.P,R7,2*%
%TO.N,V_mic*%
X49250000Y-58500000D03*
%TD*%
%TO.P,R8,1*%
%TO.N,+3.3V*%
X46750000Y-59500000D03*
%TO.P,R8,2*%
%TO.N,V_mic*%
X46750000Y-58480000D03*
%TD*%
D12*
%TO.P,MIC1,1,+*%
%TO.N,Net-(MIC1-+)*%
X50295500Y-62295500D03*
D13*
%TO.P,MIC1,2,-*%
%TO.N,GND*%
X49500000Y-61500000D03*
D14*
X51090800Y-63090800D03*
%TD*%
D15*
%TO.P,C8,1*%
%TO.N,VBUS*%
X57418198Y-48234676D03*
%TO.P,C8,2*%
%TO.N,GND*%
X54468198Y-48234676D03*
%TD*%
D16*
%TO.P,C5,1*%
%TO.N,+3.3VA*%
X47548198Y-54002176D03*
%TO.P,C5,2*%
%TO.N,GND*%
X47548198Y-55552176D03*
%TD*%
D17*
%TO.P,C7,1*%
%TO.N,NRST*%
X43793198Y-52294676D03*
%TO.P,C7,2*%
%TO.N,GND*%
X42833198Y-52294676D03*
%TD*%
D18*
%TO.P,R1,1*%
%TO.N,Net-(SW1-B)*%
X35943198Y-39834676D03*
%TO.P,R1,2*%
%TO.N,BOOT0*%
X36963198Y-39834676D03*
%TD*%
D19*
%TO.P,R2,1*%
%TO.N,/USR_LED_K*%
X65930000Y-36180000D03*
%TO.P,R2,2*%
%TO.N,GND*%
X64910000Y-36180000D03*
%TD*%
D16*
%TO.P,C6,1*%
%TO.N,+3.3V*%
X49738198Y-53967176D03*
%TO.P,C6,2*%
%TO.N,GND*%
X49738198Y-55517176D03*
%TD*%
D18*
%TO.P,R6,1*%
%TO.N,+3.3V*%
X43893198Y-39834676D03*
%TO.P,R6,2*%
%TO.N,I2C1_SDA*%
X44913198Y-39834676D03*
%TD*%
D20*
%TO.P,C9,1*%
%TO.N,+3.3V*%
X50968198Y-40559676D03*
%TO.P,C9,2*%
%TO.N,GND*%
X50968198Y-43509676D03*
%TD*%
D21*
%TO.P,D1,1,K*%
%TO.N,/USR_LED_K*%
X67975000Y-36175000D03*
%TO.P,D1,2,A*%
%TO.N,LED*%
X69550000Y-36175000D03*
%TD*%
D22*
%TO.P,C11,1*%
%TO.N,Net-(C11-Pad1)*%
X52593198Y-54784676D03*
%TO.P,C11,2*%
%TO.N,Net-(C11-Pad2)*%
X55543198Y-54784676D03*
%TD*%
D23*
%TO.P,J3,1,Pin_1*%
%TO.N,GND*%
X46193198Y-34534676D03*
D24*
%TO.P,J3,2,Pin_2*%
%TO.N,+3.3V*%
X48733198Y-34534676D03*
%TO.P,J3,3,Pin_3*%
%TO.N,I2C1_SCL*%
X51273198Y-34534676D03*
%TO.P,J3,4,Pin_4*%
%TO.N,I2C1_SDA*%
X53813198Y-34534676D03*
%TD*%
D16*
%TO.P,C10,1*%
%TO.N,ADC_In*%
X52613198Y-50844676D03*
%TO.P,C10,2*%
%TO.N,GND*%
X52613198Y-52394676D03*
%TD*%
D25*
%TO.P,U4,1,I/O1*%
%TO.N,USB_CONN_D-*%
X60093198Y-54529676D03*
%TO.P,U4,2,GND*%
%TO.N,GND*%
X61043198Y-54529676D03*
%TO.P,U4,3,I/O2*%
%TO.N,USB_CONN_D+*%
X61993198Y-54529676D03*
%TO.P,U4,4,I/O2*%
%TO.N,USB_D+*%
X61993198Y-52254676D03*
%TO.P,U4,5,VBUS*%
%TO.N,VBUS*%
X61043198Y-52254676D03*
%TO.P,U4,6,I/O1*%
%TO.N,USB_D-*%
X60093198Y-52254676D03*
%TD*%
D17*
%TO.P,C1,1*%
%TO.N,+3.3V*%
X42928198Y-50697176D03*
%TO.P,C1,2*%
%TO.N,GND*%
X41968198Y-50697176D03*
%TD*%
D26*
%TO.P,U1,1,VDD*%
%TO.N,+3.3V*%
X43030698Y-49322176D03*
%TO.P,U1,2,PC14*%
%TO.N,unconnected-(U1-PC14-Pad2)*%
X43530698Y-49322176D03*
%TO.P,U1,3,PC15*%
%TO.N,unconnected-(U1-PC15-Pad3)*%
X44030698Y-49322176D03*
%TO.P,U1,4,NRST*%
%TO.N,NRST*%
X44530698Y-49322176D03*
%TO.P,U1,5,VDDA*%
%TO.N,+3.3VA*%
X45030698Y-49322176D03*
%TO.P,U1,6,PA0*%
%TO.N,unconnected-(U1-PA0-Pad6)*%
X45530698Y-49322176D03*
%TO.P,U1,7,PA1*%
%TO.N,ACC_Pin*%
X46030698Y-49322176D03*
%TO.P,U1,8,PA2*%
%TO.N,unconnected-(U1-PA2-Pad8)*%
X46530698Y-49322176D03*
D27*
%TO.P,U1,9,PA3*%
%TO.N,ADC_In*%
X47218198Y-48634676D03*
%TO.P,U1,10,PA4*%
%TO.N,unconnected-(U1-PA4-Pad10)*%
X47218198Y-48134676D03*
%TO.P,U1,11,PA5*%
%TO.N,unconnected-(U1-PA5-Pad11)*%
X47218198Y-47634676D03*
%TO.P,U1,12,PA6*%
%TO.N,unconnected-(U1-PA6-Pad12)*%
X47218198Y-47134676D03*
%TO.P,U1,13,PA7*%
%TO.N,unconnected-(U1-PA7-Pad13)*%
X47218198Y-46634676D03*
%TO.P,U1,14,PB0*%
%TO.N,unconnected-(U1-PB0-Pad14)*%
X47218198Y-46134676D03*
%TO.P,U1,15,PB1*%
%TO.N,unconnected-(U1-PB1-Pad15)*%
X47218198Y-45634676D03*
%TO.P,U1,16,VSS*%
%TO.N,GND*%
X47218198Y-45134676D03*
D26*
%TO.P,U1,17,VDD*%
%TO.N,+3.3V*%
X46530698Y-44447176D03*
%TO.P,U1,18,PA8*%
%TO.N,unconnected-(U1-PA8-Pad18)*%
X46030698Y-44447176D03*
%TO.P,U1,19,PA9*%
%TO.N,I2C1_SCL*%
X45530698Y-44447176D03*
%TO.P,U1,20,PA10*%
%TO.N,I2C1_SDA*%
X45030698Y-44447176D03*
%TO.P,U1,21,PA11*%
%TO.N,USB_D-*%
X44530698Y-44447176D03*
%TO.P,U1,22,PA12*%
%TO.N,USB_D+*%
X44030698Y-44447176D03*
%TO.P,U1,23,PA13*%
%TO.N,SWDIO*%
X43530698Y-44447176D03*
%TO.P,U1,24,PA14*%
%TO.N,SWCLK*%
X43030698Y-44447176D03*
D27*
%TO.P,U1,25,PA15*%
%TO.N,unconnected-(U1-PA15-Pad25)*%
X42343198Y-45134676D03*
%TO.P,U1,26,PB3*%
%TO.N,unconnected-(U1-PB3-Pad26)*%
X42343198Y-45634676D03*
%TO.P,U1,27,PB4*%
%TO.N,unconnected-(U1-PB4-Pad27)*%
X42343198Y-46134676D03*
%TO.P,U1,28,PB5*%
%TO.N,unconnected-(U1-PB5-Pad28)*%
X42343198Y-46634676D03*
%TO.P,U1,29,PB6*%
%TO.N,LED*%
X42343198Y-47134676D03*
%TO.P,U1,30,PB7*%
%TO.N,unconnected-(U1-PB7-Pad30)*%
X42343198Y-47634676D03*
%TO.P,U1,31,PH3*%
%TO.N,BOOT0*%
X42343198Y-48134676D03*
%TO.P,U1,32,VSS*%
%TO.N,GND*%
X42343198Y-48634676D03*
D28*
%TO.P,U1,33,VSS*%
X44780698Y-46884676D03*
%TD*%
D23*
%TO.P,J2,1,Pin_1*%
%TO.N,+3.3V*%
X32743198Y-47284676D03*
D24*
%TO.P,J2,2,Pin_2*%
%TO.N,SWDIO*%
X32743198Y-49824676D03*
%TO.P,J2,3,Pin_3*%
%TO.N,SWCLK*%
X32743198Y-52364676D03*
%TO.P,J2,4,Pin_4*%
%TO.N,GND*%
X32743198Y-54904676D03*
%TD*%
D29*
%TO.P,SW1,*%
%TO.N,*%
X33598198Y-35434676D03*
X31388198Y-35434676D03*
X33598198Y-42734676D03*
X31388198Y-42734676D03*
D30*
%TO.P,SW1,1,A*%
%TO.N,GND*%
X34248198Y-36834676D03*
%TO.P,SW1,2,B*%
%TO.N,Net-(SW1-B)*%
X34248198Y-39834676D03*
%TO.P,SW1,3,C*%
%TO.N,+3.3V*%
X34248198Y-41334676D03*
%TD*%
D31*
%TO.P,R4,1*%
%TO.N,GND*%
X55363198Y-51514676D03*
%TO.P,R4,2*%
%TO.N,Net-(C11-Pad2)*%
X55363198Y-52534676D03*
%TD*%
D19*
%TO.P,R5,1*%
%TO.N,+3.3V*%
X47163198Y-39834676D03*
%TO.P,R5,2*%
%TO.N,I2C1_SCL*%
X46143198Y-39834676D03*
%TD*%
D32*
%TO.P,J4,1,Pin_1*%
%TO.N,VDC*%
X67667500Y-45250000D03*
D33*
%TO.P,J4,2,Pin_2*%
%TO.N,GND*%
X67667500Y-41750000D03*
%TD*%
D34*
%TO.P,C4,1*%
%TO.N,+3.3VA*%
X45093198Y-50784676D03*
%TO.P,C4,2*%
%TO.N,GND*%
X45093198Y-51744676D03*
%TD*%
D35*
%TO.P,U3,1,SCL/SPC*%
%TO.N,I2C1_SCL*%
X40828198Y-41039676D03*
%TO.P,U3,2,CS*%
%TO.N,unconnected-(U3-CS-Pad2)*%
X41328198Y-41039676D03*
%TO.P,U3,3,SDO/SA0*%
%TO.N,GND*%
X41828198Y-41039676D03*
%TO.P,U3,4,SDA*%
%TO.N,I2C1_SDA*%
X42328198Y-41039676D03*
%TO.P,U3,5,NC*%
%TO.N,unconnected-(U3-NC-Pad5)*%
X42328198Y-40539676D03*
%TO.P,U3,6,GND*%
%TO.N,GND*%
X42328198Y-40039676D03*
%TO.P,U3,7,RES*%
X42328198Y-39539676D03*
%TO.P,U3,8,GND*%
X41828198Y-39539676D03*
%TO.P,U3,9,VDD*%
%TO.N,+3.3V*%
X41328198Y-39539676D03*
%TO.P,U3,10,VDDIO*%
X40828198Y-39539676D03*
%TO.P,U3,11,INT2*%
%TO.N,unconnected-(U3-INT2-Pad11)*%
X40828198Y-40039676D03*
%TO.P,U3,12,INT1*%
%TO.N,ACC_Pin*%
X40828198Y-40539676D03*
%TD*%
D10*
%TO.P,C12,1*%
%TO.N,+3.3V*%
X41248198Y-37009676D03*
%TO.P,C12,2*%
%TO.N,GND*%
X42798198Y-37009676D03*
%TD*%
D36*
%TO.P,FB1,1*%
%TO.N,+3.3VA*%
X47303198Y-51744676D03*
%TO.P,FB1,2*%
%TO.N,+3.3V*%
X50103198Y-51744676D03*
%TD*%
D37*
%TO.P,D2,1,K*%
%TO.N,VBUS*%
X61500000Y-43500000D03*
%TO.P,D2,2,A*%
%TO.N,VDC*%
X61500000Y-46800000D03*
%TD*%
D11*
%TO.P,R3,1*%
%TO.N,Net-(C11-Pad2)*%
X54093198Y-52514676D03*
%TO.P,R3,2*%
%TO.N,ADC_In*%
X54093198Y-51494676D03*
%TD*%
D38*
%TO.P,C2,1*%
%TO.N,+3.3V*%
X46863198Y-43054676D03*
%TO.P,C2,2*%
%TO.N,GND*%
X47823198Y-43054676D03*
%TD*%
D39*
%TO.P,J1,1,VBUS*%
%TO.N,VBUS*%
X67683198Y-54434676D03*
%TO.P,J1,2,D-*%
%TO.N,USB_CONN_D-*%
X67683198Y-53784676D03*
%TO.P,J1,3,D+*%
%TO.N,USB_CONN_D+*%
X67683198Y-53134676D03*
%TO.P,J1,4,ID*%
%TO.N,unconnected-(J1-ID-Pad4)*%
X67683198Y-52484676D03*
%TO.P,J1,5,GND*%
%TO.N,GND*%
X67683198Y-51834676D03*
D40*
%TO.P,J1,6,Shield*%
%TO.N,unconnected-(J1-Shield-Pad6)_1*%
X70343198Y-56509676D03*
D41*
%TO.N,unconnected-(J1-Shield-Pad6)_5*%
X67768198Y-55622176D03*
D42*
%TO.N,unconnected-(J1-Shield-Pad6)_2*%
X70343198Y-54284676D03*
D43*
%TO.N,unconnected-(J1-Shield-Pad6)*%
X70343198Y-51584676D03*
D41*
%TO.N,unconnected-(J1-Shield-Pad6)_4*%
X67768198Y-50647176D03*
D40*
%TO.N,unconnected-(J1-Shield-Pad6)_3*%
X70343198Y-49759676D03*
%TD*%
D10*
%TO.P,C3,1*%
%TO.N,+3.3V*%
X46563198Y-41604676D03*
%TO.P,C3,2*%
%TO.N,GND*%
X48113198Y-41604676D03*
%TD*%
D44*
%TO.P,U2,1,GND*%
%TO.N,GND*%
X53618198Y-45234676D03*
%TO.P,U2,2,VO*%
%TO.N,+3.3V*%
X55918198Y-45234676D03*
D45*
X55918198Y-38934676D03*
D44*
%TO.P,U2,3,VI*%
%TO.N,VBUS*%
X58218198Y-45234676D03*
%TD*%
D17*
%TO.P,C14,1*%
%TO.N,+3.3V*%
X40548198Y-38509676D03*
%TO.P,C14,2*%
%TO.N,GND*%
X39588198Y-38509676D03*
%TD*%
D38*
%TO.P,C13,1*%
%TO.N,+3.3V*%
X41588198Y-38509676D03*
%TO.P,C13,2*%
%TO.N,GND*%
X42548198Y-38509676D03*
%TD*%
D46*
%TO.N,Net-(MIC1-+)*%
X50275000Y-60550000D03*
X50289977Y-61925000D03*
%TO.N,GND*%
X48875000Y-61925000D03*
%TO.N,+3.3V*%
X46075000Y-59500000D03*
X46273198Y-40924676D03*
X43833198Y-39184676D03*
X50528198Y-53972176D03*
X41573198Y-36264676D03*
X47773198Y-39824676D03*
X48938198Y-53982176D03*
X35323198Y-41344676D03*
X42903198Y-51334676D03*
X40483198Y-37904676D03*
X49743198Y-40524676D03*
X40893198Y-36264676D03*
X55933198Y-43884676D03*
X46943198Y-40894676D03*
%TO.N,LED*%
X48813198Y-45764676D03*
X41073198Y-46964676D03*
%TO.N,I2C1_SCL*%
X42818198Y-41809676D03*
X44238198Y-41809676D03*
X45588198Y-43084676D03*
X40657654Y-41334677D03*
%TO.N,USB_D-*%
X51363198Y-57299676D03*
X39626355Y-49408271D03*
X39628197Y-46565059D03*
X39703198Y-51334676D03*
X53713198Y-57299676D03*
X38664508Y-43391671D03*
%TO.N,ACC_Pin*%
X42113198Y-56194676D03*
X38638198Y-39404676D03*
X40053198Y-40144676D03*
X44193198Y-54984676D03*
%TO.N,USB_D+*%
X51363198Y-58249676D03*
X38987676Y-52160194D03*
X38345379Y-44277899D03*
X38728198Y-47404676D03*
X53713198Y-58249676D03*
X38778199Y-50254676D03*
%TO.N,GND*%
X65393198Y-51844676D03*
X64320000Y-36170000D03*
X48873198Y-41614676D03*
X43803198Y-46884676D03*
X49753198Y-43794676D03*
X66103198Y-51024676D03*
X46743198Y-55584676D03*
X43163198Y-36234676D03*
X41343198Y-50734676D03*
X42473198Y-36224676D03*
X45793198Y-46874676D03*
X35333198Y-36854676D03*
X48943198Y-55584676D03*
X61223198Y-55544676D03*
X66103198Y-51854676D03*
X53573198Y-48714676D03*
X44780698Y-46884676D03*
X39523198Y-37854676D03*
X55993198Y-51534676D03*
X48283198Y-40844676D03*
X52543198Y-53134676D03*
X65393198Y-51004676D03*
X45743198Y-51934676D03*
%TD*%
D47*
%TO.N,GND*%
X48875000Y-61925000D02*
X48875000Y-62325984D01*
X48875000Y-62325984D02*
X50173741Y-63624725D01*
X50173741Y-63624725D02*
X50556875Y-63624725D01*
X50556875Y-63624725D02*
X51090800Y-63090800D01*
X48875000Y-61925000D02*
X48931663Y-61925000D01*
X48931663Y-61925000D02*
X49428332Y-61428331D01*
D48*
%TO.N,Net-(MIC1-+)*%
X50295500Y-62295500D02*
X50295500Y-61881771D01*
X50295500Y-61881771D02*
X50289977Y-61876248D01*
X50271899Y-60603914D02*
X50428101Y-60603914D01*
D49*
%TO.N,+3.3V*%
X46075000Y-59500000D02*
X46750000Y-59500000D01*
D48*
%TO.N,Net-(MIC1-+)*%
X50255783Y-60595025D02*
X50354975Y-60595025D01*
X50354975Y-60595025D02*
X51450000Y-59500000D01*
D49*
%TO.N,GND*%
X48000000Y-59500000D02*
X48000000Y-61000000D01*
X48000000Y-61000000D02*
X49000000Y-62000000D01*
D47*
%TO.N,V_mic*%
X46750000Y-58480000D02*
X49230000Y-58480000D01*
X49230000Y-58480000D02*
X49250000Y-58500000D01*
D50*
%TO.N,USB_D+*%
X38987676Y-52160194D02*
X39270517Y-52160194D01*
X50863522Y-57750000D02*
X51363198Y-58249676D01*
X39270517Y-52160194D02*
X44860323Y-57750000D01*
X44860323Y-57750000D02*
X50863522Y-57750000D01*
%TO.N,USB_D-*%
X39703198Y-51334676D02*
X39857920Y-51489398D01*
X39857920Y-51489398D02*
X39857920Y-51924723D01*
X39857920Y-51924723D02*
X45183197Y-57250000D01*
X45183197Y-57250000D02*
X51000000Y-57250000D01*
D47*
%TO.N,GND*%
X51090800Y-63090800D02*
X50860100Y-63321500D01*
X50860100Y-63321500D02*
X49870516Y-63321500D01*
D49*
%TO.N,+3.3V*%
X50148198Y-52482176D02*
X49738198Y-52892176D01*
X40893198Y-36264676D02*
X41573198Y-36264676D01*
X46563198Y-41604676D02*
X46563198Y-42304676D01*
X40483198Y-37904676D02*
X40483198Y-38444676D01*
X41573198Y-36684676D02*
X41248198Y-37009676D01*
D51*
X43030698Y-50594676D02*
X42928198Y-50697176D01*
D49*
X46563198Y-42304676D02*
X46863198Y-42604676D01*
X49555698Y-53967176D02*
X49553198Y-53969676D01*
D51*
X40828198Y-39419676D02*
X40548198Y-39139676D01*
D47*
X55933198Y-43884676D02*
X55933198Y-45219676D01*
D49*
X46943198Y-40894676D02*
X46943198Y-41224676D01*
X46273198Y-40924676D02*
X46273198Y-41314676D01*
X42903198Y-50722176D02*
X42928198Y-50697176D01*
X42903198Y-51334676D02*
X42903198Y-50722176D01*
D47*
X55933198Y-45219676D02*
X55918198Y-45234676D01*
D48*
X46530698Y-44047176D02*
X46863198Y-43714676D01*
D49*
X43833198Y-39774676D02*
X43893198Y-39834676D01*
D47*
X50968198Y-39509676D02*
X51543198Y-38934676D01*
D49*
X49743198Y-40524676D02*
X50933198Y-40524676D01*
D47*
X50968198Y-39509676D02*
X50968198Y-40559676D01*
D49*
X41248198Y-37539676D02*
X41588198Y-37879676D01*
X50528198Y-53972176D02*
X48948198Y-53972176D01*
X46943198Y-41224676D02*
X46563198Y-41604676D01*
X49738198Y-52892176D02*
X49738198Y-53967176D01*
X47173198Y-39824676D02*
X47163198Y-39834676D01*
D51*
X40828198Y-39539676D02*
X40828198Y-39419676D01*
X41328198Y-39539676D02*
X41328198Y-39249676D01*
D49*
X50933198Y-40524676D02*
X50968198Y-40559676D01*
X46943198Y-40894676D02*
X46303198Y-40894676D01*
X46303198Y-40894676D02*
X46273198Y-40924676D01*
X34258198Y-41344676D02*
X34248198Y-41334676D01*
X47773198Y-39824676D02*
X47173198Y-39824676D01*
X46273198Y-41314676D02*
X46563198Y-41604676D01*
X50148198Y-51789676D02*
X50148198Y-52482176D01*
D48*
X46863198Y-43714676D02*
X46863198Y-43054676D01*
D49*
X41573198Y-36264676D02*
X41573198Y-36684676D01*
X40893198Y-36654676D02*
X41248198Y-37009676D01*
X50103198Y-51744676D02*
X50148198Y-51789676D01*
X41248198Y-37009676D02*
X41248198Y-37539676D01*
X48948198Y-53972176D02*
X48938198Y-53982176D01*
D51*
X43030698Y-49322176D02*
X43030698Y-50594676D01*
D49*
X35323198Y-41344676D02*
X34258198Y-41344676D01*
D51*
X41328198Y-39249676D02*
X41588198Y-38989676D01*
X40548198Y-39139676D02*
X40548198Y-38509676D01*
X41588198Y-38989676D02*
X41588198Y-38509676D01*
D49*
X46863198Y-42604676D02*
X46863198Y-43054676D01*
D47*
X51543198Y-38934676D02*
X55918198Y-38934676D01*
D49*
X40483198Y-38444676D02*
X40548198Y-38509676D01*
X43833198Y-39184676D02*
X43833198Y-39774676D01*
X40893198Y-36264676D02*
X40893198Y-36654676D01*
D48*
X46530698Y-44447176D02*
X46530698Y-44047176D01*
D49*
X41588198Y-37879676D02*
X41588198Y-38509676D01*
D51*
%TO.N,NRST*%
X44530698Y-49847176D02*
X44530698Y-49322176D01*
X43793198Y-50584676D02*
X44530698Y-49847176D01*
X43793198Y-52294676D02*
X43793198Y-50584676D01*
D47*
%TO.N,VBUS*%
X57393198Y-48209676D02*
X57418198Y-48234676D01*
X58218198Y-45234676D02*
X58213198Y-45239676D01*
D48*
X68650198Y-54434676D02*
X68894198Y-54190676D01*
D47*
X58368198Y-45384676D02*
X58218198Y-45234676D01*
D48*
X67683198Y-54434676D02*
X68650198Y-54434676D01*
D47*
X58213198Y-45934676D02*
X57393198Y-46754676D01*
D49*
X61043198Y-51592177D02*
X57685697Y-48234676D01*
D47*
X57393198Y-46754676D02*
X57393198Y-48209676D01*
D48*
X68894198Y-49405676D02*
X67763198Y-48274676D01*
X67763198Y-48274676D02*
X64360699Y-48274676D01*
X68894198Y-54190676D02*
X68894198Y-49405676D01*
D49*
X61043198Y-52254676D02*
X61043198Y-51592177D01*
D48*
X64360699Y-48274676D02*
X61043198Y-51592177D01*
D49*
X58418198Y-45434676D02*
X58218198Y-45234676D01*
X57685697Y-48234676D02*
X57418198Y-48234676D01*
D47*
X58213198Y-45239676D02*
X58213198Y-45934676D01*
X61500000Y-43500000D02*
X59952874Y-43500000D01*
X59952874Y-43500000D02*
X58218198Y-45234676D01*
D48*
%TO.N,ADC_In*%
X53263198Y-51494676D02*
X52613198Y-50844676D01*
X51093198Y-48634676D02*
X52613198Y-50154676D01*
X47218198Y-48634676D02*
X51093198Y-48634676D01*
X52613198Y-50154676D02*
X52613198Y-50844676D01*
X54093198Y-51494676D02*
X53263198Y-51494676D01*
%TO.N,Net-(C11-Pad1)*%
X52593198Y-54564676D02*
X52538198Y-54509676D01*
%TO.N,Net-(C11-Pad2)*%
X55353198Y-54509676D02*
X55313198Y-54469676D01*
X55543198Y-54784676D02*
X55543198Y-52714676D01*
X55543198Y-52714676D02*
X55363198Y-52534676D01*
X54093198Y-52514676D02*
X55343198Y-52514676D01*
X55413198Y-54369676D02*
X55313198Y-54469676D01*
X55343198Y-52514676D02*
X55363198Y-52534676D01*
%TO.N,/USR_LED_K*%
X65935000Y-36175000D02*
X65930000Y-36180000D01*
X67975000Y-36175000D02*
X65935000Y-36175000D01*
D51*
%TO.N,LED*%
X48813198Y-43234676D02*
X48813198Y-45764676D01*
X68830000Y-37210000D02*
X61707874Y-37210000D01*
X61707874Y-37210000D02*
X56843198Y-42074676D01*
D48*
X41243198Y-47134676D02*
X42343198Y-47134676D01*
D51*
X56843198Y-42074676D02*
X49973198Y-42074676D01*
X69550000Y-36490000D02*
X68830000Y-37210000D01*
X69550000Y-36175000D02*
X69550000Y-36490000D01*
X49973198Y-42074676D02*
X48813198Y-43234676D01*
D48*
X41073198Y-46964676D02*
X41243198Y-47134676D01*
D47*
%TO.N,VDC*%
X61950000Y-46800000D02*
X63500000Y-45250000D01*
X61500000Y-46800000D02*
X61950000Y-46800000D01*
X63500000Y-45250000D02*
X67667500Y-45250000D01*
X67532824Y-45384676D02*
X67667500Y-45250000D01*
D50*
%TO.N,USB_CONN_D-*%
X63719298Y-55735676D02*
X62632198Y-55735676D01*
X67683198Y-53784676D02*
X67218198Y-53784676D01*
X67118198Y-53684676D02*
X65770298Y-53684676D01*
X60093198Y-54529676D02*
X60093198Y-55523427D01*
X65770298Y-53684676D02*
X63719298Y-55735676D01*
X60093198Y-55523427D02*
X60818198Y-56248427D01*
X67669595Y-53784676D02*
X67683198Y-53784676D01*
X62123198Y-56244676D02*
X60821949Y-56244676D01*
X67218198Y-53784676D02*
X67118198Y-53684676D01*
X62632198Y-55735676D02*
X62123198Y-56244676D01*
X67545595Y-53908676D02*
X67669595Y-53784676D01*
X60821949Y-56244676D02*
X60818198Y-56248427D01*
%TO.N,USB_CONN_D+*%
X63553198Y-55334676D02*
X65653198Y-53234676D01*
X65653198Y-53234676D02*
X67118198Y-53234676D01*
X67218198Y-53134676D02*
X67683198Y-53134676D01*
X62798198Y-55334676D02*
X63553198Y-55334676D01*
X61993198Y-54529676D02*
X62798198Y-55334676D01*
X67559198Y-53258676D02*
X67683198Y-53134676D01*
X67118198Y-53234676D02*
X67218198Y-53134676D01*
D51*
%TO.N,SWDIO*%
X43255852Y-43683676D02*
X43530698Y-43958522D01*
X39894198Y-43683676D02*
X43255852Y-43683676D01*
X43530698Y-43958522D02*
X43530698Y-44447176D01*
X32743198Y-49824676D02*
X33753198Y-49824676D01*
X33753198Y-49824676D02*
X39894198Y-43683676D01*
%TO.N,SWCLK*%
X32743198Y-52364676D02*
X40660698Y-44447176D01*
X40660698Y-44447176D02*
X43030698Y-44447176D01*
D48*
%TO.N,I2C1_SDA*%
X52413198Y-33134676D02*
X50836727Y-33134676D01*
X53813198Y-34534676D02*
X52413198Y-33134676D01*
X50043198Y-35034676D02*
X46393198Y-38684676D01*
D51*
X42328198Y-41039676D02*
X44868198Y-41039676D01*
X45030698Y-43532176D02*
X44913198Y-43414676D01*
X44913198Y-43414676D02*
X44913198Y-42184676D01*
D48*
X44913198Y-39564676D02*
X44913198Y-39834676D01*
X50836727Y-33134676D02*
X50043198Y-33928205D01*
D51*
X44913198Y-42184676D02*
X44913198Y-39834676D01*
D48*
X46393198Y-38684676D02*
X45793198Y-38684676D01*
X50043198Y-33928205D02*
X50043198Y-35034676D01*
X45793198Y-38684676D02*
X44913198Y-39564676D01*
D51*
X45030698Y-44447176D02*
X45030698Y-43532176D01*
%TO.N,I2C1_SCL*%
X44313198Y-41809676D02*
X42818198Y-41809676D01*
X45530698Y-40447176D02*
X46143198Y-39834676D01*
X40828198Y-41039676D02*
X40828198Y-41164133D01*
D48*
X51273198Y-34534676D02*
X46143198Y-39664676D01*
X46143198Y-39664676D02*
X46143198Y-39834676D01*
D51*
X45530698Y-44447176D02*
X45530698Y-40447176D01*
X40828198Y-41164133D02*
X40657654Y-41334677D01*
%TO.N,BOOT0*%
X36963198Y-42404676D02*
X36963198Y-39834676D01*
X41854544Y-48134676D02*
X36354544Y-53634676D01*
X36354544Y-53634676D02*
X32123198Y-53634676D01*
X31423198Y-45874676D02*
X32863198Y-44434676D01*
X34933198Y-44434676D02*
X36963198Y-42404676D01*
X32863198Y-44434676D02*
X34933198Y-44434676D01*
X42343198Y-48134676D02*
X41854544Y-48134676D01*
X32123198Y-53634676D02*
X31423198Y-52934676D01*
X31423198Y-52934676D02*
X31423198Y-45874676D01*
D48*
%TO.N,Net-(SW1-B)*%
X35943198Y-39834676D02*
X34248198Y-39834676D01*
D50*
%TO.N,USB_D-*%
X39531355Y-42807696D02*
X43618694Y-42807696D01*
X43618694Y-42807696D02*
X44480678Y-43669680D01*
X53963197Y-57549675D02*
X55132363Y-57549675D01*
X38662886Y-43676165D02*
X39531355Y-42807696D01*
X44480678Y-44397156D02*
X44530698Y-44447176D01*
X38645901Y-43410278D02*
X38645901Y-43659180D01*
X39626355Y-49408271D02*
X39626355Y-49155333D01*
X55132363Y-57549675D02*
X60093198Y-52588840D01*
X60093198Y-52588840D02*
X60093198Y-52254676D01*
X53713198Y-57299676D02*
X53963197Y-57549675D01*
X39428199Y-48957177D02*
X39428199Y-46765057D01*
X38645901Y-43659180D02*
X38662886Y-43676165D01*
X44480678Y-43669680D02*
X44480678Y-44397156D01*
X38664508Y-43391671D02*
X38645901Y-43410278D01*
X39626355Y-49155333D02*
X39428199Y-48957177D01*
X39428199Y-46765057D02*
X39628197Y-46565059D01*
D51*
%TO.N,ACC_Pin*%
X40828198Y-40539676D02*
X40448198Y-40539676D01*
X32393198Y-43504676D02*
X30936640Y-44961234D01*
X37533198Y-38284676D02*
X33620058Y-38284676D01*
X38638198Y-39389676D02*
X37533198Y-38284676D01*
X51333198Y-55844676D02*
X51333198Y-50534676D01*
X31662198Y-41293676D02*
X32393198Y-42024676D01*
X38638198Y-39404676D02*
X38638198Y-39389676D01*
X32393198Y-42024676D02*
X32393198Y-43504676D01*
X47782198Y-50085676D02*
X46294198Y-50085676D01*
X33620058Y-38284676D02*
X31662198Y-40242536D01*
X40448198Y-40539676D02*
X40053198Y-40144676D01*
X51333198Y-50534676D02*
X50313198Y-49514676D01*
X44193198Y-55034676D02*
X45893198Y-56734676D01*
X30936640Y-44961234D02*
X30936640Y-54761234D01*
X46030698Y-49822176D02*
X46030698Y-49322176D01*
X46294198Y-50085676D02*
X46030698Y-49822176D01*
X48353198Y-49514676D02*
X47782198Y-50085676D01*
X32390082Y-56214676D02*
X42093198Y-56214676D01*
X30936640Y-54761234D02*
X32390082Y-56214676D01*
X42093198Y-56214676D02*
X42113198Y-56194676D01*
X50313198Y-49514676D02*
X48353198Y-49514676D01*
X45893198Y-56734676D02*
X50443198Y-56734676D01*
X50443198Y-56734676D02*
X51333198Y-55844676D01*
X31662198Y-40242536D02*
X31662198Y-41293676D01*
X44193198Y-54984676D02*
X44193198Y-55034676D01*
D50*
%TO.N,USB_D+*%
X55047199Y-57950675D02*
X55298463Y-57950675D01*
X38345379Y-44277899D02*
X38628222Y-44277899D01*
X61243198Y-53404676D02*
X61993198Y-52654676D01*
X54998197Y-57999677D02*
X55047199Y-57950675D01*
X53713198Y-58249676D02*
X53963197Y-57999677D01*
X38778199Y-50254676D02*
X38778199Y-47454677D01*
X38662871Y-44312548D02*
X39717743Y-43257676D01*
X43432306Y-43257676D02*
X43956698Y-43782067D01*
X55298463Y-57950675D02*
X59844462Y-53404676D01*
X38778199Y-47454677D02*
X38728198Y-47404676D01*
X43956698Y-44447176D02*
X44030698Y-44447176D01*
X61993198Y-52744676D02*
X61993198Y-52254676D01*
X53963197Y-57999677D02*
X54998197Y-57999677D01*
X61993198Y-52654676D02*
X61993198Y-52254676D01*
X38628222Y-44277899D02*
X38662871Y-44312548D01*
X43956698Y-43782067D02*
X43956698Y-44447176D01*
X59844462Y-53404676D02*
X61243198Y-53404676D01*
X39717743Y-43257676D02*
X43432306Y-43257676D01*
D47*
%TO.N,GND*%
X66103198Y-51854676D02*
X65403198Y-51854676D01*
D48*
X47823198Y-43054676D02*
X47823198Y-44764676D01*
D49*
X35333198Y-36854676D02*
X34268198Y-36854676D01*
D47*
X45743198Y-51934676D02*
X45283198Y-51934676D01*
X54468198Y-48234676D02*
X53618198Y-47384676D01*
D48*
X42383198Y-52294676D02*
X41968198Y-51879676D01*
X43373199Y-53144676D02*
X42833198Y-52604675D01*
D51*
X39313198Y-38784676D02*
X39313198Y-41132486D01*
X42328198Y-39539676D02*
X42328198Y-40039676D01*
D49*
X64320000Y-36170000D02*
X64410000Y-36170000D01*
X48943198Y-55584676D02*
X49670698Y-55584676D01*
D51*
X42438198Y-40039676D02*
X42328198Y-40039676D01*
D48*
X66123198Y-51834676D02*
X66103198Y-51854676D01*
D49*
X53573198Y-48714676D02*
X53603198Y-48714676D01*
X52543198Y-53134676D02*
X52543198Y-52464676D01*
D48*
X42833198Y-52604675D02*
X42833198Y-52294676D01*
D49*
X55383198Y-51534676D02*
X55363198Y-51514676D01*
X39523198Y-37854676D02*
X39523198Y-38444676D01*
D47*
X53618198Y-47384676D02*
X53618198Y-45234676D01*
X45283198Y-51934676D02*
X45093198Y-51744676D01*
D48*
X67653198Y-51864676D02*
X67683198Y-51834676D01*
D51*
X39313198Y-41132486D02*
X40190388Y-42009676D01*
X42818198Y-39659676D02*
X42438198Y-40039676D01*
D49*
X39523198Y-38444676D02*
X39588198Y-38509676D01*
X64440000Y-36180000D02*
X64910000Y-36180000D01*
X34268198Y-36854676D02*
X34248198Y-36834676D01*
X47515698Y-55584676D02*
X47548198Y-55552176D01*
X43163198Y-36234676D02*
X43163198Y-36644676D01*
D51*
X41828198Y-41549676D02*
X41828198Y-41039676D01*
D49*
X48113198Y-41604676D02*
X48113198Y-42204676D01*
X42548198Y-37779676D02*
X42548198Y-38509676D01*
D51*
X39588198Y-38509676D02*
X39313198Y-38784676D01*
D47*
X45783198Y-46884676D02*
X45793198Y-46874676D01*
D49*
X48813198Y-41604676D02*
X48113198Y-41604676D01*
X49670698Y-55584676D02*
X49738198Y-55517176D01*
D47*
X53618198Y-45234676D02*
X52693198Y-45234676D01*
X41343198Y-50734676D02*
X41930698Y-50734676D01*
D49*
X61043198Y-55194676D02*
X61043198Y-54529676D01*
D51*
X42548198Y-38839676D02*
X42818198Y-39109676D01*
D49*
X42798198Y-37009676D02*
X42798198Y-37529676D01*
D51*
X42548198Y-38509676D02*
X42548198Y-38839676D01*
D49*
X48113198Y-42204676D02*
X47813198Y-42504676D01*
D47*
X65393198Y-51844676D02*
X65393198Y-51734676D01*
D49*
X43153198Y-36224676D02*
X43163198Y-36234676D01*
X42473198Y-36224676D02*
X42473198Y-36684676D01*
D47*
X65393198Y-51734676D02*
X66103198Y-51024676D01*
D49*
X49753198Y-43794676D02*
X50683198Y-43794676D01*
D47*
X65393198Y-51844676D02*
X65393198Y-51004676D01*
D49*
X61073198Y-55394676D02*
X61073198Y-55224676D01*
X53633198Y-48744676D02*
X53633198Y-48684676D01*
X48873198Y-41434676D02*
X48283198Y-40844676D01*
D50*
X41968198Y-49009676D02*
X42343198Y-48634676D01*
D47*
X41930698Y-50734676D02*
X41968198Y-50697176D01*
D48*
X47823198Y-44764676D02*
X47453198Y-45134676D01*
X41968198Y-51879676D02*
X41968198Y-50697176D01*
D49*
X48753198Y-41594676D02*
X48743198Y-41594676D01*
D47*
X65393198Y-51004676D02*
X65393198Y-51144676D01*
D49*
X48283198Y-40844676D02*
X48283198Y-41434676D01*
D47*
X43803198Y-46884676D02*
X45783198Y-46884676D01*
D49*
X48723198Y-41614676D02*
X48693198Y-41584676D01*
X43163198Y-36644676D02*
X42798198Y-37009676D01*
X64410000Y-36170000D02*
X64420000Y-36160000D01*
D48*
X42833198Y-52294676D02*
X42383198Y-52294676D01*
D47*
X52693198Y-45234676D02*
X50968198Y-43509676D01*
D51*
X42818198Y-39109676D02*
X42818198Y-39659676D01*
D48*
X45093198Y-51744676D02*
X45093198Y-52534676D01*
D49*
X47813198Y-42504676D02*
X47823198Y-42514676D01*
X48753198Y-41594676D02*
X48753198Y-41414676D01*
D48*
X67683198Y-51834676D02*
X66123198Y-51834676D01*
D49*
X61223198Y-55544676D02*
X61073198Y-55394676D01*
D47*
X66103198Y-51024676D02*
X66103198Y-51854676D01*
D49*
X48283198Y-41434676D02*
X48113198Y-41604676D01*
D47*
X65413198Y-51024676D02*
X65393198Y-51004676D01*
D50*
X47823198Y-43054676D02*
X47963198Y-43194676D01*
D51*
X42328198Y-39539676D02*
X42388198Y-39539676D01*
D50*
X41968198Y-50697176D02*
X41968198Y-49009676D01*
D49*
X61073198Y-55224676D02*
X61043198Y-55194676D01*
D51*
X41828198Y-39539676D02*
X42328198Y-39539676D01*
X42388198Y-39539676D02*
X42818198Y-39109676D01*
D49*
X55993198Y-51534676D02*
X55383198Y-51534676D01*
X50683198Y-43794676D02*
X50968198Y-43509676D01*
D47*
X65403198Y-51854676D02*
X65393198Y-51844676D01*
D48*
X45093198Y-52534676D02*
X44483198Y-53144676D01*
D47*
X66103198Y-51024676D02*
X65413198Y-51024676D01*
D49*
X53633198Y-48684676D02*
X54083198Y-48234676D01*
D51*
X40190388Y-42009676D02*
X41368198Y-42009676D01*
D49*
X53603198Y-48714676D02*
X53633198Y-48744676D01*
D51*
X41368198Y-42009676D02*
X41828198Y-41549676D01*
D48*
X44483198Y-53144676D02*
X43373199Y-53144676D01*
D49*
X52543198Y-52464676D02*
X52613198Y-52394676D01*
D48*
X47453198Y-45134676D02*
X47218198Y-45134676D01*
D49*
X48743198Y-41594676D02*
X48723198Y-41614676D01*
X64420000Y-36160000D02*
X64440000Y-36180000D01*
X46743198Y-55584676D02*
X47515698Y-55584676D01*
X42473198Y-36684676D02*
X42798198Y-37009676D01*
X42473198Y-36224676D02*
X43153198Y-36224676D01*
X42798198Y-37529676D02*
X42548198Y-37779676D01*
X47823198Y-42514676D02*
X47823198Y-43054676D01*
D47*
X65393198Y-51144676D02*
X66103198Y-51854676D01*
D49*
X54083198Y-48234676D02*
X54468198Y-48234676D01*
D48*
%TO.N,+3.3VA*%
X45783198Y-50784676D02*
X45093198Y-50784676D01*
D49*
X47303198Y-51744676D02*
X47110698Y-51552176D01*
X47548198Y-52632176D02*
X47548198Y-54002176D01*
D51*
X45030698Y-50722176D02*
X45093198Y-50784676D01*
D49*
X47303198Y-52387176D02*
X47548198Y-52632176D01*
X45163198Y-50854676D02*
X45093198Y-50784676D01*
X47303198Y-51744676D02*
X47303198Y-52387176D01*
D48*
X47303198Y-51744676D02*
X46743198Y-51744676D01*
D49*
X47303198Y-51744676D02*
X47298198Y-51749676D01*
D51*
X45030698Y-49322176D02*
X45030698Y-50722176D01*
D48*
X46743198Y-51744676D02*
X45783198Y-50784676D01*
%TO.N,Net-(MIC1-+)*%
X50255783Y-60595025D02*
X50250000Y-60600808D01*
X50255783Y-60595025D02*
X50255783Y-60525783D01*
X50294711Y-62294711D02*
X50295500Y-62295500D01*
X50255783Y-60525783D02*
X49250000Y-59520000D01*
%TO.N,Net-(C11-Pad1)*%
X52593198Y-58343198D02*
X52593198Y-54784676D01*
X53000000Y-58750000D02*
X52593198Y-58343198D01*
X53000000Y-59500000D02*
X53000000Y-58750000D01*
%TD*%
M02*
