%TF.GenerationSoftware,KiCad,Pcbnew,9.0.3+1*%
%TF.CreationDate,2025-09-03T21:21:13+02:00*%
%TF.ProjectId,Micro-VX,4d696372-6f2d-4565-982e-6b696361645f,rev?*%
%TF.SameCoordinates,Original*%
%TF.FileFunction,Copper,L4,Bot*%
%TF.FilePolarity,Positive*%
%FSLAX46Y46*%
G04 Gerber Fmt 4.6, Leading zero omitted, Abs format (unit mm)*
G04 Created by KiCad (PCBNEW 9.0.3+1) date 2025-09-03 21:21:13*
%MOMM*%
%LPD*%
G01*
G04 APERTURE LIST*
G04 Aperture macros list*
%AMRoundRect*
0 Rectangle with rounded corners*
0 $1 Rounding radius*
0 $2 $3 $4 $5 $6 $7 $8 $9 X,Y pos of 4 corners*
0 Add a 4 corners polygon primitive as box body*
4,1,4,$2,$3,$4,$5,$6,$7,$8,$9,$2,$3,0*
0 Add four circle primitives for the rounded corners*
1,1,$1+$1,$2,$3*
1,1,$1+$1,$4,$5*
1,1,$1+$1,$6,$7*
1,1,$1+$1,$8,$9*
0 Add four rect primitives between the rounded corners*
20,1,$1+$1,$2,$3,$4,$5,0*
20,1,$1+$1,$4,$5,$6,$7,0*
20,1,$1+$1,$6,$7,$8,$9,0*
20,1,$1+$1,$8,$9,$2,$3,0*%
G04 Aperture macros list end*
%TA.AperFunction,ComponentPad*%
%ADD10R,1.700000X1.700000*%
%TD*%
%TA.AperFunction,ComponentPad*%
%ADD11C,1.700000*%
%TD*%
%TA.AperFunction,ComponentPad*%
%ADD12RoundRect,0.250001X0.949999X-0.949999X0.949999X0.949999X-0.949999X0.949999X-0.949999X-0.949999X0*%
%TD*%
%TA.AperFunction,ComponentPad*%
%ADD13C,2.400000*%
%TD*%
%TA.AperFunction,ViaPad*%
%ADD14C,0.700000*%
%TD*%
%TA.AperFunction,Conductor*%
%ADD15C,0.300000*%
%TD*%
%TA.AperFunction,Conductor*%
%ADD16C,0.250000*%
%TD*%
%TA.AperFunction,Conductor*%
%ADD17C,0.200000*%
%TD*%
G04 APERTURE END LIST*
D10*
%TO.P,J3,1,Pin_1*%
%TO.N,GND*%
X46193198Y-34534676D03*
D11*
%TO.P,J3,2,Pin_2*%
%TO.N,+3.3V*%
X48733198Y-34534676D03*
%TO.P,J3,3,Pin_3*%
%TO.N,I2C1_SCL*%
X51273198Y-34534676D03*
%TO.P,J3,4,Pin_4*%
%TO.N,I2C1_SDA*%
X53813198Y-34534676D03*
%TD*%
D10*
%TO.P,J2,1,Pin_1*%
%TO.N,+3.3V*%
X32743198Y-47284676D03*
D11*
%TO.P,J2,2,Pin_2*%
%TO.N,SWDIO*%
X32743198Y-49824676D03*
%TO.P,J2,3,Pin_3*%
%TO.N,SWCLK*%
X32743198Y-52364676D03*
%TO.P,J2,4,Pin_4*%
%TO.N,GND*%
X32743198Y-54904676D03*
%TD*%
D12*
%TO.P,J4,1,Pin_1*%
%TO.N,VDC*%
X67667500Y-45250000D03*
D13*
%TO.P,J4,2,Pin_2*%
%TO.N,GND*%
X67667500Y-41750000D03*
%TD*%
D14*
%TO.N,Net-(MIC1-+)*%
X50275000Y-60550000D03*
X50289977Y-61925000D03*
%TO.N,GND*%
X48875000Y-61925000D03*
%TO.N,+3.3V*%
X46075000Y-59500000D03*
X46273198Y-40924676D03*
X43833198Y-39184676D03*
X50528198Y-53972176D03*
X41573198Y-36264676D03*
X47773198Y-39824676D03*
X48938198Y-53982176D03*
X35323198Y-41344676D03*
X42903198Y-51334676D03*
X40483198Y-37904676D03*
X49743198Y-40524676D03*
X40893198Y-36264676D03*
X55933198Y-43884676D03*
X46943198Y-40894676D03*
%TO.N,LED*%
X48813198Y-45764676D03*
X41073198Y-46964676D03*
%TO.N,I2C1_SCL*%
X42818198Y-41809676D03*
X44238198Y-41809676D03*
X45588198Y-43084676D03*
X40657654Y-41334677D03*
%TO.N,USB_D-*%
X51363198Y-57299676D03*
X39626355Y-49408271D03*
X39628197Y-46565059D03*
X39703198Y-51334676D03*
X53713198Y-57299676D03*
X38664508Y-43391671D03*
%TO.N,ACC_Pin*%
X42113198Y-56194676D03*
X38638198Y-39404676D03*
X40053198Y-40144676D03*
X44193198Y-54984676D03*
%TO.N,USB_D+*%
X51363198Y-58249676D03*
X38987676Y-52160194D03*
X38345379Y-44277899D03*
X38728198Y-47404676D03*
X53713198Y-58249676D03*
X38778199Y-50254676D03*
%TO.N,GND*%
X65393198Y-51844676D03*
X64320000Y-36170000D03*
X48873198Y-41614676D03*
X43803198Y-46884676D03*
X49753198Y-43794676D03*
X66103198Y-51024676D03*
X46743198Y-55584676D03*
X43163198Y-36234676D03*
X41343198Y-50734676D03*
X42473198Y-36224676D03*
X45793198Y-46874676D03*
X35333198Y-36854676D03*
X48943198Y-55584676D03*
X61223198Y-55544676D03*
X66103198Y-51854676D03*
X53573198Y-48714676D03*
X44780698Y-46884676D03*
X39523198Y-37854676D03*
X55993198Y-51534676D03*
X48283198Y-40844676D03*
X52543198Y-53134676D03*
X65393198Y-51004676D03*
X45743198Y-51934676D03*
%TD*%
D15*
%TO.N,Net-(MIC1-+)*%
X50289977Y-61876248D02*
X50289977Y-60621992D01*
X50289977Y-60621992D02*
X50271899Y-60603914D01*
D16*
%TO.N,LED*%
X48813198Y-45764676D02*
X42273198Y-45764676D01*
X42273198Y-45764676D02*
X41073198Y-46964676D01*
%TO.N,I2C1_SCL*%
X41589341Y-41334677D02*
X40657654Y-41334677D01*
X42064340Y-41809676D02*
X41589341Y-41334677D01*
X42818198Y-41809676D02*
X42064340Y-41809676D01*
X44313198Y-41809676D02*
X44238198Y-41809676D01*
X45588198Y-43084676D02*
X44313198Y-41809676D01*
D17*
%TO.N,USB_D-*%
X39428199Y-49457175D02*
X39477103Y-49408271D01*
X51613197Y-57549675D02*
X53463199Y-57549675D01*
X39428199Y-51059677D02*
X39428199Y-49457175D01*
X39477103Y-49408271D02*
X39626355Y-49408271D01*
X39703198Y-51334676D02*
X39428199Y-51059677D01*
X38645901Y-43659180D02*
X39428199Y-44441478D01*
X38645901Y-43410278D02*
X38645901Y-43659180D01*
X39428199Y-44441478D02*
X39428199Y-46365061D01*
X38664508Y-43391671D02*
X38645901Y-43410278D01*
X51363198Y-57299676D02*
X51613197Y-57549675D01*
X39428199Y-46365061D02*
X39628197Y-46565059D01*
X53463199Y-57549675D02*
X53713198Y-57299676D01*
D16*
%TO.N,ACC_Pin*%
X43043198Y-56194676D02*
X42113198Y-56194676D01*
X39378198Y-40144676D02*
X38638198Y-39404676D01*
X40053198Y-40144676D02*
X39378198Y-40144676D01*
X44193198Y-55044676D02*
X43043198Y-56194676D01*
X44193198Y-54984676D02*
X44193198Y-55044676D01*
D17*
%TO.N,USB_D+*%
X51613197Y-57999677D02*
X53463199Y-57999677D01*
X38628222Y-44277899D02*
X38978197Y-44627874D01*
X38978197Y-51867874D02*
X38978197Y-50454674D01*
X38987676Y-52160194D02*
X38987676Y-51877353D01*
X38978197Y-47154677D02*
X38728198Y-47404676D01*
X53463199Y-57999677D02*
X53713198Y-58249676D01*
X38978197Y-44627874D02*
X38978197Y-47154677D01*
X38978197Y-50454674D02*
X38778199Y-50254676D01*
X38345379Y-44277899D02*
X38628222Y-44277899D01*
X38987676Y-51877353D02*
X38978197Y-51867874D01*
X51363198Y-58249676D02*
X51613197Y-57999677D01*
%TD*%
M02*
