%TF.GenerationSoftware,KiCad,Pcbnew,9.0.3+1*%
%TF.CreationDate,2025-09-03T21:21:13+02:00*%
%TF.ProjectId,Micro-VX,4d696372-6f2d-4565-982e-6b696361645f,rev?*%
%TF.SameCoordinates,Original*%
%TF.FileFunction,Paste,Top*%
%TF.FilePolarity,Positive*%
%FSLAX46Y46*%
G04 Gerber Fmt 4.6, Leading zero omitted, Abs format (unit mm)*
G04 Created by KiCad (PCBNEW 9.0.3+1) date 2025-09-03 21:21:13*
%MOMM*%
%LPD*%
G01*
G04 APERTURE LIST*
G04 Aperture macros list*
%AMRoundRect*
0 Rectangle with rounded corners*
0 $1 Rounding radius*
0 $2 $3 $4 $5 $6 $7 $8 $9 X,Y pos of 4 corners*
0 Add a 4 corners polygon primitive as box body*
4,1,4,$2,$3,$4,$5,$6,$7,$8,$9,$2,$3,0*
0 Add four circle primitives for the rounded corners*
1,1,$1+$1,$2,$3*
1,1,$1+$1,$4,$5*
1,1,$1+$1,$6,$7*
1,1,$1+$1,$8,$9*
0 Add four rect primitives between the rounded corners*
20,1,$1+$1,$2,$3,$4,$5,0*
20,1,$1+$1,$4,$5,$6,$7,0*
20,1,$1+$1,$6,$7,$8,$9,0*
20,1,$1+$1,$8,$9,$2,$3,0*%
%AMFreePoly0*
4,1,107,0.439100,0.484900,0.460200,0.481200,0.480800,0.475500,0.500800,0.467900,0.520000,0.458400,0.538200,0.447100,0.555200,0.434100,0.571000,0.419600,0.585200,0.403600,0.597900,0.386400,0.608900,0.368000,0.618100,0.348700,0.625500,0.328500,0.630800,0.307800,0.634200,0.286700,0.635600,0.265300,0.634900,0.243900,0.632200,0.222700,0.627500,0.201800,0.620800,0.181400,
0.612200,0.161800,0.601800,0.143100,0.589700,0.125500,0.575900,0.109100,0.560600,0.094100,0.544000,0.080600,0.526200,0.068700,0.507300,0.058600,0.487600,0.050300,0.446900,0.034400,0.407100,0.016500,0.368200,-0.003200,0.330400,-0.024900,0.293500,-0.048300,0.257900,-0.073500,0.223600,-0.100400,0.190600,-0.128900,0.159000,-0.159000,0.128900,-0.190600,0.100400,-0.223600,
0.073500,-0.258000,0.048300,-0.293600,0.024800,-0.330400,0.003200,-0.368300,-0.016600,-0.407200,-0.034400,-0.447000,-0.050300,-0.487600,-0.058600,-0.507300,-0.068700,-0.526200,-0.080600,-0.544000,-0.094100,-0.560700,-0.109100,-0.575900,-0.125500,-0.589700,-0.143100,-0.601800,-0.161800,-0.612200,-0.181500,-0.620800,-0.201800,-0.627500,-0.222700,-0.632200,-0.243900,-0.634900,-0.265300,-0.635600,
-0.286700,-0.634200,-0.307800,-0.630900,-0.328600,-0.625500,-0.348700,-0.618200,-0.368000,-0.609000,-0.386400,-0.598000,-0.403600,-0.585300,-0.419600,-0.571000,-0.434100,-0.555300,-0.447100,-0.538200,-0.458400,-0.520000,-0.467900,-0.500800,-0.475500,-0.480800,-0.481200,-0.460200,-0.485000,-0.439100,-0.486700,-0.417800,-0.486300,-0.396400,-0.483900,-0.375100,-0.479600,-0.354100,-0.473200,-0.333700,
-0.453900,-0.283700,-0.432600,-0.234600,-0.409400,-0.186300,-0.384300,-0.139000,-0.357400,-0.092800,-0.328600,-0.047600,-0.298000,-0.003600,-0.265800,0.039100,-0.231900,0.080500,-0.196300,0.120600,-0.159200,0.159200,-0.120600,0.196300,-0.080500,0.231800,-0.039100,0.265800,0.003600,0.298000,0.047600,0.328500,0.092800,0.357300,0.139000,0.384300,0.186300,0.409400,0.234600,0.432600,
0.283700,0.453900,0.333700,0.473200,0.354100,0.479500,0.375100,0.483900,0.396300,0.486300,0.417800,0.486600,0.439100,0.484900,0.439100,0.484900,$1*%
%AMFreePoly1*
4,1,254,-0.396400,2.077100,-0.375100,2.074700,-0.354100,2.070300,-0.333700,2.064000,-0.284600,2.045000,-0.236300,2.024200,-0.188800,2.001500,-0.142300,1.976900,-0.096800,1.950600,-0.052300,1.922500,-0.008900,1.892700,0.033200,1.861200,0.074100,1.828100,0.113700,1.793400,0.151900,1.757200,0.188600,1.719600,0.223900,1.680600,0.257600,1.640200,0.289700,1.598500,0.320200,1.555600,
0.349000,1.511600,0.376000,1.466400,0.401300,1.420300,0.424700,1.373200,0.446300,1.325200,0.466000,1.276400,0.483800,1.226900,0.499600,1.176700,0.513500,1.126000,0.525400,1.074700,0.535300,1.023100,0.543100,0.971000,0.548900,0.918800,0.552700,0.866300,0.554500,0.813700,0.554200,0.761100,0.551800,0.708500,0.547400,0.656100,0.540900,0.603900,0.532500,0.552000,
0.522000,0.500400,0.509500,0.449300,0.495000,0.398700,0.478600,0.348800,0.460200,0.299500,0.439900,0.250900,0.417800,0.203200,0.393800,0.156400,0.368000,0.110500,0.340400,0.065700,0.311100,0.022000,0.280100,-0.020500,0.247500,-0.061800,0.213300,-0.101800,0.177600,-0.140400,0.140400,-0.177600,0.101800,-0.213300,0.061800,-0.247500,0.020500,-0.280100,-0.022000,-0.311100,
-0.065700,-0.340400,-0.110500,-0.368000,-0.156400,-0.393800,-0.203200,-0.417800,-0.250900,-0.439900,-0.299500,-0.460200,-0.348700,-0.478600,-0.398700,-0.495000,-0.449300,-0.509500,-0.500400,-0.522000,-0.552000,-0.532500,-0.603900,-0.540900,-0.656100,-0.547400,-0.708500,-0.551800,-0.761100,-0.554200,-0.813700,-0.554500,-0.866300,-0.552700,-0.918700,-0.548900,-0.971000,-0.543100,-1.023100,-0.535300,
-1.074700,-0.525400,-1.126000,-0.513500,-1.176700,-0.499600,-1.226900,-0.483800,-1.276400,-0.466000,-1.325200,-0.446300,-1.373200,-0.424700,-1.420300,-0.401300,-1.466400,-0.376000,-1.511600,-0.349000,-1.555600,-0.320200,-1.598500,-0.289700,-1.640200,-0.257600,-1.680600,-0.223900,-1.719600,-0.188600,-1.757200,-0.151900,-1.793400,-0.113700,-1.828100,-0.074100,-1.861200,-0.033200,-1.892700,0.008900,
-1.922400,0.052300,-1.950600,0.096800,-1.976900,0.142300,-2.001400,0.188800,-2.024200,0.236300,-2.045000,0.284600,-2.064000,0.333700,-2.070300,0.354100,-2.074700,0.375100,-2.077100,0.396400,-2.077400,0.417800,-2.075700,0.439100,-2.072000,0.460200,-2.066300,0.480800,-2.058700,0.500800,-2.049200,0.520000,-2.037900,0.538200,-2.024900,0.555300,-2.010400,0.571000,-1.994400,0.585300,
-1.977200,0.598000,-1.958800,0.609000,-1.939500,0.618200,-1.919400,0.625500,-1.898600,0.630900,-1.877500,0.634200,-1.856100,0.635600,-1.834700,0.634900,-1.813500,0.632200,-1.792600,0.627500,-1.772200,0.620800,-1.752600,0.612200,-1.733900,0.601800,-1.716300,0.589700,-1.699900,0.575900,-1.684900,0.560700,-1.671400,0.544000,-1.659500,0.526200,-1.649400,0.507300,-1.641100,0.487600,
-1.625400,0.447500,-1.607900,0.408300,-1.588500,0.369900,-1.567200,0.332500,-1.544200,0.296200,-1.519500,0.261000,-1.493200,0.227000,-1.465200,0.194300,-1.435700,0.163000,-1.404800,0.133100,-1.372500,0.104800,-1.338800,0.078000,-1.303900,0.052900,-1.267900,0.029400,-1.230700,0.007700,-1.192600,-0.012200,-1.153600,-0.030300,-1.113700,-0.046400,-1.073100,-0.060700,-1.032000,-0.072900,
-0.990200,-0.083300,-0.948000,-0.091600,-0.905500,-0.097800,-0.862700,-0.102100,-0.819700,-0.104300,-0.776700,-0.104400,-0.733700,-0.102500,-0.690900,-0.098500,-0.648300,-0.092500,-0.606100,-0.084500,-0.564300,-0.074400,-0.523000,-0.062400,-0.482300,-0.048400,-0.442400,-0.032500,-0.403200,-0.014700,-0.365000,0.005000,-0.327700,0.026500,-0.291500,0.049700,-0.256500,0.074600,-0.222700,0.101200,
-0.190100,0.129300,-0.159000,0.159000,-0.129300,0.190100,-0.101200,0.222700,-0.074600,0.256500,-0.049700,0.291500,-0.026500,0.327700,-0.005000,0.365000,0.014700,0.403200,0.032500,0.442400,0.048400,0.482300,0.062400,0.523000,0.074400,0.564300,0.084500,0.606100,0.092500,0.648300,0.098500,0.690900,0.102500,0.733800,0.104400,0.776700,0.104300,0.819700,0.102100,0.862700,
0.097800,0.905500,0.091600,0.948000,0.083300,0.990200,0.072900,1.032000,0.060700,1.073100,0.046400,1.113700,0.030300,1.153600,0.012200,1.192600,-0.007700,1.230800,-0.029400,1.267900,-0.052900,1.303900,-0.078000,1.338800,-0.104800,1.372500,-0.133100,1.404800,-0.163000,1.435800,-0.194300,1.465200,-0.227000,1.493200,-0.261000,1.519500,-0.296200,1.544200,-0.332500,1.567200,
-0.369900,1.588500,-0.408300,1.607900,-0.447500,1.625400,-0.487600,1.641100,-0.507300,1.649400,-0.526200,1.659500,-0.544000,1.671400,-0.560700,1.684900,-0.575900,1.699900,-0.589700,1.716300,-0.601800,1.733900,-0.612200,1.752600,-0.620800,1.772300,-0.627500,1.792600,-0.632200,1.813500,-0.634900,1.834700,-0.635600,1.856100,-0.634200,1.877500,-0.630900,1.898600,-0.625500,1.919300,
-0.618200,1.939500,-0.609000,1.958800,-0.598000,1.977200,-0.585300,1.994400,-0.571000,2.010400,-0.555200,2.024900,-0.538200,2.037900,-0.520000,2.049200,-0.500800,2.058700,-0.480800,2.066300,-0.460200,2.072000,-0.439100,2.075700,-0.417800,2.077400,-0.396400,2.077100,-0.396400,2.077100,$1*%
G04 Aperture macros list end*
%ADD10RoundRect,0.225000X-0.225000X-0.250000X0.225000X-0.250000X0.225000X0.250000X-0.225000X0.250000X0*%
%ADD11RoundRect,0.135000X0.185000X-0.135000X0.185000X0.135000X-0.185000X0.135000X-0.185000X-0.135000X0*%
%ADD12O,0.900000X0.900000*%
%ADD13FreePoly0,0.000000*%
%ADD14FreePoly1,0.000000*%
%ADD15RoundRect,0.250000X0.325000X0.650000X-0.325000X0.650000X-0.325000X-0.650000X0.325000X-0.650000X0*%
%ADD16RoundRect,0.225000X-0.250000X0.225000X-0.250000X-0.225000X0.250000X-0.225000X0.250000X0.225000X0*%
%ADD17RoundRect,0.140000X0.140000X0.170000X-0.140000X0.170000X-0.140000X-0.170000X0.140000X-0.170000X0*%
%ADD18RoundRect,0.135000X-0.135000X-0.185000X0.135000X-0.185000X0.135000X0.185000X-0.135000X0.185000X0*%
%ADD19RoundRect,0.135000X0.135000X0.185000X-0.135000X0.185000X-0.135000X-0.185000X0.135000X-0.185000X0*%
%ADD20RoundRect,0.250000X-0.650000X0.325000X-0.650000X-0.325000X0.650000X-0.325000X0.650000X0.325000X0*%
%ADD21RoundRect,0.218750X-0.218750X-0.256250X0.218750X-0.256250X0.218750X0.256250X-0.218750X0.256250X0*%
%ADD22RoundRect,0.250000X-0.325000X-0.650000X0.325000X-0.650000X0.325000X0.650000X-0.325000X0.650000X0*%
%ADD23RoundRect,0.150000X0.150000X-0.512500X0.150000X0.512500X-0.150000X0.512500X-0.150000X-0.512500X0*%
%ADD24RoundRect,0.232500X0.232500X-0.232500X0.232500X0.232500X-0.232500X0.232500X-0.232500X-0.232500X0*%
%ADD25RoundRect,0.062500X0.062500X-0.375000X0.062500X0.375000X-0.062500X0.375000X-0.062500X-0.375000X0*%
%ADD26RoundRect,0.062500X0.375000X-0.062500X0.375000X0.062500X-0.375000X0.062500X-0.375000X-0.062500X0*%
%ADD27R,0.800000X1.000000*%
%ADD28R,1.500000X0.700000*%
%ADD29RoundRect,0.135000X-0.185000X0.135000X-0.185000X-0.135000X0.185000X-0.135000X0.185000X0.135000X0*%
%ADD30RoundRect,0.140000X-0.170000X0.140000X-0.170000X-0.140000X0.170000X-0.140000X0.170000X0.140000X0*%
%ADD31R,0.280000X0.300000*%
%ADD32RoundRect,0.250000X-0.375000X-0.625000X0.375000X-0.625000X0.375000X0.625000X-0.375000X0.625000X0*%
%ADD33RoundRect,0.225000X-0.375000X0.225000X-0.375000X-0.225000X0.375000X-0.225000X0.375000X0.225000X0*%
%ADD34RoundRect,0.140000X-0.140000X-0.170000X0.140000X-0.170000X0.140000X0.170000X-0.140000X0.170000X0*%
%ADD35R,1.380000X0.450000*%
%ADD36R,1.300000X1.650000*%
%ADD37R,1.550000X1.425000*%
%ADD38R,1.900000X1.800000*%
%ADD39R,1.900000X1.000000*%
%ADD40RoundRect,0.375000X0.375000X-0.625000X0.375000X0.625000X-0.375000X0.625000X-0.375000X-0.625000X0*%
%ADD41RoundRect,0.500000X1.400000X-0.500000X1.400000X0.500000X-1.400000X0.500000X-1.400000X-0.500000X0*%
G04 APERTURE END LIST*
D10*
%TO.C,C15*%
X51450000Y-59500000D03*
X53000000Y-59500000D03*
%TD*%
D11*
%TO.C,R9*%
X48000000Y-59500000D03*
X48000000Y-58480000D03*
%TD*%
%TO.C,R7*%
X49250000Y-59520000D03*
X49250000Y-58500000D03*
%TD*%
%TO.C,R8*%
X46750000Y-59500000D03*
X46750000Y-58480000D03*
%TD*%
D12*
%TO.C,MIC1*%
X50295500Y-62295500D03*
D13*
X49500000Y-61500000D03*
D14*
X51090800Y-63090800D03*
%TD*%
D15*
%TO.C,C8*%
X57418198Y-48234676D03*
X54468198Y-48234676D03*
%TD*%
D16*
%TO.C,C5*%
X47548198Y-54002176D03*
X47548198Y-55552176D03*
%TD*%
D17*
%TO.C,C7*%
X43793198Y-52294676D03*
X42833198Y-52294676D03*
%TD*%
D18*
%TO.C,R1*%
X35943198Y-39834676D03*
X36963198Y-39834676D03*
%TD*%
D19*
%TO.C,R2*%
X65930000Y-36180000D03*
X64910000Y-36180000D03*
%TD*%
D16*
%TO.C,C6*%
X49738198Y-53967176D03*
X49738198Y-55517176D03*
%TD*%
D18*
%TO.C,R6*%
X43893198Y-39834676D03*
X44913198Y-39834676D03*
%TD*%
D20*
%TO.C,C9*%
X50968198Y-40559676D03*
X50968198Y-43509676D03*
%TD*%
D21*
%TO.C,D1*%
X67975000Y-36175000D03*
X69550000Y-36175000D03*
%TD*%
D22*
%TO.C,C11*%
X52593198Y-54784676D03*
X55543198Y-54784676D03*
%TD*%
D16*
%TO.C,C10*%
X52613198Y-50844676D03*
X52613198Y-52394676D03*
%TD*%
D23*
%TO.C,U4*%
X60093198Y-54529676D03*
X61043198Y-54529676D03*
X61993198Y-54529676D03*
X61993198Y-52254676D03*
X61043198Y-52254676D03*
X60093198Y-52254676D03*
%TD*%
D17*
%TO.C,C1*%
X42928198Y-50697176D03*
X41968198Y-50697176D03*
%TD*%
D24*
%TO.C,U1*%
X43630698Y-48034676D03*
X44780698Y-48034676D03*
X45930698Y-48034676D03*
X43630698Y-46884676D03*
X44780698Y-46884676D03*
X45930698Y-46884676D03*
X43630698Y-45734676D03*
X44780698Y-45734676D03*
X45930698Y-45734676D03*
D25*
X43030698Y-49322176D03*
X43530698Y-49322176D03*
X44030698Y-49322176D03*
X44530698Y-49322176D03*
X45030698Y-49322176D03*
X45530698Y-49322176D03*
X46030698Y-49322176D03*
X46530698Y-49322176D03*
D26*
X47218198Y-48634676D03*
X47218198Y-48134676D03*
X47218198Y-47634676D03*
X47218198Y-47134676D03*
X47218198Y-46634676D03*
X47218198Y-46134676D03*
X47218198Y-45634676D03*
X47218198Y-45134676D03*
D25*
X46530698Y-44447176D03*
X46030698Y-44447176D03*
X45530698Y-44447176D03*
X45030698Y-44447176D03*
X44530698Y-44447176D03*
X44030698Y-44447176D03*
X43530698Y-44447176D03*
X43030698Y-44447176D03*
D26*
X42343198Y-45134676D03*
X42343198Y-45634676D03*
X42343198Y-46134676D03*
X42343198Y-46634676D03*
X42343198Y-47134676D03*
X42343198Y-47634676D03*
X42343198Y-48134676D03*
X42343198Y-48634676D03*
%TD*%
D27*
%TO.C,SW1*%
X33598198Y-35434676D03*
X31388198Y-35434676D03*
X33598198Y-42734676D03*
X31388198Y-42734676D03*
D28*
X34248198Y-36834676D03*
X34248198Y-39834676D03*
X34248198Y-41334676D03*
%TD*%
D29*
%TO.C,R4*%
X55363198Y-51514676D03*
X55363198Y-52534676D03*
%TD*%
D19*
%TO.C,R5*%
X47163198Y-39834676D03*
X46143198Y-39834676D03*
%TD*%
D30*
%TO.C,C4*%
X45093198Y-50784676D03*
X45093198Y-51744676D03*
%TD*%
D31*
%TO.C,U3*%
X40828198Y-41039676D03*
X41328198Y-41039676D03*
X41828198Y-41039676D03*
X42328198Y-41039676D03*
X42328198Y-40539676D03*
X42328198Y-40039676D03*
X42328198Y-39539676D03*
X41828198Y-39539676D03*
X41328198Y-39539676D03*
X40828198Y-39539676D03*
X40828198Y-40039676D03*
X40828198Y-40539676D03*
%TD*%
D10*
%TO.C,C12*%
X41248198Y-37009676D03*
X42798198Y-37009676D03*
%TD*%
D32*
%TO.C,FB1*%
X47303198Y-51744676D03*
X50103198Y-51744676D03*
%TD*%
D33*
%TO.C,D2*%
X61500000Y-43500000D03*
X61500000Y-46800000D03*
%TD*%
D11*
%TO.C,R3*%
X54093198Y-52514676D03*
X54093198Y-51494676D03*
%TD*%
D34*
%TO.C,C2*%
X46863198Y-43054676D03*
X47823198Y-43054676D03*
%TD*%
D35*
%TO.C,J1*%
X67683198Y-54434676D03*
X67683198Y-53784676D03*
X67683198Y-53134676D03*
X67683198Y-52484676D03*
X67683198Y-51834676D03*
D36*
X70343198Y-56509676D03*
D37*
X67768198Y-55622176D03*
D38*
X70343198Y-54284676D03*
D39*
X70343198Y-51584676D03*
D37*
X67768198Y-50647176D03*
D36*
X70343198Y-49759676D03*
%TD*%
D10*
%TO.C,C3*%
X46563198Y-41604676D03*
X48113198Y-41604676D03*
%TD*%
D40*
%TO.C,U2*%
X53618198Y-45234676D03*
X55918198Y-45234676D03*
D41*
X55918198Y-38934676D03*
D40*
X58218198Y-45234676D03*
%TD*%
D17*
%TO.C,C14*%
X40548198Y-38509676D03*
X39588198Y-38509676D03*
%TD*%
D34*
%TO.C,C13*%
X41588198Y-38509676D03*
X42548198Y-38509676D03*
%TD*%
M02*
