%TF.GenerationSoftware,KiCad,Pcbnew,9.0.3+1*%
%TF.CreationDate,2025-09-03T21:21:14+02:00*%
%TF.ProjectId,Micro-VX,4d696372-6f2d-4565-982e-6b696361645f,rev?*%
%TF.SameCoordinates,Original*%
%TF.FileFunction,Profile,NP*%
%FSLAX46Y46*%
G04 Gerber Fmt 4.6, Leading zero omitted, Abs format (unit mm)*
G04 Created by KiCad (PCBNEW 9.0.3+1) date 2025-09-03 21:21:14*
%MOMM*%
%LPD*%
G01*
G04 APERTURE LIST*
%TA.AperFunction,Profile*%
%ADD10C,0.050000*%
%TD*%
%ADD11C,0.050000*%
G04 APERTURE END LIST*
D10*
X68943198Y-59934676D02*
X55143198Y-59934676D01*
D11*
X30343198Y-34934676D02*
X30343208Y-34925521D01*
X30343238Y-34916386D01*
X30343288Y-34907270D01*
X30343358Y-34898175D01*
X30343447Y-34889100D01*
X30343556Y-34880044D01*
X30343686Y-34871008D01*
X30343834Y-34861992D01*
X30344003Y-34852995D01*
X30344191Y-34844018D01*
X30344398Y-34835061D01*
X30344626Y-34826123D01*
X30344872Y-34817205D01*
X30345138Y-34808306D01*
X30345424Y-34799426D01*
X30345729Y-34790567D01*
X30346053Y-34781726D01*
X30346396Y-34772904D01*
X30346759Y-34764102D01*
X30347141Y-34755319D01*
X30347542Y-34746555D01*
X30347962Y-34737811D01*
X30348401Y-34729085D01*
X30348860Y-34720379D01*
X30349337Y-34711691D01*
X30349833Y-34703022D01*
X30350349Y-34694372D01*
X30350883Y-34685742D01*
X30351436Y-34677129D01*
X30352007Y-34668536D01*
X30352598Y-34659961D01*
X30353207Y-34651406D01*
X30353835Y-34642868D01*
X30354482Y-34634350D01*
X30355147Y-34625850D01*
X30355831Y-34617369D01*
X30356534Y-34608905D01*
X30357254Y-34600461D01*
X30357994Y-34592034D01*
X30358752Y-34583627D01*
X30359528Y-34575237D01*
X30360323Y-34566866D01*
X30361136Y-34558513D01*
X30361967Y-34550178D01*
X30362816Y-34541861D01*
X30363684Y-34533563D01*
X30364570Y-34525282D01*
X30365474Y-34517020D01*
X30366396Y-34508775D01*
X30367337Y-34500549D01*
X30368295Y-34492340D01*
X30369271Y-34484150D01*
X30370266Y-34475977D01*
X30371278Y-34467822D01*
X30372309Y-34459684D01*
X30373357Y-34451565D01*
X30374423Y-34443463D01*
X30375506Y-34435379D01*
X30376608Y-34427311D01*
X30377728Y-34419263D01*
X30378865Y-34411230D01*
X30380020Y-34403217D01*
X30381192Y-34395219D01*
X30382382Y-34387240D01*
X30383590Y-34379278D01*
X30384815Y-34371334D01*
X30386058Y-34363405D01*
X30387319Y-34355496D01*
X30388597Y-34347602D01*
X30389892Y-34339726D01*
X30391205Y-34331867D01*
X30392535Y-34324026D01*
X30393883Y-34316200D01*
X30395247Y-34308393D01*
X30396630Y-34300601D01*
X30398029Y-34292828D01*
X30399446Y-34285070D01*
X30400880Y-34277331D01*
X30402331Y-34269607D01*
X30403800Y-34261901D01*
X30405285Y-34254210D01*
X30406788Y-34246538D01*
X30408308Y-34238880D01*
X30409844Y-34231241D01*
X30411398Y-34223617D01*
X30412969Y-34216011D01*
X30414557Y-34208419D01*
X30416162Y-34200846D01*
X30417784Y-34193288D01*
X30419422Y-34185747D01*
X30421078Y-34178222D01*
X30422750Y-34170714D01*
X30424439Y-34163221D01*
X30426145Y-34155746D01*
X30427868Y-34148285D01*
X30429608Y-34140842D01*
X30431364Y-34133413D01*
X30433137Y-34126003D01*
X30434927Y-34118606D01*
X30436733Y-34111228D01*
X30438557Y-34103863D01*
X30440396Y-34096517D01*
X30442253Y-34089184D01*
X30444126Y-34081869D01*
X30446015Y-34074568D01*
X30447921Y-34067285D01*
X30449844Y-34060015D01*
X30451783Y-34052764D01*
X30453739Y-34045526D01*
X30455710Y-34038306D01*
X30457699Y-34031098D01*
X30459704Y-34023910D01*
X30461725Y-34016733D01*
X30463763Y-34009576D01*
X30465817Y-34002431D01*
X30467887Y-33995304D01*
X30469974Y-33988189D01*
X30472077Y-33981093D01*
X30474196Y-33974010D01*
X30476331Y-33966944D01*
X30478484Y-33959891D01*
X30480651Y-33952856D01*
X30482836Y-33945833D01*
X30485036Y-33938829D01*
X30489485Y-33924862D01*
X30493999Y-33910955D01*
X30498578Y-33897109D01*
X30503220Y-33883322D01*
X30507927Y-33869594D01*
X30512699Y-33855926D01*
X30517534Y-33842317D01*
X30522433Y-33828766D01*
X30527395Y-33815274D01*
X30532422Y-33801839D01*
X30537512Y-33788463D01*
X30542665Y-33775144D01*
X30547882Y-33761883D01*
X30553162Y-33748679D01*
X30558506Y-33735532D01*
X30563912Y-33722441D01*
X30569382Y-33709407D01*
X30574915Y-33696429D01*
X30580510Y-33683507D01*
X30586168Y-33670641D01*
X30591890Y-33657830D01*
X30597674Y-33645074D01*
X30603520Y-33632374D01*
X30609429Y-33619728D01*
X30615401Y-33607137D01*
X30621436Y-33594600D01*
X30627533Y-33582118D01*
X30633692Y-33569689D01*
X30639914Y-33557314D01*
X30646198Y-33544993D01*
X30652545Y-33532725D01*
X30658954Y-33520510D01*
X30665425Y-33508349D01*
X30671959Y-33496239D01*
X30678555Y-33484183D01*
X30685214Y-33472179D01*
X30691935Y-33460227D01*
X30698718Y-33448327D01*
X30705563Y-33436479D01*
X30712471Y-33424682D01*
X30719441Y-33412937D01*
X30726474Y-33401243D01*
X30733569Y-33389601D01*
X30740727Y-33378009D01*
X30747946Y-33366468D01*
X30755229Y-33354978D01*
X30762574Y-33343538D01*
X30769981Y-33332149D01*
X30777451Y-33320810D01*
X30784984Y-33309521D01*
X30792579Y-33298281D01*
X30800237Y-33287092D01*
X30807958Y-33275952D01*
X30815741Y-33264862D01*
X30823588Y-33253820D01*
X30831497Y-33242829D01*
X30839470Y-33231886D01*
X30847505Y-33220992D01*
X30855604Y-33210147D01*
X30863766Y-33199351D01*
X30871991Y-33188603D01*
X30880280Y-33177904D01*
X30888632Y-33167254D01*
X30897047Y-33156652D01*
X30905526Y-33146098D01*
X30914069Y-33135592D01*
X30922676Y-33125134D01*
X30931346Y-33114724D01*
X30940081Y-33104362D01*
X30948879Y-33094048D01*
X30957742Y-33083782D01*
X30966669Y-33073563D01*
X30975661Y-33063392D01*
X30984717Y-33053269D01*
X30993837Y-33043193D01*
X31003022Y-33033164D01*
X31012272Y-33023183D01*
X31021587Y-33013249D01*
X31030967Y-33003363D01*
X31040413Y-32993524D01*
X31049923Y-32983731D01*
X31059499Y-32973987D01*
X31069141Y-32964289D01*
X31078848Y-32954639D01*
X31088621Y-32945035D01*
X31098459Y-32935479D01*
X31108364Y-32925970D01*
X31118335Y-32916508D01*
X31128372Y-32907093D01*
X31138476Y-32897725D01*
X31148646Y-32888404D01*
X31158883Y-32879131D01*
X31169187Y-32869905D01*
X31179558Y-32860725D01*
X31189995Y-32851593D01*
X31200500Y-32842508D01*
X31211073Y-32833471D01*
X31221712Y-32824481D01*
X31232420Y-32815538D01*
X31243195Y-32806642D01*
X31254038Y-32797794D01*
X31264949Y-32788993D01*
X31275928Y-32780240D01*
X31286975Y-32771535D01*
X31298091Y-32762877D01*
X31309275Y-32754267D01*
X31320528Y-32745705D01*
X31331850Y-32737190D01*
X31343241Y-32728724D01*
X31354700Y-32720306D01*
X31366229Y-32711936D01*
X31377827Y-32703614D01*
X31389495Y-32695341D01*
X31401232Y-32687116D01*
X31413038Y-32678940D01*
X31424914Y-32670812D01*
X31436860Y-32662734D01*
X31448876Y-32654704D01*
X31460962Y-32646724D01*
X31473119Y-32638793D01*
X31485345Y-32630911D01*
X31497642Y-32623079D01*
X31510009Y-32615296D01*
X31522446Y-32607564D01*
X31534954Y-32599881D01*
X31547533Y-32592249D01*
X31560182Y-32584667D01*
X31572902Y-32577135D01*
X31585693Y-32569654D01*
X31598555Y-32562225D01*
X31611487Y-32554846D01*
X31624491Y-32547519D01*
X31637565Y-32540243D01*
X31650710Y-32533019D01*
X31663927Y-32525847D01*
X31677214Y-32518727D01*
X31690572Y-32511660D01*
X31704002Y-32504645D01*
X31717502Y-32497683D01*
X31731073Y-32490774D01*
X31744715Y-32483918D01*
X31758428Y-32477116D01*
X31772211Y-32470368D01*
X31786065Y-32463674D01*
X31799990Y-32457034D01*
X31813985Y-32450450D01*
X31828051Y-32443920D01*
X31842187Y-32437445D01*
X31856392Y-32431025D01*
X31870668Y-32424662D01*
X31885014Y-32418355D01*
X31899429Y-32412104D01*
X31913913Y-32405910D01*
X31928467Y-32399772D01*
X31943089Y-32393693D01*
X31957781Y-32387670D01*
X31972540Y-32381706D01*
X31987367Y-32375801D01*
X32002262Y-32369954D01*
X32017225Y-32364166D01*
X32032254Y-32358438D01*
X32047350Y-32352769D01*
X32062512Y-32347161D01*
X32077739Y-32341613D01*
X32093032Y-32336126D01*
X32108389Y-32330700D01*
X32123811Y-32325336D01*
X32139296Y-32320035D01*
X32154843Y-32314796D01*
X32170453Y-32309619D01*
X32186124Y-32304507D01*
X32201856Y-32299458D01*
X32217648Y-32294473D01*
X32233498Y-32289553D01*
X32249407Y-32284698D01*
X32265373Y-32279909D01*
X32281396Y-32275186D01*
X32297473Y-32270529D01*
X32313604Y-32265940D01*
X32329788Y-32261418D01*
X32346024Y-32256964D01*
X32362310Y-32252579D01*
X32378645Y-32248263D01*
X32395027Y-32244016D01*
X32411454Y-32239839D01*
X32427926Y-32235733D01*
X32444440Y-32231698D01*
X32460995Y-32227735D01*
X32477588Y-32223845D01*
X32494217Y-32220027D01*
X32510881Y-32216282D01*
X32527576Y-32212612D01*
X32544300Y-32209016D01*
X32561051Y-32205496D01*
X32577826Y-32202051D01*
X32594621Y-32198683D01*
X32611434Y-32195392D01*
X32628261Y-32192179D01*
X32645098Y-32189044D01*
X32661942Y-32185989D01*
X32678788Y-32183013D01*
X32695633Y-32180118D01*
X32712470Y-32177304D01*
X32729295Y-32174572D01*
X32746103Y-32171922D01*
X32762887Y-32169356D01*
X32779641Y-32166874D01*
X32796358Y-32164478D01*
X32813031Y-32162166D01*
X32829651Y-32159942D01*
X32846210Y-32157804D01*
X32862698Y-32155755D01*
X32879104Y-32153795D01*
X32895416Y-32151925D01*
X32911622Y-32150145D01*
X32927707Y-32148457D01*
X32943655Y-32146862D01*
X32959447Y-32145360D01*
X32975065Y-32143953D01*
X32990484Y-32142641D01*
X33005678Y-32141426D01*
X33020616Y-32140308D01*
X33035263Y-32139288D01*
X33049575Y-32138368D01*
X33063500Y-32137548D01*
X33076974Y-32136830D01*
X33089917Y-32136215D01*
X33102219Y-32135703D01*
X33113735Y-32135295D01*
X33124244Y-32134991D01*
X33133383Y-32134792D01*
X33140426Y-32134693D01*
X33143198Y-32134676D01*
X53143198Y-62334676D02*
X53143208Y-62322696D01*
X53143238Y-62310756D01*
X53143288Y-62298856D01*
X53143357Y-62286995D01*
X53143447Y-62275174D01*
X53143556Y-62263393D01*
X53143684Y-62251652D01*
X53143832Y-62239949D01*
X53144000Y-62228286D01*
X53144187Y-62216663D01*
X53144393Y-62205078D01*
X53144619Y-62193533D01*
X53144864Y-62182027D01*
X53145128Y-62170560D01*
X53145411Y-62159131D01*
X53145713Y-62147741D01*
X53146034Y-62136390D01*
X53146374Y-62125078D01*
X53146732Y-62113804D01*
X53147110Y-62102568D01*
X53147506Y-62091371D01*
X53147921Y-62080213D01*
X53148354Y-62069092D01*
X53148806Y-62058009D01*
X53149276Y-62046965D01*
X53149765Y-62035958D01*
X53150272Y-62024990D01*
X53150797Y-62014059D01*
X53151340Y-62003166D01*
X53151901Y-61992310D01*
X53152481Y-61981492D01*
X53153078Y-61970712D01*
X53153694Y-61959968D01*
X53154327Y-61949263D01*
X53154978Y-61938594D01*
X53155647Y-61927963D01*
X53156333Y-61917368D01*
X53157037Y-61906811D01*
X53157759Y-61896290D01*
X53158498Y-61885806D01*
X53159255Y-61875359D01*
X53160029Y-61864949D01*
X53160820Y-61854575D01*
X53161628Y-61844238D01*
X53162454Y-61833937D01*
X53163297Y-61823672D01*
X53164156Y-61813444D01*
X53165033Y-61803252D01*
X53165927Y-61793095D01*
X53166837Y-61782976D01*
X53167765Y-61772891D01*
X53168709Y-61762843D01*
X53169670Y-61752830D01*
X53170647Y-61742854D01*
X53171641Y-61732912D01*
X53172652Y-61723007D01*
X53173679Y-61713136D01*
X53174722Y-61703302D01*
X53175782Y-61693502D01*
X53176858Y-61683738D01*
X53177950Y-61674008D01*
X53179058Y-61664314D01*
X53180183Y-61654654D01*
X53181323Y-61645031D01*
X53182480Y-61635440D01*
X53183652Y-61625886D01*
X53184840Y-61616365D01*
X53186044Y-61606881D01*
X53187264Y-61597429D01*
X53188500Y-61588013D01*
X53189751Y-61578630D01*
X53191017Y-61569282D01*
X53192299Y-61559968D01*
X53193597Y-61550689D01*
X53194910Y-61541442D01*
X53196238Y-61532231D01*
X53197582Y-61523052D01*
X53198941Y-61513909D01*
X53200315Y-61504798D01*
X53201704Y-61495722D01*
X53203108Y-61486678D01*
X53204527Y-61477669D01*
X53205962Y-61468692D01*
X53207411Y-61459749D01*
X53208874Y-61450839D01*
X53210353Y-61441963D01*
X53211846Y-61433119D01*
X53213354Y-61424309D01*
X53214877Y-61415531D01*
X53216414Y-61406787D01*
X53217966Y-61398074D01*
X53219532Y-61389396D01*
X53221113Y-61380748D01*
X53222707Y-61372135D01*
X53224317Y-61363553D01*
X53225940Y-61355005D01*
X53227578Y-61346487D01*
X53229229Y-61338003D01*
X53230895Y-61329550D01*
X53232575Y-61321131D01*
X53234268Y-61312741D01*
X53235976Y-61304386D01*
X53237698Y-61296061D01*
X53239433Y-61287769D01*
X53241182Y-61279507D01*
X53242944Y-61271279D01*
X53244721Y-61263080D01*
X53246511Y-61254915D01*
X53248315Y-61246780D01*
X53250131Y-61238677D01*
X53251962Y-61230604D01*
X53253806Y-61222564D01*
X53255663Y-61214553D01*
X53257533Y-61206576D01*
X53259417Y-61198627D01*
X53261314Y-61190711D01*
X53263224Y-61182824D01*
X53265147Y-61174970D01*
X53267083Y-61167144D01*
X53269032Y-61159351D01*
X53270994Y-61151587D01*
X53272969Y-61143855D01*
X53274957Y-61136151D01*
X53276957Y-61128480D01*
X53278971Y-61120837D01*
X53280997Y-61113226D01*
X53283035Y-61105643D01*
X53285086Y-61098093D01*
X53287150Y-61090570D01*
X53289226Y-61083079D01*
X53291315Y-61075616D01*
X53293416Y-61068185D01*
X53295530Y-61060781D01*
X53297655Y-61053409D01*
X53299793Y-61046064D01*
X53301943Y-61038751D01*
X53304106Y-61031465D01*
X53306280Y-61024211D01*
X53308467Y-61016983D01*
X53310665Y-61009788D01*
X53312876Y-61002618D01*
X53315098Y-60995481D01*
X53317333Y-60988369D01*
X53319578Y-60981290D01*
X53321837Y-60974236D01*
X53324106Y-60967214D01*
X53326388Y-60960218D01*
X53328680Y-60953253D01*
X53330986Y-60946314D01*
X53333301Y-60939406D01*
X53335630Y-60932523D01*
X53337968Y-60925672D01*
X53340320Y-60918847D01*
X53342681Y-60912052D01*
X53345055Y-60905283D01*
X53347439Y-60898544D01*
X53349836Y-60891831D01*
X53352242Y-60885148D01*
X53354661Y-60878490D01*
X53357090Y-60871864D01*
X53359531Y-60865261D01*
X53361982Y-60858690D01*
X53364445Y-60852143D01*
X53366918Y-60845627D01*
X53369403Y-60839134D01*
X53371898Y-60832673D01*
X53374405Y-60826235D01*
X53376921Y-60819829D01*
X53379450Y-60813446D01*
X53381988Y-60807093D01*
X53384537Y-60800764D01*
X53387096Y-60794466D01*
X53389668Y-60788190D01*
X53392248Y-60781946D01*
X53394840Y-60775724D01*
X53397441Y-60769533D01*
X53400054Y-60763365D01*
X53402676Y-60757227D01*
X53405310Y-60751112D01*
X53407953Y-60745027D01*
X53410607Y-60738965D01*
X53413270Y-60732933D01*
X53415945Y-60726923D01*
X53418629Y-60720944D01*
X53421324Y-60714986D01*
X53424028Y-60709059D01*
X53426743Y-60703154D01*
X53429467Y-60697278D01*
X53432202Y-60691425D01*
X53434946Y-60685602D01*
X53437701Y-60679800D01*
X53440464Y-60674028D01*
X53443240Y-60668277D01*
X53446022Y-60662556D01*
X53448817Y-60656857D01*
X53451619Y-60651187D01*
X53454433Y-60645539D01*
X53457255Y-60639920D01*
X53460088Y-60634322D01*
X53462929Y-60628753D01*
X53465782Y-60623206D01*
X53468641Y-60617688D01*
X53471513Y-60612190D01*
X53474392Y-60606722D01*
X53477282Y-60601274D01*
X53480179Y-60595856D01*
X53483089Y-60590458D01*
X53486005Y-60585090D01*
X53488933Y-60579741D01*
X53491867Y-60574422D01*
X53494813Y-60569123D01*
X53497766Y-60563853D01*
X53503702Y-60553381D01*
X53509674Y-60543007D01*
X53515682Y-60532731D01*
X53521725Y-60522550D01*
X53527804Y-60512466D01*
X53533919Y-60502477D01*
X53540068Y-60492584D01*
X53546253Y-60482786D01*
X53552472Y-60473082D01*
X53558725Y-60463472D01*
X53565012Y-60453956D01*
X53571333Y-60444533D01*
X53577688Y-60435203D01*
X53584075Y-60425965D01*
X53590496Y-60416819D01*
X53596950Y-60407765D01*
X53603437Y-60398802D01*
X53609956Y-60389931D01*
X53616507Y-60381150D01*
X53623090Y-60372459D01*
X53629705Y-60363858D01*
X53636352Y-60355346D01*
X53643030Y-60346924D01*
X53649739Y-60338590D01*
X53656478Y-60330345D01*
X53663249Y-60322189D01*
X53670050Y-60314120D01*
X53676881Y-60306139D01*
X53683742Y-60298245D01*
X53690633Y-60290438D01*
X53697554Y-60282718D01*
X53704504Y-60275084D01*
X53711483Y-60267536D01*
X53718491Y-60260074D01*
X53725527Y-60252698D01*
X53732592Y-60245408D01*
X53739686Y-60238202D01*
X53746807Y-60231081D01*
X53753956Y-60224045D01*
X53761133Y-60217094D01*
X53768337Y-60210227D01*
X53775568Y-60203443D01*
X53782826Y-60196744D01*
X53790110Y-60190128D01*
X53797421Y-60183596D01*
X53804758Y-60177147D01*
X53812120Y-60170782D01*
X53819508Y-60164499D01*
X53826922Y-60158299D01*
X53834360Y-60152182D01*
X53841823Y-60146148D01*
X53849310Y-60140196D01*
X53856821Y-60134326D01*
X53864356Y-60128539D01*
X53871914Y-60122834D01*
X53879495Y-60117211D01*
X53887099Y-60111670D01*
X53894725Y-60106211D01*
X53902373Y-60100834D01*
X53910043Y-60095540D01*
X53917733Y-60090327D01*
X53925445Y-60085196D01*
X53933176Y-60080147D01*
X53940927Y-60075179D01*
X53948697Y-60070294D01*
X53956485Y-60065491D01*
X53964292Y-60060770D01*
X53972116Y-60056131D01*
X53979957Y-60051574D01*
X53987814Y-60047100D01*
X53995687Y-60042708D01*
X54003574Y-60038398D01*
X54011476Y-60034171D01*
X54019391Y-60030027D01*
X54027318Y-60025965D01*
X54035256Y-60021987D01*
X54043206Y-60018092D01*
X54051164Y-60014281D01*
X54059131Y-60010553D01*
X54067106Y-60006909D01*
X54075087Y-60003349D01*
X54083072Y-59999873D01*
X54091061Y-59996483D01*
X54099052Y-59993177D01*
X54107043Y-59989956D01*
X54115033Y-59986821D01*
X54123021Y-59983772D01*
X54131003Y-59980810D01*
X54138978Y-59977934D01*
X54146944Y-59975145D01*
X54154898Y-59972443D01*
X54162838Y-59969830D01*
X54170761Y-59967304D01*
X54178664Y-59964868D01*
X54186544Y-59962521D01*
X54194397Y-59960264D01*
X54202219Y-59958097D01*
X54210005Y-59956022D01*
X54217752Y-59954038D01*
X54225454Y-59952146D01*
X54233104Y-59950347D01*
X54240698Y-59948641D01*
X54248226Y-59947030D01*
X54255682Y-59945514D01*
X54263056Y-59944093D01*
X54270338Y-59942769D01*
X54277516Y-59941542D01*
X54284575Y-59940413D01*
X54291499Y-59939383D01*
X54298268Y-59938453D01*
X54304860Y-59937623D01*
X54311244Y-59936896D01*
X54317384Y-59936270D01*
X54323230Y-59935748D01*
X54328715Y-59935330D01*
X54333741Y-59935017D01*
X54338144Y-59934807D01*
X54341609Y-59934699D01*
X54343198Y-59934676D01*
X72143198Y-35334676D02*
X72143188Y-35324888D01*
X72143158Y-35315120D01*
X72143108Y-35305372D01*
X72143038Y-35295644D01*
X72142949Y-35285936D01*
X72142839Y-35276247D01*
X72142710Y-35266578D01*
X72142561Y-35256929D01*
X72142393Y-35247300D01*
X72142205Y-35237691D01*
X72141997Y-35228100D01*
X72141770Y-35218530D01*
X72141523Y-35208979D01*
X72141256Y-35199448D01*
X72140971Y-35189936D01*
X72140665Y-35180443D01*
X72140341Y-35170970D01*
X72139997Y-35161516D01*
X72139634Y-35152082D01*
X72139251Y-35142667D01*
X72138850Y-35133270D01*
X72138429Y-35123894D01*
X72137989Y-35114536D01*
X72137530Y-35105197D01*
X72137052Y-35095877D01*
X72136555Y-35086577D01*
X72136039Y-35077295D01*
X72135503Y-35068033D01*
X72134949Y-35058789D01*
X72134377Y-35049564D01*
X72133785Y-35040358D01*
X72133174Y-35031170D01*
X72132545Y-35022002D01*
X72131897Y-35012852D01*
X72131230Y-35003720D01*
X72130545Y-34994608D01*
X72129840Y-34985514D01*
X72129118Y-34976438D01*
X72128376Y-34967381D01*
X72127617Y-34958343D01*
X72126838Y-34949322D01*
X72126042Y-34940321D01*
X72125226Y-34931337D01*
X72124393Y-34922373D01*
X72123541Y-34913425D01*
X72122671Y-34904497D01*
X72121782Y-34895586D01*
X72120875Y-34886695D01*
X72119950Y-34877820D01*
X72119007Y-34868964D01*
X72118045Y-34860126D01*
X72117066Y-34851306D01*
X72116068Y-34842504D01*
X72115052Y-34833720D01*
X72114018Y-34824953D01*
X72112967Y-34816205D01*
X72111897Y-34807474D01*
X72110809Y-34798762D01*
X72109703Y-34790066D01*
X72108580Y-34781390D01*
X72107438Y-34772729D01*
X72106279Y-34764088D01*
X72105102Y-34755463D01*
X72103907Y-34746856D01*
X72102695Y-34738266D01*
X72101464Y-34729695D01*
X72100216Y-34721139D01*
X72098951Y-34712603D01*
X72097668Y-34704082D01*
X72096367Y-34695581D01*
X72095048Y-34687095D01*
X72093713Y-34678628D01*
X72092359Y-34670176D01*
X72090988Y-34661743D01*
X72089600Y-34653326D01*
X72088194Y-34644927D01*
X72086771Y-34636544D01*
X72085330Y-34628180D01*
X72083872Y-34619831D01*
X72082397Y-34611500D01*
X72080905Y-34603185D01*
X72079395Y-34594888D01*
X72077868Y-34586607D01*
X72076324Y-34578344D01*
X72074762Y-34570096D01*
X72073184Y-34561866D01*
X72071588Y-34553652D01*
X72069975Y-34545456D01*
X72068345Y-34537274D01*
X72066699Y-34529112D01*
X72065034Y-34520963D01*
X72063354Y-34512834D01*
X72061655Y-34504718D01*
X72059941Y-34496622D01*
X72058209Y-34488539D01*
X72056460Y-34480475D01*
X72054694Y-34472426D01*
X72052912Y-34464395D01*
X72051112Y-34456377D01*
X72049296Y-34448379D01*
X72047463Y-34440394D01*
X72045613Y-34432428D01*
X72043746Y-34424475D01*
X72041863Y-34416541D01*
X72039963Y-34408621D01*
X72038046Y-34400719D01*
X72036113Y-34392831D01*
X72034163Y-34384961D01*
X72032196Y-34377105D01*
X72030213Y-34369267D01*
X72028213Y-34361442D01*
X72026197Y-34353636D01*
X72024163Y-34345843D01*
X72022114Y-34338068D01*
X72020048Y-34330306D01*
X72017965Y-34322563D01*
X72015866Y-34314833D01*
X72013751Y-34307121D01*
X72011619Y-34299422D01*
X72009471Y-34291741D01*
X72007306Y-34284073D01*
X72005125Y-34276423D01*
X72002927Y-34268786D01*
X72000714Y-34261167D01*
X71998483Y-34253561D01*
X71996237Y-34245973D01*
X71993974Y-34238397D01*
X71991696Y-34230840D01*
X71989400Y-34223295D01*
X71987089Y-34215768D01*
X71984761Y-34208253D01*
X71982417Y-34200757D01*
X71980057Y-34193273D01*
X71977681Y-34185806D01*
X71972880Y-34170916D01*
X71968014Y-34156086D01*
X71963084Y-34141316D01*
X71958090Y-34126605D01*
X71953032Y-34111953D01*
X71947909Y-34097361D01*
X71942723Y-34082827D01*
X71937472Y-34068352D01*
X71932158Y-34053936D01*
X71926780Y-34039577D01*
X71921339Y-34025277D01*
X71915834Y-34011034D01*
X71910266Y-33996848D01*
X71904634Y-33982719D01*
X71898940Y-33968648D01*
X71893182Y-33954633D01*
X71887361Y-33940675D01*
X71881477Y-33926773D01*
X71875529Y-33912927D01*
X71869519Y-33899137D01*
X71863447Y-33885403D01*
X71857311Y-33871724D01*
X71851113Y-33858100D01*
X71844852Y-33844531D01*
X71838528Y-33831017D01*
X71832142Y-33817558D01*
X71825693Y-33804153D01*
X71819181Y-33790802D01*
X71812607Y-33777505D01*
X71805971Y-33764262D01*
X71799272Y-33751072D01*
X71792511Y-33737936D01*
X71785687Y-33724853D01*
X71778801Y-33711824D01*
X71771853Y-33698847D01*
X71764842Y-33685922D01*
X71757769Y-33673050D01*
X71750634Y-33660231D01*
X71743436Y-33647464D01*
X71736176Y-33634748D01*
X71728853Y-33622085D01*
X71721468Y-33609473D01*
X71714021Y-33596912D01*
X71706512Y-33584403D01*
X71698939Y-33571945D01*
X71691305Y-33559538D01*
X71683608Y-33547182D01*
X71675849Y-33534876D01*
X71668027Y-33522621D01*
X71660142Y-33510417D01*
X71652195Y-33498262D01*
X71644185Y-33486158D01*
X71636113Y-33474104D01*
X71627978Y-33462100D01*
X71619780Y-33450145D01*
X71611520Y-33438240D01*
X71603196Y-33426385D01*
X71594810Y-33414578D01*
X71586361Y-33402821D01*
X71577849Y-33391114D01*
X71569273Y-33379455D01*
X71560635Y-33367845D01*
X71551933Y-33356284D01*
X71543168Y-33344771D01*
X71534340Y-33333307D01*
X71525448Y-33321892D01*
X71516493Y-33310525D01*
X71507474Y-33299206D01*
X71498392Y-33287936D01*
X71489245Y-33276713D01*
X71480035Y-33265539D01*
X71470761Y-33254412D01*
X71461423Y-33243334D01*
X71452021Y-33232303D01*
X71442555Y-33221320D01*
X71433025Y-33210385D01*
X71423430Y-33199497D01*
X71413770Y-33188657D01*
X71404046Y-33177865D01*
X71394258Y-33167120D01*
X71384404Y-33156422D01*
X71374486Y-33145772D01*
X71364503Y-33135169D01*
X71354454Y-33124613D01*
X71344340Y-33114105D01*
X71334161Y-33103644D01*
X71323917Y-33093230D01*
X71313607Y-33082863D01*
X71303231Y-33072543D01*
X71292790Y-33062271D01*
X71282283Y-33052045D01*
X71271709Y-33041867D01*
X71261070Y-33031736D01*
X71250364Y-33021652D01*
X71239591Y-33011615D01*
X71228753Y-33001625D01*
X71217847Y-32991682D01*
X71206875Y-32981787D01*
X71195836Y-32971938D01*
X71184730Y-32962137D01*
X71173557Y-32952383D01*
X71162317Y-32942676D01*
X71151009Y-32933016D01*
X71139634Y-32923404D01*
X71128191Y-32913839D01*
X71116680Y-32904321D01*
X71105102Y-32894851D01*
X71093455Y-32885429D01*
X71081740Y-32876053D01*
X71069957Y-32866726D01*
X71058106Y-32857446D01*
X71046186Y-32848214D01*
X71034198Y-32839029D01*
X71022141Y-32829893D01*
X71010015Y-32820804D01*
X70997820Y-32811764D01*
X70985556Y-32802771D01*
X70973223Y-32793827D01*
X70960820Y-32784931D01*
X70948349Y-32776083D01*
X70935807Y-32767284D01*
X70923196Y-32758534D01*
X70910515Y-32749832D01*
X70897765Y-32741179D01*
X70884944Y-32732575D01*
X70872054Y-32724020D01*
X70859093Y-32715515D01*
X70846062Y-32707059D01*
X70832961Y-32698652D01*
X70819790Y-32690295D01*
X70806548Y-32681987D01*
X70793235Y-32673730D01*
X70779852Y-32665522D01*
X70766399Y-32657365D01*
X70752874Y-32649258D01*
X70739279Y-32641202D01*
X70725613Y-32633196D01*
X70711876Y-32625242D01*
X70698069Y-32617338D01*
X70684190Y-32609486D01*
X70670240Y-32601685D01*
X70656220Y-32593936D01*
X70642128Y-32586238D01*
X70627965Y-32578593D01*
X70613731Y-32571000D01*
X70599427Y-32563460D01*
X70585051Y-32555972D01*
X70570604Y-32548537D01*
X70556087Y-32541155D01*
X70541498Y-32533827D01*
X70526839Y-32526552D01*
X70512108Y-32519331D01*
X70497307Y-32512164D01*
X70482436Y-32505051D01*
X70467494Y-32497993D01*
X70452481Y-32490990D01*
X70437398Y-32484042D01*
X70422245Y-32477150D01*
X70407022Y-32470313D01*
X70391729Y-32463532D01*
X70376366Y-32456807D01*
X70360934Y-32450139D01*
X70345432Y-32443528D01*
X70329861Y-32436973D01*
X70314221Y-32430476D01*
X70298513Y-32424037D01*
X70282736Y-32417656D01*
X70266891Y-32411333D01*
X70250978Y-32405069D01*
X70234998Y-32398864D01*
X70218951Y-32392718D01*
X70202837Y-32386632D01*
X70186656Y-32380606D01*
X70170410Y-32374641D01*
X70154098Y-32368736D01*
X70137721Y-32362892D01*
X70121280Y-32357110D01*
X70104775Y-32351389D01*
X70088206Y-32345731D01*
X70071575Y-32340135D01*
X70054881Y-32334603D01*
X70038126Y-32329134D01*
X70021310Y-32323728D01*
X70004434Y-32318387D01*
X69987499Y-32313111D01*
X69970505Y-32307899D01*
X69953453Y-32302753D01*
X69936345Y-32297673D01*
X69919182Y-32292660D01*
X69901963Y-32287713D01*
X69884692Y-32282833D01*
X69867367Y-32278022D01*
X69849991Y-32273278D01*
X69832566Y-32268603D01*
X69815091Y-32263997D01*
X69797570Y-32259461D01*
X69780003Y-32254995D01*
X69762391Y-32250600D01*
X69744737Y-32246275D01*
X69727042Y-32242023D01*
X69709308Y-32237843D01*
X69691537Y-32233735D01*
X69673730Y-32229701D01*
X69655891Y-32225740D01*
X69638022Y-32221854D01*
X69620124Y-32218043D01*
X69602200Y-32214307D01*
X69584254Y-32210648D01*
X69566288Y-32207065D01*
X69548304Y-32203560D01*
X69530307Y-32200132D01*
X69512300Y-32196783D01*
X69494286Y-32193513D01*
X69476269Y-32190323D01*
X69458254Y-32187213D01*
X69440244Y-32184185D01*
X69422245Y-32181238D01*
X69404261Y-32178374D01*
X69386298Y-32175593D01*
X69368363Y-32172895D01*
X69350460Y-32170283D01*
X69332597Y-32167755D01*
X69314781Y-32165314D01*
X69297020Y-32162960D01*
X69279322Y-32160693D01*
X69261697Y-32158514D01*
X69244154Y-32156425D01*
X69226706Y-32154426D01*
X69209363Y-32152517D01*
X69192140Y-32150700D01*
X69175050Y-32148976D01*
X69158112Y-32147345D01*
X69141342Y-32145808D01*
X69124762Y-32144367D01*
X69108395Y-32143021D01*
X69092268Y-32141773D01*
X69076413Y-32140623D01*
X69060865Y-32139571D01*
X69045668Y-32138620D01*
X69030872Y-32137770D01*
X69016542Y-32137021D01*
X69002758Y-32136376D01*
X68989622Y-32135834D01*
X68977278Y-32135396D01*
X68965927Y-32135064D01*
X68955898Y-32134836D01*
X68947802Y-32134710D01*
X68943198Y-32134676D01*
X33143198Y-60134676D02*
X33134043Y-60134666D01*
X33124908Y-60134636D01*
X33115792Y-60134586D01*
X33106697Y-60134516D01*
X33097622Y-60134427D01*
X33088566Y-60134318D01*
X33079530Y-60134188D01*
X33070514Y-60134040D01*
X33061517Y-60133871D01*
X33052540Y-60133683D01*
X33043583Y-60133476D01*
X33034645Y-60133248D01*
X33025727Y-60133002D01*
X33016828Y-60132736D01*
X33007948Y-60132450D01*
X32999089Y-60132145D01*
X32990248Y-60131821D01*
X32981426Y-60131478D01*
X32972624Y-60131115D01*
X32963841Y-60130733D01*
X32955077Y-60130332D01*
X32946333Y-60129912D01*
X32937607Y-60129473D01*
X32928901Y-60129014D01*
X32920213Y-60128537D01*
X32911544Y-60128041D01*
X32902894Y-60127525D01*
X32894264Y-60126991D01*
X32885651Y-60126438D01*
X32877058Y-60125867D01*
X32868483Y-60125276D01*
X32859928Y-60124667D01*
X32851390Y-60124039D01*
X32842872Y-60123392D01*
X32834372Y-60122727D01*
X32825891Y-60122043D01*
X32817427Y-60121340D01*
X32808983Y-60120620D01*
X32800556Y-60119880D01*
X32792149Y-60119122D01*
X32783759Y-60118346D01*
X32775388Y-60117551D01*
X32767035Y-60116738D01*
X32758700Y-60115907D01*
X32750383Y-60115058D01*
X32742085Y-60114190D01*
X32733804Y-60113304D01*
X32725542Y-60112400D01*
X32717297Y-60111478D01*
X32709071Y-60110537D01*
X32700862Y-60109579D01*
X32692672Y-60108603D01*
X32684499Y-60107608D01*
X32676344Y-60106596D01*
X32668206Y-60105565D01*
X32660087Y-60104517D01*
X32651985Y-60103451D01*
X32643901Y-60102368D01*
X32635833Y-60101266D01*
X32627785Y-60100146D01*
X32619752Y-60099009D01*
X32611739Y-60097854D01*
X32603741Y-60096682D01*
X32595762Y-60095492D01*
X32587800Y-60094284D01*
X32579856Y-60093059D01*
X32571927Y-60091816D01*
X32564018Y-60090555D01*
X32556124Y-60089277D01*
X32548248Y-60087982D01*
X32540389Y-60086669D01*
X32532548Y-60085339D01*
X32524722Y-60083991D01*
X32516915Y-60082627D01*
X32509123Y-60081244D01*
X32501350Y-60079845D01*
X32493592Y-60078428D01*
X32485853Y-60076994D01*
X32478129Y-60075543D01*
X32470423Y-60074074D01*
X32462732Y-60072589D01*
X32455060Y-60071086D01*
X32447402Y-60069566D01*
X32439763Y-60068030D01*
X32432139Y-60066476D01*
X32424533Y-60064905D01*
X32416941Y-60063317D01*
X32409368Y-60061712D01*
X32401810Y-60060090D01*
X32394269Y-60058452D01*
X32386744Y-60056796D01*
X32379236Y-60055124D01*
X32371743Y-60053435D01*
X32364268Y-60051729D01*
X32356807Y-60050006D01*
X32349364Y-60048266D01*
X32341935Y-60046510D01*
X32334525Y-60044737D01*
X32327128Y-60042947D01*
X32319750Y-60041141D01*
X32312385Y-60039317D01*
X32305039Y-60037478D01*
X32297706Y-60035621D01*
X32290391Y-60033748D01*
X32283090Y-60031859D01*
X32275807Y-60029953D01*
X32268537Y-60028030D01*
X32261286Y-60026091D01*
X32254048Y-60024135D01*
X32246828Y-60022164D01*
X32239620Y-60020175D01*
X32232432Y-60018170D01*
X32225255Y-60016149D01*
X32218098Y-60014111D01*
X32210953Y-60012057D01*
X32203826Y-60009987D01*
X32196711Y-60007900D01*
X32189615Y-60005797D01*
X32182532Y-60003678D01*
X32175466Y-60001543D01*
X32168413Y-59999390D01*
X32161378Y-59997223D01*
X32154355Y-59995038D01*
X32147351Y-59992838D01*
X32133384Y-59988389D01*
X32119477Y-59983875D01*
X32105631Y-59979296D01*
X32091844Y-59974654D01*
X32078116Y-59969947D01*
X32064448Y-59965175D01*
X32050839Y-59960340D01*
X32037288Y-59955441D01*
X32023796Y-59950479D01*
X32010361Y-59945452D01*
X31996985Y-59940362D01*
X31983666Y-59935209D01*
X31970405Y-59929992D01*
X31957201Y-59924712D01*
X31944054Y-59919368D01*
X31930963Y-59913962D01*
X31917929Y-59908492D01*
X31904951Y-59902959D01*
X31892029Y-59897364D01*
X31879163Y-59891706D01*
X31866352Y-59885984D01*
X31853596Y-59880200D01*
X31840896Y-59874354D01*
X31828250Y-59868445D01*
X31815659Y-59862473D01*
X31803122Y-59856438D01*
X31790640Y-59850341D01*
X31778211Y-59844182D01*
X31765836Y-59837960D01*
X31753515Y-59831676D01*
X31741247Y-59825329D01*
X31729032Y-59818920D01*
X31716871Y-59812449D01*
X31704761Y-59805915D01*
X31692705Y-59799319D01*
X31680701Y-59792660D01*
X31668749Y-59785939D01*
X31656849Y-59779156D01*
X31645001Y-59772311D01*
X31633204Y-59765403D01*
X31621459Y-59758433D01*
X31609765Y-59751400D01*
X31598123Y-59744305D01*
X31586531Y-59737147D01*
X31574990Y-59729928D01*
X31563500Y-59722645D01*
X31552060Y-59715300D01*
X31540671Y-59707893D01*
X31529332Y-59700423D01*
X31518043Y-59692890D01*
X31506803Y-59685295D01*
X31495614Y-59677637D01*
X31484474Y-59669916D01*
X31473384Y-59662133D01*
X31462342Y-59654286D01*
X31451351Y-59646377D01*
X31440408Y-59638404D01*
X31429514Y-59630369D01*
X31418669Y-59622270D01*
X31407873Y-59614108D01*
X31397125Y-59605883D01*
X31386426Y-59597594D01*
X31375776Y-59589242D01*
X31365174Y-59580827D01*
X31354620Y-59572348D01*
X31344114Y-59563805D01*
X31333656Y-59555198D01*
X31323246Y-59546528D01*
X31312884Y-59537793D01*
X31302570Y-59528995D01*
X31292304Y-59520132D01*
X31282085Y-59511205D01*
X31271914Y-59502213D01*
X31261791Y-59493157D01*
X31251715Y-59484037D01*
X31241686Y-59474852D01*
X31231705Y-59465602D01*
X31221771Y-59456287D01*
X31211885Y-59446907D01*
X31202046Y-59437461D01*
X31192253Y-59427951D01*
X31182509Y-59418375D01*
X31172811Y-59408733D01*
X31163161Y-59399026D01*
X31153557Y-59389253D01*
X31144001Y-59379415D01*
X31134492Y-59369510D01*
X31125030Y-59359539D01*
X31115615Y-59349502D01*
X31106247Y-59339398D01*
X31096926Y-59329228D01*
X31087653Y-59318991D01*
X31078427Y-59308687D01*
X31069247Y-59298316D01*
X31060115Y-59287879D01*
X31051030Y-59277374D01*
X31041993Y-59266801D01*
X31033003Y-59256162D01*
X31024060Y-59245454D01*
X31015164Y-59234679D01*
X31006316Y-59223836D01*
X30997515Y-59212925D01*
X30988762Y-59201946D01*
X30980057Y-59190899D01*
X30971399Y-59179783D01*
X30962789Y-59168599D01*
X30954227Y-59157346D01*
X30945712Y-59146024D01*
X30937246Y-59134633D01*
X30928828Y-59123174D01*
X30920458Y-59111645D01*
X30912136Y-59100047D01*
X30903863Y-59088379D01*
X30895638Y-59076642D01*
X30887462Y-59064836D01*
X30879334Y-59052960D01*
X30871256Y-59041014D01*
X30863226Y-59028998D01*
X30855246Y-59016912D01*
X30847315Y-59004755D01*
X30839433Y-58992529D01*
X30831601Y-58980232D01*
X30823818Y-58967865D01*
X30816086Y-58955428D01*
X30808403Y-58942920D01*
X30800771Y-58930341D01*
X30793189Y-58917692D01*
X30785657Y-58904972D01*
X30778176Y-58892181D01*
X30770747Y-58879319D01*
X30763368Y-58866387D01*
X30756041Y-58853383D01*
X30748765Y-58840309D01*
X30741541Y-58827164D01*
X30734369Y-58813947D01*
X30727249Y-58800660D01*
X30720182Y-58787302D01*
X30713167Y-58773872D01*
X30706205Y-58760372D01*
X30699296Y-58746801D01*
X30692440Y-58733159D01*
X30685638Y-58719446D01*
X30678890Y-58705663D01*
X30672196Y-58691809D01*
X30665556Y-58677884D01*
X30658972Y-58663889D01*
X30652442Y-58649823D01*
X30645967Y-58635687D01*
X30639547Y-58621482D01*
X30633184Y-58607206D01*
X30626877Y-58592860D01*
X30620626Y-58578445D01*
X30614432Y-58563961D01*
X30608294Y-58549407D01*
X30602215Y-58534785D01*
X30596192Y-58520093D01*
X30590228Y-58505334D01*
X30584323Y-58490507D01*
X30578476Y-58475612D01*
X30572688Y-58460649D01*
X30566960Y-58445620D01*
X30561291Y-58430524D01*
X30555683Y-58415362D01*
X30550135Y-58400135D01*
X30544648Y-58384842D01*
X30539222Y-58369485D01*
X30533858Y-58354063D01*
X30528557Y-58338578D01*
X30523318Y-58323031D01*
X30518141Y-58307421D01*
X30513029Y-58291750D01*
X30507980Y-58276018D01*
X30502995Y-58260226D01*
X30498075Y-58244376D01*
X30493220Y-58228467D01*
X30488431Y-58212501D01*
X30483708Y-58196478D01*
X30479051Y-58180401D01*
X30474462Y-58164270D01*
X30469940Y-58148086D01*
X30465486Y-58131850D01*
X30461101Y-58115564D01*
X30456785Y-58099229D01*
X30452538Y-58082847D01*
X30448361Y-58066420D01*
X30444255Y-58049948D01*
X30440220Y-58033434D01*
X30436257Y-58016879D01*
X30432367Y-58000286D01*
X30428549Y-57983657D01*
X30424804Y-57966993D01*
X30421134Y-57950298D01*
X30417538Y-57933574D01*
X30414018Y-57916823D01*
X30410573Y-57900048D01*
X30407205Y-57883253D01*
X30403914Y-57866440D01*
X30400701Y-57849613D01*
X30397566Y-57832776D01*
X30394511Y-57815932D01*
X30391535Y-57799086D01*
X30388640Y-57782241D01*
X30385826Y-57765404D01*
X30383094Y-57748579D01*
X30380444Y-57731771D01*
X30377878Y-57714987D01*
X30375396Y-57698233D01*
X30373000Y-57681516D01*
X30370688Y-57664843D01*
X30368464Y-57648223D01*
X30366326Y-57631664D01*
X30364277Y-57615176D01*
X30362317Y-57598770D01*
X30360447Y-57582458D01*
X30358667Y-57566252D01*
X30356979Y-57550167D01*
X30355384Y-57534219D01*
X30353882Y-57518427D01*
X30352475Y-57502809D01*
X30351163Y-57487390D01*
X30349948Y-57472196D01*
X30348830Y-57457258D01*
X30347810Y-57442611D01*
X30346890Y-57428299D01*
X30346070Y-57414374D01*
X30345352Y-57400900D01*
X30344737Y-57387957D01*
X30344225Y-57375655D01*
X30343817Y-57364139D01*
X30343513Y-57353630D01*
X30343314Y-57344491D01*
X30343215Y-57337448D01*
X30343198Y-57334676D01*
D10*
X30343198Y-57334676D02*
X30343198Y-34934676D01*
X35143198Y-60134676D02*
X33143198Y-60134676D01*
X68943198Y-32134676D02*
X33143198Y-32134676D01*
X54343198Y-59934676D02*
X55143198Y-59934676D01*
X46343198Y-60134676D02*
X35143198Y-60134676D01*
D11*
X47543198Y-62334676D02*
X47543188Y-62323694D01*
X47543158Y-62312749D01*
X47543108Y-62301841D01*
X47543039Y-62290969D01*
X47542949Y-62280133D01*
X47542840Y-62269333D01*
X47542712Y-62258570D01*
X47542564Y-62247843D01*
X47542396Y-62237152D01*
X47542209Y-62226497D01*
X47542003Y-62215878D01*
X47541777Y-62205294D01*
X47541532Y-62194747D01*
X47541268Y-62184235D01*
X47540985Y-62173758D01*
X47540683Y-62163318D01*
X47540362Y-62152912D01*
X47540022Y-62142542D01*
X47539664Y-62132207D01*
X47539286Y-62121908D01*
X47538890Y-62111643D01*
X47538475Y-62101413D01*
X47538042Y-62091219D01*
X47537590Y-62081059D01*
X47537120Y-62070934D01*
X47536631Y-62060844D01*
X47536124Y-62050788D01*
X47535599Y-62040768D01*
X47535055Y-62030781D01*
X47534494Y-62020829D01*
X47533914Y-62010911D01*
X47533317Y-62001028D01*
X47532701Y-61991179D01*
X47532068Y-61981364D01*
X47531417Y-61971582D01*
X47530748Y-61961835D01*
X47530061Y-61952122D01*
X47529357Y-61942443D01*
X47528635Y-61932796D01*
X47527896Y-61923185D01*
X47527139Y-61913606D01*
X47526365Y-61904061D01*
X47525573Y-61894549D01*
X47524765Y-61885071D01*
X47523939Y-61875625D01*
X47523096Y-61866214D01*
X47522235Y-61856835D01*
X47521358Y-61847489D01*
X47520464Y-61838176D01*
X47519553Y-61828897D01*
X47518625Y-61819649D01*
X47517681Y-61810435D01*
X47516719Y-61801253D01*
X47515741Y-61792104D01*
X47514747Y-61782987D01*
X47513736Y-61773903D01*
X47512708Y-61764851D01*
X47511664Y-61755832D01*
X47510603Y-61746844D01*
X47509527Y-61737889D01*
X47508434Y-61728965D01*
X47507325Y-61720074D01*
X47506199Y-61711215D01*
X47505058Y-61702388D01*
X47503900Y-61693591D01*
X47502727Y-61684828D01*
X47501538Y-61676095D01*
X47500333Y-61667394D01*
X47499112Y-61658724D01*
X47497875Y-61650087D01*
X47496623Y-61641479D01*
X47495355Y-61632904D01*
X47494071Y-61624359D01*
X47492772Y-61615846D01*
X47491458Y-61607363D01*
X47490128Y-61598913D01*
X47488782Y-61590491D01*
X47487422Y-61582102D01*
X47486046Y-61573743D01*
X47484655Y-61565415D01*
X47483249Y-61557116D01*
X47481828Y-61548850D01*
X47480391Y-61540612D01*
X47478940Y-61532406D01*
X47477474Y-61524229D01*
X47475993Y-61516084D01*
X47474497Y-61507967D01*
X47472987Y-61499882D01*
X47471462Y-61491826D01*
X47469922Y-61483801D01*
X47468367Y-61475804D01*
X47466798Y-61467838D01*
X47465215Y-61459901D01*
X47463617Y-61451995D01*
X47462004Y-61444116D01*
X47460378Y-61436269D01*
X47458737Y-61428450D01*
X47457082Y-61420662D01*
X47455412Y-61412901D01*
X47453729Y-61405171D01*
X47452031Y-61397469D01*
X47450320Y-61389797D01*
X47448594Y-61382153D01*
X47446855Y-61374539D01*
X47445101Y-61366952D01*
X47443334Y-61359397D01*
X47441553Y-61351867D01*
X47439759Y-61344369D01*
X47437950Y-61336897D01*
X47436128Y-61329455D01*
X47434292Y-61322040D01*
X47432443Y-61314656D01*
X47430580Y-61307297D01*
X47428705Y-61299969D01*
X47426815Y-61292667D01*
X47424912Y-61285395D01*
X47422996Y-61278149D01*
X47421067Y-61270933D01*
X47419124Y-61263743D01*
X47417169Y-61256583D01*
X47415199Y-61249448D01*
X47413218Y-61242344D01*
X47411223Y-61235264D01*
X47409215Y-61228215D01*
X47407194Y-61221190D01*
X47405161Y-61214196D01*
X47403114Y-61207226D01*
X47401055Y-61200286D01*
X47398982Y-61193371D01*
X47396898Y-61186486D01*
X47394800Y-61179624D01*
X47392691Y-61172793D01*
X47390568Y-61165986D01*
X47388433Y-61159208D01*
X47386285Y-61152455D01*
X47384126Y-61145731D01*
X47381953Y-61139031D01*
X47379769Y-61132360D01*
X47377571Y-61125713D01*
X47375363Y-61119095D01*
X47373141Y-61112501D01*
X47370907Y-61105937D01*
X47368661Y-61099395D01*
X47366404Y-61092883D01*
X47364133Y-61086393D01*
X47361852Y-61079934D01*
X47359558Y-61073496D01*
X47357252Y-61067088D01*
X47354934Y-61060703D01*
X47352605Y-61054347D01*
X47350263Y-61048013D01*
X47347911Y-61041709D01*
X47345545Y-61035426D01*
X47343169Y-61029173D01*
X47340781Y-61022942D01*
X47338381Y-61016739D01*
X47335969Y-61010559D01*
X47333547Y-61004407D01*
X47331112Y-60998277D01*
X47328667Y-60992176D01*
X47326209Y-60986097D01*
X47323742Y-60980046D01*
X47321261Y-60974016D01*
X47318771Y-60968015D01*
X47316267Y-60962036D01*
X47313754Y-60956085D01*
X47311229Y-60950155D01*
X47308694Y-60944253D01*
X47306146Y-60938373D01*
X47303588Y-60932520D01*
X47301018Y-60926689D01*
X47298439Y-60920886D01*
X47295847Y-60915103D01*
X47293246Y-60909349D01*
X47290632Y-60903615D01*
X47288009Y-60897909D01*
X47285373Y-60892224D01*
X47282729Y-60886566D01*
X47280071Y-60880929D01*
X47277405Y-60875320D01*
X47274727Y-60869730D01*
X47272039Y-60864169D01*
X47269340Y-60858627D01*
X47266631Y-60853114D01*
X47263910Y-60847620D01*
X47261180Y-60842154D01*
X47258438Y-60836707D01*
X47255688Y-60831288D01*
X47252925Y-60825888D01*
X47250153Y-60820516D01*
X47247370Y-60815163D01*
X47244578Y-60809838D01*
X47238961Y-60799253D01*
X47233303Y-60788761D01*
X47227604Y-60778361D01*
X47221865Y-60768053D01*
X47216086Y-60757837D01*
X47210267Y-60747712D01*
X47204408Y-60737677D01*
X47198510Y-60727733D01*
X47192572Y-60717879D01*
X47186595Y-60708114D01*
X47180579Y-60698438D01*
X47174525Y-60688851D01*
X47168433Y-60679352D01*
X47162302Y-60669942D01*
X47156133Y-60660619D01*
X47149927Y-60651383D01*
X47143683Y-60642234D01*
X47137401Y-60633171D01*
X47131083Y-60624195D01*
X47124727Y-60615304D01*
X47118335Y-60606499D01*
X47111906Y-60597779D01*
X47105441Y-60589144D01*
X47098940Y-60580594D01*
X47092402Y-60572128D01*
X47085829Y-60563745D01*
X47079220Y-60555446D01*
X47072576Y-60547231D01*
X47065897Y-60539098D01*
X47059183Y-60531049D01*
X47052433Y-60523081D01*
X47045649Y-60515196D01*
X47038831Y-60507393D01*
X47031978Y-60499672D01*
X47025091Y-60492032D01*
X47018171Y-60484473D01*
X47011216Y-60476995D01*
X47004228Y-60469598D01*
X46997206Y-60462281D01*
X46990152Y-60455045D01*
X46983064Y-60447889D01*
X46975943Y-60440812D01*
X46968790Y-60433816D01*
X46961605Y-60426899D01*
X46954387Y-60420061D01*
X46947137Y-60413302D01*
X46939855Y-60406623D01*
X46932542Y-60400022D01*
X46925197Y-60393501D01*
X46917821Y-60387058D01*
X46910414Y-60380693D01*
X46902976Y-60374407D01*
X46895508Y-60368199D01*
X46888010Y-60362069D01*
X46880481Y-60356018D01*
X46872923Y-60350044D01*
X46865335Y-60344149D01*
X46857719Y-60338332D01*
X46850073Y-60332592D01*
X46842398Y-60326930D01*
X46834696Y-60321346D01*
X46826965Y-60315840D01*
X46819207Y-60310412D01*
X46811421Y-60305062D01*
X46803608Y-60299789D01*
X46795769Y-60294595D01*
X46787904Y-60289478D01*
X46780013Y-60284439D01*
X46772097Y-60279479D01*
X46764156Y-60274596D01*
X46756190Y-60269792D01*
X46748201Y-60265066D01*
X46740189Y-60260418D01*
X46732154Y-60255849D01*
X46724096Y-60251359D01*
X46716018Y-60246947D01*
X46707918Y-60242614D01*
X46699799Y-60238361D01*
X46691660Y-60234187D01*
X46683503Y-60230093D01*
X46675328Y-60226078D01*
X46667136Y-60222143D01*
X46658929Y-60218289D01*
X46650706Y-60214515D01*
X46642470Y-60210821D01*
X46634222Y-60207209D01*
X46625962Y-60203679D01*
X46617692Y-60200229D01*
X46609413Y-60196862D01*
X46601127Y-60193578D01*
X46592836Y-60190376D01*
X46584541Y-60187257D01*
X46576243Y-60184222D01*
X46567946Y-60181271D01*
X46559650Y-60178404D01*
X46551359Y-60175622D01*
X46543075Y-60172925D01*
X46534800Y-60170315D01*
X46526537Y-60167790D01*
X46518290Y-60165353D01*
X46510061Y-60163002D01*
X46501855Y-60160740D01*
X46493675Y-60158567D01*
X46485527Y-60156483D01*
X46477414Y-60154489D01*
X46469342Y-60152585D01*
X46461317Y-60150773D01*
X46453345Y-60149052D01*
X46445435Y-60147425D01*
X46437594Y-60145891D01*
X46429831Y-60144451D01*
X46422158Y-60143106D01*
X46414586Y-60141858D01*
X46407130Y-60140706D01*
X46399805Y-60139653D01*
X46392633Y-60138698D01*
X46385637Y-60137843D01*
X46378845Y-60137088D01*
X46372294Y-60136435D01*
X46366033Y-60135885D01*
X46360126Y-60135438D01*
X46354665Y-60135095D01*
X46349799Y-60134857D01*
X46345796Y-60134720D01*
X46343198Y-60134676D01*
D10*
X72143198Y-35334676D02*
X72143198Y-57534676D01*
D11*
X68943198Y-59934676D02*
X68954498Y-59934666D01*
X68965772Y-59934636D01*
X68977019Y-59934586D01*
X68988240Y-59934517D01*
X68999434Y-59934427D01*
X69010602Y-59934318D01*
X69021743Y-59934189D01*
X69032858Y-59934040D01*
X69043947Y-59933872D01*
X69055009Y-59933684D01*
X69066045Y-59933476D01*
X69077055Y-59933249D01*
X69088039Y-59933003D01*
X69098997Y-59932737D01*
X69109929Y-59932452D01*
X69120835Y-59932148D01*
X69131715Y-59931824D01*
X69142570Y-59931481D01*
X69153398Y-59931119D01*
X69164201Y-59930738D01*
X69174978Y-59930338D01*
X69185729Y-59929919D01*
X69196455Y-59929480D01*
X69207155Y-59929023D01*
X69217829Y-59928547D01*
X69228478Y-59928052D01*
X69239102Y-59927538D01*
X69249700Y-59927006D01*
X69260274Y-59926454D01*
X69270821Y-59925884D01*
X69281344Y-59925296D01*
X69291841Y-59924688D01*
X69302313Y-59924063D01*
X69312760Y-59923418D01*
X69323182Y-59922756D01*
X69333579Y-59922074D01*
X69343951Y-59921375D01*
X69354298Y-59920657D01*
X69364621Y-59919921D01*
X69374918Y-59919166D01*
X69385191Y-59918394D01*
X69395439Y-59917603D01*
X69405663Y-59916794D01*
X69415861Y-59915967D01*
X69426036Y-59915121D01*
X69436185Y-59914258D01*
X69446311Y-59913377D01*
X69456411Y-59912478D01*
X69466488Y-59911561D01*
X69476540Y-59910627D01*
X69486568Y-59909674D01*
X69496571Y-59908704D01*
X69506551Y-59907716D01*
X69516506Y-59906710D01*
X69526437Y-59905687D01*
X69536344Y-59904646D01*
X69546228Y-59903587D01*
X69556086Y-59902511D01*
X69565922Y-59901418D01*
X69575733Y-59900307D01*
X69585521Y-59899178D01*
X69595284Y-59898033D01*
X69605025Y-59896870D01*
X69614740Y-59895689D01*
X69624434Y-59894492D01*
X69634102Y-59893277D01*
X69643748Y-59892045D01*
X69653370Y-59890796D01*
X69662969Y-59889530D01*
X69672543Y-59888246D01*
X69682096Y-59886946D01*
X69691624Y-59885629D01*
X69701129Y-59884295D01*
X69710611Y-59882944D01*
X69720070Y-59881575D01*
X69729505Y-59880191D01*
X69738918Y-59878789D01*
X69748307Y-59877371D01*
X69757675Y-59875936D01*
X69767017Y-59874484D01*
X69776339Y-59873015D01*
X69785636Y-59871530D01*
X69794912Y-59870029D01*
X69804163Y-59868511D01*
X69813393Y-59866976D01*
X69822599Y-59865425D01*
X69831784Y-59863857D01*
X69840945Y-59862273D01*
X69850084Y-59860673D01*
X69859200Y-59859056D01*
X69868295Y-59857423D01*
X69877366Y-59855774D01*
X69886416Y-59854108D01*
X69895442Y-59852427D01*
X69904447Y-59850729D01*
X69913428Y-59849015D01*
X69922389Y-59847285D01*
X69931326Y-59845539D01*
X69940243Y-59843776D01*
X69949136Y-59841998D01*
X69958009Y-59840204D01*
X69966857Y-59838394D01*
X69975686Y-59836568D01*
X69984491Y-59834726D01*
X69993276Y-59832869D01*
X70002037Y-59830995D01*
X70010779Y-59829106D01*
X70019496Y-59827201D01*
X70028194Y-59825280D01*
X70036869Y-59823344D01*
X70045523Y-59821392D01*
X70054155Y-59819425D01*
X70062766Y-59817441D01*
X70071355Y-59815443D01*
X70079923Y-59813428D01*
X70088469Y-59811399D01*
X70096995Y-59809354D01*
X70105497Y-59807293D01*
X70113981Y-59805217D01*
X70122441Y-59803126D01*
X70130883Y-59801019D01*
X70139300Y-59798897D01*
X70147699Y-59796760D01*
X70156075Y-59794608D01*
X70164432Y-59792440D01*
X70172765Y-59790257D01*
X70181081Y-59788059D01*
X70189372Y-59785846D01*
X70197646Y-59783617D01*
X70205896Y-59781374D01*
X70214128Y-59779115D01*
X70222336Y-59776842D01*
X70230527Y-59774553D01*
X70238694Y-59772250D01*
X70246843Y-59769932D01*
X70254969Y-59767599D01*
X70263077Y-59765250D01*
X70271162Y-59762888D01*
X70279230Y-59760509D01*
X70287274Y-59758117D01*
X70295300Y-59755709D01*
X70303304Y-59753288D01*
X70311290Y-59750850D01*
X70319252Y-59748399D01*
X70327198Y-59745933D01*
X70335120Y-59743452D01*
X70343026Y-59740956D01*
X70350908Y-59738447D01*
X70358773Y-59735921D01*
X70366615Y-59733383D01*
X70374440Y-59730828D01*
X70382243Y-59728261D01*
X70390028Y-59725677D01*
X70397791Y-59723081D01*
X70405536Y-59720469D01*
X70413259Y-59717843D01*
X70420965Y-59715202D01*
X70428649Y-59712548D01*
X70436316Y-59709879D01*
X70443960Y-59707196D01*
X70451587Y-59704498D01*
X70459192Y-59701786D01*
X70466781Y-59699059D01*
X70474347Y-59696320D01*
X70481897Y-59693565D01*
X70489424Y-59690796D01*
X70496935Y-59688013D01*
X70504423Y-59685217D01*
X70511896Y-59682405D01*
X70519345Y-59679580D01*
X70526779Y-59676740D01*
X70534191Y-59673888D01*
X70541587Y-59671020D01*
X70548960Y-59668139D01*
X70556317Y-59665243D01*
X70563652Y-59662334D01*
X70570972Y-59659410D01*
X70578269Y-59656474D01*
X70585550Y-59653522D01*
X70592809Y-59650558D01*
X70607275Y-59644586D01*
X70621665Y-59638560D01*
X70635980Y-59632478D01*
X70650221Y-59626341D01*
X70664388Y-59620149D01*
X70678480Y-59613902D01*
X70692499Y-59607601D01*
X70706444Y-59601246D01*
X70720316Y-59594836D01*
X70734115Y-59588372D01*
X70747841Y-59581854D01*
X70761495Y-59575282D01*
X70775076Y-59568656D01*
X70788586Y-59561977D01*
X70802024Y-59555244D01*
X70815391Y-59548457D01*
X70828686Y-59541617D01*
X70841910Y-59534724D01*
X70855064Y-59527778D01*
X70868147Y-59520779D01*
X70881160Y-59513727D01*
X70894103Y-59506622D01*
X70906977Y-59499464D01*
X70919780Y-59492254D01*
X70932515Y-59484991D01*
X70945180Y-59477676D01*
X70957776Y-59470308D01*
X70970304Y-59462889D01*
X70982764Y-59455416D01*
X70995155Y-59447892D01*
X71007478Y-59440316D01*
X71019734Y-59432688D01*
X71031921Y-59425008D01*
X71044042Y-59417276D01*
X71056095Y-59409492D01*
X71068081Y-59401657D01*
X71080001Y-59393769D01*
X71091853Y-59385831D01*
X71103640Y-59377841D01*
X71115360Y-59369799D01*
X71127014Y-59361706D01*
X71138602Y-59353562D01*
X71150124Y-59345366D01*
X71161581Y-59337119D01*
X71172973Y-59328821D01*
X71184299Y-59320471D01*
X71195560Y-59312071D01*
X71206757Y-59303619D01*
X71217888Y-59295116D01*
X71228955Y-59286563D01*
X71239958Y-59277958D01*
X71250896Y-59269302D01*
X71261770Y-59260596D01*
X71272580Y-59251838D01*
X71283326Y-59243030D01*
X71294008Y-59234170D01*
X71304627Y-59225260D01*
X71315182Y-59216299D01*
X71325674Y-59207288D01*
X71336102Y-59198225D01*
X71346467Y-59189112D01*
X71356770Y-59179948D01*
X71367009Y-59170733D01*
X71377185Y-59161468D01*
X71387298Y-59152152D01*
X71397349Y-59142785D01*
X71407337Y-59133368D01*
X71417263Y-59123900D01*
X71427126Y-59114381D01*
X71436927Y-59104812D01*
X71446665Y-59095192D01*
X71456341Y-59085521D01*
X71465955Y-59075800D01*
X71475507Y-59066029D01*
X71484997Y-59056206D01*
X71494425Y-59046334D01*
X71503790Y-59036410D01*
X71513094Y-59026436D01*
X71522336Y-59016412D01*
X71531516Y-59006337D01*
X71540634Y-58996212D01*
X71549691Y-58986036D01*
X71558685Y-58975810D01*
X71567618Y-58965533D01*
X71576489Y-58955206D01*
X71585298Y-58944828D01*
X71594045Y-58934400D01*
X71602730Y-58923922D01*
X71611354Y-58913393D01*
X71619916Y-58902814D01*
X71628416Y-58892185D01*
X71636854Y-58881505D01*
X71645230Y-58870776D01*
X71653545Y-58859996D01*
X71661797Y-58849166D01*
X71669987Y-58838286D01*
X71678115Y-58827355D01*
X71686181Y-58816375D01*
X71694185Y-58805345D01*
X71702127Y-58794265D01*
X71710006Y-58783135D01*
X71717823Y-58771955D01*
X71725577Y-58760726D01*
X71733269Y-58749447D01*
X71740898Y-58738119D01*
X71748465Y-58726741D01*
X71755968Y-58715314D01*
X71763409Y-58703837D01*
X71770786Y-58692312D01*
X71778101Y-58680737D01*
X71785351Y-58669114D01*
X71792539Y-58657442D01*
X71799663Y-58645721D01*
X71806723Y-58633951D01*
X71813719Y-58622134D01*
X71820651Y-58610268D01*
X71827519Y-58598354D01*
X71834323Y-58586393D01*
X71841062Y-58574384D01*
X71847736Y-58562327D01*
X71854346Y-58550224D01*
X71860890Y-58538073D01*
X71867369Y-58525876D01*
X71873783Y-58513633D01*
X71880131Y-58501343D01*
X71886413Y-58489008D01*
X71892629Y-58476627D01*
X71898778Y-58464200D01*
X71904861Y-58451729D01*
X71910878Y-58439214D01*
X71916827Y-58426654D01*
X71922708Y-58414051D01*
X71928522Y-58401405D01*
X71934269Y-58388715D01*
X71939947Y-58375983D01*
X71945557Y-58363210D01*
X71951098Y-58350395D01*
X71956570Y-58337540D01*
X71961973Y-58324644D01*
X71967306Y-58311708D01*
X71972569Y-58298734D01*
X71977762Y-58285722D01*
X71982885Y-58272671D01*
X71987936Y-58259585D01*
X71992917Y-58246462D01*
X71997825Y-58233304D01*
X72002662Y-58220111D01*
X72007427Y-58206886D01*
X72012118Y-58193628D01*
X72016737Y-58180338D01*
X72021282Y-58167019D01*
X72025753Y-58153670D01*
X72030150Y-58140293D01*
X72034472Y-58126890D01*
X72038719Y-58113461D01*
X72042891Y-58100008D01*
X72046986Y-58086533D01*
X72051005Y-58073037D01*
X72054947Y-58059522D01*
X72058811Y-58045990D01*
X72062598Y-58032442D01*
X72066306Y-58018880D01*
X72069935Y-58005307D01*
X72073485Y-57991725D01*
X72076955Y-57978136D01*
X72080344Y-57964543D01*
X72083653Y-57950948D01*
X72086879Y-57937354D01*
X72090024Y-57923764D01*
X72093086Y-57910182D01*
X72096064Y-57896611D01*
X72098958Y-57883054D01*
X72101768Y-57869516D01*
X72104493Y-57856000D01*
X72107132Y-57842513D01*
X72109684Y-57829057D01*
X72112150Y-57815639D01*
X72114527Y-57802265D01*
X72116816Y-57788940D01*
X72119015Y-57775672D01*
X72121125Y-57762468D01*
X72123144Y-57749335D01*
X72125071Y-57736284D01*
X72126906Y-57723323D01*
X72128648Y-57710464D01*
X72130295Y-57697719D01*
X72131849Y-57685101D01*
X72133306Y-57672625D01*
X72134667Y-57660309D01*
X72135931Y-57648172D01*
X72137096Y-57636238D01*
X72138162Y-57624532D01*
X72139128Y-57613085D01*
X72139993Y-57601937D01*
X72140756Y-57591132D01*
X72141417Y-57580729D01*
X72141973Y-57570802D01*
X72142425Y-57561452D01*
X72142771Y-57552825D01*
X72143013Y-57545148D01*
X72143152Y-57538837D01*
X72143198Y-57534676D01*
D10*
X53143198Y-62334676D02*
G75*
G02*
X47543198Y-62334676I-2800000J0D01*
G01*
M02*
