%TF.GenerationSoftware,KiCad,Pcbnew,9.0.3+1*%
%TF.CreationDate,2025-09-03T21:21:13+02:00*%
%TF.ProjectId,Micro-VX,4d696372-6f2d-4565-982e-6b696361645f,rev?*%
%TF.SameCoordinates,Original*%
%TF.FileFunction,Copper,L3,Inr*%
%TF.FilePolarity,Positive*%
%FSLAX46Y46*%
G04 Gerber Fmt 4.6, Leading zero omitted, Abs format (unit mm)*
G04 Created by KiCad (PCBNEW 9.0.3+1) date 2025-09-03 21:21:13*
%MOMM*%
%LPD*%
G01*
G04 APERTURE LIST*
G04 Aperture macros list*
%AMRoundRect*
0 Rectangle with rounded corners*
0 $1 Rounding radius*
0 $2 $3 $4 $5 $6 $7 $8 $9 X,Y pos of 4 corners*
0 Add a 4 corners polygon primitive as box body*
4,1,4,$2,$3,$4,$5,$6,$7,$8,$9,$2,$3,0*
0 Add four circle primitives for the rounded corners*
1,1,$1+$1,$2,$3*
1,1,$1+$1,$4,$5*
1,1,$1+$1,$6,$7*
1,1,$1+$1,$8,$9*
0 Add four rect primitives between the rounded corners*
20,1,$1+$1,$2,$3,$4,$5,0*
20,1,$1+$1,$4,$5,$6,$7,0*
20,1,$1+$1,$6,$7,$8,$9,0*
20,1,$1+$1,$8,$9,$2,$3,0*%
G04 Aperture macros list end*
%TA.AperFunction,ComponentPad*%
%ADD10R,1.700000X1.700000*%
%TD*%
%TA.AperFunction,ComponentPad*%
%ADD11C,1.700000*%
%TD*%
%TA.AperFunction,ComponentPad*%
%ADD12RoundRect,0.250001X0.949999X-0.949999X0.949999X0.949999X-0.949999X0.949999X-0.949999X-0.949999X0*%
%TD*%
%TA.AperFunction,ComponentPad*%
%ADD13C,2.400000*%
%TD*%
%TA.AperFunction,ViaPad*%
%ADD14C,0.700000*%
%TD*%
G04 APERTURE END LIST*
D10*
%TO.N,GND*%
%TO.C,J3*%
X46193198Y-34534676D03*
D11*
%TO.N,+3.3V*%
X48733198Y-34534676D03*
%TO.N,I2C1_SCL*%
X51273198Y-34534676D03*
%TO.N,I2C1_SDA*%
X53813198Y-34534676D03*
%TD*%
D10*
%TO.N,+3.3V*%
%TO.C,J2*%
X32743198Y-47284676D03*
D11*
%TO.N,SWDIO*%
X32743198Y-49824676D03*
%TO.N,SWCLK*%
X32743198Y-52364676D03*
%TO.N,GND*%
X32743198Y-54904676D03*
%TD*%
D12*
%TO.N,VDC*%
%TO.C,J4*%
X67667500Y-45250000D03*
D13*
%TO.N,GND*%
X67667500Y-41750000D03*
%TD*%
D14*
%TO.N,Net-(MIC1-+)*%
X50275000Y-60550000D03*
X50289977Y-61925000D03*
%TO.N,GND*%
X48875000Y-61925000D03*
%TO.N,+3.3V*%
X46075000Y-59500000D03*
X46273198Y-40924676D03*
X43833198Y-39184676D03*
X50528198Y-53972176D03*
X41573198Y-36264676D03*
X47773198Y-39824676D03*
X48938198Y-53982176D03*
X35323198Y-41344676D03*
X42903198Y-51334676D03*
X40483198Y-37904676D03*
X49743198Y-40524676D03*
X40893198Y-36264676D03*
X55933198Y-43884676D03*
X46943198Y-40894676D03*
%TO.N,LED*%
X48813198Y-45764676D03*
X41073198Y-46964676D03*
%TO.N,I2C1_SCL*%
X42818198Y-41809676D03*
X44238198Y-41809676D03*
X45588198Y-43084676D03*
X40657654Y-41334677D03*
%TO.N,USB_D-*%
X51363198Y-57299676D03*
X39626355Y-49408271D03*
X39628197Y-46565059D03*
X39703198Y-51334676D03*
X53713198Y-57299676D03*
X38664508Y-43391671D03*
%TO.N,ACC_Pin*%
X42113198Y-56194676D03*
X38638198Y-39404676D03*
X40053198Y-40144676D03*
X44193198Y-54984676D03*
%TO.N,USB_D+*%
X51363198Y-58249676D03*
X38987676Y-52160194D03*
X38345379Y-44277899D03*
X38728198Y-47404676D03*
X53713198Y-58249676D03*
X38778199Y-50254676D03*
%TO.N,GND*%
X65393198Y-51844676D03*
X64320000Y-36170000D03*
X48873198Y-41614676D03*
X43803198Y-46884676D03*
X49753198Y-43794676D03*
X66103198Y-51024676D03*
X46743198Y-55584676D03*
X43163198Y-36234676D03*
X41343198Y-50734676D03*
X42473198Y-36224676D03*
X45793198Y-46874676D03*
X35333198Y-36854676D03*
X48943198Y-55584676D03*
X61223198Y-55544676D03*
X66103198Y-51854676D03*
X53573198Y-48714676D03*
X44780698Y-46884676D03*
X39523198Y-37854676D03*
X55993198Y-51534676D03*
X48283198Y-40844676D03*
X52543198Y-53134676D03*
X65393198Y-51004676D03*
X45743198Y-51934676D03*
%TD*%
%TA.AperFunction,Conductor*%
%TO.N,+3.3V*%
G36*
X68946472Y-32135350D02*
G01*
X68960953Y-32136117D01*
X69117970Y-32144440D01*
X69127174Y-32145274D01*
X69455752Y-32187515D01*
X69466171Y-32189311D01*
X69818808Y-32265740D01*
X69829631Y-32268603D01*
X70171161Y-32375744D01*
X70182359Y-32379861D01*
X70499772Y-32514260D01*
X70511235Y-32519826D01*
X70799799Y-32678800D01*
X70811285Y-32685973D01*
X70811551Y-32686160D01*
X71069795Y-32867739D01*
X71080937Y-32876569D01*
X71309799Y-33080368D01*
X71320184Y-33090784D01*
X71366020Y-33142565D01*
X71520258Y-33316808D01*
X71529470Y-33328574D01*
X71698174Y-33573131D01*
X71701514Y-33577973D01*
X71709233Y-33590744D01*
X71771056Y-33708505D01*
X71853468Y-33865484D01*
X71859483Y-33878792D01*
X71975998Y-34183166D01*
X71979346Y-34193167D01*
X72025629Y-34353812D01*
X72027338Y-34360424D01*
X72066665Y-34531910D01*
X72067974Y-34538407D01*
X72099144Y-34717862D01*
X72100076Y-34724191D01*
X72122941Y-34913213D01*
X72123528Y-34919348D01*
X72137563Y-35117605D01*
X72137840Y-35123509D01*
X72142665Y-35333241D01*
X72142698Y-35336093D01*
X72142698Y-57530652D01*
X72142441Y-57538636D01*
X72135663Y-57643685D01*
X72134331Y-57655491D01*
X72095872Y-57893373D01*
X72092889Y-57906944D01*
X72019823Y-58168508D01*
X72015141Y-58182150D01*
X71909858Y-58439173D01*
X71903359Y-58452656D01*
X71768047Y-58694813D01*
X71759704Y-58707779D01*
X71595494Y-58931124D01*
X71585431Y-58943139D01*
X71392249Y-59146206D01*
X71380763Y-59156846D01*
X71157451Y-59338910D01*
X71144980Y-59347852D01*
X70889357Y-59508172D01*
X70876408Y-59515256D01*
X70584022Y-59653284D01*
X70574349Y-59657360D01*
X70416942Y-59715959D01*
X70410562Y-59718138D01*
X70240100Y-59771243D01*
X70233850Y-59773012D01*
X70053812Y-59818909D01*
X70047738Y-59820296D01*
X69855748Y-59859088D01*
X69849875Y-59860128D01*
X69646863Y-59891072D01*
X69641215Y-59891801D01*
X69425629Y-59914594D01*
X69420221Y-59915046D01*
X69192129Y-59929105D01*
X69186972Y-59929315D01*
X68944436Y-59934151D01*
X68941964Y-59934176D01*
X55143405Y-59934176D01*
X54343378Y-59934176D01*
X54343358Y-59934159D01*
X54343174Y-59934176D01*
X54332028Y-59934176D01*
X54325080Y-59935843D01*
X54305788Y-59937622D01*
X54297199Y-59937356D01*
X54290449Y-59939026D01*
X54290429Y-59939014D01*
X54290266Y-59939054D01*
X54290097Y-59939070D01*
X54290069Y-59939103D01*
X54275648Y-59942690D01*
X54275535Y-59942718D01*
X54275534Y-59942717D01*
X54158889Y-59971732D01*
X54150570Y-59972900D01*
X54146190Y-59974883D01*
X54146153Y-59974870D01*
X54146004Y-59974937D01*
X54145850Y-59974976D01*
X54145823Y-59975020D01*
X54134706Y-59980084D01*
X54133943Y-59980430D01*
X53995367Y-60043561D01*
X53987554Y-60046193D01*
X53983671Y-60048888D01*
X53983623Y-60048881D01*
X53983491Y-60048972D01*
X53983344Y-60049040D01*
X53983325Y-60049088D01*
X53973205Y-60056154D01*
X53972674Y-60056524D01*
X53833405Y-60153784D01*
X53825916Y-60157876D01*
X53822133Y-60161643D01*
X53822103Y-60161643D01*
X53821986Y-60161759D01*
X53821854Y-60161852D01*
X53821845Y-60161900D01*
X53812976Y-60170762D01*
X53812340Y-60171396D01*
X53812339Y-60171398D01*
X53678865Y-60304776D01*
X53671086Y-60310962D01*
X53664956Y-60318190D01*
X53660143Y-60326872D01*
X53537913Y-60497422D01*
X53531508Y-60506361D01*
X53527813Y-60511517D01*
X53527782Y-60511526D01*
X53527691Y-60511687D01*
X53523651Y-60517327D01*
X53523648Y-60517332D01*
X53521879Y-60519800D01*
X53519011Y-60527221D01*
X53472737Y-60610039D01*
X53463421Y-60626714D01*
X53463401Y-60626722D01*
X53463321Y-60626891D01*
X53461203Y-60630683D01*
X53461203Y-60630684D01*
X53456430Y-60639231D01*
X53454717Y-60645208D01*
X53410596Y-60739134D01*
X53410597Y-60739135D01*
X53410089Y-60740217D01*
X53402539Y-60756291D01*
X53402523Y-60756299D01*
X53402456Y-60756469D01*
X53402372Y-60756649D01*
X53402375Y-60756658D01*
X53400742Y-60760140D01*
X53396422Y-60769396D01*
X53395187Y-60775050D01*
X53354338Y-60879489D01*
X53353577Y-60881436D01*
X53347198Y-60897747D01*
X53347182Y-60897756D01*
X53347121Y-60897944D01*
X53347054Y-60898117D01*
X53347058Y-60898128D01*
X53345807Y-60901334D01*
X53341832Y-60911598D01*
X53341004Y-60916980D01*
X53302877Y-61035663D01*
X53302341Y-61037333D01*
X53296807Y-61054561D01*
X53296793Y-61054570D01*
X53296745Y-61054753D01*
X53296686Y-61054939D01*
X53296692Y-61054951D01*
X53295731Y-61057949D01*
X53292201Y-61069075D01*
X53291718Y-61074201D01*
X53257597Y-61206217D01*
X53257598Y-61206218D01*
X53257404Y-61206970D01*
X53252674Y-61225272D01*
X53252662Y-61225281D01*
X53252624Y-61225464D01*
X53252575Y-61225658D01*
X53252583Y-61225671D01*
X53252579Y-61225692D01*
X53251915Y-61228268D01*
X53248344Y-61242407D01*
X53248231Y-61247248D01*
X53219126Y-61391562D01*
X53219127Y-61391563D01*
X53218755Y-61393409D01*
X53214906Y-61412496D01*
X53214894Y-61412505D01*
X53214864Y-61412702D01*
X53214827Y-61412888D01*
X53214831Y-61412894D01*
X53214268Y-61415693D01*
X53211646Y-61428877D01*
X53211732Y-61433586D01*
X53187409Y-61595790D01*
X53187410Y-61595791D01*
X53186800Y-61599857D01*
X53184421Y-61615729D01*
X53184411Y-61615738D01*
X53184391Y-61615931D01*
X53184362Y-61616126D01*
X53184363Y-61616127D01*
X53183984Y-61618661D01*
X53181652Y-61634340D01*
X53182026Y-61638968D01*
X53163792Y-61816631D01*
X53163793Y-61816632D01*
X53161725Y-61836782D01*
X53161717Y-61836790D01*
X53161705Y-61836976D01*
X53161685Y-61837181D01*
X53161693Y-61837191D01*
X53161459Y-61839483D01*
X53159948Y-61854972D01*
X53160407Y-61858947D01*
X53148744Y-62056365D01*
X53148745Y-62056366D01*
X53148223Y-62065200D01*
X53147586Y-62075999D01*
X53147578Y-62076008D01*
X53147574Y-62076212D01*
X53147563Y-62076401D01*
X53147436Y-62078558D01*
X53147436Y-62078578D01*
X53146523Y-62094257D01*
X53147157Y-62098291D01*
X53143650Y-62284178D01*
X53143648Y-62284292D01*
X53142674Y-62333524D01*
X53142621Y-62333689D01*
X53142488Y-62338281D01*
X53125876Y-62623489D01*
X53125182Y-62631225D01*
X53117615Y-62693546D01*
X53116635Y-62700133D01*
X53072987Y-62947671D01*
X53071267Y-62955815D01*
X53056649Y-63015119D01*
X53055044Y-63021006D01*
X52982356Y-63263800D01*
X52979507Y-63272207D01*
X52958908Y-63326522D01*
X52956825Y-63331664D01*
X52855158Y-63567357D01*
X52851096Y-63575870D01*
X52826143Y-63623414D01*
X52823733Y-63627788D01*
X52693050Y-63854139D01*
X52687712Y-63862580D01*
X52660838Y-63901513D01*
X52658252Y-63905120D01*
X52498238Y-64120055D01*
X52491590Y-64128234D01*
X52466118Y-64156986D01*
X52463497Y-64159853D01*
X52273367Y-64361378D01*
X52265403Y-64369097D01*
X52246152Y-64386153D01*
X52243628Y-64388330D01*
X52021536Y-64574687D01*
X52012276Y-64581743D01*
X52006360Y-64585827D01*
X52004053Y-64587381D01*
X51748982Y-64755145D01*
X51736503Y-64762350D01*
X51513790Y-64874201D01*
X51458482Y-64901978D01*
X51445242Y-64907689D01*
X51152891Y-65014097D01*
X51139076Y-65018233D01*
X50836354Y-65089979D01*
X50822154Y-65092483D01*
X50513143Y-65128602D01*
X50498747Y-65129440D01*
X50187649Y-65129440D01*
X50173253Y-65128602D01*
X49864241Y-65092483D01*
X49850041Y-65089979D01*
X49547319Y-65018233D01*
X49533504Y-65014097D01*
X49241153Y-64907689D01*
X49227917Y-64901980D01*
X48949885Y-64762346D01*
X48937413Y-64755145D01*
X48682341Y-64587381D01*
X48680034Y-64585827D01*
X48674118Y-64581743D01*
X48664869Y-64574695D01*
X48442730Y-64388299D01*
X48440267Y-64386174D01*
X48429363Y-64376515D01*
X48420991Y-64369097D01*
X48413027Y-64361378D01*
X48222897Y-64159853D01*
X48220276Y-64156986D01*
X48194804Y-64128234D01*
X48188156Y-64120055D01*
X48028113Y-63905080D01*
X48025578Y-63901544D01*
X47998668Y-63862559D01*
X47993361Y-63854167D01*
X47862655Y-63627778D01*
X47860268Y-63623445D01*
X47835288Y-63575850D01*
X47831236Y-63567357D01*
X47729569Y-63331664D01*
X47727496Y-63326547D01*
X47706882Y-63272192D01*
X47704038Y-63263800D01*
X47631350Y-63021006D01*
X47629745Y-63015119D01*
X47615127Y-62955815D01*
X47613414Y-62947706D01*
X47569751Y-62700083D01*
X47568786Y-62693596D01*
X47561208Y-62631185D01*
X47560521Y-62623526D01*
X47543908Y-62338280D01*
X47543727Y-62333743D01*
X47542664Y-62284423D01*
X47542671Y-62284393D01*
X47542661Y-62284307D01*
X47539317Y-62121808D01*
X47540109Y-62117179D01*
X47539016Y-62100697D01*
X47539002Y-62100488D01*
X47538820Y-62097683D01*
X47538818Y-62097544D01*
X47538811Y-62097537D01*
X47537931Y-62083939D01*
X47537448Y-62076432D01*
X47537449Y-62076428D01*
X47537447Y-62076419D01*
X47531818Y-61989071D01*
X48224499Y-61989071D01*
X48249497Y-62114738D01*
X48249499Y-62114744D01*
X48298533Y-62233124D01*
X48298538Y-62233133D01*
X48369723Y-62339668D01*
X48369726Y-62339672D01*
X48460327Y-62430273D01*
X48460331Y-62430276D01*
X48566866Y-62501461D01*
X48566872Y-62501464D01*
X48566873Y-62501465D01*
X48685256Y-62550501D01*
X48685260Y-62550501D01*
X48685261Y-62550502D01*
X48810928Y-62575500D01*
X48810931Y-62575500D01*
X48939071Y-62575500D01*
X49023615Y-62558682D01*
X49064744Y-62550501D01*
X49183127Y-62501465D01*
X49289669Y-62430276D01*
X49380276Y-62339669D01*
X49451465Y-62233127D01*
X49467927Y-62193383D01*
X49511767Y-62138981D01*
X49578061Y-62116915D01*
X49645760Y-62134193D01*
X49693371Y-62185330D01*
X49697049Y-62193383D01*
X49713510Y-62233123D01*
X49713515Y-62233133D01*
X49784700Y-62339668D01*
X49784703Y-62339672D01*
X49875304Y-62430273D01*
X49875308Y-62430276D01*
X49981843Y-62501461D01*
X49981849Y-62501464D01*
X49981850Y-62501465D01*
X50100233Y-62550501D01*
X50100237Y-62550501D01*
X50100238Y-62550502D01*
X50225905Y-62575500D01*
X50225908Y-62575500D01*
X50354048Y-62575500D01*
X50438592Y-62558682D01*
X50479721Y-62550501D01*
X50598104Y-62501465D01*
X50704646Y-62430276D01*
X50795253Y-62339669D01*
X50866442Y-62233127D01*
X50915478Y-62114744D01*
X50923659Y-62073615D01*
X50940477Y-61989071D01*
X50940477Y-61860928D01*
X50915479Y-61735261D01*
X50915478Y-61735260D01*
X50915478Y-61735256D01*
X50866445Y-61616881D01*
X50866443Y-61616875D01*
X50866438Y-61616866D01*
X50795253Y-61510331D01*
X50795250Y-61510327D01*
X50704649Y-61419726D01*
X50704645Y-61419723D01*
X50598110Y-61348538D01*
X50598096Y-61348530D01*
X50597809Y-61348412D01*
X50597681Y-61348309D01*
X50592734Y-61345665D01*
X50593235Y-61344726D01*
X50543407Y-61304569D01*
X50521345Y-61238274D01*
X50538627Y-61170575D01*
X50579295Y-61131696D01*
X50578062Y-61129850D01*
X50634329Y-61092252D01*
X50689669Y-61055276D01*
X50780276Y-60964669D01*
X50851465Y-60858127D01*
X50900501Y-60739744D01*
X50913449Y-60674652D01*
X50925500Y-60614071D01*
X50925500Y-60485928D01*
X50900502Y-60360261D01*
X50900501Y-60360260D01*
X50900501Y-60360256D01*
X50851465Y-60241873D01*
X50851464Y-60241872D01*
X50851461Y-60241866D01*
X50780276Y-60135331D01*
X50780273Y-60135327D01*
X50689672Y-60044726D01*
X50689668Y-60044723D01*
X50583133Y-59973538D01*
X50583124Y-59973533D01*
X50464744Y-59924499D01*
X50464738Y-59924497D01*
X50339071Y-59899500D01*
X50339069Y-59899500D01*
X50210931Y-59899500D01*
X50210929Y-59899500D01*
X50085261Y-59924497D01*
X50085255Y-59924499D01*
X49966875Y-59973533D01*
X49966866Y-59973538D01*
X49860331Y-60044723D01*
X49860327Y-60044726D01*
X49769726Y-60135327D01*
X49769723Y-60135331D01*
X49698538Y-60241866D01*
X49698533Y-60241875D01*
X49649499Y-60360255D01*
X49649497Y-60360261D01*
X49624500Y-60485928D01*
X49624500Y-60485931D01*
X49624500Y-60614069D01*
X49624500Y-60614071D01*
X49624499Y-60614071D01*
X49649497Y-60739738D01*
X49649499Y-60739744D01*
X49698533Y-60858124D01*
X49698538Y-60858133D01*
X49769723Y-60964668D01*
X49769726Y-60964672D01*
X49860327Y-61055273D01*
X49860331Y-61055276D01*
X49966866Y-61126461D01*
X49966870Y-61126463D01*
X49966873Y-61126465D01*
X49967158Y-61126583D01*
X49967283Y-61126684D01*
X49972243Y-61129335D01*
X49971740Y-61130275D01*
X50021563Y-61170421D01*
X50043631Y-61236715D01*
X50026355Y-61304415D01*
X49985691Y-61343318D01*
X49986915Y-61345150D01*
X49875308Y-61419723D01*
X49875304Y-61419726D01*
X49784703Y-61510327D01*
X49784700Y-61510331D01*
X49713515Y-61616866D01*
X49713507Y-61616881D01*
X49697048Y-61656617D01*
X49653207Y-61711020D01*
X49586912Y-61733084D01*
X49519213Y-61715804D01*
X49471603Y-61664666D01*
X49467927Y-61656615D01*
X49451468Y-61616879D01*
X49451461Y-61616866D01*
X49380276Y-61510331D01*
X49380273Y-61510327D01*
X49289672Y-61419726D01*
X49289668Y-61419723D01*
X49183133Y-61348538D01*
X49183124Y-61348533D01*
X49064744Y-61299499D01*
X49064738Y-61299497D01*
X48939071Y-61274500D01*
X48939069Y-61274500D01*
X48810931Y-61274500D01*
X48810929Y-61274500D01*
X48685261Y-61299497D01*
X48685255Y-61299499D01*
X48566875Y-61348533D01*
X48566866Y-61348538D01*
X48460331Y-61419723D01*
X48460327Y-61419726D01*
X48369726Y-61510327D01*
X48369723Y-61510331D01*
X48298538Y-61616866D01*
X48298533Y-61616875D01*
X48249499Y-61735255D01*
X48249497Y-61735261D01*
X48224500Y-61860928D01*
X48224500Y-61860931D01*
X48224500Y-61989069D01*
X48224500Y-61989071D01*
X48224499Y-61989071D01*
X47531818Y-61989071D01*
X47526206Y-61901987D01*
X47526839Y-61896826D01*
X47525100Y-61881966D01*
X47524479Y-61874931D01*
X47523723Y-61862259D01*
X47522333Y-61857409D01*
X47503845Y-61692276D01*
X47502021Y-61675957D01*
X47502028Y-61675949D01*
X47502006Y-61675816D01*
X47501647Y-61672603D01*
X47501649Y-61672588D01*
X47501630Y-61672447D01*
X47500242Y-61659885D01*
X47498617Y-61655106D01*
X47474926Y-61510301D01*
X47470966Y-61486012D01*
X47470971Y-61485970D01*
X47470899Y-61485593D01*
X47469161Y-61474705D01*
X47467158Y-61469639D01*
X47456172Y-61419723D01*
X47438298Y-61338505D01*
X47433739Y-61317740D01*
X47433740Y-61317739D01*
X47433736Y-61317725D01*
X47432911Y-61313967D01*
X47432913Y-61313927D01*
X47432827Y-61313581D01*
X47430257Y-61301695D01*
X47427730Y-61296441D01*
X47411320Y-61238274D01*
X47395190Y-61181100D01*
X47389547Y-61161063D01*
X47389549Y-61161060D01*
X47389537Y-61161026D01*
X47388431Y-61157099D01*
X47388431Y-61157066D01*
X47388347Y-61156800D01*
X47385637Y-61147087D01*
X47382824Y-61141895D01*
X47346157Y-61037380D01*
X47337518Y-61012706D01*
X47337515Y-61012658D01*
X47337381Y-61012312D01*
X47334340Y-61003532D01*
X47331027Y-60998272D01*
X47283392Y-60886820D01*
X47283401Y-60886790D01*
X47283310Y-60886627D01*
X47283241Y-60886466D01*
X47283234Y-60886463D01*
X47280722Y-60880589D01*
X47280721Y-60880587D01*
X47279405Y-60877516D01*
X47274810Y-60871445D01*
X47267357Y-60858133D01*
X47164602Y-60674589D01*
X47157116Y-60661199D01*
X47157120Y-60661171D01*
X47157051Y-60661084D01*
X47154066Y-60655744D01*
X47148125Y-60649736D01*
X47139861Y-60639231D01*
X47022473Y-60490009D01*
X47014125Y-60479374D01*
X47014124Y-60479351D01*
X47014063Y-60479296D01*
X47010599Y-60474883D01*
X47003620Y-60469841D01*
X46867681Y-60346758D01*
X46867621Y-60346703D01*
X46857621Y-60337637D01*
X46857614Y-60337605D01*
X46857522Y-60337547D01*
X46853747Y-60334125D01*
X46846106Y-60330394D01*
X46703481Y-60241041D01*
X46702800Y-60240616D01*
X46691713Y-60233670D01*
X46691694Y-60233625D01*
X46691546Y-60233565D01*
X46691406Y-60233478D01*
X46691376Y-60233484D01*
X46687231Y-60230896D01*
X46679184Y-60228614D01*
X46537653Y-60171927D01*
X46537653Y-60171928D01*
X46524652Y-60166721D01*
X46524625Y-60166679D01*
X46524463Y-60166645D01*
X46524315Y-60166586D01*
X46524302Y-60166591D01*
X46519699Y-60164751D01*
X46511328Y-60163917D01*
X46397013Y-60140172D01*
X46396334Y-60140031D01*
X46380878Y-60136821D01*
X46380854Y-60136793D01*
X46380687Y-60136781D01*
X46380512Y-60136745D01*
X46380499Y-60136752D01*
X46373336Y-60135269D01*
X46365160Y-60135701D01*
X46363559Y-60135589D01*
X46357557Y-60134176D01*
X46343405Y-60134176D01*
X46343213Y-60134176D01*
X46343026Y-60134163D01*
X46343011Y-60134176D01*
X35143405Y-60134176D01*
X33144759Y-60134176D01*
X33141709Y-60134138D01*
X32946406Y-60129333D01*
X32940077Y-60129016D01*
X32756337Y-60115078D01*
X32749747Y-60114400D01*
X32575328Y-60091749D01*
X32568524Y-60090673D01*
X32403582Y-60059857D01*
X32396599Y-60058343D01*
X32239492Y-60019507D01*
X32232395Y-60017527D01*
X32086170Y-59972012D01*
X32075473Y-59968136D01*
X31799068Y-59853370D01*
X31784961Y-59846433D01*
X31657047Y-59773125D01*
X31537497Y-59704610D01*
X31524185Y-59695796D01*
X31301212Y-59526510D01*
X31289200Y-59516112D01*
X31114845Y-59344455D01*
X31088847Y-59318859D01*
X31078526Y-59307344D01*
X30899971Y-59081209D01*
X30891516Y-59069078D01*
X30735023Y-58813285D01*
X30728430Y-58801007D01*
X30595441Y-58516007D01*
X30590563Y-58503938D01*
X30570806Y-58446552D01*
X30483571Y-58193164D01*
X30480195Y-58181541D01*
X30402614Y-57855614D01*
X30400492Y-57844444D01*
X30400367Y-57843567D01*
X30356032Y-57533327D01*
X30355013Y-57523274D01*
X30345443Y-57363747D01*
X50712697Y-57363747D01*
X50737695Y-57489414D01*
X50737697Y-57489420D01*
X50786731Y-57607800D01*
X50786736Y-57607809D01*
X50852202Y-57705785D01*
X50873080Y-57772463D01*
X50854595Y-57839843D01*
X50852202Y-57843567D01*
X50786736Y-57941542D01*
X50786731Y-57941551D01*
X50737697Y-58059931D01*
X50737695Y-58059937D01*
X50712698Y-58185604D01*
X50712698Y-58185607D01*
X50712698Y-58313745D01*
X50712698Y-58313747D01*
X50712697Y-58313747D01*
X50737695Y-58439414D01*
X50737697Y-58439420D01*
X50786731Y-58557800D01*
X50786736Y-58557809D01*
X50857921Y-58664344D01*
X50857924Y-58664348D01*
X50948525Y-58754949D01*
X50948529Y-58754952D01*
X51055064Y-58826137D01*
X51055070Y-58826140D01*
X51055071Y-58826141D01*
X51173454Y-58875177D01*
X51173458Y-58875177D01*
X51173459Y-58875178D01*
X51299126Y-58900176D01*
X51299129Y-58900176D01*
X51427269Y-58900176D01*
X51511813Y-58883358D01*
X51552942Y-58875177D01*
X51671325Y-58826141D01*
X51777867Y-58754952D01*
X51868474Y-58664345D01*
X51939663Y-58557803D01*
X51988699Y-58439420D01*
X52013698Y-58313745D01*
X52013698Y-58185607D01*
X52013698Y-58185604D01*
X51988700Y-58059937D01*
X51988699Y-58059936D01*
X51988699Y-58059932D01*
X51939663Y-57941549D01*
X51874191Y-57843564D01*
X51853315Y-57776890D01*
X51871799Y-57709510D01*
X51874161Y-57705833D01*
X51939663Y-57607803D01*
X51988699Y-57489420D01*
X52013698Y-57363747D01*
X53062697Y-57363747D01*
X53087695Y-57489414D01*
X53087697Y-57489420D01*
X53136731Y-57607800D01*
X53136736Y-57607809D01*
X53202202Y-57705785D01*
X53223080Y-57772463D01*
X53204595Y-57839843D01*
X53202202Y-57843567D01*
X53136736Y-57941542D01*
X53136731Y-57941551D01*
X53087697Y-58059931D01*
X53087695Y-58059937D01*
X53062698Y-58185604D01*
X53062698Y-58185607D01*
X53062698Y-58313745D01*
X53062698Y-58313747D01*
X53062697Y-58313747D01*
X53087695Y-58439414D01*
X53087697Y-58439420D01*
X53136731Y-58557800D01*
X53136736Y-58557809D01*
X53207921Y-58664344D01*
X53207924Y-58664348D01*
X53298525Y-58754949D01*
X53298529Y-58754952D01*
X53405064Y-58826137D01*
X53405070Y-58826140D01*
X53405071Y-58826141D01*
X53523454Y-58875177D01*
X53523458Y-58875177D01*
X53523459Y-58875178D01*
X53649126Y-58900176D01*
X53649129Y-58900176D01*
X53777269Y-58900176D01*
X53861813Y-58883358D01*
X53902942Y-58875177D01*
X54021325Y-58826141D01*
X54127867Y-58754952D01*
X54218474Y-58664345D01*
X54289663Y-58557803D01*
X54338699Y-58439420D01*
X54363698Y-58313745D01*
X54363698Y-58185607D01*
X54363698Y-58185604D01*
X54338700Y-58059937D01*
X54338699Y-58059936D01*
X54338699Y-58059932D01*
X54289663Y-57941549D01*
X54224191Y-57843564D01*
X54203315Y-57776890D01*
X54221799Y-57709510D01*
X54224161Y-57705833D01*
X54289663Y-57607803D01*
X54338699Y-57489420D01*
X54363698Y-57363745D01*
X54363698Y-57235607D01*
X54363698Y-57235604D01*
X54338700Y-57109937D01*
X54338699Y-57109936D01*
X54338699Y-57109932D01*
X54289663Y-56991549D01*
X54289662Y-56991548D01*
X54289659Y-56991542D01*
X54218474Y-56885007D01*
X54218471Y-56885003D01*
X54127870Y-56794402D01*
X54127866Y-56794399D01*
X54021331Y-56723214D01*
X54021322Y-56723209D01*
X53902942Y-56674175D01*
X53902936Y-56674173D01*
X53777269Y-56649176D01*
X53777267Y-56649176D01*
X53649129Y-56649176D01*
X53649127Y-56649176D01*
X53523459Y-56674173D01*
X53523453Y-56674175D01*
X53405073Y-56723209D01*
X53405064Y-56723214D01*
X53298529Y-56794399D01*
X53298525Y-56794402D01*
X53207924Y-56885003D01*
X53207921Y-56885007D01*
X53136736Y-56991542D01*
X53136731Y-56991551D01*
X53087697Y-57109931D01*
X53087695Y-57109937D01*
X53062698Y-57235604D01*
X53062698Y-57235607D01*
X53062698Y-57363745D01*
X53062698Y-57363747D01*
X53062697Y-57363747D01*
X52013698Y-57363747D01*
X52013698Y-57363745D01*
X52013698Y-57235607D01*
X52013698Y-57235604D01*
X51988700Y-57109937D01*
X51988699Y-57109936D01*
X51988699Y-57109932D01*
X51939663Y-56991549D01*
X51939662Y-56991548D01*
X51939659Y-56991542D01*
X51868474Y-56885007D01*
X51868471Y-56885003D01*
X51777870Y-56794402D01*
X51777866Y-56794399D01*
X51671331Y-56723214D01*
X51671322Y-56723209D01*
X51552942Y-56674175D01*
X51552936Y-56674173D01*
X51427269Y-56649176D01*
X51427267Y-56649176D01*
X51299129Y-56649176D01*
X51299127Y-56649176D01*
X51173459Y-56674173D01*
X51173453Y-56674175D01*
X51055073Y-56723209D01*
X51055064Y-56723214D01*
X50948529Y-56794399D01*
X50948525Y-56794402D01*
X50857924Y-56885003D01*
X50857921Y-56885007D01*
X50786736Y-56991542D01*
X50786731Y-56991551D01*
X50737697Y-57109931D01*
X50737695Y-57109937D01*
X50712698Y-57235604D01*
X50712698Y-57235607D01*
X50712698Y-57363745D01*
X50712698Y-57363747D01*
X50712697Y-57363747D01*
X30345443Y-57363747D01*
X30343919Y-57338340D01*
X30343698Y-57330946D01*
X30343698Y-56258747D01*
X41462697Y-56258747D01*
X41487695Y-56384414D01*
X41487697Y-56384420D01*
X41536731Y-56502800D01*
X41536736Y-56502809D01*
X41607921Y-56609344D01*
X41607924Y-56609348D01*
X41698525Y-56699949D01*
X41698529Y-56699952D01*
X41805064Y-56771137D01*
X41805070Y-56771140D01*
X41805071Y-56771141D01*
X41923454Y-56820177D01*
X41923458Y-56820177D01*
X41923459Y-56820178D01*
X42049126Y-56845176D01*
X42049129Y-56845176D01*
X42177269Y-56845176D01*
X42261813Y-56828358D01*
X42302942Y-56820177D01*
X42421325Y-56771141D01*
X42527867Y-56699952D01*
X42618474Y-56609345D01*
X42689663Y-56502803D01*
X42738699Y-56384420D01*
X42763698Y-56258745D01*
X42763698Y-56130607D01*
X42763698Y-56130604D01*
X42738700Y-56004937D01*
X42738699Y-56004936D01*
X42738699Y-56004932D01*
X42692256Y-55892809D01*
X42689664Y-55886551D01*
X42689659Y-55886542D01*
X42618474Y-55780007D01*
X42618471Y-55780003D01*
X42527870Y-55689402D01*
X42527866Y-55689399D01*
X42467026Y-55648747D01*
X46092697Y-55648747D01*
X46117695Y-55774414D01*
X46117697Y-55774420D01*
X46166731Y-55892800D01*
X46166736Y-55892809D01*
X46237921Y-55999344D01*
X46237924Y-55999348D01*
X46328525Y-56089949D01*
X46328529Y-56089952D01*
X46435064Y-56161137D01*
X46435070Y-56161140D01*
X46435071Y-56161141D01*
X46553454Y-56210177D01*
X46553458Y-56210177D01*
X46553459Y-56210178D01*
X46679126Y-56235176D01*
X46679129Y-56235176D01*
X46807269Y-56235176D01*
X46891813Y-56218358D01*
X46932942Y-56210177D01*
X47051325Y-56161141D01*
X47157867Y-56089952D01*
X47248474Y-55999345D01*
X47319663Y-55892803D01*
X47368699Y-55774420D01*
X47385611Y-55689399D01*
X47393698Y-55648747D01*
X48292697Y-55648747D01*
X48317695Y-55774414D01*
X48317697Y-55774420D01*
X48366731Y-55892800D01*
X48366736Y-55892809D01*
X48437921Y-55999344D01*
X48437924Y-55999348D01*
X48528525Y-56089949D01*
X48528529Y-56089952D01*
X48635064Y-56161137D01*
X48635070Y-56161140D01*
X48635071Y-56161141D01*
X48753454Y-56210177D01*
X48753458Y-56210177D01*
X48753459Y-56210178D01*
X48879126Y-56235176D01*
X48879129Y-56235176D01*
X49007269Y-56235176D01*
X49091813Y-56218358D01*
X49132942Y-56210177D01*
X49251325Y-56161141D01*
X49357867Y-56089952D01*
X49448474Y-55999345D01*
X49519663Y-55892803D01*
X49568699Y-55774420D01*
X49585611Y-55689399D01*
X49593698Y-55648747D01*
X49593698Y-55608747D01*
X60572697Y-55608747D01*
X60597695Y-55734414D01*
X60597697Y-55734420D01*
X60646731Y-55852800D01*
X60646736Y-55852809D01*
X60717921Y-55959344D01*
X60717924Y-55959348D01*
X60808525Y-56049949D01*
X60808529Y-56049952D01*
X60915064Y-56121137D01*
X60915070Y-56121140D01*
X60915071Y-56121141D01*
X61033454Y-56170177D01*
X61033458Y-56170177D01*
X61033459Y-56170178D01*
X61159126Y-56195176D01*
X61159129Y-56195176D01*
X61287269Y-56195176D01*
X61371813Y-56178358D01*
X61412942Y-56170177D01*
X61531325Y-56121141D01*
X61637867Y-56049952D01*
X61728474Y-55959345D01*
X61799663Y-55852803D01*
X61848699Y-55734420D01*
X61865741Y-55648745D01*
X61873698Y-55608747D01*
X61873698Y-55480604D01*
X61848700Y-55354937D01*
X61848699Y-55354936D01*
X61848699Y-55354932D01*
X61799663Y-55236549D01*
X61799662Y-55236548D01*
X61799659Y-55236542D01*
X61728474Y-55130007D01*
X61728471Y-55130003D01*
X61637870Y-55039402D01*
X61637866Y-55039399D01*
X61531331Y-54968214D01*
X61531322Y-54968209D01*
X61412942Y-54919175D01*
X61412936Y-54919173D01*
X61287269Y-54894176D01*
X61287267Y-54894176D01*
X61159129Y-54894176D01*
X61159127Y-54894176D01*
X61033459Y-54919173D01*
X61033453Y-54919175D01*
X60915073Y-54968209D01*
X60915064Y-54968214D01*
X60808529Y-55039399D01*
X60808525Y-55039402D01*
X60717924Y-55130003D01*
X60717921Y-55130007D01*
X60646736Y-55236542D01*
X60646731Y-55236551D01*
X60597697Y-55354931D01*
X60597695Y-55354937D01*
X60572698Y-55480604D01*
X60572698Y-55480607D01*
X60572698Y-55608745D01*
X60572698Y-55608747D01*
X60572697Y-55608747D01*
X49593698Y-55608747D01*
X49593698Y-55520605D01*
X49589342Y-55498708D01*
X49589342Y-55498707D01*
X49568700Y-55394937D01*
X49568699Y-55394936D01*
X49568699Y-55394932D01*
X49519663Y-55276549D01*
X49519662Y-55276548D01*
X49519659Y-55276542D01*
X49448474Y-55170007D01*
X49448471Y-55170003D01*
X49357870Y-55079402D01*
X49357866Y-55079399D01*
X49251331Y-55008214D01*
X49251322Y-55008209D01*
X49132942Y-54959175D01*
X49132936Y-54959173D01*
X49007269Y-54934176D01*
X49007267Y-54934176D01*
X48879129Y-54934176D01*
X48879127Y-54934176D01*
X48753459Y-54959173D01*
X48753453Y-54959175D01*
X48635073Y-55008209D01*
X48635064Y-55008214D01*
X48528529Y-55079399D01*
X48528525Y-55079402D01*
X48437924Y-55170003D01*
X48437921Y-55170007D01*
X48366736Y-55276542D01*
X48366731Y-55276551D01*
X48317697Y-55394931D01*
X48317695Y-55394937D01*
X48292698Y-55520604D01*
X48292698Y-55520605D01*
X48292698Y-55520607D01*
X48292698Y-55648745D01*
X48292698Y-55648747D01*
X48292697Y-55648747D01*
X47393698Y-55648747D01*
X47393698Y-55520604D01*
X47368700Y-55394937D01*
X47368699Y-55394936D01*
X47368699Y-55394932D01*
X47319663Y-55276549D01*
X47319662Y-55276548D01*
X47319659Y-55276542D01*
X47248474Y-55170007D01*
X47248471Y-55170003D01*
X47157870Y-55079402D01*
X47157866Y-55079399D01*
X47051331Y-55008214D01*
X47051322Y-55008209D01*
X46932942Y-54959175D01*
X46932936Y-54959173D01*
X46807269Y-54934176D01*
X46807267Y-54934176D01*
X46679129Y-54934176D01*
X46679127Y-54934176D01*
X46553459Y-54959173D01*
X46553453Y-54959175D01*
X46435073Y-55008209D01*
X46435064Y-55008214D01*
X46328529Y-55079399D01*
X46328525Y-55079402D01*
X46237924Y-55170003D01*
X46237921Y-55170007D01*
X46166736Y-55276542D01*
X46166731Y-55276551D01*
X46117697Y-55394931D01*
X46117695Y-55394937D01*
X46092698Y-55520604D01*
X46092698Y-55520605D01*
X46092698Y-55520607D01*
X46092698Y-55648745D01*
X46092698Y-55648747D01*
X46092697Y-55648747D01*
X42467026Y-55648747D01*
X42421331Y-55618214D01*
X42421322Y-55618209D01*
X42302942Y-55569175D01*
X42302936Y-55569173D01*
X42177269Y-55544176D01*
X42177267Y-55544176D01*
X42049129Y-55544176D01*
X42049127Y-55544176D01*
X41923459Y-55569173D01*
X41923453Y-55569175D01*
X41805073Y-55618209D01*
X41805064Y-55618214D01*
X41698529Y-55689399D01*
X41698525Y-55689402D01*
X41607924Y-55780003D01*
X41607921Y-55780007D01*
X41536736Y-55886542D01*
X41536731Y-55886551D01*
X41487697Y-56004931D01*
X41487695Y-56004937D01*
X41462698Y-56130604D01*
X41462698Y-56130607D01*
X41462698Y-56258745D01*
X41462698Y-56258747D01*
X41462697Y-56258747D01*
X30343698Y-56258747D01*
X30343698Y-47659676D01*
X31393198Y-47659676D01*
X31393198Y-48182520D01*
X31399599Y-48242048D01*
X31399601Y-48242055D01*
X31449843Y-48376762D01*
X31449847Y-48376769D01*
X31536007Y-48491863D01*
X31536010Y-48491866D01*
X31651104Y-48578026D01*
X31651111Y-48578030D01*
X31785818Y-48628272D01*
X31785825Y-48628274D01*
X31845353Y-48634675D01*
X31845370Y-48634676D01*
X32042111Y-48634676D01*
X32109150Y-48654361D01*
X32154905Y-48707165D01*
X32164849Y-48776323D01*
X32135824Y-48839879D01*
X32114996Y-48858994D01*
X31993702Y-48947117D01*
X31865643Y-49075176D01*
X31865639Y-49075181D01*
X31759204Y-49221678D01*
X31676986Y-49383036D01*
X31676985Y-49383039D01*
X31621027Y-49555265D01*
X31592698Y-49734124D01*
X31592698Y-49915227D01*
X31621027Y-50094086D01*
X31676985Y-50266312D01*
X31676986Y-50266315D01*
X31721755Y-50354176D01*
X31758627Y-50426542D01*
X31759204Y-50427673D01*
X31865639Y-50574170D01*
X31865643Y-50574175D01*
X31993698Y-50702230D01*
X31993703Y-50702234D01*
X32070747Y-50758209D01*
X32140204Y-50808672D01*
X32245682Y-50862416D01*
X32301558Y-50890887D01*
X32301561Y-50890888D01*
X32387674Y-50918867D01*
X32473789Y-50946847D01*
X32545526Y-50958209D01*
X32633876Y-50972203D01*
X32697011Y-51002132D01*
X32733942Y-51061444D01*
X32732944Y-51131307D01*
X32694334Y-51189539D01*
X32633876Y-51217149D01*
X32473787Y-51242505D01*
X32301561Y-51298463D01*
X32301558Y-51298464D01*
X32140200Y-51380682D01*
X31993703Y-51487117D01*
X31993698Y-51487121D01*
X31865643Y-51615176D01*
X31865639Y-51615181D01*
X31759204Y-51761678D01*
X31676986Y-51923036D01*
X31676985Y-51923039D01*
X31621027Y-52095265D01*
X31592698Y-52274124D01*
X31592698Y-52455227D01*
X31621027Y-52634086D01*
X31676985Y-52806312D01*
X31676986Y-52806315D01*
X31732862Y-52915976D01*
X31759201Y-52967669D01*
X31759204Y-52967673D01*
X31865639Y-53114170D01*
X31865643Y-53114175D01*
X31993698Y-53242230D01*
X31993703Y-53242234D01*
X32106824Y-53324420D01*
X32140204Y-53348672D01*
X32245682Y-53402416D01*
X32301558Y-53430887D01*
X32301561Y-53430888D01*
X32387674Y-53458867D01*
X32473789Y-53486847D01*
X32546837Y-53498416D01*
X32633876Y-53512203D01*
X32697011Y-53542132D01*
X32733942Y-53601444D01*
X32732944Y-53671307D01*
X32694334Y-53729539D01*
X32633876Y-53757149D01*
X32473787Y-53782505D01*
X32301561Y-53838463D01*
X32301558Y-53838464D01*
X32140200Y-53920682D01*
X31993703Y-54027117D01*
X31993698Y-54027121D01*
X31865643Y-54155176D01*
X31865639Y-54155181D01*
X31759204Y-54301678D01*
X31676986Y-54463036D01*
X31676985Y-54463039D01*
X31621027Y-54635265D01*
X31592698Y-54814124D01*
X31592698Y-54995227D01*
X31621027Y-55174086D01*
X31676985Y-55346312D01*
X31676986Y-55346315D01*
X31759204Y-55507673D01*
X31865639Y-55654170D01*
X31865643Y-55654175D01*
X31993698Y-55782230D01*
X31993703Y-55782234D01*
X32121485Y-55875072D01*
X32140204Y-55888672D01*
X32245682Y-55942416D01*
X32301558Y-55970887D01*
X32301561Y-55970888D01*
X32387674Y-55998867D01*
X32473789Y-56026847D01*
X32556627Y-56039967D01*
X32652647Y-56055176D01*
X32652652Y-56055176D01*
X32833749Y-56055176D01*
X32920457Y-56041441D01*
X33012607Y-56026847D01*
X33056505Y-56012583D01*
X33074972Y-56006584D01*
X33074972Y-56006583D01*
X33184837Y-55970887D01*
X33346192Y-55888672D01*
X33492699Y-55782229D01*
X33620751Y-55654177D01*
X33727194Y-55507670D01*
X33809409Y-55346315D01*
X33865369Y-55174085D01*
X33885220Y-55048747D01*
X43542697Y-55048747D01*
X43567695Y-55174414D01*
X43567697Y-55174420D01*
X43616731Y-55292800D01*
X43616736Y-55292809D01*
X43687921Y-55399344D01*
X43687924Y-55399348D01*
X43778525Y-55489949D01*
X43778529Y-55489952D01*
X43885064Y-55561137D01*
X43885070Y-55561140D01*
X43885071Y-55561141D01*
X44003454Y-55610177D01*
X44003458Y-55610177D01*
X44003459Y-55610178D01*
X44129126Y-55635176D01*
X44129129Y-55635176D01*
X44257269Y-55635176D01*
X44342564Y-55618209D01*
X44382942Y-55610177D01*
X44501325Y-55561141D01*
X44607867Y-55489952D01*
X44617215Y-55480604D01*
X44670986Y-55426834D01*
X44698471Y-55399348D01*
X44698474Y-55399345D01*
X44769663Y-55292803D01*
X44818699Y-55174420D01*
X44837600Y-55079400D01*
X44843698Y-55048747D01*
X44843698Y-54920604D01*
X44818700Y-54794937D01*
X44818699Y-54794936D01*
X44818699Y-54794932D01*
X44769663Y-54676549D01*
X44769662Y-54676548D01*
X44769659Y-54676542D01*
X44698474Y-54570007D01*
X44698471Y-54570003D01*
X44607870Y-54479402D01*
X44607866Y-54479399D01*
X44501331Y-54408214D01*
X44501322Y-54408209D01*
X44382942Y-54359175D01*
X44382936Y-54359173D01*
X44257269Y-54334176D01*
X44257267Y-54334176D01*
X44129129Y-54334176D01*
X44129127Y-54334176D01*
X44003459Y-54359173D01*
X44003453Y-54359175D01*
X43885073Y-54408209D01*
X43885064Y-54408214D01*
X43778529Y-54479399D01*
X43778525Y-54479402D01*
X43687924Y-54570003D01*
X43687921Y-54570007D01*
X43616736Y-54676542D01*
X43616731Y-54676551D01*
X43567697Y-54794931D01*
X43567695Y-54794937D01*
X43542698Y-54920604D01*
X43542698Y-54920607D01*
X43542698Y-55048745D01*
X43542698Y-55048747D01*
X43542697Y-55048747D01*
X33885220Y-55048747D01*
X33886701Y-55039399D01*
X33893698Y-54995227D01*
X33893698Y-54814124D01*
X33877217Y-54710073D01*
X33865369Y-54635267D01*
X33837389Y-54549152D01*
X33809410Y-54463039D01*
X33809409Y-54463036D01*
X33756487Y-54359173D01*
X33727194Y-54301682D01*
X33713594Y-54282963D01*
X33620756Y-54155181D01*
X33620752Y-54155176D01*
X33492697Y-54027121D01*
X33492692Y-54027117D01*
X33346195Y-53920682D01*
X33346194Y-53920681D01*
X33346192Y-53920680D01*
X33294498Y-53894340D01*
X33184837Y-53838464D01*
X33184834Y-53838463D01*
X33012608Y-53782505D01*
X32852519Y-53757149D01*
X32789384Y-53727220D01*
X32752453Y-53667908D01*
X32753451Y-53598046D01*
X32792061Y-53539813D01*
X32852519Y-53512203D01*
X32922623Y-53501098D01*
X33012607Y-53486847D01*
X33184837Y-53430887D01*
X33346192Y-53348672D01*
X33492699Y-53242229D01*
X33536181Y-53198747D01*
X51892697Y-53198747D01*
X51917695Y-53324414D01*
X51917697Y-53324420D01*
X51966731Y-53442800D01*
X51966736Y-53442809D01*
X52037921Y-53549344D01*
X52037924Y-53549348D01*
X52128525Y-53639949D01*
X52128529Y-53639952D01*
X52235064Y-53711137D01*
X52235070Y-53711140D01*
X52235071Y-53711141D01*
X52353454Y-53760177D01*
X52353458Y-53760177D01*
X52353459Y-53760178D01*
X52479126Y-53785176D01*
X52479129Y-53785176D01*
X52607269Y-53785176D01*
X52691813Y-53768358D01*
X52732942Y-53760177D01*
X52851325Y-53711141D01*
X52957867Y-53639952D01*
X53048474Y-53549345D01*
X53119663Y-53442803D01*
X53168699Y-53324420D01*
X53193698Y-53198745D01*
X53193698Y-53070607D01*
X53193698Y-53070604D01*
X53168700Y-52944937D01*
X53168699Y-52944936D01*
X53168699Y-52944932D01*
X53119663Y-52826549D01*
X53119662Y-52826548D01*
X53119659Y-52826542D01*
X53048474Y-52720007D01*
X53048471Y-52720003D01*
X52957870Y-52629402D01*
X52957866Y-52629399D01*
X52851331Y-52558214D01*
X52851322Y-52558209D01*
X52732942Y-52509175D01*
X52732936Y-52509173D01*
X52607269Y-52484176D01*
X52607267Y-52484176D01*
X52479129Y-52484176D01*
X52479127Y-52484176D01*
X52353459Y-52509173D01*
X52353453Y-52509175D01*
X52235073Y-52558209D01*
X52235064Y-52558214D01*
X52128529Y-52629399D01*
X52128525Y-52629402D01*
X52037924Y-52720003D01*
X52037921Y-52720007D01*
X51966736Y-52826542D01*
X51966731Y-52826551D01*
X51917697Y-52944931D01*
X51917695Y-52944937D01*
X51892698Y-53070604D01*
X51892698Y-53070607D01*
X51892698Y-53198745D01*
X51892698Y-53198747D01*
X51892697Y-53198747D01*
X33536181Y-53198747D01*
X33620751Y-53114177D01*
X33727194Y-52967670D01*
X33809409Y-52806315D01*
X33865369Y-52634085D01*
X33884841Y-52511142D01*
X33893698Y-52455227D01*
X33893698Y-52274124D01*
X33877217Y-52170073D01*
X33865369Y-52095267D01*
X33821477Y-51960178D01*
X33809410Y-51923039D01*
X33809409Y-51923036D01*
X33773244Y-51852060D01*
X33727194Y-51761682D01*
X33656905Y-51664937D01*
X33620756Y-51615181D01*
X33620752Y-51615176D01*
X33492697Y-51487121D01*
X33492692Y-51487117D01*
X33346195Y-51380682D01*
X33346194Y-51380681D01*
X33346192Y-51380680D01*
X33276031Y-51344931D01*
X33184837Y-51298464D01*
X33184834Y-51298463D01*
X33012608Y-51242505D01*
X32852519Y-51217149D01*
X32789384Y-51187220D01*
X32752453Y-51127908D01*
X32753451Y-51058046D01*
X32792061Y-50999813D01*
X32852519Y-50972203D01*
X32925748Y-50960604D01*
X33012607Y-50946847D01*
X33184837Y-50890887D01*
X33346192Y-50808672D01*
X33492699Y-50702229D01*
X33620751Y-50574177D01*
X33727194Y-50427670D01*
X33782693Y-50318747D01*
X38127698Y-50318747D01*
X38152696Y-50444414D01*
X38152698Y-50444420D01*
X38201732Y-50562800D01*
X38201737Y-50562809D01*
X38272922Y-50669344D01*
X38272925Y-50669348D01*
X38363526Y-50759949D01*
X38363530Y-50759952D01*
X38470065Y-50831137D01*
X38470071Y-50831140D01*
X38470072Y-50831141D01*
X38588455Y-50880177D01*
X38588459Y-50880177D01*
X38588460Y-50880178D01*
X38714127Y-50905176D01*
X38714130Y-50905176D01*
X38842270Y-50905176D01*
X38947839Y-50884176D01*
X38967943Y-50880177D01*
X38967945Y-50880175D01*
X38968000Y-50880160D01*
X38968031Y-50880159D01*
X38973917Y-50878989D01*
X38974138Y-50880104D01*
X39037867Y-50879532D01*
X39096982Y-50916777D01*
X39126576Y-50980069D01*
X39118563Y-51046270D01*
X39077698Y-51144927D01*
X39077695Y-51144937D01*
X39052698Y-51270604D01*
X39052698Y-51385694D01*
X39033013Y-51452733D01*
X38980209Y-51498488D01*
X38928698Y-51509694D01*
X38923605Y-51509694D01*
X38797937Y-51534691D01*
X38797931Y-51534693D01*
X38679551Y-51583727D01*
X38679542Y-51583732D01*
X38573007Y-51654917D01*
X38573003Y-51654920D01*
X38482402Y-51745521D01*
X38482399Y-51745525D01*
X38411214Y-51852060D01*
X38411209Y-51852069D01*
X38362175Y-51970449D01*
X38362173Y-51970455D01*
X38337176Y-52096122D01*
X38337176Y-52096125D01*
X38337176Y-52224263D01*
X38337176Y-52224265D01*
X38337175Y-52224265D01*
X38362173Y-52349932D01*
X38362175Y-52349938D01*
X38411209Y-52468318D01*
X38411214Y-52468327D01*
X38482399Y-52574862D01*
X38482402Y-52574866D01*
X38573003Y-52665467D01*
X38573007Y-52665470D01*
X38679542Y-52736655D01*
X38679548Y-52736658D01*
X38679549Y-52736659D01*
X38797932Y-52785695D01*
X38797936Y-52785695D01*
X38797937Y-52785696D01*
X38923604Y-52810694D01*
X38923607Y-52810694D01*
X39051747Y-52810694D01*
X39136291Y-52793876D01*
X39177420Y-52785695D01*
X39295803Y-52736659D01*
X39402345Y-52665470D01*
X39492952Y-52574863D01*
X39564141Y-52468321D01*
X39613177Y-52349938D01*
X39629208Y-52269348D01*
X39638176Y-52224265D01*
X39638176Y-52109176D01*
X39657861Y-52042137D01*
X39707936Y-51998747D01*
X45092697Y-51998747D01*
X45117695Y-52124414D01*
X45117697Y-52124420D01*
X45166731Y-52242800D01*
X45166736Y-52242809D01*
X45237921Y-52349344D01*
X45237924Y-52349348D01*
X45328525Y-52439949D01*
X45328529Y-52439952D01*
X45435064Y-52511137D01*
X45435070Y-52511140D01*
X45435071Y-52511141D01*
X45553454Y-52560177D01*
X45553458Y-52560177D01*
X45553459Y-52560178D01*
X45679126Y-52585176D01*
X45679129Y-52585176D01*
X45807269Y-52585176D01*
X45891813Y-52568358D01*
X45932942Y-52560177D01*
X46051325Y-52511141D01*
X46157867Y-52439952D01*
X46248474Y-52349345D01*
X46319663Y-52242803D01*
X46368699Y-52124420D01*
X46376880Y-52083291D01*
X46393698Y-51998747D01*
X46393698Y-51870604D01*
X46368700Y-51744937D01*
X46368699Y-51744936D01*
X46368699Y-51744932D01*
X46319663Y-51626549D01*
X46319662Y-51626548D01*
X46319659Y-51626542D01*
X46301087Y-51598747D01*
X55342697Y-51598747D01*
X55367695Y-51724414D01*
X55367697Y-51724420D01*
X55416731Y-51842800D01*
X55416736Y-51842809D01*
X55487921Y-51949344D01*
X55487924Y-51949348D01*
X55578525Y-52039949D01*
X55578529Y-52039952D01*
X55685064Y-52111137D01*
X55685070Y-52111140D01*
X55685071Y-52111141D01*
X55803454Y-52160177D01*
X55803458Y-52160177D01*
X55803459Y-52160178D01*
X55929126Y-52185176D01*
X55929129Y-52185176D01*
X56057269Y-52185176D01*
X56169710Y-52162809D01*
X56182942Y-52160177D01*
X56301325Y-52111141D01*
X56407867Y-52039952D01*
X56498474Y-51949345D01*
X56569663Y-51842803D01*
X56618699Y-51724420D01*
X56630532Y-51664932D01*
X56643698Y-51598747D01*
X56643698Y-51470604D01*
X56618700Y-51344937D01*
X56618699Y-51344936D01*
X56618699Y-51344932D01*
X56575215Y-51239952D01*
X56569664Y-51226551D01*
X56569659Y-51226542D01*
X56498474Y-51120007D01*
X56498471Y-51120003D01*
X56447215Y-51068747D01*
X64742697Y-51068747D01*
X64767695Y-51194414D01*
X64767697Y-51194420D01*
X64816731Y-51312800D01*
X64816736Y-51312809D01*
X64845452Y-51355785D01*
X64866330Y-51422463D01*
X64847845Y-51489843D01*
X64845452Y-51493567D01*
X64816736Y-51536542D01*
X64816731Y-51536551D01*
X64767697Y-51654931D01*
X64767695Y-51654937D01*
X64742698Y-51780604D01*
X64742698Y-51780607D01*
X64742698Y-51908745D01*
X64742698Y-51908747D01*
X64742697Y-51908747D01*
X64767695Y-52034414D01*
X64767697Y-52034420D01*
X64816731Y-52152800D01*
X64816736Y-52152809D01*
X64887921Y-52259344D01*
X64887924Y-52259348D01*
X64978525Y-52349949D01*
X64978529Y-52349952D01*
X65085064Y-52421137D01*
X65085073Y-52421142D01*
X65104474Y-52429178D01*
X65203454Y-52470177D01*
X65203458Y-52470177D01*
X65203459Y-52470178D01*
X65329126Y-52495176D01*
X65329129Y-52495176D01*
X65457269Y-52495176D01*
X65541813Y-52478358D01*
X65582942Y-52470177D01*
X65689418Y-52426072D01*
X65758886Y-52418604D01*
X65789290Y-52429178D01*
X65789443Y-52428810D01*
X65821163Y-52441948D01*
X65913454Y-52480177D01*
X65913458Y-52480177D01*
X65913459Y-52480178D01*
X66039126Y-52505176D01*
X66039129Y-52505176D01*
X66167269Y-52505176D01*
X66272838Y-52484176D01*
X66292942Y-52480177D01*
X66411325Y-52431141D01*
X66517867Y-52359952D01*
X66608474Y-52269345D01*
X66679663Y-52162803D01*
X66728699Y-52044420D01*
X66745456Y-51960178D01*
X66753698Y-51918747D01*
X66753698Y-51790604D01*
X66728700Y-51664937D01*
X66728699Y-51664936D01*
X66728699Y-51664932D01*
X66679663Y-51546549D01*
X66670880Y-51533405D01*
X66654285Y-51508568D01*
X66633406Y-51441891D01*
X66651890Y-51374511D01*
X66654285Y-51370784D01*
X66671555Y-51344937D01*
X66679663Y-51332803D01*
X66728699Y-51214420D01*
X66741644Y-51149344D01*
X66753698Y-51088747D01*
X66753698Y-50960604D01*
X66728700Y-50834937D01*
X66728699Y-50834936D01*
X66728699Y-50834932D01*
X66679663Y-50716549D01*
X66679662Y-50716548D01*
X66679659Y-50716542D01*
X66608474Y-50610007D01*
X66608471Y-50610003D01*
X66517870Y-50519402D01*
X66517866Y-50519399D01*
X66411331Y-50448214D01*
X66411322Y-50448209D01*
X66292942Y-50399175D01*
X66292936Y-50399173D01*
X66167269Y-50374176D01*
X66167267Y-50374176D01*
X66039129Y-50374176D01*
X66039127Y-50374176D01*
X65913459Y-50399173D01*
X65913449Y-50399176D01*
X65816910Y-50439164D01*
X65747441Y-50446633D01*
X65707091Y-50430338D01*
X65706695Y-50431081D01*
X65701327Y-50428211D01*
X65582942Y-50379175D01*
X65582936Y-50379173D01*
X65457269Y-50354176D01*
X65457267Y-50354176D01*
X65329129Y-50354176D01*
X65329127Y-50354176D01*
X65203459Y-50379173D01*
X65203453Y-50379175D01*
X65085073Y-50428209D01*
X65085064Y-50428214D01*
X64978529Y-50499399D01*
X64978525Y-50499402D01*
X64887924Y-50590003D01*
X64887921Y-50590007D01*
X64816736Y-50696542D01*
X64816731Y-50696551D01*
X64767697Y-50814931D01*
X64767695Y-50814937D01*
X64742698Y-50940604D01*
X64742698Y-50940607D01*
X64742698Y-51068745D01*
X64742698Y-51068747D01*
X64742697Y-51068747D01*
X56447215Y-51068747D01*
X56407867Y-51029399D01*
X56301331Y-50958214D01*
X56301322Y-50958209D01*
X56182942Y-50909175D01*
X56182936Y-50909173D01*
X56057269Y-50884176D01*
X56057267Y-50884176D01*
X55929129Y-50884176D01*
X55929127Y-50884176D01*
X55803459Y-50909173D01*
X55803453Y-50909175D01*
X55685073Y-50958209D01*
X55685064Y-50958214D01*
X55578529Y-51029399D01*
X55578525Y-51029402D01*
X55487924Y-51120003D01*
X55487921Y-51120007D01*
X55416736Y-51226542D01*
X55416731Y-51226551D01*
X55367697Y-51344931D01*
X55367695Y-51344937D01*
X55342698Y-51470604D01*
X55342698Y-51470607D01*
X55342698Y-51598745D01*
X55342698Y-51598747D01*
X55342697Y-51598747D01*
X46301087Y-51598747D01*
X46257427Y-51533406D01*
X46257426Y-51533405D01*
X46248472Y-51520004D01*
X46157870Y-51429402D01*
X46157866Y-51429399D01*
X46051331Y-51358214D01*
X46051322Y-51358209D01*
X45932942Y-51309175D01*
X45932936Y-51309173D01*
X45807269Y-51284176D01*
X45807267Y-51284176D01*
X45679129Y-51284176D01*
X45679127Y-51284176D01*
X45553459Y-51309173D01*
X45553453Y-51309175D01*
X45435073Y-51358209D01*
X45435064Y-51358214D01*
X45328529Y-51429399D01*
X45328525Y-51429402D01*
X45237924Y-51520003D01*
X45237921Y-51520007D01*
X45166736Y-51626542D01*
X45166731Y-51626551D01*
X45117697Y-51744931D01*
X45117695Y-51744937D01*
X45092698Y-51870604D01*
X45092698Y-51870607D01*
X45092698Y-51998745D01*
X45092698Y-51998747D01*
X45092697Y-51998747D01*
X39707936Y-51998747D01*
X39710665Y-51996382D01*
X39762176Y-51985176D01*
X39767269Y-51985176D01*
X39851813Y-51968358D01*
X39892942Y-51960177D01*
X40011325Y-51911141D01*
X40117867Y-51839952D01*
X40117870Y-51839949D01*
X40180986Y-51776834D01*
X40208471Y-51749348D01*
X40208474Y-51749345D01*
X40279663Y-51642803D01*
X40328699Y-51524420D01*
X40342959Y-51452733D01*
X40353698Y-51398747D01*
X40353698Y-51270604D01*
X40328700Y-51144937D01*
X40328699Y-51144936D01*
X40328699Y-51144932D01*
X40279663Y-51026549D01*
X40279662Y-51026548D01*
X40279659Y-51026542D01*
X40208474Y-50920007D01*
X40208471Y-50920003D01*
X40117870Y-50829402D01*
X40117866Y-50829399D01*
X40071992Y-50798747D01*
X40692697Y-50798747D01*
X40717695Y-50924414D01*
X40717697Y-50924420D01*
X40766731Y-51042800D01*
X40766736Y-51042809D01*
X40837921Y-51149344D01*
X40837924Y-51149348D01*
X40928525Y-51239949D01*
X40928529Y-51239952D01*
X41035064Y-51311137D01*
X41035070Y-51311140D01*
X41035071Y-51311141D01*
X41153454Y-51360177D01*
X41153458Y-51360177D01*
X41153459Y-51360178D01*
X41279126Y-51385176D01*
X41279129Y-51385176D01*
X41407269Y-51385176D01*
X41491813Y-51368358D01*
X41532942Y-51360177D01*
X41651325Y-51311141D01*
X41757867Y-51239952D01*
X41848474Y-51149345D01*
X41919663Y-51042803D01*
X41968699Y-50924420D01*
X41987600Y-50829400D01*
X41993698Y-50798747D01*
X41993698Y-50670604D01*
X41968700Y-50544937D01*
X41968699Y-50544936D01*
X41968699Y-50544932D01*
X41921540Y-50431081D01*
X41919664Y-50426551D01*
X41919659Y-50426542D01*
X41848474Y-50320007D01*
X41848471Y-50320003D01*
X41757870Y-50229402D01*
X41757866Y-50229399D01*
X41651331Y-50158214D01*
X41651322Y-50158209D01*
X41532942Y-50109175D01*
X41532936Y-50109173D01*
X41407269Y-50084176D01*
X41407267Y-50084176D01*
X41279129Y-50084176D01*
X41279127Y-50084176D01*
X41153459Y-50109173D01*
X41153453Y-50109175D01*
X41035073Y-50158209D01*
X41035064Y-50158214D01*
X40928529Y-50229399D01*
X40928525Y-50229402D01*
X40837924Y-50320003D01*
X40837921Y-50320007D01*
X40766736Y-50426542D01*
X40766731Y-50426551D01*
X40717697Y-50544931D01*
X40717695Y-50544937D01*
X40692698Y-50670604D01*
X40692698Y-50670607D01*
X40692698Y-50798745D01*
X40692698Y-50798747D01*
X40692697Y-50798747D01*
X40071992Y-50798747D01*
X40025403Y-50767617D01*
X40011331Y-50758214D01*
X40011322Y-50758209D01*
X39892942Y-50709175D01*
X39892936Y-50709173D01*
X39767269Y-50684176D01*
X39767267Y-50684176D01*
X39639129Y-50684176D01*
X39639127Y-50684176D01*
X39513449Y-50709175D01*
X39513372Y-50709199D01*
X39513329Y-50709199D01*
X39507480Y-50710363D01*
X39507259Y-50709252D01*
X39443505Y-50709812D01*
X39384398Y-50672556D01*
X39354816Y-50609257D01*
X39362832Y-50543081D01*
X39403700Y-50444420D01*
X39412700Y-50399173D01*
X39428699Y-50318747D01*
X39428699Y-50184515D01*
X39430997Y-50184515D01*
X39442099Y-50125929D01*
X39490158Y-50075212D01*
X39556194Y-50058974D01*
X39556194Y-50058771D01*
X39557022Y-50058771D01*
X39558006Y-50058529D01*
X39561393Y-50058771D01*
X39562286Y-50058771D01*
X39690426Y-50058771D01*
X39774970Y-50041953D01*
X39816099Y-50033772D01*
X39934482Y-49984736D01*
X40041024Y-49913547D01*
X40131631Y-49822940D01*
X40202820Y-49716398D01*
X40251856Y-49598015D01*
X40263980Y-49537064D01*
X40276855Y-49472342D01*
X40276855Y-49344199D01*
X40251857Y-49218532D01*
X40251856Y-49218531D01*
X40251856Y-49218527D01*
X40202820Y-49100144D01*
X40202819Y-49100143D01*
X40202816Y-49100137D01*
X40131631Y-48993602D01*
X40131628Y-48993598D01*
X40041027Y-48902997D01*
X40041023Y-48902994D01*
X39934488Y-48831809D01*
X39934479Y-48831804D01*
X39816099Y-48782770D01*
X39816093Y-48782768D01*
X39795878Y-48778747D01*
X52922697Y-48778747D01*
X52947695Y-48904414D01*
X52947697Y-48904420D01*
X52996731Y-49022800D01*
X52996736Y-49022809D01*
X53067921Y-49129344D01*
X53067924Y-49129348D01*
X53158525Y-49219949D01*
X53158529Y-49219952D01*
X53265064Y-49291137D01*
X53265070Y-49291140D01*
X53265071Y-49291141D01*
X53383454Y-49340177D01*
X53383458Y-49340177D01*
X53383459Y-49340178D01*
X53509126Y-49365176D01*
X53509129Y-49365176D01*
X53637269Y-49365176D01*
X53721813Y-49348358D01*
X53762942Y-49340177D01*
X53881325Y-49291141D01*
X53987867Y-49219952D01*
X54078474Y-49129345D01*
X54149663Y-49022803D01*
X54198699Y-48904420D01*
X54218741Y-48803665D01*
X54223698Y-48778747D01*
X54223698Y-48650604D01*
X54198700Y-48524937D01*
X54198699Y-48524936D01*
X54198699Y-48524932D01*
X54149663Y-48406549D01*
X54149662Y-48406548D01*
X54149659Y-48406542D01*
X54078474Y-48300007D01*
X54078471Y-48300003D01*
X53987870Y-48209402D01*
X53987866Y-48209399D01*
X53881331Y-48138214D01*
X53881322Y-48138209D01*
X53762942Y-48089175D01*
X53762936Y-48089173D01*
X53637269Y-48064176D01*
X53637267Y-48064176D01*
X53509129Y-48064176D01*
X53509127Y-48064176D01*
X53383459Y-48089173D01*
X53383453Y-48089175D01*
X53265073Y-48138209D01*
X53265064Y-48138214D01*
X53158529Y-48209399D01*
X53158525Y-48209402D01*
X53067924Y-48300003D01*
X53067921Y-48300007D01*
X52996736Y-48406542D01*
X52996731Y-48406551D01*
X52947697Y-48524931D01*
X52947695Y-48524937D01*
X52922698Y-48650604D01*
X52922698Y-48650607D01*
X52922698Y-48778745D01*
X52922698Y-48778747D01*
X52922697Y-48778747D01*
X39795878Y-48778747D01*
X39732459Y-48766132D01*
X39690426Y-48757771D01*
X39690424Y-48757771D01*
X39562286Y-48757771D01*
X39562284Y-48757771D01*
X39436616Y-48782768D01*
X39436610Y-48782770D01*
X39318230Y-48831804D01*
X39318221Y-48831809D01*
X39211686Y-48902994D01*
X39211682Y-48902997D01*
X39121081Y-48993598D01*
X39121078Y-48993602D01*
X39049893Y-49100137D01*
X39049888Y-49100146D01*
X39000854Y-49218526D01*
X39000852Y-49218532D01*
X38975855Y-49344199D01*
X38975855Y-49478432D01*
X38973567Y-49478432D01*
X38962430Y-49537064D01*
X38914350Y-49587760D01*
X38848360Y-49603956D01*
X38848360Y-49604176D01*
X38847468Y-49604176D01*
X38846494Y-49604415D01*
X38843155Y-49604176D01*
X38842268Y-49604176D01*
X38714130Y-49604176D01*
X38714128Y-49604176D01*
X38588460Y-49629173D01*
X38588454Y-49629175D01*
X38470074Y-49678209D01*
X38470065Y-49678214D01*
X38363530Y-49749399D01*
X38363526Y-49749402D01*
X38272925Y-49840003D01*
X38272922Y-49840007D01*
X38201737Y-49946542D01*
X38201732Y-49946551D01*
X38152698Y-50064931D01*
X38152696Y-50064937D01*
X38127699Y-50190604D01*
X38127699Y-50190607D01*
X38127699Y-50318745D01*
X38127699Y-50318747D01*
X38127698Y-50318747D01*
X33782693Y-50318747D01*
X33809409Y-50266315D01*
X33865369Y-50094085D01*
X33870962Y-50058771D01*
X33893698Y-49915227D01*
X33893698Y-49734124D01*
X33873115Y-49604176D01*
X33865369Y-49555267D01*
X33809409Y-49383037D01*
X33809409Y-49383036D01*
X33762583Y-49291137D01*
X33727194Y-49221682D01*
X33660107Y-49129344D01*
X33620756Y-49075181D01*
X33620752Y-49075176D01*
X33492693Y-48947117D01*
X33371400Y-48858994D01*
X33328734Y-48803665D01*
X33322755Y-48734051D01*
X33355360Y-48672256D01*
X33416199Y-48637899D01*
X33444285Y-48634676D01*
X33641026Y-48634676D01*
X33641042Y-48634675D01*
X33700570Y-48628274D01*
X33700577Y-48628272D01*
X33835284Y-48578030D01*
X33835291Y-48578026D01*
X33950385Y-48491866D01*
X33950388Y-48491863D01*
X34036548Y-48376769D01*
X34036552Y-48376762D01*
X34086794Y-48242055D01*
X34086796Y-48242048D01*
X34093197Y-48182520D01*
X34093198Y-48182503D01*
X34093198Y-47659676D01*
X33075304Y-47659676D01*
X33143297Y-47591683D01*
X33209123Y-47477669D01*
X33211514Y-47468747D01*
X38077697Y-47468747D01*
X38102695Y-47594414D01*
X38102697Y-47594420D01*
X38151731Y-47712800D01*
X38151736Y-47712809D01*
X38222921Y-47819344D01*
X38222924Y-47819348D01*
X38313525Y-47909949D01*
X38313529Y-47909952D01*
X38420064Y-47981137D01*
X38420070Y-47981140D01*
X38420071Y-47981141D01*
X38538454Y-48030177D01*
X38538458Y-48030177D01*
X38538459Y-48030178D01*
X38664126Y-48055176D01*
X38664129Y-48055176D01*
X38792269Y-48055176D01*
X38876813Y-48038358D01*
X38917942Y-48030177D01*
X39036325Y-47981141D01*
X39142867Y-47909952D01*
X39233474Y-47819345D01*
X39304663Y-47712803D01*
X39353699Y-47594420D01*
X39370456Y-47510178D01*
X39378698Y-47468747D01*
X39378698Y-47334515D01*
X39380207Y-47334515D01*
X39391835Y-47273187D01*
X39439897Y-47222474D01*
X39507748Y-47205797D01*
X39526414Y-47208057D01*
X39564127Y-47215559D01*
X39564128Y-47215559D01*
X39692268Y-47215559D01*
X39776812Y-47198741D01*
X39817941Y-47190560D01*
X39936324Y-47141524D01*
X40042866Y-47070335D01*
X40133473Y-46979728D01*
X40186340Y-46900607D01*
X40195596Y-46886755D01*
X40249208Y-46841950D01*
X40318533Y-46833243D01*
X40381561Y-46863397D01*
X40418280Y-46922840D01*
X40422698Y-46955646D01*
X40422698Y-47028745D01*
X40422698Y-47028747D01*
X40422697Y-47028747D01*
X40447695Y-47154414D01*
X40447697Y-47154420D01*
X40496731Y-47272800D01*
X40496736Y-47272809D01*
X40567921Y-47379344D01*
X40567924Y-47379348D01*
X40658525Y-47469949D01*
X40658529Y-47469952D01*
X40765064Y-47541137D01*
X40765070Y-47541140D01*
X40765071Y-47541141D01*
X40883454Y-47590177D01*
X40883458Y-47590177D01*
X40883459Y-47590178D01*
X41009126Y-47615176D01*
X41009129Y-47615176D01*
X41137269Y-47615176D01*
X41221813Y-47598358D01*
X41262942Y-47590177D01*
X41381325Y-47541141D01*
X41487867Y-47469952D01*
X41578474Y-47379345D01*
X41649663Y-47272803D01*
X41698699Y-47154420D01*
X41711179Y-47091683D01*
X41723698Y-47028747D01*
X41723698Y-46948747D01*
X43152697Y-46948747D01*
X43177695Y-47074414D01*
X43177697Y-47074420D01*
X43226731Y-47192800D01*
X43226736Y-47192809D01*
X43297921Y-47299344D01*
X43297924Y-47299348D01*
X43388525Y-47389949D01*
X43388529Y-47389952D01*
X43495064Y-47461137D01*
X43495073Y-47461142D01*
X43521890Y-47472250D01*
X43613454Y-47510177D01*
X43613458Y-47510177D01*
X43613459Y-47510178D01*
X43739126Y-47535176D01*
X43739129Y-47535176D01*
X43867269Y-47535176D01*
X43951813Y-47518358D01*
X43992942Y-47510177D01*
X44111325Y-47461141D01*
X44217867Y-47389952D01*
X44217866Y-47389952D01*
X44222932Y-47386568D01*
X44224543Y-47388979D01*
X44277349Y-47366429D01*
X44346240Y-47378084D01*
X44360506Y-47387252D01*
X44360964Y-47386568D01*
X44472564Y-47461137D01*
X44472573Y-47461142D01*
X44499390Y-47472250D01*
X44590954Y-47510177D01*
X44590958Y-47510177D01*
X44590959Y-47510178D01*
X44716626Y-47535176D01*
X44716629Y-47535176D01*
X44844769Y-47535176D01*
X44929313Y-47518358D01*
X44970442Y-47510177D01*
X45088825Y-47461141D01*
X45195367Y-47389952D01*
X45204263Y-47381055D01*
X45265580Y-47347569D01*
X45335272Y-47352548D01*
X45373157Y-47376893D01*
X45373819Y-47376087D01*
X45378529Y-47379952D01*
X45485064Y-47451137D01*
X45485070Y-47451140D01*
X45485071Y-47451141D01*
X45603454Y-47500177D01*
X45603458Y-47500177D01*
X45603459Y-47500178D01*
X45729126Y-47525176D01*
X45729129Y-47525176D01*
X45857269Y-47525176D01*
X45941813Y-47508358D01*
X45982942Y-47500177D01*
X46101325Y-47451141D01*
X46207867Y-47379952D01*
X46298474Y-47289345D01*
X46369663Y-47182803D01*
X46418699Y-47064420D01*
X46435546Y-46979727D01*
X46443698Y-46938747D01*
X46443698Y-46810604D01*
X46418700Y-46684937D01*
X46418699Y-46684936D01*
X46418699Y-46684932D01*
X46369663Y-46566549D01*
X46369662Y-46566548D01*
X46369659Y-46566542D01*
X46298474Y-46460007D01*
X46298471Y-46460003D01*
X46207870Y-46369402D01*
X46207866Y-46369399D01*
X46101331Y-46298214D01*
X46101322Y-46298209D01*
X45982942Y-46249175D01*
X45982936Y-46249173D01*
X45857269Y-46224176D01*
X45857267Y-46224176D01*
X45729129Y-46224176D01*
X45729127Y-46224176D01*
X45603459Y-46249173D01*
X45603453Y-46249175D01*
X45485073Y-46298209D01*
X45485064Y-46298214D01*
X45378529Y-46369399D01*
X45378528Y-46369399D01*
X45369625Y-46378303D01*
X45308301Y-46411785D01*
X45238609Y-46406798D01*
X45200740Y-46382456D01*
X45200077Y-46383265D01*
X45195366Y-46379399D01*
X45088831Y-46308214D01*
X45088822Y-46308209D01*
X44970442Y-46259175D01*
X44970436Y-46259173D01*
X44844769Y-46234176D01*
X44844767Y-46234176D01*
X44716629Y-46234176D01*
X44716627Y-46234176D01*
X44590959Y-46259173D01*
X44590953Y-46259175D01*
X44472573Y-46308209D01*
X44472564Y-46308214D01*
X44360964Y-46382784D01*
X44359413Y-46380463D01*
X44305958Y-46402990D01*
X44237123Y-46391006D01*
X44223352Y-46382155D01*
X44222932Y-46382784D01*
X44111331Y-46308214D01*
X44111322Y-46308209D01*
X43992942Y-46259175D01*
X43992936Y-46259173D01*
X43867269Y-46234176D01*
X43867267Y-46234176D01*
X43739129Y-46234176D01*
X43739127Y-46234176D01*
X43613459Y-46259173D01*
X43613453Y-46259175D01*
X43495073Y-46308209D01*
X43495064Y-46308214D01*
X43388529Y-46379399D01*
X43388525Y-46379402D01*
X43297924Y-46470003D01*
X43297921Y-46470007D01*
X43226736Y-46576542D01*
X43226731Y-46576551D01*
X43177697Y-46694931D01*
X43177695Y-46694937D01*
X43152698Y-46820604D01*
X43152698Y-46820607D01*
X43152698Y-46948745D01*
X43152698Y-46948747D01*
X43152697Y-46948747D01*
X41723698Y-46948747D01*
X41723698Y-46900605D01*
X41711385Y-46838708D01*
X41711385Y-46838706D01*
X41699543Y-46779175D01*
X41698699Y-46774932D01*
X41649663Y-46656549D01*
X41649662Y-46656548D01*
X41649659Y-46656542D01*
X41578474Y-46550007D01*
X41578471Y-46550003D01*
X41487870Y-46459402D01*
X41487866Y-46459399D01*
X41381331Y-46388214D01*
X41381322Y-46388209D01*
X41262942Y-46339175D01*
X41262936Y-46339173D01*
X41137269Y-46314176D01*
X41137267Y-46314176D01*
X41009129Y-46314176D01*
X41009127Y-46314176D01*
X40883459Y-46339173D01*
X40883453Y-46339175D01*
X40765073Y-46388209D01*
X40765064Y-46388214D01*
X40658529Y-46459399D01*
X40658525Y-46459402D01*
X40567924Y-46550003D01*
X40567921Y-46550007D01*
X40505799Y-46642979D01*
X40452186Y-46687784D01*
X40382861Y-46696491D01*
X40319834Y-46666336D01*
X40283115Y-46606893D01*
X40278697Y-46574088D01*
X40278697Y-46500987D01*
X40253699Y-46375320D01*
X40253698Y-46375319D01*
X40253698Y-46375315D01*
X40204662Y-46256932D01*
X40204661Y-46256931D01*
X40204658Y-46256925D01*
X40133473Y-46150390D01*
X40133470Y-46150386D01*
X40042869Y-46059785D01*
X40042865Y-46059782D01*
X39936330Y-45988597D01*
X39936321Y-45988592D01*
X39817941Y-45939558D01*
X39817935Y-45939556D01*
X39692268Y-45914559D01*
X39692266Y-45914559D01*
X39564128Y-45914559D01*
X39564126Y-45914559D01*
X39438458Y-45939556D01*
X39438452Y-45939558D01*
X39320072Y-45988592D01*
X39320063Y-45988597D01*
X39213528Y-46059782D01*
X39213524Y-46059785D01*
X39122923Y-46150386D01*
X39122920Y-46150390D01*
X39051735Y-46256925D01*
X39051730Y-46256934D01*
X39002696Y-46375314D01*
X39002694Y-46375320D01*
X38977697Y-46500987D01*
X38977697Y-46635220D01*
X38976193Y-46635220D01*
X38964549Y-46696568D01*
X38916477Y-46747271D01*
X38848624Y-46763936D01*
X38829983Y-46761678D01*
X38792267Y-46754176D01*
X38664129Y-46754176D01*
X38664127Y-46754176D01*
X38538459Y-46779173D01*
X38538453Y-46779175D01*
X38420073Y-46828209D01*
X38420064Y-46828214D01*
X38313529Y-46899399D01*
X38313525Y-46899402D01*
X38222924Y-46990003D01*
X38222921Y-46990007D01*
X38151736Y-47096542D01*
X38151731Y-47096551D01*
X38102697Y-47214931D01*
X38102695Y-47214937D01*
X38077698Y-47340604D01*
X38077698Y-47340607D01*
X38077698Y-47468745D01*
X38077698Y-47468747D01*
X38077697Y-47468747D01*
X33211514Y-47468747D01*
X33243198Y-47350502D01*
X33243198Y-47218850D01*
X33209123Y-47091683D01*
X33143297Y-46977669D01*
X33075304Y-46909676D01*
X33118198Y-46909676D01*
X34093198Y-46909676D01*
X34093198Y-46386848D01*
X34093197Y-46386831D01*
X34086796Y-46327303D01*
X34086794Y-46327296D01*
X34036552Y-46192589D01*
X34036548Y-46192582D01*
X33950388Y-46077488D01*
X33950385Y-46077485D01*
X33835291Y-45991325D01*
X33835284Y-45991321D01*
X33700577Y-45941079D01*
X33700570Y-45941077D01*
X33641042Y-45934676D01*
X33118198Y-45934676D01*
X33118198Y-46909676D01*
X33075304Y-46909676D01*
X33050205Y-46884577D01*
X32936191Y-46818751D01*
X32809024Y-46784676D01*
X32677372Y-46784676D01*
X32550205Y-46818751D01*
X32436191Y-46884577D01*
X32343099Y-46977669D01*
X32277273Y-47091683D01*
X32243198Y-47218850D01*
X32243198Y-47350502D01*
X32277273Y-47477669D01*
X32343099Y-47591683D01*
X32411092Y-47659676D01*
X31393198Y-47659676D01*
X30343698Y-47659676D01*
X30343698Y-46386831D01*
X31393198Y-46386831D01*
X31393198Y-46909676D01*
X32368198Y-46909676D01*
X32368198Y-45934676D01*
X31845353Y-45934676D01*
X31785825Y-45941077D01*
X31785818Y-45941079D01*
X31651111Y-45991321D01*
X31651104Y-45991325D01*
X31536010Y-46077485D01*
X31536007Y-46077488D01*
X31449847Y-46192582D01*
X31449843Y-46192589D01*
X31399601Y-46327296D01*
X31399599Y-46327303D01*
X31393198Y-46386831D01*
X30343698Y-46386831D01*
X30343698Y-45828747D01*
X48162697Y-45828747D01*
X48187695Y-45954414D01*
X48187697Y-45954420D01*
X48236731Y-46072800D01*
X48236736Y-46072809D01*
X48307921Y-46179344D01*
X48307924Y-46179348D01*
X48398525Y-46269949D01*
X48398529Y-46269952D01*
X48505064Y-46341137D01*
X48505070Y-46341140D01*
X48505071Y-46341141D01*
X48623454Y-46390177D01*
X48623458Y-46390177D01*
X48623459Y-46390178D01*
X48749126Y-46415176D01*
X48749129Y-46415176D01*
X48877269Y-46415176D01*
X48998774Y-46391006D01*
X49002942Y-46390177D01*
X49121325Y-46341141D01*
X49227867Y-46269952D01*
X49318474Y-46179345D01*
X49389663Y-46072803D01*
X49438699Y-45954420D01*
X49463698Y-45828745D01*
X49463698Y-45700607D01*
X49463698Y-45700604D01*
X49438700Y-45574937D01*
X49438699Y-45574936D01*
X49438699Y-45574932D01*
X49389663Y-45456549D01*
X49389662Y-45456548D01*
X49389659Y-45456542D01*
X49318474Y-45350007D01*
X49318471Y-45350003D01*
X49227870Y-45259402D01*
X49227866Y-45259399D01*
X49121331Y-45188214D01*
X49121322Y-45188209D01*
X49002942Y-45139175D01*
X49002936Y-45139173D01*
X48877269Y-45114176D01*
X48877267Y-45114176D01*
X48749129Y-45114176D01*
X48749127Y-45114176D01*
X48623459Y-45139173D01*
X48623453Y-45139175D01*
X48505073Y-45188209D01*
X48505064Y-45188214D01*
X48398529Y-45259399D01*
X48398525Y-45259402D01*
X48307924Y-45350003D01*
X48307921Y-45350007D01*
X48236736Y-45456542D01*
X48236731Y-45456551D01*
X48187697Y-45574931D01*
X48187695Y-45574937D01*
X48162698Y-45700604D01*
X48162698Y-45700607D01*
X48162698Y-45828745D01*
X48162698Y-45828747D01*
X48162697Y-45828747D01*
X30343698Y-45828747D01*
X30343698Y-44341970D01*
X37694878Y-44341970D01*
X37719876Y-44467637D01*
X37719878Y-44467643D01*
X37768912Y-44586023D01*
X37768917Y-44586032D01*
X37840102Y-44692567D01*
X37840105Y-44692571D01*
X37930706Y-44783172D01*
X37930710Y-44783175D01*
X38037245Y-44854360D01*
X38037251Y-44854363D01*
X38037252Y-44854364D01*
X38155635Y-44903400D01*
X38155639Y-44903400D01*
X38155640Y-44903401D01*
X38281307Y-44928399D01*
X38281310Y-44928399D01*
X38409450Y-44928399D01*
X38493994Y-44911581D01*
X38535123Y-44903400D01*
X38653506Y-44854364D01*
X38760048Y-44783175D01*
X38850655Y-44692568D01*
X38921844Y-44586026D01*
X38970880Y-44467643D01*
X38995879Y-44341968D01*
X38995879Y-44213830D01*
X38995879Y-44213827D01*
X38970881Y-44088160D01*
X38970880Y-44088159D01*
X38970880Y-44088155D01*
X38970878Y-44088150D01*
X38969112Y-44082328D01*
X38970497Y-44081907D01*
X38963794Y-44019635D01*
X38995062Y-43957151D01*
X39016934Y-43938536D01*
X39079177Y-43896947D01*
X39117377Y-43858747D01*
X49102697Y-43858747D01*
X49127695Y-43984414D01*
X49127697Y-43984420D01*
X49176731Y-44102800D01*
X49176736Y-44102809D01*
X49247921Y-44209344D01*
X49247924Y-44209348D01*
X49338525Y-44299949D01*
X49338529Y-44299952D01*
X49445064Y-44371137D01*
X49445070Y-44371140D01*
X49445071Y-44371141D01*
X49563454Y-44420177D01*
X49563458Y-44420177D01*
X49563459Y-44420178D01*
X49689126Y-44445176D01*
X49689129Y-44445176D01*
X49817269Y-44445176D01*
X49901813Y-44428358D01*
X49942942Y-44420177D01*
X50061325Y-44371141D01*
X50167867Y-44299952D01*
X50210919Y-44256900D01*
X66167000Y-44256900D01*
X66167000Y-46243091D01*
X66177623Y-46331562D01*
X66233139Y-46472342D01*
X66233140Y-46472344D01*
X66324577Y-46592922D01*
X66445155Y-46684359D01*
X66445158Y-46684361D01*
X66585936Y-46739876D01*
X66674401Y-46750500D01*
X68660598Y-46750499D01*
X68749064Y-46739876D01*
X68889842Y-46684361D01*
X69010422Y-46592922D01*
X69101861Y-46472342D01*
X69157376Y-46331564D01*
X69168000Y-46243099D01*
X69167999Y-44256902D01*
X69157376Y-44168436D01*
X69101861Y-44027658D01*
X69095777Y-44019635D01*
X69010422Y-43907077D01*
X68889844Y-43815640D01*
X68889842Y-43815639D01*
X68749064Y-43760124D01*
X68749061Y-43760123D01*
X68660599Y-43749500D01*
X66674408Y-43749500D01*
X66585937Y-43760123D01*
X66445157Y-43815639D01*
X66445155Y-43815640D01*
X66324577Y-43907077D01*
X66233140Y-44027655D01*
X66177624Y-44168437D01*
X66177623Y-44168438D01*
X66167000Y-44256900D01*
X50210919Y-44256900D01*
X50258474Y-44209345D01*
X50329663Y-44102803D01*
X50378699Y-43984420D01*
X50403698Y-43858745D01*
X50403698Y-43730607D01*
X50403698Y-43730604D01*
X50378700Y-43604937D01*
X50378699Y-43604936D01*
X50378699Y-43604932D01*
X50329663Y-43486549D01*
X50329662Y-43486548D01*
X50329659Y-43486542D01*
X50258474Y-43380007D01*
X50258471Y-43380003D01*
X50167870Y-43289402D01*
X50167866Y-43289399D01*
X50061331Y-43218214D01*
X50061322Y-43218209D01*
X49942942Y-43169175D01*
X49942936Y-43169173D01*
X49817269Y-43144176D01*
X49817267Y-43144176D01*
X49689129Y-43144176D01*
X49689127Y-43144176D01*
X49563459Y-43169173D01*
X49563453Y-43169175D01*
X49445073Y-43218209D01*
X49445064Y-43218214D01*
X49338529Y-43289399D01*
X49338525Y-43289402D01*
X49247924Y-43380003D01*
X49247921Y-43380007D01*
X49176736Y-43486542D01*
X49176731Y-43486551D01*
X49127697Y-43604931D01*
X49127695Y-43604937D01*
X49102698Y-43730604D01*
X49102698Y-43730607D01*
X49102698Y-43858745D01*
X49102698Y-43858747D01*
X49102697Y-43858747D01*
X39117377Y-43858747D01*
X39169784Y-43806340D01*
X39240973Y-43699798D01*
X39290009Y-43581415D01*
X39306334Y-43499345D01*
X39315008Y-43455742D01*
X39315008Y-43327599D01*
X39290010Y-43201932D01*
X39290009Y-43201931D01*
X39290009Y-43201927D01*
X39267981Y-43148747D01*
X44937697Y-43148747D01*
X44962695Y-43274414D01*
X44962697Y-43274420D01*
X45011731Y-43392800D01*
X45011736Y-43392809D01*
X45082921Y-43499344D01*
X45082924Y-43499348D01*
X45173525Y-43589949D01*
X45173529Y-43589952D01*
X45280064Y-43661137D01*
X45280070Y-43661140D01*
X45280071Y-43661141D01*
X45398454Y-43710177D01*
X45398458Y-43710177D01*
X45398459Y-43710178D01*
X45524126Y-43735176D01*
X45524129Y-43735176D01*
X45652269Y-43735176D01*
X45766545Y-43712444D01*
X45777942Y-43710177D01*
X45896325Y-43661141D01*
X45913044Y-43649970D01*
X45955783Y-43621413D01*
X45980449Y-43604931D01*
X46002867Y-43589952D01*
X46093474Y-43499345D01*
X46164663Y-43392803D01*
X46213699Y-43274420D01*
X46238698Y-43148745D01*
X46238698Y-43020607D01*
X46238698Y-43020604D01*
X46213700Y-42894937D01*
X46213699Y-42894936D01*
X46213699Y-42894932D01*
X46164663Y-42776549D01*
X46164662Y-42776548D01*
X46164659Y-42776542D01*
X46093474Y-42670007D01*
X46093471Y-42670003D01*
X46002870Y-42579402D01*
X46002866Y-42579399D01*
X45896331Y-42508214D01*
X45896322Y-42508209D01*
X45777942Y-42459175D01*
X45777936Y-42459173D01*
X45652269Y-42434176D01*
X45652267Y-42434176D01*
X45524129Y-42434176D01*
X45524127Y-42434176D01*
X45398459Y-42459173D01*
X45398453Y-42459175D01*
X45280073Y-42508209D01*
X45280064Y-42508214D01*
X45173529Y-42579399D01*
X45173525Y-42579402D01*
X45082924Y-42670003D01*
X45082921Y-42670007D01*
X45011736Y-42776542D01*
X45011731Y-42776551D01*
X44962697Y-42894931D01*
X44962695Y-42894937D01*
X44937698Y-43020604D01*
X44937698Y-43020607D01*
X44937698Y-43148745D01*
X44937698Y-43148747D01*
X44937697Y-43148747D01*
X39267981Y-43148747D01*
X39240973Y-43083544D01*
X39240885Y-43083412D01*
X39240884Y-43083409D01*
X39240881Y-43083406D01*
X39169784Y-42977001D01*
X39079180Y-42886397D01*
X39079176Y-42886394D01*
X38972641Y-42815209D01*
X38972632Y-42815204D01*
X38854252Y-42766170D01*
X38854246Y-42766168D01*
X38728579Y-42741171D01*
X38728577Y-42741171D01*
X38600439Y-42741171D01*
X38600437Y-42741171D01*
X38474769Y-42766168D01*
X38474763Y-42766170D01*
X38356383Y-42815204D01*
X38356374Y-42815209D01*
X38249839Y-42886394D01*
X38249835Y-42886397D01*
X38159234Y-42976998D01*
X38159231Y-42977002D01*
X38088046Y-43083537D01*
X38088041Y-43083546D01*
X38039007Y-43201926D01*
X38039005Y-43201932D01*
X38014008Y-43327599D01*
X38014008Y-43327602D01*
X38014008Y-43455740D01*
X38014008Y-43455742D01*
X38014007Y-43455742D01*
X38039005Y-43581409D01*
X38040775Y-43587242D01*
X38039395Y-43587660D01*
X38046084Y-43649970D01*
X38014799Y-43712444D01*
X37992950Y-43731035D01*
X37930706Y-43772625D01*
X37840105Y-43863226D01*
X37840102Y-43863230D01*
X37768917Y-43969765D01*
X37768912Y-43969774D01*
X37719878Y-44088154D01*
X37719876Y-44088160D01*
X37694879Y-44213827D01*
X37694879Y-44213830D01*
X37694879Y-44341968D01*
X37694879Y-44341970D01*
X37694878Y-44341970D01*
X30343698Y-44341970D01*
X30343698Y-40653671D01*
X31787697Y-40653671D01*
X31814616Y-40788998D01*
X31814619Y-40789008D01*
X31867419Y-40916480D01*
X31867426Y-40916493D01*
X31944083Y-41031217D01*
X31944086Y-41031221D01*
X32041652Y-41128787D01*
X32041656Y-41128790D01*
X32156380Y-41205447D01*
X32156393Y-41205454D01*
X32283865Y-41258254D01*
X32283870Y-41258256D01*
X32283874Y-41258256D01*
X32283875Y-41258257D01*
X32419202Y-41285176D01*
X32419205Y-41285176D01*
X32557193Y-41285176D01*
X32648239Y-41267065D01*
X32692526Y-41258256D01*
X32820009Y-41205451D01*
X32934740Y-41128790D01*
X33032312Y-41031218D01*
X33108973Y-40916487D01*
X33161778Y-40789004D01*
X33182630Y-40684177D01*
X33188698Y-40653671D01*
X33188698Y-40515680D01*
X33161779Y-40380353D01*
X33161778Y-40380352D01*
X33161778Y-40380348D01*
X33144817Y-40339400D01*
X33108976Y-40252871D01*
X33108969Y-40252858D01*
X33079495Y-40208747D01*
X39402697Y-40208747D01*
X39427695Y-40334414D01*
X39427697Y-40334420D01*
X39476731Y-40452800D01*
X39476736Y-40452809D01*
X39547921Y-40559344D01*
X39547924Y-40559348D01*
X39638525Y-40649949D01*
X39638529Y-40649952D01*
X39745064Y-40721137D01*
X39745070Y-40721140D01*
X39745071Y-40721141D01*
X39863454Y-40770177D01*
X39863458Y-40770177D01*
X39863459Y-40770178D01*
X39989126Y-40795176D01*
X40003800Y-40795176D01*
X40070839Y-40814861D01*
X40116594Y-40867665D01*
X40126538Y-40936823D01*
X40106902Y-40988067D01*
X40081192Y-41026543D01*
X40081187Y-41026552D01*
X40032153Y-41144932D01*
X40032151Y-41144938D01*
X40007154Y-41270605D01*
X40007154Y-41270608D01*
X40007154Y-41398746D01*
X40007154Y-41398748D01*
X40007153Y-41398748D01*
X40032151Y-41524415D01*
X40032153Y-41524421D01*
X40081187Y-41642801D01*
X40081192Y-41642810D01*
X40152377Y-41749345D01*
X40152380Y-41749349D01*
X40242981Y-41839950D01*
X40242985Y-41839953D01*
X40349520Y-41911138D01*
X40349526Y-41911141D01*
X40349527Y-41911142D01*
X40467910Y-41960178D01*
X40467914Y-41960178D01*
X40467915Y-41960179D01*
X40593582Y-41985177D01*
X40593585Y-41985177D01*
X40721725Y-41985177D01*
X40806269Y-41968359D01*
X40847398Y-41960178D01*
X40965781Y-41911142D01*
X41021747Y-41873747D01*
X42167697Y-41873747D01*
X42192695Y-41999414D01*
X42192697Y-41999420D01*
X42241731Y-42117800D01*
X42241736Y-42117809D01*
X42312921Y-42224344D01*
X42312924Y-42224348D01*
X42403525Y-42314949D01*
X42403529Y-42314952D01*
X42510064Y-42386137D01*
X42510070Y-42386140D01*
X42510071Y-42386141D01*
X42628454Y-42435177D01*
X42628458Y-42435177D01*
X42628459Y-42435178D01*
X42754126Y-42460176D01*
X42754129Y-42460176D01*
X42882269Y-42460176D01*
X42966813Y-42443358D01*
X43007942Y-42435177D01*
X43126325Y-42386141D01*
X43232867Y-42314952D01*
X43323474Y-42224345D01*
X43394663Y-42117803D01*
X43394664Y-42117800D01*
X43394666Y-42117797D01*
X43413637Y-42071996D01*
X43457477Y-42017592D01*
X43523771Y-41995527D01*
X43591471Y-42012806D01*
X43639081Y-42063943D01*
X43642759Y-42071996D01*
X43661729Y-42117797D01*
X43661736Y-42117809D01*
X43732921Y-42224344D01*
X43732924Y-42224348D01*
X43823525Y-42314949D01*
X43823529Y-42314952D01*
X43930064Y-42386137D01*
X43930070Y-42386140D01*
X43930071Y-42386141D01*
X44048454Y-42435177D01*
X44048458Y-42435177D01*
X44048459Y-42435178D01*
X44174126Y-42460176D01*
X44174129Y-42460176D01*
X44302269Y-42460176D01*
X44386813Y-42443358D01*
X44427942Y-42435177D01*
X44546325Y-42386141D01*
X44652867Y-42314952D01*
X44743474Y-42224345D01*
X44814663Y-42117803D01*
X44863699Y-41999420D01*
X44878938Y-41922809D01*
X44888698Y-41873747D01*
X44888698Y-41745604D01*
X44863700Y-41619937D01*
X44863699Y-41619936D01*
X44863699Y-41619932D01*
X44824134Y-41524415D01*
X44814664Y-41501551D01*
X44814659Y-41501542D01*
X44743474Y-41395007D01*
X44743471Y-41395003D01*
X44652870Y-41304402D01*
X44652866Y-41304399D01*
X44546331Y-41233214D01*
X44546322Y-41233209D01*
X44427942Y-41184175D01*
X44427936Y-41184173D01*
X44302269Y-41159176D01*
X44302267Y-41159176D01*
X44174129Y-41159176D01*
X44174127Y-41159176D01*
X44048459Y-41184173D01*
X44048453Y-41184175D01*
X43930073Y-41233209D01*
X43930064Y-41233214D01*
X43823529Y-41304399D01*
X43823525Y-41304402D01*
X43732924Y-41395003D01*
X43732921Y-41395007D01*
X43661736Y-41501542D01*
X43661731Y-41501551D01*
X43642759Y-41547356D01*
X43598918Y-41601759D01*
X43532624Y-41623824D01*
X43464925Y-41606545D01*
X43417314Y-41555408D01*
X43413637Y-41547356D01*
X43394664Y-41501551D01*
X43394659Y-41501542D01*
X43323474Y-41395007D01*
X43323471Y-41395003D01*
X43232870Y-41304402D01*
X43232866Y-41304399D01*
X43126331Y-41233214D01*
X43126322Y-41233209D01*
X43007942Y-41184175D01*
X43007936Y-41184173D01*
X42882269Y-41159176D01*
X42882267Y-41159176D01*
X42754129Y-41159176D01*
X42754127Y-41159176D01*
X42628459Y-41184173D01*
X42628453Y-41184175D01*
X42510073Y-41233209D01*
X42510064Y-41233214D01*
X42403529Y-41304399D01*
X42403525Y-41304402D01*
X42312924Y-41395003D01*
X42312921Y-41395007D01*
X42241736Y-41501542D01*
X42241731Y-41501551D01*
X42192697Y-41619931D01*
X42192695Y-41619937D01*
X42167698Y-41745604D01*
X42167698Y-41745607D01*
X42167698Y-41873745D01*
X42167698Y-41873747D01*
X42167697Y-41873747D01*
X41021747Y-41873747D01*
X41072323Y-41839953D01*
X41162930Y-41749346D01*
X41210103Y-41678747D01*
X41215531Y-41670624D01*
X41234115Y-41642810D01*
X41234115Y-41642809D01*
X41234119Y-41642804D01*
X41283155Y-41524421D01*
X41302945Y-41424932D01*
X41308154Y-41398748D01*
X41308154Y-41270605D01*
X41283156Y-41144938D01*
X41283155Y-41144937D01*
X41283155Y-41144933D01*
X41237379Y-41034420D01*
X41234120Y-41026552D01*
X41234115Y-41026543D01*
X41162930Y-40920008D01*
X41162927Y-40920004D01*
X41151670Y-40908747D01*
X47632697Y-40908747D01*
X47657695Y-41034414D01*
X47657697Y-41034420D01*
X47706731Y-41152800D01*
X47706736Y-41152809D01*
X47777921Y-41259344D01*
X47777924Y-41259348D01*
X47868525Y-41349949D01*
X47868529Y-41349952D01*
X47975064Y-41421137D01*
X47975070Y-41421140D01*
X47975071Y-41421141D01*
X48093454Y-41470177D01*
X48122890Y-41476032D01*
X48184799Y-41508416D01*
X48219374Y-41569131D01*
X48222698Y-41597649D01*
X48222698Y-41678745D01*
X48222698Y-41678747D01*
X48222697Y-41678747D01*
X48247695Y-41804414D01*
X48247697Y-41804420D01*
X48296731Y-41922800D01*
X48296736Y-41922809D01*
X48367921Y-42029344D01*
X48367924Y-42029348D01*
X48458525Y-42119949D01*
X48458529Y-42119952D01*
X48565064Y-42191137D01*
X48565070Y-42191140D01*
X48565071Y-42191141D01*
X48683454Y-42240177D01*
X48683458Y-42240177D01*
X48683459Y-42240178D01*
X48809126Y-42265176D01*
X48809129Y-42265176D01*
X48937269Y-42265176D01*
X49021813Y-42248358D01*
X49062942Y-42240177D01*
X49181325Y-42191141D01*
X49287867Y-42119952D01*
X49378474Y-42029345D01*
X49449663Y-41922803D01*
X49498699Y-41804420D01*
X49523698Y-41678745D01*
X49523698Y-41631902D01*
X66167000Y-41631902D01*
X66167000Y-41868097D01*
X66203946Y-42101368D01*
X66276933Y-42325996D01*
X66332565Y-42435178D01*
X66384157Y-42536433D01*
X66522983Y-42727510D01*
X66689990Y-42894517D01*
X66881067Y-43033343D01*
X66979321Y-43083406D01*
X67091503Y-43140566D01*
X67091505Y-43140566D01*
X67091508Y-43140568D01*
X67179545Y-43169173D01*
X67316131Y-43213553D01*
X67549403Y-43250500D01*
X67549408Y-43250500D01*
X67785597Y-43250500D01*
X68018868Y-43213553D01*
X68243492Y-43140568D01*
X68453933Y-43033343D01*
X68645010Y-42894517D01*
X68812017Y-42727510D01*
X68950843Y-42536433D01*
X69058068Y-42325992D01*
X69131053Y-42101368D01*
X69135705Y-42071996D01*
X69168000Y-41868097D01*
X69168000Y-41631902D01*
X69131053Y-41398631D01*
X69077304Y-41233211D01*
X69058068Y-41174008D01*
X69058066Y-41174005D01*
X69058066Y-41174003D01*
X69001502Y-41062991D01*
X68950843Y-40963567D01*
X68812017Y-40772490D01*
X68645010Y-40605483D01*
X68453933Y-40466657D01*
X68426737Y-40452800D01*
X68243496Y-40359433D01*
X68018868Y-40286446D01*
X67785597Y-40249500D01*
X67785592Y-40249500D01*
X67549408Y-40249500D01*
X67549403Y-40249500D01*
X67316131Y-40286446D01*
X67091503Y-40359433D01*
X66881066Y-40466657D01*
X66784879Y-40536542D01*
X66689990Y-40605483D01*
X66689988Y-40605485D01*
X66689987Y-40605485D01*
X66522985Y-40772487D01*
X66522985Y-40772488D01*
X66522983Y-40772490D01*
X66481635Y-40829401D01*
X66384157Y-40963566D01*
X66276933Y-41174003D01*
X66203946Y-41398631D01*
X66167000Y-41631902D01*
X49523698Y-41631902D01*
X49523698Y-41550607D01*
X49523698Y-41550604D01*
X49498700Y-41424937D01*
X49498699Y-41424936D01*
X49498699Y-41424932D01*
X49449663Y-41306549D01*
X49449662Y-41306548D01*
X49449659Y-41306542D01*
X49378474Y-41200007D01*
X49378471Y-41200003D01*
X49287870Y-41109402D01*
X49287866Y-41109399D01*
X49181331Y-41038214D01*
X49181322Y-41038209D01*
X49062942Y-40989175D01*
X49062937Y-40989173D01*
X49033505Y-40983319D01*
X48971595Y-40950933D01*
X48937021Y-40890217D01*
X48933698Y-40861702D01*
X48933698Y-40780604D01*
X48908700Y-40654937D01*
X48908699Y-40654936D01*
X48908699Y-40654932D01*
X48869105Y-40559344D01*
X48859664Y-40536551D01*
X48859659Y-40536542D01*
X48788474Y-40430007D01*
X48788471Y-40430003D01*
X48697870Y-40339402D01*
X48697866Y-40339399D01*
X48591331Y-40268214D01*
X48591322Y-40268209D01*
X48472942Y-40219175D01*
X48472936Y-40219173D01*
X48347269Y-40194176D01*
X48347267Y-40194176D01*
X48219129Y-40194176D01*
X48219127Y-40194176D01*
X48093459Y-40219173D01*
X48093453Y-40219175D01*
X47975073Y-40268209D01*
X47975064Y-40268214D01*
X47868529Y-40339399D01*
X47868525Y-40339402D01*
X47777924Y-40430003D01*
X47777921Y-40430007D01*
X47706736Y-40536542D01*
X47706731Y-40536551D01*
X47657697Y-40654931D01*
X47657695Y-40654937D01*
X47632698Y-40780604D01*
X47632698Y-40780607D01*
X47632698Y-40908745D01*
X47632698Y-40908747D01*
X47632697Y-40908747D01*
X41151670Y-40908747D01*
X41072326Y-40829403D01*
X41072322Y-40829400D01*
X40965787Y-40758215D01*
X40965778Y-40758210D01*
X40847398Y-40709176D01*
X40847392Y-40709174D01*
X40721725Y-40684177D01*
X40721723Y-40684177D01*
X40707052Y-40684177D01*
X40640013Y-40664492D01*
X40594258Y-40611688D01*
X40584314Y-40542530D01*
X40603950Y-40491286D01*
X40629659Y-40452809D01*
X40629659Y-40452808D01*
X40629663Y-40452803D01*
X40678699Y-40334420D01*
X40695591Y-40249500D01*
X40703698Y-40208747D01*
X40703698Y-40080604D01*
X40678700Y-39954937D01*
X40678699Y-39954936D01*
X40678699Y-39954932D01*
X40629663Y-39836549D01*
X40629662Y-39836548D01*
X40629659Y-39836542D01*
X40558474Y-39730007D01*
X40558471Y-39730003D01*
X40467870Y-39639402D01*
X40467866Y-39639399D01*
X40361331Y-39568214D01*
X40361322Y-39568209D01*
X40242942Y-39519175D01*
X40242936Y-39519173D01*
X40117269Y-39494176D01*
X40117267Y-39494176D01*
X39989129Y-39494176D01*
X39989127Y-39494176D01*
X39863459Y-39519173D01*
X39863453Y-39519175D01*
X39745073Y-39568209D01*
X39745064Y-39568214D01*
X39638529Y-39639399D01*
X39638525Y-39639402D01*
X39547924Y-39730003D01*
X39547921Y-39730007D01*
X39476736Y-39836542D01*
X39476731Y-39836551D01*
X39427697Y-39954931D01*
X39427695Y-39954937D01*
X39402698Y-40080604D01*
X39402698Y-40080607D01*
X39402698Y-40208745D01*
X39402698Y-40208747D01*
X39402697Y-40208747D01*
X33079495Y-40208747D01*
X33032312Y-40138134D01*
X33032309Y-40138130D01*
X32934743Y-40040564D01*
X32934739Y-40040561D01*
X32820015Y-39963904D01*
X32820002Y-39963897D01*
X32692530Y-39911097D01*
X32692520Y-39911094D01*
X32557193Y-39884176D01*
X32557191Y-39884176D01*
X32419205Y-39884176D01*
X32419203Y-39884176D01*
X32283875Y-39911094D01*
X32283865Y-39911097D01*
X32156393Y-39963897D01*
X32156380Y-39963904D01*
X32041656Y-40040561D01*
X32041652Y-40040564D01*
X31944086Y-40138130D01*
X31944083Y-40138134D01*
X31867426Y-40252858D01*
X31867419Y-40252871D01*
X31814619Y-40380343D01*
X31814616Y-40380353D01*
X31787698Y-40515680D01*
X31787698Y-40515683D01*
X31787698Y-40653669D01*
X31787698Y-40653671D01*
X31787697Y-40653671D01*
X30343698Y-40653671D01*
X30343698Y-39468747D01*
X37987697Y-39468747D01*
X38012695Y-39594414D01*
X38012697Y-39594420D01*
X38061731Y-39712800D01*
X38061736Y-39712809D01*
X38132921Y-39819344D01*
X38132924Y-39819348D01*
X38223525Y-39909949D01*
X38223529Y-39909952D01*
X38330064Y-39981137D01*
X38330070Y-39981140D01*
X38330071Y-39981141D01*
X38448454Y-40030177D01*
X38448458Y-40030177D01*
X38448459Y-40030178D01*
X38574126Y-40055176D01*
X38574129Y-40055176D01*
X38702269Y-40055176D01*
X38786813Y-40038358D01*
X38827942Y-40030177D01*
X38946325Y-39981141D01*
X38946331Y-39981137D01*
X38960885Y-39971413D01*
X39006899Y-39940666D01*
X39052867Y-39909952D01*
X39143474Y-39819345D01*
X39214663Y-39712803D01*
X39263699Y-39594420D01*
X39278667Y-39519173D01*
X39288698Y-39468747D01*
X39288698Y-39340604D01*
X39263700Y-39214937D01*
X39263699Y-39214936D01*
X39263699Y-39214932D01*
X39214663Y-39096549D01*
X39214662Y-39096548D01*
X39214659Y-39096542D01*
X39143474Y-38990007D01*
X39143471Y-38990003D01*
X39052870Y-38899402D01*
X39052866Y-38899399D01*
X38946331Y-38828214D01*
X38946322Y-38828209D01*
X38827942Y-38779175D01*
X38827936Y-38779173D01*
X38702269Y-38754176D01*
X38702267Y-38754176D01*
X38574129Y-38754176D01*
X38574127Y-38754176D01*
X38448459Y-38779173D01*
X38448453Y-38779175D01*
X38330073Y-38828209D01*
X38330064Y-38828214D01*
X38223529Y-38899399D01*
X38223525Y-38899402D01*
X38132924Y-38990003D01*
X38132921Y-38990007D01*
X38061736Y-39096542D01*
X38061731Y-39096551D01*
X38012697Y-39214931D01*
X38012695Y-39214937D01*
X37987698Y-39340604D01*
X37987698Y-39340607D01*
X37987698Y-39468745D01*
X37987698Y-39468747D01*
X37987697Y-39468747D01*
X30343698Y-39468747D01*
X30343698Y-37653671D01*
X31787697Y-37653671D01*
X31814616Y-37788998D01*
X31814619Y-37789008D01*
X31867419Y-37916480D01*
X31867426Y-37916493D01*
X31944083Y-38031217D01*
X31944086Y-38031221D01*
X32041652Y-38128787D01*
X32041656Y-38128790D01*
X32156380Y-38205447D01*
X32156393Y-38205454D01*
X32283865Y-38258254D01*
X32283870Y-38258256D01*
X32283874Y-38258256D01*
X32283875Y-38258257D01*
X32419202Y-38285176D01*
X32419205Y-38285176D01*
X32557193Y-38285176D01*
X32648239Y-38267065D01*
X32692526Y-38258256D01*
X32820009Y-38205451D01*
X32934740Y-38128790D01*
X33032312Y-38031218D01*
X33107463Y-37918747D01*
X38872697Y-37918747D01*
X38897695Y-38044414D01*
X38897697Y-38044420D01*
X38946731Y-38162800D01*
X38946736Y-38162809D01*
X39017921Y-38269344D01*
X39017924Y-38269348D01*
X39108525Y-38359949D01*
X39108529Y-38359952D01*
X39215064Y-38431137D01*
X39215070Y-38431140D01*
X39215071Y-38431141D01*
X39333454Y-38480177D01*
X39333458Y-38480177D01*
X39333459Y-38480178D01*
X39459126Y-38505176D01*
X39459129Y-38505176D01*
X39587269Y-38505176D01*
X39671813Y-38488358D01*
X39712942Y-38480177D01*
X39831325Y-38431141D01*
X39937867Y-38359952D01*
X40028474Y-38269345D01*
X40099663Y-38162803D01*
X40148699Y-38044420D01*
X40173698Y-37918745D01*
X40173698Y-37790607D01*
X40173698Y-37790604D01*
X40148700Y-37664937D01*
X40148699Y-37664936D01*
X40148699Y-37664932D01*
X40099663Y-37546549D01*
X40099662Y-37546548D01*
X40099659Y-37546542D01*
X40028474Y-37440007D01*
X40028471Y-37440003D01*
X39937870Y-37349402D01*
X39937866Y-37349399D01*
X39831331Y-37278214D01*
X39831322Y-37278209D01*
X39712942Y-37229175D01*
X39712936Y-37229173D01*
X39587269Y-37204176D01*
X39587267Y-37204176D01*
X39459129Y-37204176D01*
X39459127Y-37204176D01*
X39333459Y-37229173D01*
X39333453Y-37229175D01*
X39215073Y-37278209D01*
X39215064Y-37278214D01*
X39108529Y-37349399D01*
X39108525Y-37349402D01*
X39017924Y-37440003D01*
X39017921Y-37440007D01*
X38946736Y-37546542D01*
X38946731Y-37546551D01*
X38897697Y-37664931D01*
X38897695Y-37664937D01*
X38872698Y-37790604D01*
X38872698Y-37790607D01*
X38872698Y-37918745D01*
X38872698Y-37918747D01*
X38872697Y-37918747D01*
X33107463Y-37918747D01*
X33108973Y-37916487D01*
X33161778Y-37789004D01*
X33188698Y-37653669D01*
X33188698Y-37515683D01*
X33188698Y-37515680D01*
X33161779Y-37380353D01*
X33161778Y-37380352D01*
X33161778Y-37380348D01*
X33153330Y-37359952D01*
X33108976Y-37252871D01*
X33108969Y-37252858D01*
X33032312Y-37138134D01*
X33032309Y-37138130D01*
X32934743Y-37040564D01*
X32934739Y-37040561D01*
X32820015Y-36963904D01*
X32820002Y-36963897D01*
X32710999Y-36918747D01*
X34682697Y-36918747D01*
X34707695Y-37044414D01*
X34707697Y-37044420D01*
X34756731Y-37162800D01*
X34756736Y-37162809D01*
X34827921Y-37269344D01*
X34827924Y-37269348D01*
X34918525Y-37359949D01*
X34918529Y-37359952D01*
X35025064Y-37431137D01*
X35025070Y-37431140D01*
X35025071Y-37431141D01*
X35143454Y-37480177D01*
X35143458Y-37480177D01*
X35143459Y-37480178D01*
X35269126Y-37505176D01*
X35269129Y-37505176D01*
X35397269Y-37505176D01*
X35481813Y-37488358D01*
X35522942Y-37480177D01*
X35641325Y-37431141D01*
X35747867Y-37359952D01*
X35838474Y-37269345D01*
X35909663Y-37162803D01*
X35958699Y-37044420D01*
X35974716Y-36963901D01*
X35983698Y-36918747D01*
X35983698Y-36790604D01*
X35958700Y-36664937D01*
X35958699Y-36664936D01*
X35958699Y-36664932D01*
X35909663Y-36546549D01*
X35909662Y-36546548D01*
X35909659Y-36546542D01*
X35838474Y-36440007D01*
X35838471Y-36440003D01*
X35747870Y-36349402D01*
X35747866Y-36349399D01*
X35657095Y-36288747D01*
X41822697Y-36288747D01*
X41847695Y-36414414D01*
X41847697Y-36414420D01*
X41896731Y-36532800D01*
X41896736Y-36532809D01*
X41967921Y-36639344D01*
X41967924Y-36639348D01*
X42058525Y-36729949D01*
X42058529Y-36729952D01*
X42165064Y-36801137D01*
X42165070Y-36801140D01*
X42165071Y-36801141D01*
X42283454Y-36850177D01*
X42283458Y-36850177D01*
X42283459Y-36850178D01*
X42409126Y-36875176D01*
X42409129Y-36875176D01*
X42537269Y-36875176D01*
X42621813Y-36858358D01*
X42662942Y-36850177D01*
X42758675Y-36810522D01*
X42828142Y-36803054D01*
X42853579Y-36810523D01*
X42855071Y-36811141D01*
X42973454Y-36860177D01*
X42973458Y-36860177D01*
X42973459Y-36860178D01*
X43099126Y-36885176D01*
X43099129Y-36885176D01*
X43227269Y-36885176D01*
X43311813Y-36868358D01*
X43352942Y-36860177D01*
X43471325Y-36811141D01*
X43577867Y-36739952D01*
X43668474Y-36649345D01*
X43739663Y-36542803D01*
X43788699Y-36424420D01*
X43801564Y-36359744D01*
X43813698Y-36298747D01*
X43813698Y-36234071D01*
X63669499Y-36234071D01*
X63694497Y-36359738D01*
X63694499Y-36359744D01*
X63743533Y-36478124D01*
X63743538Y-36478133D01*
X63814723Y-36584668D01*
X63814726Y-36584672D01*
X63905327Y-36675273D01*
X63905331Y-36675276D01*
X64011866Y-36746461D01*
X64011872Y-36746464D01*
X64011873Y-36746465D01*
X64130256Y-36795501D01*
X64130260Y-36795501D01*
X64130261Y-36795502D01*
X64255928Y-36820500D01*
X64255931Y-36820500D01*
X64384071Y-36820500D01*
X64468615Y-36803682D01*
X64509744Y-36795501D01*
X64628127Y-36746465D01*
X64734669Y-36675276D01*
X64825276Y-36584669D01*
X64896465Y-36478127D01*
X64945501Y-36359744D01*
X64961719Y-36278214D01*
X64970500Y-36234071D01*
X64970500Y-36105928D01*
X64945502Y-35980261D01*
X64945501Y-35980260D01*
X64945501Y-35980256D01*
X64896465Y-35861873D01*
X64896464Y-35861872D01*
X64896461Y-35861866D01*
X64825276Y-35755331D01*
X64825273Y-35755327D01*
X64734672Y-35664726D01*
X64734668Y-35664723D01*
X64628133Y-35593538D01*
X64628124Y-35593533D01*
X64509744Y-35544499D01*
X64509738Y-35544497D01*
X64384071Y-35519500D01*
X64384069Y-35519500D01*
X64255931Y-35519500D01*
X64255929Y-35519500D01*
X64130261Y-35544497D01*
X64130255Y-35544499D01*
X64011875Y-35593533D01*
X64011866Y-35593538D01*
X63905331Y-35664723D01*
X63905327Y-35664726D01*
X63814726Y-35755327D01*
X63814723Y-35755331D01*
X63743538Y-35861866D01*
X63743533Y-35861875D01*
X63694499Y-35980255D01*
X63694497Y-35980261D01*
X63669500Y-36105928D01*
X63669500Y-36105931D01*
X63669500Y-36234069D01*
X63669500Y-36234071D01*
X63669499Y-36234071D01*
X43813698Y-36234071D01*
X43813698Y-36170604D01*
X43813697Y-36170602D01*
X43804434Y-36124030D01*
X43788700Y-36044937D01*
X43788699Y-36044936D01*
X43788699Y-36044932D01*
X43739663Y-35926549D01*
X43739662Y-35926548D01*
X43739659Y-35926542D01*
X43668474Y-35820007D01*
X43668471Y-35820003D01*
X43577870Y-35729402D01*
X43577866Y-35729399D01*
X43559911Y-35717402D01*
X48080800Y-35717402D01*
X48214977Y-35785770D01*
X48214980Y-35785771D01*
X48417069Y-35851433D01*
X48626952Y-35884676D01*
X48839444Y-35884676D01*
X49049325Y-35851433D01*
X49049328Y-35851433D01*
X49251415Y-35785771D01*
X49385595Y-35717402D01*
X48733199Y-35065006D01*
X48733198Y-35065006D01*
X48080800Y-35717402D01*
X43559911Y-35717402D01*
X43471331Y-35658214D01*
X43471322Y-35658209D01*
X43352942Y-35609175D01*
X43352936Y-35609173D01*
X43227269Y-35584176D01*
X43227267Y-35584176D01*
X43099129Y-35584176D01*
X43099127Y-35584176D01*
X42973459Y-35609173D01*
X42973449Y-35609176D01*
X42877721Y-35648828D01*
X42808252Y-35656297D01*
X42782817Y-35648828D01*
X42662946Y-35599176D01*
X42662936Y-35599173D01*
X42537269Y-35574176D01*
X42537267Y-35574176D01*
X42409129Y-35574176D01*
X42409127Y-35574176D01*
X42283459Y-35599173D01*
X42283453Y-35599175D01*
X42165073Y-35648209D01*
X42165064Y-35648214D01*
X42058529Y-35719399D01*
X42058525Y-35719402D01*
X41967924Y-35810003D01*
X41967921Y-35810007D01*
X41896736Y-35916542D01*
X41896731Y-35916551D01*
X41847697Y-36034931D01*
X41847695Y-36034937D01*
X41822698Y-36160604D01*
X41822698Y-36160607D01*
X41822698Y-36288745D01*
X41822698Y-36288747D01*
X41822697Y-36288747D01*
X35657095Y-36288747D01*
X35641331Y-36278214D01*
X35641321Y-36278209D01*
X35619272Y-36269076D01*
X35619270Y-36269075D01*
X35522946Y-36229176D01*
X35522936Y-36229173D01*
X35397269Y-36204176D01*
X35397267Y-36204176D01*
X35269129Y-36204176D01*
X35269127Y-36204176D01*
X35143459Y-36229173D01*
X35143453Y-36229175D01*
X35025073Y-36278209D01*
X35025064Y-36278214D01*
X34918529Y-36349399D01*
X34918525Y-36349402D01*
X34827924Y-36440003D01*
X34827921Y-36440007D01*
X34756736Y-36546542D01*
X34756731Y-36546551D01*
X34707697Y-36664931D01*
X34707695Y-36664937D01*
X34682698Y-36790604D01*
X34682698Y-36790607D01*
X34682698Y-36918745D01*
X34682698Y-36918747D01*
X34682697Y-36918747D01*
X32710999Y-36918747D01*
X32692530Y-36911097D01*
X32692518Y-36911094D01*
X32667573Y-36906132D01*
X32667572Y-36906132D01*
X32557193Y-36884176D01*
X32557191Y-36884176D01*
X32419205Y-36884176D01*
X32419203Y-36884176D01*
X32283875Y-36911094D01*
X32283865Y-36911097D01*
X32156393Y-36963897D01*
X32156380Y-36963904D01*
X32041656Y-37040561D01*
X32041652Y-37040564D01*
X31944086Y-37138130D01*
X31944083Y-37138134D01*
X31867426Y-37252858D01*
X31867419Y-37252871D01*
X31814619Y-37380343D01*
X31814616Y-37380353D01*
X31787698Y-37515680D01*
X31787698Y-37515683D01*
X31787698Y-37653669D01*
X31787698Y-37653671D01*
X31787697Y-37653671D01*
X30343698Y-37653671D01*
X30343698Y-34936235D01*
X30343735Y-34933186D01*
X30344226Y-34913213D01*
X30348538Y-34737878D01*
X30348856Y-34731555D01*
X30349655Y-34721019D01*
X30362795Y-34547800D01*
X30363469Y-34541245D01*
X30386123Y-34366799D01*
X30387199Y-34359999D01*
X30387822Y-34356666D01*
X30418018Y-34195044D01*
X30419526Y-34188090D01*
X30458374Y-34030932D01*
X30460335Y-34023901D01*
X30505869Y-33877620D01*
X30509740Y-33866941D01*
X30513072Y-33858917D01*
X30540195Y-33793592D01*
X37298500Y-33793592D01*
X37298500Y-33956407D01*
X37330259Y-34116073D01*
X37330262Y-34116082D01*
X37392562Y-34266490D01*
X37392563Y-34266492D01*
X37483015Y-34401862D01*
X37483018Y-34401866D01*
X37598133Y-34516981D01*
X37598137Y-34516984D01*
X37733505Y-34607435D01*
X37733506Y-34607435D01*
X37733507Y-34607436D01*
X37733509Y-34607437D01*
X37780416Y-34626866D01*
X37883919Y-34669738D01*
X37883921Y-34669738D01*
X37883926Y-34669740D01*
X38043592Y-34701499D01*
X38043595Y-34701500D01*
X38043597Y-34701500D01*
X38206405Y-34701500D01*
X38206406Y-34701499D01*
X38259629Y-34690912D01*
X38366073Y-34669740D01*
X38366076Y-34669738D01*
X38366081Y-34669738D01*
X38516495Y-34607435D01*
X38651863Y-34516984D01*
X38766984Y-34401863D01*
X38857435Y-34266495D01*
X38919738Y-34116081D01*
X38924322Y-34093039D01*
X38951499Y-33956407D01*
X38951500Y-33956405D01*
X38951500Y-33793594D01*
X38951499Y-33793592D01*
X38925010Y-33660421D01*
X38920910Y-33639807D01*
X45042698Y-33639807D01*
X45042698Y-35429532D01*
X45042700Y-35429558D01*
X45045611Y-35454663D01*
X45045613Y-35454667D01*
X45090991Y-35557440D01*
X45090992Y-35557441D01*
X45170433Y-35636882D01*
X45273207Y-35682261D01*
X45298333Y-35685176D01*
X47088062Y-35685175D01*
X47088077Y-35685173D01*
X47088080Y-35685173D01*
X47113185Y-35682262D01*
X47113186Y-35682261D01*
X47113189Y-35682261D01*
X47215963Y-35636882D01*
X47295404Y-35557441D01*
X47340783Y-35454667D01*
X47343698Y-35429541D01*
X47343697Y-35297755D01*
X47363381Y-35230719D01*
X47416185Y-35184964D01*
X47485343Y-35175020D01*
X47491168Y-35177680D01*
X47550470Y-35187073D01*
X48202868Y-34534676D01*
X48137042Y-34468850D01*
X48233198Y-34468850D01*
X48233198Y-34600502D01*
X48267273Y-34727669D01*
X48333099Y-34841683D01*
X48426191Y-34934775D01*
X48540205Y-35000601D01*
X48667372Y-35034676D01*
X48799024Y-35034676D01*
X48926191Y-35000601D01*
X49040205Y-34934775D01*
X49133297Y-34841683D01*
X49199123Y-34727669D01*
X49233198Y-34600502D01*
X49233198Y-34534675D01*
X49263528Y-34534675D01*
X49263528Y-34534676D01*
X49915924Y-35187072D01*
X49984293Y-35052893D01*
X49993690Y-35023971D01*
X50033126Y-34966294D01*
X50097484Y-34939095D01*
X50166331Y-34951007D01*
X50217808Y-34998250D01*
X50222106Y-35005990D01*
X50289202Y-35137671D01*
X50395639Y-35284170D01*
X50395643Y-35284175D01*
X50523698Y-35412230D01*
X50523703Y-35412234D01*
X50651485Y-35505072D01*
X50670204Y-35518672D01*
X50746292Y-35557441D01*
X50831558Y-35600887D01*
X50831561Y-35600888D01*
X50857067Y-35609175D01*
X51003789Y-35656847D01*
X51086627Y-35669967D01*
X51182647Y-35685176D01*
X51182652Y-35685176D01*
X51363749Y-35685176D01*
X51450457Y-35671441D01*
X51542607Y-35656847D01*
X51714837Y-35600887D01*
X51876192Y-35518672D01*
X52022699Y-35412229D01*
X52150751Y-35284177D01*
X52257194Y-35137670D01*
X52339409Y-34976315D01*
X52395369Y-34804085D01*
X52416647Y-34669740D01*
X52420725Y-34643997D01*
X52450654Y-34580862D01*
X52509966Y-34543931D01*
X52579828Y-34544929D01*
X52638061Y-34583539D01*
X52665671Y-34643997D01*
X52691027Y-34804086D01*
X52746985Y-34976312D01*
X52746986Y-34976315D01*
X52802862Y-35085976D01*
X52820565Y-35120720D01*
X52829204Y-35137673D01*
X52935639Y-35284170D01*
X52935643Y-35284175D01*
X53063698Y-35412230D01*
X53063703Y-35412234D01*
X53191485Y-35505072D01*
X53210204Y-35518672D01*
X53286292Y-35557441D01*
X53371558Y-35600887D01*
X53371561Y-35600888D01*
X53397067Y-35609175D01*
X53543789Y-35656847D01*
X53626627Y-35669967D01*
X53722647Y-35685176D01*
X53722652Y-35685176D01*
X53903749Y-35685176D01*
X53990457Y-35671441D01*
X54082607Y-35656847D01*
X54254837Y-35600887D01*
X54416192Y-35518672D01*
X54562699Y-35412229D01*
X54690751Y-35284177D01*
X54797194Y-35137670D01*
X54879409Y-34976315D01*
X54935369Y-34804085D01*
X54956647Y-34669740D01*
X54963698Y-34625227D01*
X54963698Y-34444124D01*
X54935563Y-34266495D01*
X54935369Y-34265267D01*
X54886897Y-34116082D01*
X54879410Y-34093039D01*
X54879406Y-34093031D01*
X54867060Y-34068799D01*
X54867059Y-34068797D01*
X54841478Y-34018592D01*
X57673500Y-34018592D01*
X57673500Y-34181407D01*
X57705259Y-34341073D01*
X57705262Y-34341082D01*
X57767562Y-34491490D01*
X57767563Y-34491492D01*
X57858015Y-34626862D01*
X57858018Y-34626866D01*
X57973133Y-34741981D01*
X57973137Y-34741984D01*
X58108505Y-34832435D01*
X58108506Y-34832435D01*
X58108507Y-34832436D01*
X58108509Y-34832437D01*
X58208781Y-34873970D01*
X58258919Y-34894738D01*
X58258921Y-34894738D01*
X58258926Y-34894740D01*
X58418592Y-34926499D01*
X58418595Y-34926500D01*
X58418597Y-34926500D01*
X58581405Y-34926500D01*
X58581406Y-34926499D01*
X58648201Y-34913213D01*
X58741073Y-34894740D01*
X58741076Y-34894738D01*
X58741081Y-34894738D01*
X58891495Y-34832435D01*
X59026863Y-34741984D01*
X59141984Y-34626863D01*
X59232435Y-34491495D01*
X59294738Y-34341081D01*
X59326500Y-34181403D01*
X59326500Y-34018597D01*
X59326500Y-34018594D01*
X59326499Y-34018592D01*
X59294740Y-33858926D01*
X59294737Y-33858917D01*
X59232437Y-33708509D01*
X59232436Y-33708507D01*
X59186534Y-33639811D01*
X59141984Y-33573137D01*
X59141979Y-33573131D01*
X59026866Y-33458018D01*
X59026862Y-33458015D01*
X58891492Y-33367563D01*
X58891490Y-33367562D01*
X58741082Y-33305262D01*
X58741073Y-33305259D01*
X58581406Y-33273500D01*
X58581403Y-33273500D01*
X58418597Y-33273500D01*
X58418594Y-33273500D01*
X58258926Y-33305259D01*
X58258917Y-33305262D01*
X58108509Y-33367562D01*
X58108507Y-33367563D01*
X57973137Y-33458015D01*
X57973133Y-33458018D01*
X57858021Y-33573131D01*
X57858015Y-33573137D01*
X57767563Y-33708507D01*
X57767562Y-33708509D01*
X57705262Y-33858917D01*
X57705259Y-33858926D01*
X57673500Y-34018592D01*
X54841478Y-34018592D01*
X54797195Y-33931683D01*
X54797194Y-33931682D01*
X54690756Y-33785181D01*
X54690752Y-33785176D01*
X54562697Y-33657121D01*
X54562692Y-33657117D01*
X54416195Y-33550682D01*
X54416194Y-33550681D01*
X54416192Y-33550680D01*
X54340104Y-33511911D01*
X54254837Y-33468464D01*
X54254834Y-33468463D01*
X54082608Y-33412505D01*
X53903749Y-33384176D01*
X53903744Y-33384176D01*
X53722652Y-33384176D01*
X53722647Y-33384176D01*
X53543787Y-33412505D01*
X53371561Y-33468463D01*
X53371558Y-33468464D01*
X53210200Y-33550682D01*
X53063703Y-33657117D01*
X53063698Y-33657121D01*
X52935643Y-33785176D01*
X52935639Y-33785181D01*
X52829204Y-33931678D01*
X52746986Y-34093036D01*
X52746985Y-34093039D01*
X52691027Y-34265265D01*
X52665671Y-34425354D01*
X52635742Y-34488489D01*
X52576430Y-34525420D01*
X52506567Y-34524422D01*
X52448335Y-34485812D01*
X52420725Y-34425354D01*
X52395563Y-34266495D01*
X52395369Y-34265267D01*
X52346897Y-34116082D01*
X52339410Y-34093039D01*
X52339409Y-34093036D01*
X52294218Y-34004346D01*
X52257194Y-33931682D01*
X52221300Y-33882278D01*
X52150756Y-33785181D01*
X52150752Y-33785176D01*
X52022697Y-33657121D01*
X52022692Y-33657117D01*
X51876195Y-33550682D01*
X51876194Y-33550681D01*
X51876192Y-33550680D01*
X51800104Y-33511911D01*
X51714837Y-33468464D01*
X51714834Y-33468463D01*
X51542608Y-33412505D01*
X51363749Y-33384176D01*
X51363744Y-33384176D01*
X51182652Y-33384176D01*
X51182647Y-33384176D01*
X51003787Y-33412505D01*
X50831561Y-33468463D01*
X50831558Y-33468464D01*
X50670200Y-33550682D01*
X50523703Y-33657117D01*
X50523698Y-33657121D01*
X50395643Y-33785176D01*
X50395639Y-33785181D01*
X50289202Y-33931680D01*
X50222106Y-34063362D01*
X50174132Y-34114157D01*
X50106311Y-34130952D01*
X50040176Y-34108414D01*
X49996725Y-34053699D01*
X49993690Y-34045382D01*
X49984291Y-34016454D01*
X49915924Y-33882278D01*
X49263528Y-34534675D01*
X49233198Y-34534675D01*
X49233198Y-34468850D01*
X49199123Y-34341683D01*
X49133297Y-34227669D01*
X49040205Y-34134577D01*
X48926191Y-34068751D01*
X48799024Y-34034676D01*
X48667372Y-34034676D01*
X48540205Y-34068751D01*
X48426191Y-34134577D01*
X48333099Y-34227669D01*
X48267273Y-34341683D01*
X48233198Y-34468850D01*
X48137042Y-34468850D01*
X47550469Y-33882277D01*
X47488066Y-33892162D01*
X47487602Y-33889234D01*
X47462368Y-33895479D01*
X47396237Y-33872932D01*
X47352793Y-33818211D01*
X47343697Y-33771594D01*
X47343697Y-33639819D01*
X47343697Y-33639812D01*
X47343695Y-33639793D01*
X47340784Y-33614688D01*
X47340783Y-33614686D01*
X47340783Y-33614685D01*
X47295404Y-33511911D01*
X47215963Y-33432470D01*
X47215961Y-33432469D01*
X47113190Y-33387091D01*
X47088063Y-33384176D01*
X45298341Y-33384176D01*
X45298315Y-33384178D01*
X45273210Y-33387089D01*
X45273206Y-33387091D01*
X45170433Y-33432469D01*
X45090992Y-33511910D01*
X45045613Y-33614682D01*
X45045613Y-33614684D01*
X45042698Y-33639807D01*
X38920910Y-33639807D01*
X38919740Y-33633926D01*
X38919737Y-33633917D01*
X38857437Y-33483509D01*
X38857436Y-33483507D01*
X38840403Y-33458016D01*
X38769530Y-33351947D01*
X48080799Y-33351947D01*
X48733198Y-34004346D01*
X48733199Y-34004346D01*
X49385595Y-33351948D01*
X49251418Y-33283582D01*
X49251415Y-33283580D01*
X49049326Y-33217918D01*
X48839444Y-33184676D01*
X48626952Y-33184676D01*
X48417070Y-33217918D01*
X48417067Y-33217918D01*
X48214979Y-33283581D01*
X48214978Y-33283581D01*
X48080799Y-33351947D01*
X38769530Y-33351947D01*
X38766984Y-33348137D01*
X38766981Y-33348133D01*
X38651866Y-33233018D01*
X38651862Y-33233015D01*
X38516492Y-33142563D01*
X38516490Y-33142562D01*
X38366082Y-33080262D01*
X38366073Y-33080259D01*
X38206406Y-33048500D01*
X38206403Y-33048500D01*
X38043597Y-33048500D01*
X38043594Y-33048500D01*
X37883926Y-33080259D01*
X37883917Y-33080262D01*
X37733509Y-33142562D01*
X37733507Y-33142563D01*
X37598137Y-33233015D01*
X37598133Y-33233018D01*
X37483018Y-33348133D01*
X37483015Y-33348137D01*
X37392563Y-33483507D01*
X37392562Y-33483509D01*
X37330262Y-33633917D01*
X37330259Y-33633926D01*
X37298500Y-33793592D01*
X30540195Y-33793592D01*
X30624503Y-33590543D01*
X30631439Y-33576439D01*
X30713949Y-33432470D01*
X30773265Y-33328971D01*
X30782074Y-33315666D01*
X30951376Y-33092674D01*
X30961758Y-33080681D01*
X31159021Y-32880317D01*
X31170516Y-32870014D01*
X31396680Y-32691436D01*
X31408792Y-32682995D01*
X31664587Y-32526501D01*
X31676860Y-32519910D01*
X31961862Y-32386919D01*
X31973921Y-32382045D01*
X32284700Y-32275051D01*
X32296339Y-32271671D01*
X32622276Y-32194089D01*
X32633412Y-32191972D01*
X32944535Y-32147511D01*
X32954605Y-32146492D01*
X33139500Y-32135398D01*
X33146926Y-32135176D01*
X68939909Y-32135176D01*
X68946472Y-32135350D01*
G37*
%TD.AperFunction*%
%TD*%
M02*
