%TF.GenerationSoftware,KiCad,Pcbnew,9.0.3+1*%
%TF.CreationDate,2025-09-03T21:21:14+02:00*%
%TF.ProjectId,Micro-VX,4d696372-6f2d-4565-982e-6b696361645f,rev?*%
%TF.SameCoordinates,Original*%
%TF.FileFunction,Legend,Top*%
%TF.FilePolarity,Positive*%
%FSLAX46Y46*%
G04 Gerber Fmt 4.6, Leading zero omitted, Abs format (unit mm)*
G04 Created by KiCad (PCBNEW 9.0.3+1) date 2025-09-03 21:21:14*
%MOMM*%
%LPD*%
G01*
G04 APERTURE LIST*
%ADD10C,0.100000*%
%ADD11C,0.080000*%
%ADD12C,0.062500*%
%ADD13C,0.120000*%
%ADD14C,0.150000*%
G04 APERTURE END LIST*
D10*
X43650000Y-58800000D02*
X43150000Y-59050000D01*
X43150000Y-58814705D01*
X41950000Y-58850000D01*
X41950000Y-58725000D01*
X43150000Y-58777941D01*
X43150000Y-58550000D01*
X43650000Y-58800000D01*
G36*
X43650000Y-58800000D02*
G01*
X43150000Y-59050000D01*
X43150000Y-58814705D01*
X41950000Y-58850000D01*
X41950000Y-58725000D01*
X43150000Y-58777941D01*
X43150000Y-58550000D01*
X43650000Y-58800000D01*
G37*
X39400000Y-55125000D02*
X39164706Y-55125000D01*
X39200000Y-56325000D01*
X39075000Y-56325000D01*
X39127941Y-55125000D01*
X38900000Y-55125000D01*
X39150000Y-54625000D01*
X39400000Y-55125000D01*
G36*
X39400000Y-55125000D02*
G01*
X39164706Y-55125000D01*
X39200000Y-56325000D01*
X39075000Y-56325000D01*
X39127941Y-55125000D01*
X38900000Y-55125000D01*
X39150000Y-54625000D01*
X39400000Y-55125000D01*
G37*
X66290000Y-54580000D02*
G75*
G02*
X66210000Y-54580000I-40000J0D01*
G01*
X66210000Y-54580000D02*
G75*
G02*
X66290000Y-54580000I40000J0D01*
G01*
X40993852Y-41350000D02*
G75*
G02*
X40886148Y-41350000I-53852J0D01*
G01*
X40886148Y-41350000D02*
G75*
G02*
X40993852Y-41350000I53852J0D01*
G01*
X39868179Y-58765000D02*
G75*
G02*
X38409659Y-58765000I-729260J0D01*
G01*
X38409659Y-58765000D02*
G75*
G02*
X39868179Y-58765000I729260J0D01*
G01*
X61890000Y-31210000D02*
X73950000Y-31210000D01*
X73950000Y-33970000D01*
X61890000Y-33970000D01*
X61890000Y-31210000D01*
X52700000Y-46710000D02*
G75*
G02*
X52640000Y-46710000I-30000J0D01*
G01*
X52640000Y-46710000D02*
G75*
G02*
X52700000Y-46710000I30000J0D01*
G01*
X46404340Y-52990000D02*
G75*
G02*
X46215660Y-52990000I-94340J0D01*
G01*
X46215660Y-52990000D02*
G75*
G02*
X46404340Y-52990000I94340J0D01*
G01*
X43080828Y-50090000D02*
G75*
G02*
X42959172Y-50090000I-60828J0D01*
G01*
X42959172Y-50090000D02*
G75*
G02*
X43080828Y-50090000I60828J0D01*
G01*
X59700990Y-55670000D02*
G75*
G02*
X59599010Y-55670000I-50990J0D01*
G01*
X59599010Y-55670000D02*
G75*
G02*
X59700990Y-55670000I50990J0D01*
G01*
X39420368Y-58765000D02*
G75*
G02*
X38857470Y-58765000I-281449J0D01*
G01*
X38857470Y-58765000D02*
G75*
G02*
X39420368Y-58765000I281449J0D01*
G01*
X50941027Y-36989800D02*
X51012455Y-37013609D01*
X51012455Y-37013609D02*
X51131503Y-37013609D01*
X51131503Y-37013609D02*
X51179122Y-36989800D01*
X51179122Y-36989800D02*
X51202931Y-36965990D01*
X51202931Y-36965990D02*
X51226741Y-36918371D01*
X51226741Y-36918371D02*
X51226741Y-36870752D01*
X51226741Y-36870752D02*
X51202931Y-36823133D01*
X51202931Y-36823133D02*
X51179122Y-36799323D01*
X51179122Y-36799323D02*
X51131503Y-36775514D01*
X51131503Y-36775514D02*
X51036265Y-36751704D01*
X51036265Y-36751704D02*
X50988646Y-36727895D01*
X50988646Y-36727895D02*
X50964836Y-36704085D01*
X50964836Y-36704085D02*
X50941027Y-36656466D01*
X50941027Y-36656466D02*
X50941027Y-36608847D01*
X50941027Y-36608847D02*
X50964836Y-36561228D01*
X50964836Y-36561228D02*
X50988646Y-36537419D01*
X50988646Y-36537419D02*
X51036265Y-36513609D01*
X51036265Y-36513609D02*
X51155312Y-36513609D01*
X51155312Y-36513609D02*
X51226741Y-36537419D01*
X51726740Y-36965990D02*
X51702931Y-36989800D01*
X51702931Y-36989800D02*
X51631502Y-37013609D01*
X51631502Y-37013609D02*
X51583883Y-37013609D01*
X51583883Y-37013609D02*
X51512455Y-36989800D01*
X51512455Y-36989800D02*
X51464836Y-36942180D01*
X51464836Y-36942180D02*
X51441026Y-36894561D01*
X51441026Y-36894561D02*
X51417217Y-36799323D01*
X51417217Y-36799323D02*
X51417217Y-36727895D01*
X51417217Y-36727895D02*
X51441026Y-36632657D01*
X51441026Y-36632657D02*
X51464836Y-36585038D01*
X51464836Y-36585038D02*
X51512455Y-36537419D01*
X51512455Y-36537419D02*
X51583883Y-36513609D01*
X51583883Y-36513609D02*
X51631502Y-36513609D01*
X51631502Y-36513609D02*
X51702931Y-36537419D01*
X51702931Y-36537419D02*
X51726740Y-36561228D01*
X52179121Y-37013609D02*
X51941026Y-37013609D01*
X51941026Y-37013609D02*
X51941026Y-36513609D01*
X37855639Y-59190342D02*
X37255639Y-59190342D01*
X37255639Y-59190342D02*
X37855639Y-58290342D01*
X37855639Y-58290342D02*
X37255639Y-58290342D01*
X63491466Y-47196115D02*
X63491466Y-46434211D01*
X63872419Y-46815163D02*
X63110514Y-46815163D01*
G36*
X62503958Y-32740607D02*
G01*
X62503958Y-32806430D01*
X62621561Y-32806430D01*
X62621561Y-33464237D01*
X62503958Y-33464237D01*
X62503958Y-33530000D01*
X62810544Y-33530000D01*
X62810544Y-33464237D01*
X62691536Y-33464237D01*
X62691536Y-33242648D01*
X62788135Y-33150080D01*
X62822340Y-33169391D01*
X62853024Y-33191296D01*
X62905966Y-33243329D01*
X62958353Y-33316710D01*
X62972965Y-33340833D01*
X62980096Y-33353901D01*
X63020589Y-33430709D01*
X63063946Y-33530000D01*
X63243159Y-33530000D01*
X63243159Y-33464237D01*
X63114382Y-33464237D01*
X63079941Y-33389906D01*
X63046578Y-33326684D01*
X63014627Y-33273976D01*
X62983830Y-33230157D01*
X62953890Y-33193838D01*
X62925228Y-33164548D01*
X62868881Y-33120950D01*
X62835762Y-33102391D01*
X63139539Y-32806430D01*
X63202554Y-32806430D01*
X63202554Y-32740607D01*
X62929551Y-32740607D01*
X62929551Y-32806430D01*
X63044345Y-32806430D01*
X62691536Y-33150080D01*
X62691536Y-32806430D01*
X62810544Y-32806430D01*
X62810544Y-32740607D01*
X62503958Y-32740607D01*
G37*
G36*
X63708451Y-32902656D02*
G01*
X63745117Y-32907874D01*
X63776903Y-32916090D01*
X63804156Y-32926912D01*
X63846460Y-32954804D01*
X63874817Y-32988406D01*
X63892017Y-33024579D01*
X63900850Y-33060181D01*
X63904569Y-33117107D01*
X63904569Y-33464237D01*
X64029193Y-33464237D01*
X64029193Y-33530000D01*
X63834593Y-33530000D01*
X63834593Y-33429494D01*
X63829123Y-33434471D01*
X63764979Y-33484311D01*
X63698638Y-33520684D01*
X63632613Y-33542345D01*
X63567208Y-33549539D01*
X63519522Y-33545361D01*
X63488647Y-33537718D01*
X63460341Y-33526636D01*
X63433843Y-33511930D01*
X63410392Y-33494380D01*
X63389743Y-33473980D01*
X63372574Y-33451531D01*
X63349406Y-33402696D01*
X63341987Y-33354328D01*
X63417365Y-33354328D01*
X63420509Y-33379741D01*
X63427969Y-33400518D01*
X63439333Y-33419740D01*
X63454841Y-33437745D01*
X63473558Y-33453262D01*
X63517840Y-33475001D01*
X63565804Y-33482372D01*
X63584163Y-33481690D01*
X63639314Y-33471385D01*
X63700632Y-33445728D01*
X63766051Y-33401741D01*
X63799688Y-33372162D01*
X63834593Y-33336193D01*
X63834593Y-33224879D01*
X63763482Y-33215443D01*
X63652571Y-33209553D01*
X63607531Y-33211335D01*
X63567431Y-33216580D01*
X63533404Y-33224752D01*
X63495850Y-33239666D01*
X63467418Y-33257674D01*
X63446840Y-33277413D01*
X63432847Y-33297518D01*
X63419545Y-33333373D01*
X63417365Y-33354328D01*
X63341987Y-33354328D01*
X63341772Y-33352923D01*
X63343315Y-33331985D01*
X63357511Y-33283583D01*
X63385505Y-33238399D01*
X63426610Y-33199810D01*
X63481358Y-33169624D01*
X63514186Y-33158270D01*
X63551291Y-33149680D01*
X63592618Y-33144275D01*
X63638588Y-33142386D01*
X63735790Y-33147220D01*
X63834593Y-33160582D01*
X63834593Y-33117107D01*
X63834067Y-33094148D01*
X63826778Y-33053425D01*
X63809267Y-33019936D01*
X63779567Y-32993572D01*
X63758880Y-32983227D01*
X63733566Y-32975227D01*
X63702318Y-32969931D01*
X63665211Y-32968058D01*
X63614973Y-32971192D01*
X63529359Y-32989070D01*
X63480557Y-33005038D01*
X63425792Y-33027103D01*
X63399169Y-32963845D01*
X63495120Y-32928403D01*
X63582819Y-32907733D01*
X63666554Y-32900830D01*
X63708451Y-32902656D01*
G37*
G36*
X64214635Y-32928185D02*
G01*
X64214635Y-32994009D01*
X64376995Y-32994009D01*
X64376995Y-33464237D01*
X64203400Y-33464237D01*
X64203400Y-33530000D01*
X64713012Y-33530000D01*
X64713012Y-33464237D01*
X64447032Y-33464237D01*
X64447032Y-33157773D01*
X64449357Y-33155173D01*
X64496431Y-33104575D01*
X64561330Y-33046464D01*
X64598978Y-33020137D01*
X64639300Y-32998585D01*
X64681702Y-32984028D01*
X64725591Y-32978682D01*
X64747732Y-32980511D01*
X64765695Y-32985499D01*
X64792586Y-33002928D01*
X64812177Y-33027988D01*
X64813824Y-33030462D01*
X64819380Y-33040232D01*
X64893569Y-32985704D01*
X64868919Y-32958697D01*
X64837836Y-32934186D01*
X64796441Y-32916176D01*
X64740852Y-32908674D01*
X64736826Y-32908646D01*
X64674414Y-32915885D01*
X64613561Y-32937426D01*
X64552451Y-32973977D01*
X64488786Y-33027260D01*
X64450735Y-33064550D01*
X64447032Y-33068258D01*
X64447032Y-32928185D01*
X64214635Y-32928185D01*
G37*
G36*
X65097206Y-32928185D02*
G01*
X65097206Y-33118572D01*
X65163030Y-33118572D01*
X65163030Y-32994009D01*
X65532630Y-32994009D01*
X65083224Y-33464237D01*
X65083224Y-33530000D01*
X65632037Y-33530000D01*
X65632037Y-33335460D01*
X65566214Y-33335460D01*
X65566214Y-33464237D01*
X65178417Y-33464237D01*
X65632037Y-32988391D01*
X65632037Y-32928185D01*
X65097206Y-32928185D01*
G37*
G36*
X66226106Y-32902656D02*
G01*
X66262773Y-32907874D01*
X66294558Y-32916090D01*
X66321811Y-32926912D01*
X66364115Y-32954804D01*
X66392472Y-32988406D01*
X66409672Y-33024579D01*
X66418505Y-33060181D01*
X66422224Y-33117107D01*
X66422224Y-33464237D01*
X66546849Y-33464237D01*
X66546849Y-33530000D01*
X66352248Y-33530000D01*
X66352248Y-33429494D01*
X66346779Y-33434471D01*
X66282635Y-33484311D01*
X66216293Y-33520684D01*
X66150269Y-33542345D01*
X66084863Y-33549539D01*
X66037177Y-33545361D01*
X66006303Y-33537718D01*
X65977996Y-33526636D01*
X65951499Y-33511930D01*
X65928047Y-33494380D01*
X65907398Y-33473980D01*
X65890229Y-33451531D01*
X65867061Y-33402696D01*
X65859642Y-33354328D01*
X65935020Y-33354328D01*
X65938164Y-33379741D01*
X65945624Y-33400518D01*
X65956988Y-33419740D01*
X65972496Y-33437745D01*
X65991214Y-33453262D01*
X66035495Y-33475001D01*
X66083459Y-33482372D01*
X66101819Y-33481690D01*
X66156969Y-33471385D01*
X66218287Y-33445728D01*
X66283706Y-33401741D01*
X66317343Y-33372162D01*
X66352248Y-33336193D01*
X66352248Y-33224879D01*
X66281137Y-33215443D01*
X66170226Y-33209553D01*
X66125186Y-33211335D01*
X66085086Y-33216580D01*
X66051059Y-33224752D01*
X66013505Y-33239666D01*
X65985073Y-33257674D01*
X65964495Y-33277413D01*
X65950502Y-33297518D01*
X65937200Y-33333373D01*
X65935020Y-33354328D01*
X65859642Y-33354328D01*
X65859427Y-33352923D01*
X65860970Y-33331985D01*
X65875166Y-33283583D01*
X65903160Y-33238399D01*
X65944265Y-33199810D01*
X65999013Y-33169624D01*
X66031841Y-33158270D01*
X66068946Y-33149680D01*
X66110274Y-33144275D01*
X66156243Y-33142386D01*
X66253445Y-33147220D01*
X66352248Y-33160582D01*
X66352248Y-33117107D01*
X66351722Y-33094148D01*
X66344434Y-33053425D01*
X66326923Y-33019936D01*
X66297222Y-32993572D01*
X66276535Y-32983227D01*
X66251221Y-32975227D01*
X66219973Y-32969931D01*
X66182866Y-32968058D01*
X66132629Y-32971192D01*
X66047014Y-32989070D01*
X65998212Y-33005038D01*
X65943447Y-33027103D01*
X65916824Y-32963845D01*
X66012775Y-32928403D01*
X66100474Y-32907733D01*
X66184209Y-32900830D01*
X66226106Y-32902656D01*
G37*
G36*
X66663658Y-32928185D02*
G01*
X66663658Y-32994009D01*
X66778452Y-32994009D01*
X66778452Y-33464237D01*
X66663658Y-33464237D01*
X66663658Y-33530000D01*
X66966031Y-33530000D01*
X66966031Y-33464237D01*
X66848489Y-33464237D01*
X66848489Y-33090301D01*
X66898099Y-33053649D01*
X66941679Y-33025915D01*
X66979791Y-33005874D01*
X67012918Y-32992344D01*
X67068589Y-32979736D01*
X67090655Y-32978682D01*
X67114744Y-32980609D01*
X67136962Y-32986281D01*
X67156798Y-32995336D01*
X67174521Y-33007689D01*
X67203135Y-33041890D01*
X67221678Y-33088985D01*
X67227859Y-33144706D01*
X67227859Y-33464237D01*
X67107447Y-33464237D01*
X67107447Y-33530000D01*
X67409881Y-33530000D01*
X67409881Y-33464237D01*
X67297834Y-33464237D01*
X67297834Y-33139150D01*
X67295906Y-33103788D01*
X67290220Y-33070599D01*
X67281138Y-33040381D01*
X67268729Y-33012704D01*
X67253562Y-32988381D01*
X67235500Y-32966893D01*
X67215206Y-32948853D01*
X67192402Y-32933904D01*
X67167611Y-32922390D01*
X67140623Y-32914244D01*
X67089251Y-32908646D01*
X67026560Y-32915772D01*
X66964390Y-32937013D01*
X66898786Y-32973501D01*
X66853113Y-33004736D01*
X66848489Y-33007991D01*
X66848489Y-32928185D01*
X66663658Y-32928185D01*
G37*
G36*
X68305703Y-32740607D02*
G01*
X68305703Y-32806430D01*
X68405109Y-32806430D01*
X68381296Y-33464237D01*
X68295872Y-33464237D01*
X68295872Y-33530000D01*
X68592688Y-33530000D01*
X68592688Y-33464237D01*
X68442906Y-33464237D01*
X68463911Y-32806430D01*
X68489068Y-32806430D01*
X68671090Y-33326789D01*
X68743874Y-33326789D01*
X68939879Y-32806430D01*
X68965097Y-32806430D01*
X68986102Y-33464237D01*
X68836320Y-33464237D01*
X68836320Y-33530000D01*
X69133075Y-33530000D01*
X69133075Y-33464237D01*
X69047712Y-33464237D01*
X69023899Y-32806430D01*
X69123306Y-32806430D01*
X69123306Y-32740607D01*
X68897869Y-32740607D01*
X68724274Y-33214804D01*
X68699117Y-33214804D01*
X68539504Y-32740607D01*
X68305703Y-32740607D01*
G37*
G36*
X69553722Y-33363060D02*
G01*
X69512371Y-33370607D01*
X69492765Y-33379992D01*
X69475427Y-33392832D01*
X69462183Y-33407637D01*
X69452422Y-33425056D01*
X69445889Y-33458253D01*
X69453066Y-33493381D01*
X69473461Y-33522131D01*
X69506239Y-33543459D01*
X69547687Y-33553280D01*
X69553722Y-33553447D01*
X69595036Y-33545899D01*
X69614636Y-33536512D01*
X69631970Y-33523668D01*
X69645211Y-33508858D01*
X69654969Y-33491434D01*
X69661495Y-33458253D01*
X69654263Y-33423632D01*
X69633346Y-33394248D01*
X69599747Y-33372472D01*
X69579164Y-33365896D01*
X69557753Y-33363132D01*
X69553722Y-33363060D01*
G37*
X34965990Y-52829449D02*
X34989800Y-52853258D01*
X34989800Y-52853258D02*
X35013609Y-52924687D01*
X35013609Y-52924687D02*
X35013609Y-52972306D01*
X35013609Y-52972306D02*
X34989800Y-53043734D01*
X34989800Y-53043734D02*
X34942180Y-53091353D01*
X34942180Y-53091353D02*
X34894561Y-53115163D01*
X34894561Y-53115163D02*
X34799323Y-53138972D01*
X34799323Y-53138972D02*
X34727895Y-53138972D01*
X34727895Y-53138972D02*
X34632657Y-53115163D01*
X34632657Y-53115163D02*
X34585038Y-53091353D01*
X34585038Y-53091353D02*
X34537419Y-53043734D01*
X34537419Y-53043734D02*
X34513609Y-52972306D01*
X34513609Y-52972306D02*
X34513609Y-52924687D01*
X34513609Y-52924687D02*
X34537419Y-52853258D01*
X34537419Y-52853258D02*
X34561228Y-52829449D01*
X35013609Y-52377068D02*
X35013609Y-52615163D01*
X35013609Y-52615163D02*
X34513609Y-52615163D01*
X35013609Y-52210401D02*
X34513609Y-52210401D01*
X35013609Y-51924687D02*
X34727895Y-52138972D01*
X34513609Y-51924687D02*
X34799323Y-52210401D01*
X31546265Y-58074800D02*
X31689122Y-58122419D01*
X31689122Y-58122419D02*
X31927217Y-58122419D01*
X31927217Y-58122419D02*
X32022455Y-58074800D01*
X32022455Y-58074800D02*
X32070074Y-58027180D01*
X32070074Y-58027180D02*
X32117693Y-57931942D01*
X32117693Y-57931942D02*
X32117693Y-57836704D01*
X32117693Y-57836704D02*
X32070074Y-57741466D01*
X32070074Y-57741466D02*
X32022455Y-57693847D01*
X32022455Y-57693847D02*
X31927217Y-57646228D01*
X31927217Y-57646228D02*
X31736741Y-57598609D01*
X31736741Y-57598609D02*
X31641503Y-57550990D01*
X31641503Y-57550990D02*
X31593884Y-57503371D01*
X31593884Y-57503371D02*
X31546265Y-57408133D01*
X31546265Y-57408133D02*
X31546265Y-57312895D01*
X31546265Y-57312895D02*
X31593884Y-57217657D01*
X31593884Y-57217657D02*
X31641503Y-57170038D01*
X31641503Y-57170038D02*
X31736741Y-57122419D01*
X31736741Y-57122419D02*
X31974836Y-57122419D01*
X31974836Y-57122419D02*
X32117693Y-57170038D01*
X32451027Y-57122419D02*
X32689122Y-58122419D01*
X32689122Y-58122419D02*
X32879598Y-57408133D01*
X32879598Y-57408133D02*
X33070074Y-58122419D01*
X33070074Y-58122419D02*
X33308170Y-57122419D01*
X33689122Y-58122419D02*
X33689122Y-57122419D01*
X33689122Y-57122419D02*
X33927217Y-57122419D01*
X33927217Y-57122419D02*
X34070074Y-57170038D01*
X34070074Y-57170038D02*
X34165312Y-57265276D01*
X34165312Y-57265276D02*
X34212931Y-57360514D01*
X34212931Y-57360514D02*
X34260550Y-57550990D01*
X34260550Y-57550990D02*
X34260550Y-57693847D01*
X34260550Y-57693847D02*
X34212931Y-57884323D01*
X34212931Y-57884323D02*
X34165312Y-57979561D01*
X34165312Y-57979561D02*
X34070074Y-58074800D01*
X34070074Y-58074800D02*
X33927217Y-58122419D01*
X33927217Y-58122419D02*
X33689122Y-58122419D01*
X36395312Y-37112419D02*
X36061979Y-36636228D01*
X35823884Y-37112419D02*
X35823884Y-36112419D01*
X35823884Y-36112419D02*
X36204836Y-36112419D01*
X36204836Y-36112419D02*
X36300074Y-36160038D01*
X36300074Y-36160038D02*
X36347693Y-36207657D01*
X36347693Y-36207657D02*
X36395312Y-36302895D01*
X36395312Y-36302895D02*
X36395312Y-36445752D01*
X36395312Y-36445752D02*
X36347693Y-36540990D01*
X36347693Y-36540990D02*
X36300074Y-36588609D01*
X36300074Y-36588609D02*
X36204836Y-36636228D01*
X36204836Y-36636228D02*
X35823884Y-36636228D01*
X37252455Y-36445752D02*
X37252455Y-37112419D01*
X36823884Y-36445752D02*
X36823884Y-36969561D01*
X36823884Y-36969561D02*
X36871503Y-37064800D01*
X36871503Y-37064800D02*
X36966741Y-37112419D01*
X36966741Y-37112419D02*
X37109598Y-37112419D01*
X37109598Y-37112419D02*
X37204836Y-37064800D01*
X37204836Y-37064800D02*
X37252455Y-37017180D01*
X37728646Y-36445752D02*
X37728646Y-37112419D01*
X37728646Y-36540990D02*
X37776265Y-36493371D01*
X37776265Y-36493371D02*
X37871503Y-36445752D01*
X37871503Y-36445752D02*
X38014360Y-36445752D01*
X38014360Y-36445752D02*
X38109598Y-36493371D01*
X38109598Y-36493371D02*
X38157217Y-36588609D01*
X38157217Y-36588609D02*
X38157217Y-37112419D01*
X40798646Y-58249419D02*
X41465312Y-59249419D01*
X41465312Y-58249419D02*
X40798646Y-59249419D01*
X66883884Y-57982419D02*
X66883884Y-58791942D01*
X66883884Y-58791942D02*
X66931503Y-58887180D01*
X66931503Y-58887180D02*
X66979122Y-58934800D01*
X66979122Y-58934800D02*
X67074360Y-58982419D01*
X67074360Y-58982419D02*
X67264836Y-58982419D01*
X67264836Y-58982419D02*
X67360074Y-58934800D01*
X67360074Y-58934800D02*
X67407693Y-58887180D01*
X67407693Y-58887180D02*
X67455312Y-58791942D01*
X67455312Y-58791942D02*
X67455312Y-57982419D01*
X67883884Y-58934800D02*
X68026741Y-58982419D01*
X68026741Y-58982419D02*
X68264836Y-58982419D01*
X68264836Y-58982419D02*
X68360074Y-58934800D01*
X68360074Y-58934800D02*
X68407693Y-58887180D01*
X68407693Y-58887180D02*
X68455312Y-58791942D01*
X68455312Y-58791942D02*
X68455312Y-58696704D01*
X68455312Y-58696704D02*
X68407693Y-58601466D01*
X68407693Y-58601466D02*
X68360074Y-58553847D01*
X68360074Y-58553847D02*
X68264836Y-58506228D01*
X68264836Y-58506228D02*
X68074360Y-58458609D01*
X68074360Y-58458609D02*
X67979122Y-58410990D01*
X67979122Y-58410990D02*
X67931503Y-58363371D01*
X67931503Y-58363371D02*
X67883884Y-58268133D01*
X67883884Y-58268133D02*
X67883884Y-58172895D01*
X67883884Y-58172895D02*
X67931503Y-58077657D01*
X67931503Y-58077657D02*
X67979122Y-58030038D01*
X67979122Y-58030038D02*
X68074360Y-57982419D01*
X68074360Y-57982419D02*
X68312455Y-57982419D01*
X68312455Y-57982419D02*
X68455312Y-58030038D01*
X69217217Y-58458609D02*
X69360074Y-58506228D01*
X69360074Y-58506228D02*
X69407693Y-58553847D01*
X69407693Y-58553847D02*
X69455312Y-58649085D01*
X69455312Y-58649085D02*
X69455312Y-58791942D01*
X69455312Y-58791942D02*
X69407693Y-58887180D01*
X69407693Y-58887180D02*
X69360074Y-58934800D01*
X69360074Y-58934800D02*
X69264836Y-58982419D01*
X69264836Y-58982419D02*
X68883884Y-58982419D01*
X68883884Y-58982419D02*
X68883884Y-57982419D01*
X68883884Y-57982419D02*
X69217217Y-57982419D01*
X69217217Y-57982419D02*
X69312455Y-58030038D01*
X69312455Y-58030038D02*
X69360074Y-58077657D01*
X69360074Y-58077657D02*
X69407693Y-58172895D01*
X69407693Y-58172895D02*
X69407693Y-58268133D01*
X69407693Y-58268133D02*
X69360074Y-58363371D01*
X69360074Y-58363371D02*
X69312455Y-58410990D01*
X69312455Y-58410990D02*
X69217217Y-58458609D01*
X69217217Y-58458609D02*
X68883884Y-58458609D01*
X41647082Y-34627095D02*
X41647082Y-33627095D01*
X42075653Y-33722333D02*
X42123272Y-33674714D01*
X42123272Y-33674714D02*
X42218510Y-33627095D01*
X42218510Y-33627095D02*
X42456605Y-33627095D01*
X42456605Y-33627095D02*
X42551843Y-33674714D01*
X42551843Y-33674714D02*
X42599462Y-33722333D01*
X42599462Y-33722333D02*
X42647081Y-33817571D01*
X42647081Y-33817571D02*
X42647081Y-33912809D01*
X42647081Y-33912809D02*
X42599462Y-34055666D01*
X42599462Y-34055666D02*
X42028034Y-34627095D01*
X42028034Y-34627095D02*
X42647081Y-34627095D01*
X43647081Y-34531856D02*
X43599462Y-34579476D01*
X43599462Y-34579476D02*
X43456605Y-34627095D01*
X43456605Y-34627095D02*
X43361367Y-34627095D01*
X43361367Y-34627095D02*
X43218510Y-34579476D01*
X43218510Y-34579476D02*
X43123272Y-34484237D01*
X43123272Y-34484237D02*
X43075653Y-34388999D01*
X43075653Y-34388999D02*
X43028034Y-34198523D01*
X43028034Y-34198523D02*
X43028034Y-34055666D01*
X43028034Y-34055666D02*
X43075653Y-33865190D01*
X43075653Y-33865190D02*
X43123272Y-33769952D01*
X43123272Y-33769952D02*
X43218510Y-33674714D01*
X43218510Y-33674714D02*
X43361367Y-33627095D01*
X43361367Y-33627095D02*
X43456605Y-33627095D01*
X43456605Y-33627095D02*
X43599462Y-33674714D01*
X43599462Y-33674714D02*
X43647081Y-33722333D01*
X53431027Y-37029800D02*
X53502455Y-37053609D01*
X53502455Y-37053609D02*
X53621503Y-37053609D01*
X53621503Y-37053609D02*
X53669122Y-37029800D01*
X53669122Y-37029800D02*
X53692931Y-37005990D01*
X53692931Y-37005990D02*
X53716741Y-36958371D01*
X53716741Y-36958371D02*
X53716741Y-36910752D01*
X53716741Y-36910752D02*
X53692931Y-36863133D01*
X53692931Y-36863133D02*
X53669122Y-36839323D01*
X53669122Y-36839323D02*
X53621503Y-36815514D01*
X53621503Y-36815514D02*
X53526265Y-36791704D01*
X53526265Y-36791704D02*
X53478646Y-36767895D01*
X53478646Y-36767895D02*
X53454836Y-36744085D01*
X53454836Y-36744085D02*
X53431027Y-36696466D01*
X53431027Y-36696466D02*
X53431027Y-36648847D01*
X53431027Y-36648847D02*
X53454836Y-36601228D01*
X53454836Y-36601228D02*
X53478646Y-36577419D01*
X53478646Y-36577419D02*
X53526265Y-36553609D01*
X53526265Y-36553609D02*
X53645312Y-36553609D01*
X53645312Y-36553609D02*
X53716741Y-36577419D01*
X53931026Y-37053609D02*
X53931026Y-36553609D01*
X53931026Y-36553609D02*
X54050074Y-36553609D01*
X54050074Y-36553609D02*
X54121502Y-36577419D01*
X54121502Y-36577419D02*
X54169121Y-36625038D01*
X54169121Y-36625038D02*
X54192931Y-36672657D01*
X54192931Y-36672657D02*
X54216740Y-36767895D01*
X54216740Y-36767895D02*
X54216740Y-36839323D01*
X54216740Y-36839323D02*
X54192931Y-36934561D01*
X54192931Y-36934561D02*
X54169121Y-36982180D01*
X54169121Y-36982180D02*
X54121502Y-37029800D01*
X54121502Y-37029800D02*
X54050074Y-37053609D01*
X54050074Y-37053609D02*
X53931026Y-37053609D01*
X54407217Y-36910752D02*
X54645312Y-36910752D01*
X54359598Y-37053609D02*
X54526264Y-36553609D01*
X54526264Y-36553609D02*
X54692931Y-37053609D01*
X35063609Y-50425163D02*
X34563609Y-50425163D01*
X34563609Y-50425163D02*
X34563609Y-50306115D01*
X34563609Y-50306115D02*
X34587419Y-50234687D01*
X34587419Y-50234687D02*
X34635038Y-50187068D01*
X34635038Y-50187068D02*
X34682657Y-50163258D01*
X34682657Y-50163258D02*
X34777895Y-50139449D01*
X34777895Y-50139449D02*
X34849323Y-50139449D01*
X34849323Y-50139449D02*
X34944561Y-50163258D01*
X34944561Y-50163258D02*
X34992180Y-50187068D01*
X34992180Y-50187068D02*
X35039800Y-50234687D01*
X35039800Y-50234687D02*
X35063609Y-50306115D01*
X35063609Y-50306115D02*
X35063609Y-50425163D01*
X35063609Y-49925163D02*
X34563609Y-49925163D01*
X34563609Y-49591830D02*
X34563609Y-49496592D01*
X34563609Y-49496592D02*
X34587419Y-49448973D01*
X34587419Y-49448973D02*
X34635038Y-49401354D01*
X34635038Y-49401354D02*
X34730276Y-49377544D01*
X34730276Y-49377544D02*
X34896942Y-49377544D01*
X34896942Y-49377544D02*
X34992180Y-49401354D01*
X34992180Y-49401354D02*
X35039800Y-49448973D01*
X35039800Y-49448973D02*
X35063609Y-49496592D01*
X35063609Y-49496592D02*
X35063609Y-49591830D01*
X35063609Y-49591830D02*
X35039800Y-49639449D01*
X35039800Y-49639449D02*
X34992180Y-49687068D01*
X34992180Y-49687068D02*
X34896942Y-49710877D01*
X34896942Y-49710877D02*
X34730276Y-49710877D01*
X34730276Y-49710877D02*
X34635038Y-49687068D01*
X34635038Y-49687068D02*
X34587419Y-49639449D01*
X34587419Y-49639449D02*
X34563609Y-49591830D01*
G36*
X55753177Y-58836071D02*
G01*
X55751187Y-58839522D01*
X55749245Y-58842910D01*
X55736178Y-58867464D01*
X55718009Y-58893002D01*
X55710050Y-58897791D01*
X55701250Y-58891019D01*
X55699279Y-58888986D01*
X55686771Y-58875077D01*
X55663140Y-58857854D01*
X55646091Y-58849839D01*
X55624987Y-58843203D01*
X55599403Y-58838682D01*
X55568914Y-58837011D01*
X55541223Y-58838341D01*
X55515373Y-58842177D01*
X55468176Y-58856926D01*
X55427670Y-58880235D01*
X55394731Y-58910940D01*
X55370822Y-58947185D01*
X55362778Y-58966510D01*
X55357622Y-58985845D01*
X55355287Y-59009606D01*
X55360492Y-59045700D01*
X55376444Y-59082349D01*
X55387951Y-59098726D01*
X55401440Y-59112985D01*
X55409186Y-59119411D01*
X55424921Y-59129442D01*
X55443564Y-59137787D01*
X55491820Y-59149553D01*
X55518948Y-59152793D01*
X55519744Y-59152863D01*
X55569070Y-59158372D01*
X55592084Y-59163186D01*
X55612848Y-59170446D01*
X55630499Y-59180959D01*
X55644176Y-59195531D01*
X55653014Y-59214967D01*
X55656152Y-59240073D01*
X55654775Y-59257758D01*
X55650606Y-59275597D01*
X55643675Y-59293007D01*
X55633899Y-59309779D01*
X55621799Y-59324903D01*
X55606984Y-59338732D01*
X55590296Y-59350388D01*
X55571056Y-59360254D01*
X55550065Y-59367788D01*
X55526630Y-59373114D01*
X55485652Y-59376379D01*
X55457136Y-59375058D01*
X55432062Y-59371285D01*
X55410424Y-59365407D01*
X55391768Y-59357676D01*
X55362256Y-59337411D01*
X55341729Y-59311467D01*
X55329439Y-59280385D01*
X55325690Y-59245878D01*
X55325881Y-59241056D01*
X55282796Y-59241868D01*
X55273234Y-59303075D01*
X55261121Y-59352932D01*
X55240652Y-59416942D01*
X55282796Y-59424379D01*
X55299690Y-59384949D01*
X55310072Y-59365078D01*
X55318059Y-59356546D01*
X55324632Y-59360464D01*
X55328830Y-59365052D01*
X55356271Y-59388330D01*
X55392684Y-59406191D01*
X55437944Y-59417920D01*
X55491508Y-59422413D01*
X55519763Y-59421080D01*
X55546054Y-59417225D01*
X55570752Y-59410942D01*
X55593423Y-59402498D01*
X55633662Y-59379289D01*
X55666390Y-59348568D01*
X55690691Y-59311622D01*
X55705241Y-59270632D01*
X55709067Y-59236141D01*
X55707724Y-59215301D01*
X55703795Y-59196630D01*
X55697668Y-59180520D01*
X55689392Y-59166243D01*
X55666484Y-59142451D01*
X55633778Y-59123906D01*
X55588442Y-59110515D01*
X55535618Y-59103725D01*
X55534249Y-59103630D01*
X55496586Y-59099693D01*
X55475650Y-59095050D01*
X55455254Y-59087408D01*
X55436854Y-59075857D01*
X55421908Y-59059483D01*
X55411872Y-59037375D01*
X55408203Y-59008622D01*
X55413545Y-58976721D01*
X55429687Y-58946037D01*
X55441844Y-58931814D01*
X55456492Y-58918920D01*
X55473628Y-58907548D01*
X55493056Y-58898036D01*
X55514437Y-58890705D01*
X55537841Y-58885703D01*
X55572847Y-58883088D01*
X55598159Y-58884463D01*
X55621585Y-58888622D01*
X55641005Y-58894881D01*
X55658288Y-58903531D01*
X55671886Y-58913472D01*
X55683300Y-58925435D01*
X55691804Y-58938444D01*
X55698067Y-58953260D01*
X55701870Y-58969543D01*
X55703211Y-58987599D01*
X55703211Y-58988021D01*
X55699279Y-59022343D01*
X55740440Y-59030207D01*
X55751411Y-58974095D01*
X55762233Y-58934911D01*
X55778175Y-58887396D01*
X55793355Y-58847953D01*
X55753177Y-58836071D01*
G37*
G36*
X55936885Y-58853424D02*
G01*
X55878071Y-59059529D01*
X55926071Y-59059529D01*
X55972147Y-58899501D01*
X56138757Y-58899501D01*
X56040749Y-59359966D01*
X55923164Y-59359966D01*
X55912350Y-59406000D01*
X56198511Y-59406000D01*
X56208342Y-59359966D01*
X56088749Y-59359966D01*
X56185774Y-58899501D01*
X56353367Y-58899501D01*
X56330842Y-59059529D01*
X56377859Y-59059529D01*
X56407266Y-58853424D01*
X55936885Y-58853424D01*
G37*
G36*
X56474329Y-58853424D02*
G01*
X56464541Y-58899501D01*
X56532159Y-58899501D01*
X56419447Y-59359966D01*
X56359693Y-59359966D01*
X56349905Y-59406000D01*
X56561566Y-59406000D01*
X56571354Y-59359966D01*
X56464541Y-59359966D01*
X56576270Y-58899501D01*
X56593922Y-58899501D01*
X56646837Y-59263752D01*
X56696803Y-59263752D01*
X56907481Y-58899501D01*
X56924151Y-58899501D01*
X56834990Y-59359966D01*
X56727193Y-59359966D01*
X56717363Y-59406000D01*
X56939837Y-59406000D01*
X56946676Y-59359966D01*
X56882007Y-59359966D01*
X56972193Y-58899501D01*
X57032930Y-58899501D01*
X57042718Y-58853424D01*
X56888888Y-58853424D01*
X56696803Y-59185363D01*
X56680134Y-59185363D01*
X56634100Y-58853424D01*
X56474329Y-58853424D01*
G37*
G36*
X57025536Y-59370694D02*
G01*
X57036499Y-59375671D01*
X57047078Y-59380482D01*
X57082064Y-59395713D01*
X57116674Y-59408174D01*
X57153479Y-59416588D01*
X57195053Y-59419677D01*
X57247038Y-59414447D01*
X57295742Y-59399090D01*
X57339932Y-59374194D01*
X57377826Y-59340772D01*
X57393777Y-59321354D01*
X57407287Y-59300653D01*
X57418190Y-59278982D01*
X57426385Y-59256545D01*
X57431635Y-59234166D01*
X57434046Y-59211535D01*
X57434197Y-59204340D01*
X57428893Y-59166920D01*
X57413278Y-59132504D01*
X57401874Y-59117225D01*
X57388270Y-59103615D01*
X57356790Y-59083208D01*
X57397987Y-59054825D01*
X57428386Y-59022260D01*
X57449076Y-58986515D01*
X57460563Y-58949710D01*
X57463604Y-58918949D01*
X57458357Y-58884764D01*
X57443070Y-58854268D01*
X57418271Y-58828674D01*
X57384819Y-58809833D01*
X57365320Y-58803604D01*
X57344421Y-58799844D01*
X57324434Y-58798714D01*
X57277300Y-58803899D01*
X57227715Y-58819886D01*
X57166141Y-58850446D01*
X57145087Y-58862358D01*
X57161756Y-58901382D01*
X57172175Y-58895949D01*
X57182315Y-58890653D01*
X57188800Y-58887171D01*
X57217391Y-58872215D01*
X57248220Y-58858572D01*
X57281528Y-58848634D01*
X57317553Y-58844790D01*
X57335099Y-58846165D01*
X57352418Y-58850316D01*
X57368123Y-58856939D01*
X57382292Y-58866186D01*
X57393102Y-58876671D01*
X57401715Y-58889296D01*
X57407217Y-58902535D01*
X57410222Y-58917553D01*
X57410689Y-58926771D01*
X57408837Y-58947558D01*
X57401346Y-58973604D01*
X57392413Y-58991612D01*
X57379353Y-59010098D01*
X57361663Y-59028241D01*
X57329151Y-59050240D01*
X57294306Y-59062219D01*
X57253249Y-59066805D01*
X57238580Y-59067255D01*
X57238180Y-59067265D01*
X57228392Y-59113299D01*
X57234233Y-59113093D01*
X57284343Y-59113351D01*
X57310657Y-59117315D01*
X57334222Y-59126036D01*
X57357755Y-59144551D01*
X57373890Y-59169882D01*
X57381089Y-59199656D01*
X57381282Y-59205323D01*
X57376053Y-59246672D01*
X57360769Y-59284519D01*
X57335936Y-59317887D01*
X57302378Y-59345134D01*
X57261820Y-59364172D01*
X57239809Y-59369981D01*
X57217035Y-59373111D01*
X57202917Y-59373643D01*
X57154110Y-59368249D01*
X57099877Y-59351121D01*
X57051994Y-59328636D01*
X57025536Y-59370694D01*
G37*
G36*
X57970701Y-59263197D02*
G01*
X57951082Y-59359966D01*
X57680607Y-59359966D01*
X57680607Y-59358000D01*
X57838980Y-59244118D01*
X57912618Y-59186645D01*
X57972043Y-59136889D01*
X58020667Y-59090175D01*
X58021162Y-59089582D01*
X58039074Y-59066964D01*
X58059193Y-59034797D01*
X58075602Y-58993261D01*
X58080568Y-58969038D01*
X58082387Y-58942543D01*
X58077188Y-58903780D01*
X58062143Y-58869252D01*
X58037889Y-58839754D01*
X58005351Y-58816843D01*
X57966502Y-58802609D01*
X57931506Y-58798714D01*
X57881727Y-58803953D01*
X57831925Y-58819786D01*
X57782607Y-58846541D01*
X57734506Y-58884883D01*
X57719802Y-58949381D01*
X57771734Y-58949381D01*
X57782348Y-58918216D01*
X57801577Y-58892590D01*
X57829516Y-58871752D01*
X57865984Y-58856186D01*
X57905974Y-58847650D01*
X57918726Y-58846757D01*
X57953794Y-58851955D01*
X57985896Y-58867227D01*
X57999518Y-58878137D01*
X58011000Y-58890895D01*
X58019718Y-58904708D01*
X58025835Y-58919807D01*
X58029472Y-58944509D01*
X58026980Y-58971228D01*
X58015007Y-59011164D01*
X58004143Y-59032710D01*
X57988963Y-59055049D01*
X57975573Y-59070599D01*
X57927830Y-59113620D01*
X57802363Y-59213145D01*
X57614955Y-59353127D01*
X57604184Y-59406000D01*
X57986345Y-59406000D01*
X58016734Y-59263197D01*
X57970701Y-59263197D01*
G37*
G36*
X58285713Y-58853424D02*
G01*
X58275882Y-58899501D01*
X58373891Y-58899501D01*
X58275882Y-59359966D01*
X58177916Y-59359966D01*
X58168086Y-59406000D01*
X58641416Y-59406000D01*
X58705145Y-59161641D01*
X58658086Y-59161641D01*
X58602221Y-59359966D01*
X58324908Y-59359966D01*
X58422916Y-58899501D01*
X58543450Y-58899501D01*
X58553238Y-58853424D01*
X58285713Y-58853424D01*
G37*
G36*
X59121072Y-59216736D02*
G01*
X59209293Y-59216736D01*
X59199505Y-59263752D01*
X59110301Y-59263752D01*
X59089742Y-59359966D01*
X59177920Y-59359966D01*
X59169115Y-59406000D01*
X58900607Y-59406000D01*
X58909412Y-59359966D01*
X59041700Y-59359966D01*
X59063285Y-59263752D01*
X58800632Y-59263752D01*
X58810995Y-59216736D01*
X58860429Y-59216736D01*
X59073073Y-59216736D01*
X59148513Y-58861460D01*
X59146590Y-58859494D01*
X58860429Y-59216736D01*
X58810995Y-59216736D01*
X58813369Y-59205965D01*
X59141674Y-58798714D01*
X59209293Y-58798714D01*
X59121072Y-59216736D01*
G37*
G36*
X59999046Y-58853424D02*
G01*
X59989258Y-58899501D01*
X60056877Y-58899501D01*
X59944165Y-59359966D01*
X59884411Y-59359966D01*
X59874623Y-59406000D01*
X60086284Y-59406000D01*
X60096072Y-59359966D01*
X59989258Y-59359966D01*
X60100987Y-58899501D01*
X60118640Y-58899501D01*
X60171555Y-59263752D01*
X60221521Y-59263752D01*
X60432199Y-58899501D01*
X60448868Y-58899501D01*
X60359707Y-59359966D01*
X60251911Y-59359966D01*
X60242080Y-59406000D01*
X60464555Y-59406000D01*
X60471393Y-59359966D01*
X60406724Y-59359966D01*
X60496911Y-58899501D01*
X60557648Y-58899501D01*
X60567436Y-58853424D01*
X60413606Y-58853424D01*
X60221521Y-59185363D01*
X60204851Y-59185363D01*
X60158818Y-58853424D01*
X59999046Y-58853424D01*
G37*
G36*
X60675703Y-58984729D02*
G01*
X60665872Y-59030806D01*
X60809957Y-59030806D01*
X60740372Y-59359966D01*
X60567906Y-59359966D01*
X60558075Y-59406000D01*
X60950109Y-59406000D01*
X60959897Y-59359966D01*
X60790338Y-59359966D01*
X60869711Y-58984729D01*
X60675703Y-58984729D01*
G37*
G36*
X60820728Y-58879797D02*
G01*
X60892279Y-58879797D01*
X60916770Y-58763152D01*
X60845219Y-58763152D01*
X60820728Y-58879797D01*
G37*
G36*
X61605181Y-58969128D02*
G01*
X61594809Y-58995203D01*
X61584305Y-59014585D01*
X61578078Y-59022223D01*
X61572825Y-59024950D01*
X61564020Y-59020077D01*
X61549809Y-59006903D01*
X61531196Y-58993610D01*
X61506670Y-58982002D01*
X61474720Y-58973886D01*
X61436605Y-58971052D01*
X61381926Y-58976303D01*
X61329984Y-58991806D01*
X61281660Y-59017200D01*
X61238377Y-59051877D01*
X61202057Y-59094581D01*
X61187158Y-59118326D01*
X61174808Y-59143125D01*
X61165189Y-59168550D01*
X61158339Y-59194504D01*
X61153393Y-59241783D01*
X61154722Y-59266838D01*
X61158553Y-59289636D01*
X61164702Y-59310392D01*
X61172912Y-59329036D01*
X61195436Y-59361288D01*
X61225815Y-59387063D01*
X61263891Y-59406148D01*
X61308350Y-59417382D01*
X61339579Y-59419677D01*
X61394967Y-59414691D01*
X61452057Y-59399643D01*
X61511276Y-59374359D01*
X61574791Y-59338466D01*
X61555172Y-59298417D01*
X61553701Y-59299282D01*
X61516864Y-59320252D01*
X61467940Y-59344064D01*
X61411795Y-59363585D01*
X61382537Y-59369505D01*
X61353299Y-59371677D01*
X61333559Y-59370718D01*
X61302965Y-59365369D01*
X61268246Y-59351927D01*
X61251440Y-59341013D01*
X61236125Y-59326686D01*
X61225555Y-59312525D01*
X61216888Y-59295672D01*
X61210989Y-59277704D01*
X61207363Y-59257110D01*
X61206308Y-59236910D01*
X61211722Y-59192227D01*
X61218666Y-59169052D01*
X61228375Y-59146253D01*
X61240721Y-59124326D01*
X61255707Y-59103502D01*
X61272622Y-59084799D01*
X61291911Y-59067788D01*
X61312406Y-59053485D01*
X61334972Y-59041289D01*
X61358322Y-59031898D01*
X61383483Y-59024908D01*
X61409342Y-59020677D01*
X61436818Y-59019100D01*
X61438571Y-59019094D01*
X61467150Y-59020414D01*
X61491057Y-59024178D01*
X61509796Y-59029746D01*
X61525046Y-59037006D01*
X61536969Y-59045543D01*
X61546197Y-59055236D01*
X61558362Y-59078573D01*
X61563358Y-59108687D01*
X61563082Y-59138128D01*
X61563037Y-59139244D01*
X61605181Y-59133345D01*
X61610651Y-59083067D01*
X61619579Y-59039430D01*
X61640443Y-58976523D01*
X61605181Y-58969128D01*
G37*
G36*
X61806498Y-58984729D02*
G01*
X61796710Y-59030806D01*
X61911345Y-59030806D01*
X61840778Y-59359966D01*
X61718320Y-59359966D01*
X61708490Y-59406000D01*
X62066202Y-59406000D01*
X62075990Y-59359966D01*
X61890786Y-59359966D01*
X61932930Y-59161085D01*
X61957401Y-59131625D01*
X61987604Y-59100434D01*
X62015938Y-59075528D01*
X62046357Y-59053423D01*
X62070846Y-59039361D01*
X62095691Y-59028916D01*
X62115695Y-59023706D01*
X62135469Y-59021830D01*
X62135786Y-59021830D01*
X62151053Y-59023134D01*
X62163590Y-59026789D01*
X62181808Y-59039613D01*
X62194361Y-59060024D01*
X62201439Y-59080644D01*
X62256320Y-59074745D01*
X62250610Y-59053285D01*
X62243168Y-59035105D01*
X62223824Y-59006847D01*
X62199531Y-58987836D01*
X62171505Y-58977004D01*
X62142625Y-58973787D01*
X62098274Y-58978852D01*
X62056070Y-58993764D01*
X62014607Y-59018827D01*
X61972060Y-59055207D01*
X61952506Y-59074745D01*
X61950540Y-59072779D01*
X61970159Y-58984729D01*
X61806498Y-58984729D01*
G37*
G36*
X62645577Y-58967645D02*
G01*
X62694131Y-58978555D01*
X62734221Y-58997574D01*
X62765906Y-59023704D01*
X62789318Y-59056639D01*
X62797870Y-59075782D01*
X62804163Y-59096723D01*
X62808106Y-59119801D01*
X62809451Y-59144715D01*
X62809403Y-59149327D01*
X62807436Y-59175049D01*
X62802620Y-59201014D01*
X62795004Y-59226922D01*
X62784640Y-59252451D01*
X62756632Y-59300094D01*
X62720239Y-59341353D01*
X62676980Y-59374683D01*
X62627935Y-59399235D01*
X62573701Y-59414439D01*
X62544837Y-59418338D01*
X62514485Y-59419677D01*
X62476567Y-59417297D01*
X62428080Y-59406083D01*
X62388166Y-59387010D01*
X62356743Y-59361066D01*
X62333569Y-59328459D01*
X62325107Y-59309496D01*
X62318856Y-59288647D01*
X62314937Y-59265606D01*
X62313595Y-59240586D01*
X62313673Y-59234730D01*
X62366510Y-59234730D01*
X62370530Y-59270114D01*
X62383664Y-59304554D01*
X62405039Y-59332790D01*
X62434612Y-59354354D01*
X62452721Y-59362423D01*
X62473237Y-59368474D01*
X62496483Y-59372313D01*
X62522349Y-59373643D01*
X62526310Y-59373613D01*
X62553019Y-59371776D01*
X62578298Y-59367255D01*
X62603233Y-59359868D01*
X62626491Y-59350026D01*
X62649203Y-59337231D01*
X62669919Y-59322281D01*
X62689490Y-59304557D01*
X62706708Y-59285134D01*
X62721891Y-59263751D01*
X62734426Y-59241330D01*
X62751155Y-59195266D01*
X62756536Y-59151553D01*
X62753349Y-59118971D01*
X62740816Y-59083172D01*
X62719579Y-59053862D01*
X62705777Y-59041750D01*
X62689873Y-59031479D01*
X62671682Y-59023110D01*
X62651406Y-59016919D01*
X62628598Y-59012999D01*
X62603688Y-59011657D01*
X62597002Y-59011740D01*
X62569826Y-59013829D01*
X62544137Y-59018575D01*
X62518978Y-59026127D01*
X62495541Y-59036095D01*
X62472852Y-59048894D01*
X62452178Y-59063810D01*
X62432804Y-59081348D01*
X62415767Y-59100572D01*
X62400806Y-59121687D01*
X62388446Y-59143897D01*
X62371893Y-59189969D01*
X62366510Y-59234730D01*
X62313673Y-59234730D01*
X62313674Y-59234651D01*
X62315784Y-59208965D01*
X62320740Y-59182958D01*
X62338907Y-59131631D01*
X62366942Y-59084273D01*
X62403249Y-59043366D01*
X62446446Y-59010333D01*
X62495620Y-58985957D01*
X62550336Y-58970816D01*
X62579631Y-58966919D01*
X62610527Y-58965581D01*
X62645577Y-58967645D01*
G37*
G36*
X63065692Y-59094962D02*
G01*
X63065692Y-59148861D01*
X63273421Y-59148861D01*
X63273421Y-59094962D01*
X63065692Y-59094962D01*
G37*
G36*
X63521797Y-58853424D02*
G01*
X63512009Y-58899501D01*
X63579628Y-58899501D01*
X63663916Y-59406000D01*
X63723713Y-59406000D01*
X64027484Y-58899501D01*
X64087281Y-58899501D01*
X64097069Y-58853424D01*
X63888314Y-58853424D01*
X63878526Y-58899501D01*
X63978501Y-58899501D01*
X63706060Y-59351161D01*
X63628654Y-58899501D01*
X63723713Y-58899501D01*
X63731535Y-58853424D01*
X63521797Y-58853424D01*
G37*
G36*
X64153360Y-58853424D02*
G01*
X64143572Y-58899501D01*
X64196488Y-58899501D01*
X64314072Y-59115479D01*
X64075954Y-59359966D01*
X64026971Y-59359966D01*
X64017140Y-59406000D01*
X64225894Y-59406000D01*
X64236666Y-59359966D01*
X64132801Y-59359966D01*
X64333691Y-59151810D01*
X64442471Y-59359966D01*
X64351344Y-59359966D01*
X64343479Y-59406000D01*
X64541462Y-59406000D01*
X64551250Y-59359966D01*
X64499318Y-59359966D01*
X64368954Y-59115479D01*
X64580657Y-58899501D01*
X64630623Y-58899501D01*
X64640411Y-58853424D01*
X64460123Y-58853424D01*
X64450293Y-58899501D01*
X64523810Y-58899501D01*
X64351344Y-59079190D01*
X64253335Y-58899501D01*
X64333691Y-58899501D01*
X64343479Y-58853424D01*
X64153360Y-58853424D01*
G37*
X35003133Y-47735163D02*
X35003133Y-47354211D01*
X35193609Y-47544687D02*
X34812657Y-47544687D01*
D11*
X69981678Y-36794173D02*
X70362631Y-36794173D01*
X70172154Y-36984649D02*
X70172154Y-36603697D01*
X60318480Y-47409497D02*
X60699433Y-47409497D01*
X60508956Y-47599973D02*
X60508956Y-47219021D01*
D10*
X46495163Y-36796866D02*
X46114211Y-36796866D01*
X63491466Y-40696115D02*
X63491466Y-39934211D01*
D12*
X43647070Y-47166154D02*
X43647070Y-47344726D01*
X43647070Y-47344726D02*
X43635165Y-47380440D01*
X43635165Y-47380440D02*
X43611356Y-47404250D01*
X43611356Y-47404250D02*
X43575641Y-47416154D01*
X43575641Y-47416154D02*
X43551832Y-47416154D01*
X43885165Y-47416154D02*
X43766117Y-47416154D01*
X43766117Y-47416154D02*
X43766117Y-47166154D01*
X44111355Y-47392345D02*
X44099451Y-47404250D01*
X44099451Y-47404250D02*
X44063736Y-47416154D01*
X44063736Y-47416154D02*
X44039927Y-47416154D01*
X44039927Y-47416154D02*
X44004213Y-47404250D01*
X44004213Y-47404250D02*
X43980403Y-47380440D01*
X43980403Y-47380440D02*
X43968498Y-47356630D01*
X43968498Y-47356630D02*
X43956594Y-47309011D01*
X43956594Y-47309011D02*
X43956594Y-47273297D01*
X43956594Y-47273297D02*
X43968498Y-47225678D01*
X43968498Y-47225678D02*
X43980403Y-47201869D01*
X43980403Y-47201869D02*
X44004213Y-47178059D01*
X44004213Y-47178059D02*
X44039927Y-47166154D01*
X44039927Y-47166154D02*
X44063736Y-47166154D01*
X44063736Y-47166154D02*
X44099451Y-47178059D01*
X44099451Y-47178059D02*
X44111355Y-47189964D01*
X44289927Y-47166154D02*
X44289927Y-47344726D01*
X44289927Y-47344726D02*
X44278022Y-47380440D01*
X44278022Y-47380440D02*
X44254213Y-47404250D01*
X44254213Y-47404250D02*
X44218498Y-47416154D01*
X44218498Y-47416154D02*
X44194689Y-47416154D01*
X44528022Y-47416154D02*
X44408974Y-47416154D01*
X44408974Y-47416154D02*
X44408974Y-47166154D01*
X44754212Y-47392345D02*
X44742308Y-47404250D01*
X44742308Y-47404250D02*
X44706593Y-47416154D01*
X44706593Y-47416154D02*
X44682784Y-47416154D01*
X44682784Y-47416154D02*
X44647070Y-47404250D01*
X44647070Y-47404250D02*
X44623260Y-47380440D01*
X44623260Y-47380440D02*
X44611355Y-47356630D01*
X44611355Y-47356630D02*
X44599451Y-47309011D01*
X44599451Y-47309011D02*
X44599451Y-47273297D01*
X44599451Y-47273297D02*
X44611355Y-47225678D01*
X44611355Y-47225678D02*
X44623260Y-47201869D01*
X44623260Y-47201869D02*
X44647070Y-47178059D01*
X44647070Y-47178059D02*
X44682784Y-47166154D01*
X44682784Y-47166154D02*
X44706593Y-47166154D01*
X44706593Y-47166154D02*
X44742308Y-47178059D01*
X44742308Y-47178059D02*
X44754212Y-47189964D01*
X44932784Y-47166154D02*
X44932784Y-47344726D01*
X44932784Y-47344726D02*
X44920879Y-47380440D01*
X44920879Y-47380440D02*
X44897070Y-47404250D01*
X44897070Y-47404250D02*
X44861355Y-47416154D01*
X44861355Y-47416154D02*
X44837546Y-47416154D01*
X45170879Y-47416154D02*
X45051831Y-47416154D01*
X45051831Y-47416154D02*
X45051831Y-47166154D01*
X45397069Y-47392345D02*
X45385165Y-47404250D01*
X45385165Y-47404250D02*
X45349450Y-47416154D01*
X45349450Y-47416154D02*
X45325641Y-47416154D01*
X45325641Y-47416154D02*
X45289927Y-47404250D01*
X45289927Y-47404250D02*
X45266117Y-47380440D01*
X45266117Y-47380440D02*
X45254212Y-47356630D01*
X45254212Y-47356630D02*
X45242308Y-47309011D01*
X45242308Y-47309011D02*
X45242308Y-47273297D01*
X45242308Y-47273297D02*
X45254212Y-47225678D01*
X45254212Y-47225678D02*
X45266117Y-47201869D01*
X45266117Y-47201869D02*
X45289927Y-47178059D01*
X45289927Y-47178059D02*
X45325641Y-47166154D01*
X45325641Y-47166154D02*
X45349450Y-47166154D01*
X45349450Y-47166154D02*
X45385165Y-47178059D01*
X45385165Y-47178059D02*
X45397069Y-47189964D01*
X45575641Y-47166154D02*
X45575641Y-47344726D01*
X45575641Y-47344726D02*
X45563736Y-47380440D01*
X45563736Y-47380440D02*
X45539927Y-47404250D01*
X45539927Y-47404250D02*
X45504212Y-47416154D01*
X45504212Y-47416154D02*
X45480403Y-47416154D01*
X45813736Y-47416154D02*
X45694688Y-47416154D01*
X45694688Y-47416154D02*
X45694688Y-47166154D01*
X46039926Y-47392345D02*
X46028022Y-47404250D01*
X46028022Y-47404250D02*
X45992307Y-47416154D01*
X45992307Y-47416154D02*
X45968498Y-47416154D01*
X45968498Y-47416154D02*
X45932784Y-47404250D01*
X45932784Y-47404250D02*
X45908974Y-47380440D01*
X45908974Y-47380440D02*
X45897069Y-47356630D01*
X45897069Y-47356630D02*
X45885165Y-47309011D01*
X45885165Y-47309011D02*
X45885165Y-47273297D01*
X45885165Y-47273297D02*
X45897069Y-47225678D01*
X45897069Y-47225678D02*
X45908974Y-47201869D01*
X45908974Y-47201869D02*
X45932784Y-47178059D01*
X45932784Y-47178059D02*
X45968498Y-47166154D01*
X45968498Y-47166154D02*
X45992307Y-47166154D01*
X45992307Y-47166154D02*
X46028022Y-47178059D01*
X46028022Y-47178059D02*
X46039926Y-47189964D01*
D10*
X36137217Y-41278609D02*
X36280074Y-41326228D01*
X36280074Y-41326228D02*
X36327693Y-41373847D01*
X36327693Y-41373847D02*
X36375312Y-41469085D01*
X36375312Y-41469085D02*
X36375312Y-41611942D01*
X36375312Y-41611942D02*
X36327693Y-41707180D01*
X36327693Y-41707180D02*
X36280074Y-41754800D01*
X36280074Y-41754800D02*
X36184836Y-41802419D01*
X36184836Y-41802419D02*
X35803884Y-41802419D01*
X35803884Y-41802419D02*
X35803884Y-40802419D01*
X35803884Y-40802419D02*
X36137217Y-40802419D01*
X36137217Y-40802419D02*
X36232455Y-40850038D01*
X36232455Y-40850038D02*
X36280074Y-40897657D01*
X36280074Y-40897657D02*
X36327693Y-40992895D01*
X36327693Y-40992895D02*
X36327693Y-41088133D01*
X36327693Y-41088133D02*
X36280074Y-41183371D01*
X36280074Y-41183371D02*
X36232455Y-41230990D01*
X36232455Y-41230990D02*
X36137217Y-41278609D01*
X36137217Y-41278609D02*
X35803884Y-41278609D01*
X36946741Y-41802419D02*
X36851503Y-41754800D01*
X36851503Y-41754800D02*
X36803884Y-41707180D01*
X36803884Y-41707180D02*
X36756265Y-41611942D01*
X36756265Y-41611942D02*
X36756265Y-41326228D01*
X36756265Y-41326228D02*
X36803884Y-41230990D01*
X36803884Y-41230990D02*
X36851503Y-41183371D01*
X36851503Y-41183371D02*
X36946741Y-41135752D01*
X36946741Y-41135752D02*
X37089598Y-41135752D01*
X37089598Y-41135752D02*
X37184836Y-41183371D01*
X37184836Y-41183371D02*
X37232455Y-41230990D01*
X37232455Y-41230990D02*
X37280074Y-41326228D01*
X37280074Y-41326228D02*
X37280074Y-41611942D01*
X37280074Y-41611942D02*
X37232455Y-41707180D01*
X37232455Y-41707180D02*
X37184836Y-41754800D01*
X37184836Y-41754800D02*
X37089598Y-41802419D01*
X37089598Y-41802419D02*
X36946741Y-41802419D01*
X37851503Y-41802419D02*
X37756265Y-41754800D01*
X37756265Y-41754800D02*
X37708646Y-41707180D01*
X37708646Y-41707180D02*
X37661027Y-41611942D01*
X37661027Y-41611942D02*
X37661027Y-41326228D01*
X37661027Y-41326228D02*
X37708646Y-41230990D01*
X37708646Y-41230990D02*
X37756265Y-41183371D01*
X37756265Y-41183371D02*
X37851503Y-41135752D01*
X37851503Y-41135752D02*
X37994360Y-41135752D01*
X37994360Y-41135752D02*
X38089598Y-41183371D01*
X38089598Y-41183371D02*
X38137217Y-41230990D01*
X38137217Y-41230990D02*
X38184836Y-41326228D01*
X38184836Y-41326228D02*
X38184836Y-41611942D01*
X38184836Y-41611942D02*
X38137217Y-41707180D01*
X38137217Y-41707180D02*
X38089598Y-41754800D01*
X38089598Y-41754800D02*
X37994360Y-41802419D01*
X37994360Y-41802419D02*
X37851503Y-41802419D01*
X38470551Y-41135752D02*
X38851503Y-41135752D01*
X38613408Y-40802419D02*
X38613408Y-41659561D01*
X38613408Y-41659561D02*
X38661027Y-41754800D01*
X38661027Y-41754800D02*
X38756265Y-41802419D01*
X38756265Y-41802419D02*
X38851503Y-41802419D01*
X39113985Y-56984805D02*
X39590176Y-56984805D01*
X38590176Y-57318138D02*
X39113985Y-56984805D01*
X39113985Y-56984805D02*
X38590176Y-56651472D01*
X48985163Y-36826866D02*
X48604211Y-36826866D01*
X48794687Y-36636390D02*
X48794687Y-37017342D01*
X34823133Y-55325163D02*
X34823133Y-54944211D01*
X67113884Y-38842419D02*
X67113884Y-37842419D01*
X67113884Y-37842419D02*
X67494836Y-37842419D01*
X67494836Y-37842419D02*
X67590074Y-37890038D01*
X67590074Y-37890038D02*
X67637693Y-37937657D01*
X67637693Y-37937657D02*
X67685312Y-38032895D01*
X67685312Y-38032895D02*
X67685312Y-38175752D01*
X67685312Y-38175752D02*
X67637693Y-38270990D01*
X67637693Y-38270990D02*
X67590074Y-38318609D01*
X67590074Y-38318609D02*
X67494836Y-38366228D01*
X67494836Y-38366228D02*
X67113884Y-38366228D01*
X68256741Y-38842419D02*
X68161503Y-38794800D01*
X68161503Y-38794800D02*
X68113884Y-38747180D01*
X68113884Y-38747180D02*
X68066265Y-38651942D01*
X68066265Y-38651942D02*
X68066265Y-38366228D01*
X68066265Y-38366228D02*
X68113884Y-38270990D01*
X68113884Y-38270990D02*
X68161503Y-38223371D01*
X68161503Y-38223371D02*
X68256741Y-38175752D01*
X68256741Y-38175752D02*
X68399598Y-38175752D01*
X68399598Y-38175752D02*
X68494836Y-38223371D01*
X68494836Y-38223371D02*
X68542455Y-38270990D01*
X68542455Y-38270990D02*
X68590074Y-38366228D01*
X68590074Y-38366228D02*
X68590074Y-38651942D01*
X68590074Y-38651942D02*
X68542455Y-38747180D01*
X68542455Y-38747180D02*
X68494836Y-38794800D01*
X68494836Y-38794800D02*
X68399598Y-38842419D01*
X68399598Y-38842419D02*
X68256741Y-38842419D01*
X68923408Y-38175752D02*
X69113884Y-38842419D01*
X69113884Y-38842419D02*
X69304360Y-38366228D01*
X69304360Y-38366228D02*
X69494836Y-38842419D01*
X69494836Y-38842419D02*
X69685312Y-38175752D01*
X70447217Y-38794800D02*
X70351979Y-38842419D01*
X70351979Y-38842419D02*
X70161503Y-38842419D01*
X70161503Y-38842419D02*
X70066265Y-38794800D01*
X70066265Y-38794800D02*
X70018646Y-38699561D01*
X70018646Y-38699561D02*
X70018646Y-38318609D01*
X70018646Y-38318609D02*
X70066265Y-38223371D01*
X70066265Y-38223371D02*
X70161503Y-38175752D01*
X70161503Y-38175752D02*
X70351979Y-38175752D01*
X70351979Y-38175752D02*
X70447217Y-38223371D01*
X70447217Y-38223371D02*
X70494836Y-38318609D01*
X70494836Y-38318609D02*
X70494836Y-38413847D01*
X70494836Y-38413847D02*
X70018646Y-38509085D01*
X70923408Y-38842419D02*
X70923408Y-38175752D01*
X70923408Y-38366228D02*
X70971027Y-38270990D01*
X70971027Y-38270990D02*
X71018646Y-38223371D01*
X71018646Y-38223371D02*
X71113884Y-38175752D01*
X71113884Y-38175752D02*
X71209122Y-38175752D01*
D13*
%TO.C,C15*%
X52084420Y-58990000D02*
X52365580Y-58990000D01*
X52084420Y-60010000D02*
X52365580Y-60010000D01*
%TO.C,R9*%
X47620000Y-59143641D02*
X47620000Y-58836359D01*
X48380000Y-59143641D02*
X48380000Y-58836359D01*
%TO.C,R7*%
X48870000Y-59163641D02*
X48870000Y-58856359D01*
X49630000Y-59163641D02*
X49630000Y-58856359D01*
%TO.C,R8*%
X46370000Y-59143641D02*
X46370000Y-58836359D01*
X47130000Y-59143641D02*
X47130000Y-58836359D01*
D14*
%TO.C,MIC1*%
X52318600Y-62295500D02*
G75*
G02*
X48318600Y-62295500I-2000000J0D01*
G01*
X48318600Y-62295500D02*
G75*
G02*
X52318600Y-62295500I2000000J0D01*
G01*
D13*
%TO.C,C8*%
X56654450Y-47324676D02*
X55231946Y-47324676D01*
X56654450Y-49144676D02*
X55231946Y-49144676D01*
%TO.C,C5*%
X47038198Y-54636596D02*
X47038198Y-54917756D01*
X48058198Y-54636596D02*
X48058198Y-54917756D01*
%TO.C,C7*%
X43421034Y-51934676D02*
X43205362Y-51934676D01*
X43421034Y-52654676D02*
X43205362Y-52654676D01*
%TO.C,R1*%
X36299557Y-39454676D02*
X36606839Y-39454676D01*
X36299557Y-40214676D02*
X36606839Y-40214676D01*
%TO.C,R2*%
X65573641Y-35800000D02*
X65266359Y-35800000D01*
X65573641Y-36560000D02*
X65266359Y-36560000D01*
%TO.C,C6*%
X49228198Y-54601596D02*
X49228198Y-54882756D01*
X50248198Y-54601596D02*
X50248198Y-54882756D01*
%TO.C,R6*%
X44249557Y-39454676D02*
X44556839Y-39454676D01*
X44249557Y-40214676D02*
X44556839Y-40214676D01*
%TO.C,C9*%
X50058198Y-41323424D02*
X50058198Y-42745928D01*
X51878198Y-41323424D02*
X51878198Y-42745928D01*
%TO.C,D1*%
X67277500Y-35440000D02*
X67277500Y-36910000D01*
X67277500Y-36910000D02*
X69562500Y-36910000D01*
X69562500Y-35440000D02*
X67277500Y-35440000D01*
%TO.C,C11*%
X53356946Y-53874676D02*
X54779450Y-53874676D01*
X53356946Y-55694676D02*
X54779450Y-55694676D01*
%TO.C,J3*%
X44863198Y-33204676D02*
X46193198Y-33204676D01*
X44863198Y-34534676D02*
X44863198Y-33204676D01*
X47463198Y-33204676D02*
X55143198Y-33204676D01*
X47463198Y-35864676D02*
X47463198Y-33204676D01*
X47463198Y-35864676D02*
X55143198Y-35864676D01*
X55143198Y-35864676D02*
X55143198Y-33204676D01*
%TO.C,C10*%
X52103198Y-51479096D02*
X52103198Y-51760256D01*
X53123198Y-51479096D02*
X53123198Y-51760256D01*
%TO.C,U4*%
X59483198Y-53392176D02*
X59483198Y-52592176D01*
X59483198Y-53392176D02*
X59483198Y-54192176D01*
X62603198Y-53392176D02*
X62603198Y-52592176D01*
X62603198Y-53392176D02*
X62603198Y-54192176D01*
X59533198Y-54692176D02*
X59203198Y-54932176D01*
X59203198Y-54452176D01*
X59533198Y-54692176D01*
G36*
X59533198Y-54692176D02*
G01*
X59203198Y-54932176D01*
X59203198Y-54452176D01*
X59533198Y-54692176D01*
G37*
%TO.C,C1*%
X42556034Y-50337176D02*
X42340362Y-50337176D01*
X42556034Y-51057176D02*
X42340362Y-51057176D01*
%TO.C,U1*%
X42170698Y-44274676D02*
X42645698Y-44274676D01*
X42170698Y-44749676D02*
X42170698Y-44274676D01*
X42170698Y-49019676D02*
X42170698Y-49194676D01*
X42645698Y-49494676D02*
X42410698Y-49494676D01*
X47390698Y-44274676D02*
X46915698Y-44274676D01*
X47390698Y-44749676D02*
X47390698Y-44274676D01*
X47390698Y-49019676D02*
X47390698Y-49494676D01*
X47390698Y-49494676D02*
X46915698Y-49494676D01*
X42170698Y-49494676D02*
X41840698Y-49734676D01*
X41840698Y-49254676D01*
X42170698Y-49494676D01*
G36*
X42170698Y-49494676D02*
G01*
X41840698Y-49734676D01*
X41840698Y-49254676D01*
X42170698Y-49494676D01*
G37*
%TO.C,J2*%
X31363198Y-45904676D02*
X32743198Y-45904676D01*
X31363198Y-47284676D02*
X31363198Y-45904676D01*
X31363198Y-48554676D02*
X31363198Y-56284676D01*
X31363198Y-48554676D02*
X34123198Y-48554676D01*
X31363198Y-56284676D02*
X34123198Y-56284676D01*
X34123198Y-48554676D02*
X34123198Y-56284676D01*
%TO.C,SW1*%
X29588198Y-37884676D02*
X29588198Y-38784676D01*
X29798198Y-37684676D02*
X29588198Y-37884676D01*
X29798198Y-38984676D02*
X29588198Y-38784676D01*
X29798198Y-38984676D02*
X31088198Y-38984676D01*
X31088198Y-36234676D02*
X31088198Y-41934676D01*
X31088198Y-37684676D02*
X29798198Y-37684676D01*
X32098198Y-42534676D02*
X32888198Y-42534676D01*
X32888198Y-35634676D02*
X32098198Y-35634676D01*
X33938198Y-37484676D02*
X33938198Y-39184676D01*
X33938198Y-40484676D02*
X33938198Y-40684676D01*
%TO.C,R4*%
X54983198Y-51871035D02*
X54983198Y-52178317D01*
X55743198Y-51871035D02*
X55743198Y-52178317D01*
%TO.C,R5*%
X46806839Y-39454676D02*
X46499557Y-39454676D01*
X46806839Y-40214676D02*
X46499557Y-40214676D01*
%TO.C,J4*%
X64447500Y-39880000D02*
X72287500Y-39880000D01*
X64447500Y-47120000D02*
X64447500Y-39880000D01*
X70667500Y-47120000D02*
X70667500Y-39880000D01*
X71767500Y-47120000D02*
X71767500Y-39880000D01*
X72287500Y-39880000D02*
X72287500Y-44950000D01*
X72287500Y-45550000D02*
X72287500Y-47120000D01*
X72287500Y-47120000D02*
X64447500Y-47120000D01*
X72897500Y-45690000D02*
X72287500Y-45250000D01*
X72897500Y-44810000D01*
X72897500Y-45690000D01*
G36*
X72897500Y-45690000D02*
G01*
X72287500Y-45250000D01*
X72897500Y-44810000D01*
X72897500Y-45690000D01*
G37*
%TO.C,C4*%
X44733198Y-51156840D02*
X44733198Y-51372512D01*
X45453198Y-51156840D02*
X45453198Y-51372512D01*
%TO.C,C12*%
X41882618Y-36499676D02*
X42163778Y-36499676D01*
X41882618Y-37519676D02*
X42163778Y-37519676D01*
%TO.C,FB1*%
X48101134Y-50834676D02*
X49305262Y-50834676D01*
X48101134Y-52654676D02*
X49305262Y-52654676D01*
%TO.C,D2*%
X60500000Y-42790000D02*
X60500000Y-46800000D01*
X62500000Y-42790000D02*
X60500000Y-42790000D01*
X62500000Y-42790000D02*
X62500000Y-46800000D01*
%TO.C,R3*%
X53713198Y-52158317D02*
X53713198Y-51851035D01*
X54473198Y-52158317D02*
X54473198Y-51851035D01*
%TO.C,C2*%
X47235362Y-42694676D02*
X47451034Y-42694676D01*
X47235362Y-43414676D02*
X47451034Y-43414676D01*
%TO.C,J1*%
X67433198Y-49324676D02*
X67433198Y-49704676D01*
X67433198Y-49324676D02*
X69203198Y-49324676D01*
X67433198Y-56944676D02*
X67433198Y-56564676D01*
X69203198Y-56944676D02*
X67433198Y-56944676D01*
X71483198Y-49324676D02*
X71743198Y-49324676D01*
X71743198Y-56944676D02*
X71483198Y-56944676D01*
%TO.C,C3*%
X47197618Y-41094676D02*
X47478778Y-41094676D01*
X47197618Y-42114676D02*
X47478778Y-42114676D01*
%TO.C,U2*%
X52508198Y-40174676D02*
X53768198Y-40174676D01*
X52508198Y-43934676D02*
X52508198Y-40174676D01*
X59328198Y-40174676D02*
X58068198Y-40174676D01*
X59328198Y-43934676D02*
X59328198Y-40174676D01*
X52608198Y-45214676D02*
X52278198Y-45454676D01*
X52278198Y-44974676D01*
X52608198Y-45214676D01*
G36*
X52608198Y-45214676D02*
G01*
X52278198Y-45454676D01*
X52278198Y-44974676D01*
X52608198Y-45214676D01*
G37*
%TO.C,C14*%
X40176034Y-38149676D02*
X39960362Y-38149676D01*
X40176034Y-38869676D02*
X39960362Y-38869676D01*
%TO.C,C13*%
X41960362Y-38149676D02*
X42176034Y-38149676D01*
X41960362Y-38869676D02*
X42176034Y-38869676D01*
%TD*%
M02*
